<svg width="297" height="240" viewBox="0 0 297 240" fill="none" xmlns="http://www.w3.org/2000/svg">
<g clip-path="url(#clip0_561_922)">
<path d="M0 0H296.471V240H0V0Z" fill="white"/>
<g clip-path="url(#clip1_561_922)">
<rect width="296.471" height="28.2353" fill="white"/>
<path d="M19.8205 11.8423C19.7754 11.4613 19.5924 11.1655 19.2715 10.9549C18.9507 10.7443 18.5571 10.6391 18.0909 10.6391C17.75 10.6391 17.4517 10.6942 17.196 10.8045C16.9428 10.9148 16.7448 11.0665 16.6019 11.2595C16.4615 11.4525 16.3913 11.6718 16.3913 11.9175C16.3913 12.123 16.4402 12.2997 16.538 12.4476C16.6382 12.593 16.7661 12.7146 16.9215 12.8124C17.0769 12.9076 17.2398 12.9866 17.4103 13.0492C17.5808 13.1094 17.7374 13.1583 17.8803 13.1959L18.6624 13.4064C18.8629 13.4591 19.086 13.5318 19.3317 13.6245C19.5798 13.7173 19.8167 13.8439 20.0423 14.0043C20.2704 14.1622 20.4584 14.3653 20.6063 14.6134C20.7542 14.8616 20.8282 15.1661 20.8282 15.5271C20.8282 15.9432 20.7191 16.3192 20.501 16.6551C20.2855 16.991 19.9696 17.258 19.5535 17.456C19.1399 17.654 18.6373 17.753 18.0457 17.753C17.4943 17.753 17.0167 17.664 16.6132 17.4861C16.2121 17.3081 15.8963 17.0599 15.6656 16.7416C15.4375 16.4232 15.3084 16.0535 15.2784 15.6324H16.2409C16.266 15.9232 16.3638 16.1638 16.5342 16.3543C16.7072 16.5423 16.9253 16.6827 17.1885 16.7754C17.4542 16.8657 17.7399 16.9108 18.0457 16.9108C18.4017 16.9108 18.7213 16.8531 19.0045 16.7378C19.2878 16.62 19.5122 16.4571 19.6776 16.249C19.843 16.0385 19.9258 15.7928 19.9258 15.5121C19.9258 15.2564 19.8543 15.0483 19.7114 14.8879C19.5686 14.7275 19.3806 14.5971 19.1474 14.4969C18.9143 14.3966 18.6624 14.3089 18.3917 14.2337L17.4441 13.9629C16.8425 13.79 16.3663 13.5431 16.0153 13.2222C15.6644 12.9013 15.4889 12.4815 15.4889 11.9626C15.4889 11.5314 15.6055 11.1554 15.8386 10.8346C16.0742 10.5112 16.3901 10.2606 16.7861 10.0826C17.1847 9.9021 17.6296 9.81186 18.1209 9.81186C18.6173 9.81186 19.0584 9.90085 19.4445 10.0788C19.8305 10.2543 20.1363 10.4949 20.3619 10.8007C20.59 11.1066 20.7103 11.4537 20.7229 11.8423H19.8205ZM25.8807 15.2564V11.8423H26.7681V17.6177H25.8807V16.6401H25.8205C25.6852 16.9334 25.4746 17.1828 25.1889 17.3883C24.9031 17.5914 24.5421 17.6929 24.106 17.6929C23.745 17.6929 23.4241 17.6139 23.1434 17.456C22.8626 17.2956 22.6421 17.0549 22.4816 16.7341C22.3212 16.4107 22.241 16.0034 22.241 15.5121V11.8423H23.1284V15.4519C23.1284 15.873 23.2462 16.2089 23.4818 16.4596C23.7199 16.7103 24.0232 16.8356 24.3917 16.8356C24.6123 16.8356 24.8367 16.7792 25.0648 16.6664C25.2954 16.5536 25.4884 16.3806 25.6438 16.1475C25.8017 15.9144 25.8807 15.6173 25.8807 15.2564Z" fill="#666666"/>
<path d="M56.4618 9.91714H57.5748L60.1917 16.3092H60.282L62.8989 9.91714H64.0119V17.6177H63.1396V11.7671H63.0644L60.658 17.6177H59.8157L57.4093 11.7671H57.3341V17.6177H56.4618V9.91714ZM68.1075 17.738C67.5861 17.738 67.1287 17.6139 66.7351 17.3658C66.3441 17.1176 66.0383 16.7704 65.8177 16.3242C65.5996 15.878 65.4905 15.3566 65.4905 14.7601C65.4905 14.1585 65.5996 13.6333 65.8177 13.1846C66.0383 12.7359 66.3441 12.3875 66.7351 12.1393C67.1287 11.8912 67.5861 11.7671 68.1075 11.7671C68.6289 11.7671 69.0851 11.8912 69.4762 12.1393C69.8697 12.3875 70.1755 12.7359 70.3936 13.1846C70.6142 13.6333 70.7245 14.1585 70.7245 14.7601C70.7245 15.3566 70.6142 15.878 70.3936 16.3242C70.1755 16.7704 69.8697 17.1176 69.4762 17.3658C69.0851 17.6139 68.6289 17.738 68.1075 17.738ZM68.1075 16.9409C68.5036 16.9409 68.8295 16.8394 69.0851 16.6363C69.3408 16.4333 69.5301 16.1663 69.6529 15.8354C69.7757 15.5045 69.8371 15.1461 69.8371 14.7601C69.8371 14.374 69.7757 14.0143 69.6529 13.6809C69.5301 13.3475 69.3408 13.0781 69.0851 12.8725C68.8295 12.667 68.5036 12.5642 68.1075 12.5642C67.7115 12.5642 67.3856 12.667 67.1299 12.8725C66.8742 13.0781 66.685 13.3475 66.5622 13.6809C66.4393 14.0143 66.3779 14.374 66.3779 14.7601C66.3779 15.1461 66.4393 15.5045 66.5622 15.8354C66.685 16.1663 66.8742 16.4333 67.1299 16.6363C67.3856 16.8394 67.7115 16.9409 68.1075 16.9409Z" fill="#666666"/>
<path d="M99.8942 10.7443V9.91714H105.67V10.7443H103.248V17.6177H102.316V10.7443H99.8942ZM109.842 15.2564V11.8423H110.73V17.6177H109.842V16.6401H109.782C109.647 16.9334 109.436 17.1828 109.15 17.3883C108.865 17.5914 108.504 17.6929 108.068 17.6929C107.707 17.6929 107.386 17.6139 107.105 17.456C106.824 17.2956 106.604 17.0549 106.443 16.7341C106.283 16.4107 106.203 16.0034 106.203 15.5121V11.8423H107.09V15.4519C107.09 15.873 107.208 16.2089 107.443 16.4596C107.682 16.7103 107.985 16.8356 108.353 16.8356C108.574 16.8356 108.798 16.7792 109.026 16.6664C109.257 16.5536 109.45 16.3806 109.605 16.1475C109.763 15.9144 109.842 15.6173 109.842 15.2564Z" fill="#666666"/>
<path d="M142.567 17.6177L140.461 9.91714H141.408L143.018 16.1889H143.093L144.732 9.91714H145.785L147.425 16.1889H147.5L149.109 9.91714H150.057L147.951 17.6177H146.988L145.289 11.4813H145.229L143.529 17.6177H142.567ZM152.982 17.738C152.425 17.738 151.945 17.6152 151.542 17.3695C151.141 17.1214 150.831 16.7754 150.613 16.3317C150.397 15.8856 150.29 15.3667 150.29 14.7751C150.29 14.1835 150.397 13.6621 150.613 13.2109C150.831 12.7572 151.134 12.4038 151.523 12.1506C151.914 11.8949 152.37 11.7671 152.892 11.7671C153.192 11.7671 153.489 11.8172 153.783 11.9175C154.076 12.0177 154.343 12.1807 154.584 12.4063C154.824 12.6294 155.016 12.9252 155.159 13.2936C155.302 13.6621 155.373 14.1158 155.373 14.6548V15.0308H150.921V14.2637H154.471C154.471 13.9379 154.406 13.6471 154.275 13.3914C154.147 13.1357 153.964 12.9339 153.726 12.786C153.491 12.6381 153.212 12.5642 152.892 12.5642C152.538 12.5642 152.232 12.6519 151.974 12.8274C151.718 13.0004 151.522 13.226 151.384 13.5042C151.246 13.7824 151.177 14.0807 151.177 14.3991V14.9105C151.177 15.3466 151.252 15.7164 151.403 16.0197C151.556 16.3205 151.767 16.5498 152.038 16.7077C152.309 16.8632 152.623 16.9409 152.982 16.9409C153.215 16.9409 153.426 16.9083 153.614 16.8431C153.804 16.7754 153.968 16.6752 154.106 16.5423C154.244 16.4069 154.35 16.239 154.426 16.0385L155.283 16.2791C155.193 16.5699 155.041 16.8256 154.828 17.0462C154.615 17.2642 154.352 17.4347 154.038 17.5575C153.725 17.6778 153.373 17.738 152.982 17.738Z" fill="#666666"/>
<path d="M184.1 10.7443V9.91714H189.876V10.7443H187.454V17.6177H186.522V10.7443H184.1ZM192.082 14.1434V17.6177H191.194V9.91714H192.082V12.7447H192.157C192.292 12.4464 192.495 12.2095 192.766 12.034C193.039 11.8561 193.403 11.7671 193.857 11.7671C194.25 11.7671 194.595 11.846 194.891 12.004C195.186 12.1594 195.416 12.3988 195.579 12.7221C195.744 13.043 195.827 13.4516 195.827 13.9479V17.6177H194.939V14.008C194.939 13.5493 194.82 13.1946 194.582 12.944C194.347 12.6908 194.019 12.5642 193.601 12.5642C193.31 12.5642 193.049 12.6256 192.819 12.7484C192.591 12.8713 192.41 13.0505 192.277 13.2861C192.147 13.5218 192.082 13.8075 192.082 14.1434Z" fill="#666666"/>
<path d="M227.953 10.7443V9.91714H233.728V10.7443H231.307V17.6177H230.374V10.7443H227.953ZM234.447 17.6177V11.8423H235.305V12.7146H235.365C235.47 12.4288 235.661 12.197 235.936 12.019C236.212 11.841 236.523 11.752 236.869 11.752C236.934 11.752 237.015 11.7533 237.113 11.7558C237.211 11.7583 237.285 11.7621 237.335 11.7671V12.6695C237.305 12.662 237.236 12.6507 237.128 12.6356C237.023 12.6181 236.911 12.6093 236.794 12.6093C236.513 12.6093 236.262 12.6682 236.042 12.786C235.823 12.9013 235.65 13.0618 235.523 13.2673C235.397 13.4704 235.335 13.7022 235.335 13.9629V17.6177H234.447Z" fill="#666666"/>
<path d="M273.938 11.8423C273.893 11.4613 273.71 11.1655 273.389 10.9549C273.068 10.7443 272.674 10.6391 272.208 10.6391C271.867 10.6391 271.569 10.6942 271.313 10.8045C271.06 10.9148 270.862 11.0665 270.719 11.2595C270.579 11.4525 270.509 11.6718 270.509 11.9175C270.509 12.123 270.557 12.2997 270.655 12.4476C270.755 12.593 270.883 12.7146 271.039 12.8124C271.194 12.9076 271.357 12.9866 271.527 13.0492C271.698 13.1094 271.855 13.1583 271.997 13.1959L272.78 13.4064C272.98 13.4591 273.203 13.5318 273.449 13.6245C273.697 13.7173 273.934 13.8439 274.16 14.0043C274.388 14.1622 274.576 14.3653 274.724 14.6134C274.871 14.8616 274.945 15.1661 274.945 15.5271C274.945 15.9432 274.836 16.3192 274.618 16.6551C274.403 16.991 274.087 17.258 273.671 17.456C273.257 17.654 272.755 17.753 272.163 17.753C271.611 17.753 271.134 17.664 270.73 17.4861C270.329 17.3081 270.013 17.0599 269.783 16.7416C269.555 16.4232 269.426 16.0535 269.396 15.6324H270.358C270.383 15.9232 270.481 16.1638 270.651 16.3543C270.824 16.5423 271.042 16.6827 271.306 16.7754C271.571 16.8657 271.857 16.9108 272.163 16.9108C272.519 16.9108 272.838 16.8531 273.122 16.7378C273.405 16.62 273.629 16.4571 273.795 16.249C273.96 16.0385 274.043 15.7928 274.043 15.5121C274.043 15.2564 273.972 15.0483 273.829 14.8879C273.686 14.7275 273.498 14.5971 273.265 14.4969C273.031 14.3966 272.78 14.3089 272.509 14.2337L271.561 13.9629C270.96 13.79 270.483 13.5431 270.133 13.2222C269.782 12.9013 269.606 12.4815 269.606 11.9626C269.606 11.5314 269.723 11.1554 269.956 10.8346C270.191 10.5112 270.507 10.2606 270.903 10.0826C271.302 9.9021 271.747 9.81186 272.238 9.81186C272.734 9.81186 273.176 9.90085 273.562 10.0788C273.948 10.2543 274.254 10.4949 274.479 10.8007C274.707 11.1066 274.828 11.4537 274.84 11.8423H273.938ZM278.058 17.753C277.692 17.753 277.36 17.6841 277.061 17.5462C276.763 17.4059 276.526 17.2041 276.351 16.9409C276.175 16.6752 276.087 16.3543 276.087 15.9783C276.087 15.6474 276.153 15.3792 276.283 15.1737C276.413 14.9656 276.588 14.8027 276.806 14.6849C277.024 14.567 277.264 14.4793 277.528 14.4217C277.793 14.3615 278.06 14.3139 278.328 14.2788C278.679 14.2337 278.964 14.1998 279.182 14.1773C279.403 14.1522 279.563 14.1108 279.663 14.0532C279.766 13.9955 279.817 13.8952 279.817 13.7524V13.7223C279.817 13.3513 279.716 13.063 279.513 12.8575C279.312 12.6519 279.008 12.5492 278.599 12.5492C278.176 12.5492 277.843 12.6419 277.603 12.8274C277.362 13.0129 277.193 13.2109 277.095 13.4215L276.253 13.1207C276.403 12.7697 276.604 12.4965 276.855 12.301C277.108 12.103 277.383 11.9651 277.682 11.8874C277.983 11.8072 278.278 11.7671 278.569 11.7671C278.755 11.7671 278.968 11.7896 279.208 11.8348C279.451 11.8774 279.686 11.9664 279.911 12.1017C280.14 12.2371 280.329 12.4414 280.479 12.7146C280.63 12.9878 280.705 13.3538 280.705 13.8125V17.6177H279.817V16.8356H279.772C279.712 16.9609 279.612 17.095 279.471 17.2379C279.331 17.3808 279.144 17.5024 278.911 17.6026C278.678 17.7029 278.394 17.753 278.058 17.753ZM278.193 16.9559C278.544 16.9559 278.84 16.887 279.08 16.7491C279.324 16.6112 279.507 16.4333 279.629 16.2152C279.755 15.9971 279.817 15.7677 279.817 15.5271V14.7149C279.78 14.7601 279.697 14.8014 279.569 14.839C279.444 14.8741 279.299 14.9054 279.133 14.933C278.97 14.9581 278.811 14.9806 278.656 15.0007C278.503 15.0182 278.379 15.0333 278.283 15.0458C278.053 15.0759 277.837 15.1248 277.637 15.1925C277.439 15.2576 277.278 15.3566 277.155 15.4895C277.035 15.6198 276.975 15.7978 276.975 16.0234C276.975 16.3317 277.089 16.5649 277.317 16.7228C277.548 16.8782 277.84 16.9559 278.193 16.9559Z" fill="#666666"/>
</g>
<g clip-path="url(#clip2_561_922)">
<rect width="296.471" height="42.3529" transform="translate(0 28.2354)" fill="white"/>
<path d="M14.1067 53.9119V53.1223L17.0721 49.8761C17.4202 49.4959 17.7068 49.1655 17.9319 48.8847C18.1571 48.601 18.3238 48.3349 18.432 48.0863C18.5432 47.8348 18.5987 47.5716 18.5987 47.2967C18.5987 46.9809 18.5227 46.7074 18.3706 46.4764C18.2215 46.2454 18.0167 46.067 17.7565 45.9412C17.4962 45.8155 17.2037 45.7526 16.8791 45.7526C16.534 45.7526 16.2328 45.8243 15.9755 45.9676C15.721 46.1079 15.5236 46.3053 15.3833 46.5598C15.2458 46.8142 15.1771 47.1125 15.1771 47.4546H14.1418C14.1418 46.9282 14.2632 46.4662 14.5059 46.0684C14.7487 45.6707 15.0791 45.3607 15.4973 45.1385C15.9184 44.9162 16.3907 44.8051 16.9142 44.8051C17.4406 44.8051 17.9071 44.9162 18.3136 45.1385C18.7201 45.3607 19.0388 45.6605 19.2699 46.0377C19.5009 46.415 19.6164 46.8347 19.6164 47.2967C19.6164 47.6272 19.5565 47.9503 19.4366 48.2662C19.3196 48.5791 19.1149 48.9286 18.8224 49.3146C18.5329 49.6977 18.1308 50.1656 17.6161 50.7183L15.5982 52.8766V52.9468H19.7744V53.9119H14.1067ZM24.4637 54.0347C23.8613 54.0347 23.329 53.9279 22.867 53.7145C22.4078 53.4981 22.0496 53.2012 21.7922 52.824C21.5349 52.4438 21.4077 52.011 21.4106 51.5255C21.4077 51.1453 21.4822 50.7944 21.6343 50.4727C21.7864 50.1481 21.994 49.8776 22.2572 49.6612C22.5233 49.4418 22.8202 49.3029 23.1477 49.2444V49.1918C22.7178 49.0806 22.3757 48.8394 22.1212 48.468C21.8668 48.0936 21.7411 47.6681 21.744 47.1914C21.7411 46.7352 21.8566 46.3273 22.0905 45.9676C22.3245 45.6078 22.6462 45.3242 23.0556 45.1165C23.468 44.9089 23.9373 44.8051 24.4637 44.8051C24.9843 44.8051 25.4493 44.9089 25.8587 45.1165C26.2681 45.3242 26.5898 45.6078 26.8238 45.9676C27.0607 46.3273 27.1806 46.7352 27.1835 47.1914C27.1806 47.6681 27.0504 48.0936 26.7931 48.468C26.5386 48.8394 26.2009 49.0806 25.7797 49.1918V49.2444C26.1044 49.3029 26.3968 49.4418 26.6571 49.6612C26.9174 49.8776 27.125 50.1481 27.28 50.4727C27.435 50.7944 27.5139 51.1453 27.5169 51.5255C27.5139 52.011 27.3823 52.4438 27.1221 52.824C26.8647 53.2012 26.5065 53.4981 26.0473 53.7145C25.5911 53.9279 25.0632 54.0347 24.4637 54.0347ZM24.4637 53.0696C24.8702 53.0696 25.2212 53.0038 25.5165 52.8722C25.8119 52.7406 26.04 52.5549 26.2009 52.3151C26.3617 52.0753 26.4436 51.7946 26.4465 51.4729C26.4436 51.1336 26.3559 50.8339 26.1833 50.5736C26.0108 50.3133 25.7754 50.1086 25.4771 49.9595C25.1817 49.8103 24.8439 49.7357 24.4637 49.7357C24.0806 49.7357 23.7385 49.8103 23.4372 49.9595C23.1389 50.1086 22.9035 50.3133 22.731 50.5736C22.5614 50.8339 22.478 51.1336 22.4809 51.4729C22.478 51.7946 22.5555 52.0753 22.7134 52.3151C22.8743 52.5549 23.1039 52.7406 23.4022 52.8722C23.7004 53.0038 24.0543 53.0696 24.4637 53.0696ZM24.4637 48.8057C24.7854 48.8057 25.0706 48.7414 25.3191 48.6127C25.5706 48.4841 25.768 48.3042 25.9113 48.0732C26.0546 47.8421 26.1278 47.5716 26.1307 47.2616C26.1278 46.9575 26.0561 46.6928 25.9157 46.4676C25.7754 46.2395 25.5809 46.0641 25.3323 45.9412C25.0837 45.8155 24.7942 45.7526 24.4637 45.7526C24.1274 45.7526 23.8335 45.8155 23.582 45.9412C23.3305 46.0641 23.136 46.2395 22.9986 46.4676C22.8611 46.6928 22.7939 46.9575 22.7968 47.2616C22.7939 47.5716 22.8626 47.8421 23.003 48.0732C23.1463 48.3042 23.3437 48.4841 23.5952 48.6127C23.8467 48.7414 24.1362 48.8057 24.4637 48.8057Z" fill="#AAAAAA"/>
<path d="M56.4593 53.9119V53.1223L59.4247 49.8761C59.7727 49.4959 60.0593 49.1655 60.2845 48.8847C60.5097 48.601 60.6764 48.3349 60.7846 48.0863C60.8957 47.8348 60.9513 47.5716 60.9513 47.2967C60.9513 46.9809 60.8752 46.7074 60.7231 46.4764C60.574 46.2454 60.3693 46.067 60.109 45.9412C59.8487 45.8155 59.5563 45.7526 59.2317 45.7526C58.8866 45.7526 58.5854 45.8243 58.328 45.9676C58.0736 46.1079 57.8762 46.3053 57.7358 46.5598C57.5984 46.8142 57.5296 47.1125 57.5296 47.4546H56.4944C56.4944 46.9282 56.6157 46.4662 56.8585 46.0684C57.1012 45.6707 57.4317 45.3607 57.8499 45.1385C58.271 44.9162 58.7433 44.8051 59.2668 44.8051C59.7932 44.8051 60.2596 44.9162 60.6661 45.1385C61.0726 45.3607 61.3914 45.6605 61.6224 46.0377C61.8535 46.415 61.969 46.8347 61.969 47.2967C61.969 47.6272 61.909 47.9503 61.7891 48.2662C61.6721 48.5791 61.4674 48.9286 61.175 49.3146C60.8855 49.6977 60.4833 50.1656 59.9686 50.7183L57.9508 52.8766V52.9468H62.1269V53.9119H56.4593ZM66.7987 44.8051C67.1672 44.808 67.5357 44.8782 67.9042 45.0156C68.2727 45.1531 68.609 45.3812 68.9131 45.7C69.2173 46.0158 69.4614 46.4472 69.6457 46.994C69.8299 47.5409 69.9221 48.2267 69.9221 49.0514C69.9221 49.8498 69.846 50.559 69.6939 51.179C69.5448 51.796 69.3284 52.3166 69.0447 52.7406C68.764 53.1647 68.4218 53.4864 68.0182 53.7057C67.6176 53.925 67.1643 54.0347 66.6583 54.0347C66.1553 54.0347 65.7064 53.9353 65.3116 53.7364C64.9198 53.5346 64.5981 53.2553 64.3466 52.8985C64.098 52.5388 63.9386 52.1221 63.8684 51.6483H64.9388C65.0353 52.0607 65.2268 52.4014 65.5134 52.6704C65.8029 52.9366 66.1846 53.0696 66.6583 53.0696C67.3514 53.0696 67.8983 52.7669 68.299 52.1616C68.7026 51.5562 68.9043 50.7008 68.9043 49.5954H68.8342C68.6704 49.841 68.4759 50.053 68.2507 50.2314C68.0255 50.4098 67.7755 50.5473 67.5006 50.6438C67.2257 50.7403 66.9332 50.7885 66.6233 50.7885C66.1086 50.7885 65.6362 50.6613 65.2064 50.4069C64.7794 50.1495 64.4372 49.7971 64.1799 49.3497C63.9254 48.8993 63.7982 48.3846 63.7982 47.8056C63.7982 47.2558 63.9211 46.7528 64.1667 46.2966C64.4153 45.8374 64.7633 45.4719 65.2107 45.1999C65.6611 44.9279 66.1904 44.7963 66.7987 44.8051ZM66.7987 45.7702C66.4302 45.7702 66.0983 45.8623 65.8029 46.0465C65.5105 46.2278 65.278 46.4735 65.1055 46.7835C64.9358 47.0905 64.851 47.4312 64.851 47.8056C64.851 48.1799 64.9329 48.5206 65.0967 48.8277C65.2634 49.1318 65.49 49.3746 65.7766 49.5559C66.0661 49.7343 66.3951 49.8235 66.7636 49.8235C67.0415 49.8235 67.3003 49.7694 67.5401 49.6612C67.7799 49.55 67.989 49.3994 68.1674 49.2093C68.3487 49.0163 68.4905 48.7984 68.5929 48.5557C68.6952 48.3101 68.7464 48.0542 68.7464 47.788C68.7464 47.4371 68.6616 47.1081 68.492 46.801C68.3253 46.494 68.0943 46.2454 67.7989 46.0553C67.5064 45.8652 67.1731 45.7702 66.7987 45.7702Z" fill="#AAAAAA"/>
<path d="M101.848 54.0347C101.269 54.0347 100.753 53.9353 100.3 53.7364C99.8495 53.5375 99.4913 53.2612 99.2251 52.9073C98.9619 52.5505 98.8186 52.1367 98.7952 51.6659H99.9007C99.9241 51.9554 100.024 52.2054 100.199 52.416C100.374 52.6236 100.604 52.7845 100.888 52.8985C101.171 53.0126 101.486 53.0696 101.831 53.0696C102.217 53.0696 102.559 53.0024 102.857 52.8678C103.156 52.7333 103.39 52.5461 103.559 52.3063C103.729 52.0665 103.814 51.7887 103.814 51.4729C103.814 51.1424 103.732 50.8514 103.568 50.5999C103.404 50.3455 103.164 50.1466 102.849 50.0033C102.533 49.86 102.147 49.7884 101.69 49.7884H100.971V48.8233H101.69C102.047 48.8233 102.36 48.759 102.629 48.6303C102.901 48.5016 103.113 48.3203 103.265 48.0863C103.42 47.8524 103.498 47.5775 103.498 47.2616C103.498 46.9575 103.431 46.6928 103.296 46.4676C103.161 46.2425 102.971 46.067 102.726 45.9412C102.483 45.8155 102.196 45.7526 101.866 45.7526C101.556 45.7526 101.263 45.8096 100.989 45.9237C100.717 46.0348 100.494 46.1971 100.322 46.4106C100.149 46.6212 100.056 46.8756 100.041 47.1739H98.9883C99.0058 46.7031 99.1476 46.2907 99.4138 45.9368C99.6799 45.5801 100.028 45.3022 100.458 45.1034C100.891 44.9045 101.366 44.8051 101.883 44.8051C102.439 44.8051 102.916 44.9177 103.314 45.1429C103.711 45.3651 104.017 45.659 104.23 46.0246C104.444 46.3901 104.551 46.7849 104.551 47.209C104.551 47.7149 104.418 48.1463 104.151 48.5031C103.888 48.8599 103.53 49.107 103.077 49.2444V49.3146C103.644 49.4082 104.087 49.6495 104.406 50.0384C104.725 50.4244 104.884 50.9026 104.884 51.4729C104.884 51.9612 104.751 52.3999 104.485 52.7889C104.222 53.1749 103.862 53.479 103.406 53.7013C102.949 53.9236 102.43 54.0347 101.848 54.0347ZM109.608 54.0347C108.948 54.0347 108.385 53.8548 107.92 53.4951C107.455 53.1325 107.099 52.6076 106.854 51.9203C106.608 51.2301 106.485 50.3967 106.485 49.4199C106.485 48.449 106.608 47.6199 106.854 46.9326C107.102 46.2425 107.459 45.7161 107.924 45.3534C108.392 44.9879 108.953 44.8051 109.608 44.8051C110.264 44.8051 110.824 44.9879 111.289 45.3534C111.756 45.7161 112.113 46.2425 112.359 46.9326C112.607 47.6199 112.732 48.449 112.732 49.4199C112.732 50.3967 112.609 51.2301 112.363 51.9203C112.118 52.6076 111.762 53.1325 111.297 53.4951C110.832 53.8548 110.269 54.0347 109.608 54.0347ZM109.608 53.0696C110.264 53.0696 110.772 52.7538 111.135 52.1221C111.498 51.4904 111.679 50.5897 111.679 49.4199C111.679 48.642 111.596 47.9796 111.429 47.4327C111.265 46.8858 111.028 46.4691 110.718 46.1825C110.411 45.8959 110.041 45.7526 109.608 45.7526C108.959 45.7526 108.452 46.0728 108.086 46.7133C107.721 47.3508 107.538 48.253 107.538 49.4199C107.538 50.1978 107.62 50.8587 107.784 51.4027C107.947 51.9466 108.183 52.3604 108.49 52.6441C108.8 52.9278 109.173 53.0696 109.608 53.0696Z" fill="#AAAAAA"/>
<path d="M145.201 54.0347C144.622 54.0347 144.106 53.9353 143.652 53.7364C143.202 53.5375 142.844 53.2612 142.578 52.9073C142.314 52.5505 142.171 52.1367 142.148 51.6659H143.253C143.277 51.9554 143.376 52.2054 143.552 52.416C143.727 52.6236 143.957 52.7845 144.24 52.8985C144.524 53.0126 144.838 53.0696 145.183 53.0696C145.569 53.0696 145.912 53.0024 146.21 52.8678C146.508 52.7333 146.742 52.5461 146.912 52.3063C147.081 52.0665 147.166 51.7887 147.166 51.4729C147.166 51.1424 147.084 50.8514 146.921 50.5999C146.757 50.3455 146.517 50.1466 146.201 50.0033C145.885 49.86 145.499 49.7884 145.043 49.7884H144.324V48.8233H145.043C145.4 48.8233 145.713 48.759 145.982 48.6303C146.254 48.5016 146.466 48.3203 146.618 48.0863C146.773 47.8524 146.85 47.5775 146.85 47.2616C146.85 46.9575 146.783 46.6928 146.649 46.4676C146.514 46.2425 146.324 46.067 146.078 45.9412C145.836 45.8155 145.549 45.7526 145.218 45.7526C144.908 45.7526 144.616 45.8096 144.341 45.9237C144.069 46.0348 143.847 46.1971 143.674 46.4106C143.502 46.6212 143.408 46.8756 143.394 47.1739H142.341C142.358 46.7031 142.5 46.2907 142.766 45.9368C143.032 45.5801 143.38 45.3022 143.81 45.1034C144.243 44.9045 144.718 44.8051 145.236 44.8051C145.792 44.8051 146.268 44.9177 146.666 45.1429C147.064 45.3651 147.369 45.659 147.583 46.0246C147.796 46.3901 147.903 46.7849 147.903 47.209C147.903 47.7149 147.77 48.1463 147.504 48.5031C147.241 48.8599 146.882 49.107 146.429 49.2444V49.3146C146.997 49.4082 147.44 49.6495 147.758 50.0384C148.077 50.4244 148.237 50.9026 148.237 51.4729C148.237 51.9612 148.103 52.3999 147.837 52.7889C147.574 53.1749 147.214 53.479 146.758 53.7013C146.302 53.9236 145.783 54.0347 145.201 54.0347ZM153.189 44.9279V53.9119H152.101V46.0684H152.049L149.855 47.5248V46.4194L152.101 44.9279H153.189Z" fill="#AAAAAA"/>
<path d="M191.677 44.9279V53.9119H190.589V46.0684H190.537L188.343 47.5248V46.4194L190.589 44.9279H191.677Z" fill="#163A53"/>
<path d="M229.871 53.9119V53.1223L232.837 49.8761C233.185 49.4959 233.471 49.1655 233.697 48.8847C233.922 48.601 234.088 48.3349 234.197 48.0863C234.308 47.8348 234.363 47.5716 234.363 47.2967C234.363 46.9809 234.287 46.7074 234.135 46.4764C233.986 46.2454 233.781 46.067 233.521 45.9412C233.261 45.8155 232.968 45.7526 232.644 45.7526C232.299 45.7526 231.997 45.8243 231.74 45.9676C231.486 46.1079 231.288 46.3053 231.148 46.5598C231.01 46.8142 230.942 47.1125 230.942 47.4546H229.906C229.906 46.9282 230.028 46.4662 230.271 46.0684C230.513 45.6707 230.844 45.3607 231.262 45.1385C231.683 44.9162 232.155 44.8051 232.679 44.8051C233.205 44.8051 233.672 44.9162 234.078 45.1385C234.485 45.3607 234.803 45.6605 235.035 46.0377C235.266 46.415 235.381 46.8347 235.381 47.2967C235.381 47.6272 235.321 47.9503 235.201 48.2662C235.084 48.5791 234.88 48.9286 234.587 49.3146C234.298 49.6977 233.895 50.1656 233.381 50.7183L231.363 52.8766V52.9468H235.539V53.9119H229.871Z" fill="#163A53"/>
<path d="M275.26 54.0347C274.68 54.0347 274.164 53.9353 273.711 53.7364C273.261 53.5375 272.902 53.2612 272.636 52.9073C272.373 52.5505 272.23 52.1367 272.206 51.6659H273.312C273.335 51.9554 273.435 52.2054 273.61 52.416C273.786 52.6236 274.015 52.7845 274.299 52.8985C274.583 53.0126 274.897 53.0696 275.242 53.0696C275.628 53.0696 275.97 53.0024 276.268 52.8678C276.567 52.7333 276.801 52.5461 276.97 52.3063C277.14 52.0665 277.225 51.7887 277.225 51.4729C277.225 51.1424 277.143 50.8514 276.979 50.5999C276.815 50.3455 276.576 50.1466 276.26 50.0033C275.944 49.86 275.558 49.7884 275.102 49.7884H274.382V48.8233H275.102C275.458 48.8233 275.771 48.759 276.04 48.6303C276.312 48.5016 276.524 48.3203 276.676 48.0863C276.831 47.8524 276.909 47.5775 276.909 47.2616C276.909 46.9575 276.842 46.6928 276.707 46.4676C276.573 46.2425 276.383 46.067 276.137 45.9412C275.894 45.8155 275.608 45.7526 275.277 45.7526C274.967 45.7526 274.675 45.8096 274.4 45.9237C274.128 46.0348 273.905 46.1971 273.733 46.4106C273.56 46.6212 273.467 46.8756 273.452 47.1739H272.399C272.417 46.7031 272.559 46.2907 272.825 45.9368C273.091 45.5801 273.439 45.3022 273.869 45.1034C274.302 44.9045 274.777 44.8051 275.295 44.8051C275.85 44.8051 276.327 44.9177 276.725 45.1429C277.122 45.3651 277.428 45.659 277.641 46.0246C277.855 46.3901 277.962 46.7849 277.962 47.209C277.962 47.7149 277.829 48.1463 277.563 48.5031C277.299 48.8599 276.941 49.107 276.488 49.2444V49.3146C277.055 49.4082 277.498 49.6495 277.817 50.0384C278.136 50.4244 278.295 50.9026 278.295 51.4729C278.295 51.9612 278.162 52.3999 277.896 52.7889C277.633 53.1749 277.273 53.479 276.817 53.7013C276.361 53.9236 275.841 54.0347 275.26 54.0347Z" fill="#163A53"/>
</g>
<g clip-path="url(#clip3_561_922)">
<rect width="296.471" height="42.3529" transform="translate(0 70.5881)" fill="white"/>
<path d="M17.8962 94.4222V93.5273L21.8442 87.2807H22.4934V88.6669H22.0548L19.0718 93.387V93.4572H24.3885V94.4222H17.8962ZM22.125 96.2646V94.1503V93.7335V87.2807H23.1602V96.2646H22.125Z" fill="#163A53"/>
<path d="M63.2668 96.3875C62.7521 96.3875 62.2885 96.2851 61.8762 96.0804C61.4638 95.8757 61.1334 95.5949 60.8848 95.2382C60.6362 94.8814 60.5002 94.4749 60.4768 94.0187H61.5296C61.5706 94.4252 61.7548 94.7615 62.0824 95.0276C62.4128 95.2908 62.8076 95.4224 63.2668 95.4224C63.6352 95.4224 63.9628 95.3361 64.2494 95.1636C64.5389 94.991 64.7656 94.7542 64.9293 94.4529C65.096 94.1488 65.1794 93.8052 65.1794 93.4221C65.1794 93.0302 65.0931 92.6807 64.9205 92.3736C64.7509 92.0637 64.517 91.8195 64.2187 91.6411C63.9204 91.4627 63.5797 91.372 63.1966 91.3691C62.9217 91.3662 62.6395 91.4086 62.3499 91.4963C62.0604 91.5811 61.8221 91.6908 61.6349 91.8253L60.6172 91.7025L61.1611 87.2807H65.8286V88.2458H62.0736L61.7577 90.8953H61.8104C61.9946 90.7491 62.2257 90.6277 62.5035 90.5312C62.7813 90.4347 63.0708 90.3865 63.372 90.3865C63.9218 90.3865 64.4117 90.5181 64.8416 90.7813C65.2744 91.0416 65.6136 91.3983 65.8593 91.8516C66.1079 92.3049 66.2322 92.8226 66.2322 93.4045C66.2322 93.9777 66.1035 94.4895 65.8461 94.9399C65.5917 95.3873 65.2408 95.7412 64.7933 96.0014C64.3459 96.2588 63.837 96.3875 63.2668 96.3875Z" fill="#163A53"/>
<path d="M105.796 96.3875C105.427 96.3816 105.059 96.3114 104.69 96.1769C104.322 96.0424 103.986 95.8157 103.681 95.497C103.377 95.1753 103.133 94.741 102.949 94.1941C102.765 93.6443 102.672 92.9542 102.672 92.1236C102.672 91.3282 102.747 90.6234 102.896 90.0092C103.045 89.3922 103.262 88.8731 103.545 88.4519C103.829 88.0279 104.171 87.7062 104.572 87.4869C104.975 87.2675 105.43 87.1579 105.936 87.1579C106.439 87.1579 106.887 87.2588 107.278 87.4605C107.673 87.6594 107.995 87.9372 108.244 88.294C108.492 88.6508 108.653 89.0617 108.726 89.5267H107.656C107.556 89.1231 107.363 88.7883 107.077 88.5221C106.79 88.256 106.41 88.1229 105.936 88.1229C105.24 88.1229 104.692 88.4256 104.291 89.031C103.893 89.6363 103.693 90.4859 103.69 91.5797H103.76C103.924 91.3311 104.119 91.1191 104.344 90.9436C104.572 90.7652 104.823 90.6277 105.098 90.5312C105.373 90.4347 105.664 90.3865 105.971 90.3865C106.486 90.3865 106.957 90.5151 107.384 90.7725C107.811 91.0269 108.153 91.3793 108.41 91.8297C108.668 92.2771 108.796 92.7904 108.796 93.3694C108.796 93.9251 108.672 94.4339 108.423 94.896C108.175 95.3551 107.825 95.7207 107.375 95.9927C106.928 96.2617 106.401 96.3933 105.796 96.3875ZM105.796 95.4224C106.164 95.4224 106.495 95.3303 106.787 95.146C107.083 94.9618 107.315 94.7147 107.485 94.4047C107.657 94.0947 107.743 93.7496 107.743 93.3694C107.743 92.998 107.66 92.6602 107.493 92.3561C107.33 92.049 107.103 91.8048 106.813 91.6235C106.527 91.4422 106.199 91.3515 105.831 91.3515C105.553 91.3515 105.294 91.4071 105.054 91.5182C104.815 91.6264 104.604 91.7756 104.423 91.9657C104.244 92.1558 104.104 92.3736 104.002 92.6193C103.899 92.862 103.848 93.1179 103.848 93.387C103.848 93.7438 103.931 94.0771 104.098 94.3871C104.268 94.6971 104.499 94.9472 104.791 95.1373C105.087 95.3274 105.421 95.4224 105.796 95.4224Z" fill="#163A53"/>
<path d="M145.446 96.2646L149.464 88.316V88.2458H144.832V87.2807H150.587V88.2984L146.587 96.2646H145.446Z" fill="#163A53"/>
<path d="M190.397 96.3875C189.794 96.3875 189.262 96.2807 188.8 96.0672C188.341 95.8508 187.982 95.554 187.725 95.1767C187.468 94.7966 187.34 94.3637 187.343 93.8783C187.34 93.4981 187.415 93.1472 187.567 92.8255C187.719 92.5009 187.927 92.2303 188.19 92.0139C188.456 91.7946 188.753 91.6557 189.081 91.5972V91.5446C188.651 91.4334 188.308 91.1922 188.054 90.8208C187.8 90.4464 187.674 90.0209 187.677 89.5442C187.674 89.088 187.789 88.68 188.023 88.3203C188.257 87.9606 188.579 87.677 188.988 87.4693C189.401 87.2617 189.87 87.1579 190.397 87.1579C190.917 87.1579 191.382 87.2617 191.791 87.4693C192.201 87.677 192.523 87.9606 192.757 88.3203C192.993 88.68 193.113 89.088 193.116 89.5442C193.113 90.0209 192.983 90.4464 192.726 90.8208C192.471 91.1922 192.134 91.4334 191.713 91.5446V91.5972C192.037 91.6557 192.33 91.7946 192.59 92.0139C192.85 92.2303 193.058 92.5009 193.213 92.8255C193.368 93.1472 193.447 93.4981 193.45 93.8783C193.447 94.3637 193.315 94.7966 193.055 95.1767C192.798 95.554 192.439 95.8508 191.98 96.0672C191.524 96.2807 190.996 96.3875 190.397 96.3875ZM190.397 95.4224C190.803 95.4224 191.154 95.3566 191.449 95.225C191.745 95.0934 191.973 94.9077 192.134 94.6679C192.294 94.4281 192.376 94.1473 192.379 93.8256C192.376 93.4864 192.289 93.1866 192.116 92.9264C191.944 92.6661 191.708 92.4614 191.41 92.3122C191.114 92.1631 190.777 92.0885 190.397 92.0885C190.013 92.0885 189.671 92.1631 189.37 92.3122C189.072 92.4614 188.836 92.6661 188.664 92.9264C188.494 93.1866 188.411 93.4864 188.414 93.8256C188.411 94.1473 188.488 94.4281 188.646 94.6679C188.807 94.9077 189.037 95.0934 189.335 95.225C189.633 95.3566 189.987 95.4224 190.397 95.4224ZM190.397 91.1585C190.718 91.1585 191.003 91.0942 191.252 90.9655C191.503 90.8368 191.701 90.657 191.844 90.426C191.987 90.1949 192.061 89.9244 192.063 89.6144C192.061 89.3103 191.989 89.0456 191.849 88.8204C191.708 88.5923 191.514 88.4168 191.265 88.294C191.017 88.1683 190.727 88.1054 190.397 88.1054C190.06 88.1054 189.766 88.1683 189.515 88.294C189.263 88.4168 189.069 88.5923 188.931 88.8204C188.794 89.0456 188.727 89.3103 188.73 89.6144C188.727 89.9244 188.795 90.1949 188.936 90.426C189.079 90.657 189.276 90.8368 189.528 90.9655C189.779 91.0942 190.069 91.1585 190.397 91.1585Z" fill="#163A53"/>
<rect x="217.5" y="76.3235" width="30.8824" height="30.8824" rx="15.4412" stroke="#337AF7" stroke-width="0.882353"/>
<path d="M232.732 87.1579C233.1 87.1608 233.468 87.231 233.837 87.3684C234.205 87.5059 234.542 87.734 234.846 88.0527C235.15 88.3686 235.394 88.8 235.578 89.3468C235.763 89.8937 235.855 90.5795 235.855 91.4042C235.855 92.2026 235.779 92.9117 235.627 93.5317C235.478 94.1488 235.261 94.6694 234.978 95.0934C234.697 95.5174 234.355 95.8391 233.951 96.0585C233.55 96.2778 233.097 96.3875 232.591 96.3875C232.088 96.3875 231.639 96.288 231.244 96.0892C230.853 95.8874 230.531 95.6081 230.279 95.2513C230.031 94.8916 229.871 94.4749 229.801 94.0011H230.872C230.968 94.4135 231.16 94.7542 231.446 95.0232C231.736 95.2893 232.117 95.4224 232.591 95.4224C233.284 95.4224 233.831 95.1197 234.232 94.5144C234.635 93.909 234.837 93.0536 234.837 91.9481H234.767C234.603 92.1938 234.409 92.4058 234.184 92.5842C233.958 92.7626 233.708 92.9001 233.433 92.9966C233.158 93.0931 232.866 93.1413 232.556 93.1413C232.041 93.1413 231.569 93.0141 231.139 92.7597C230.712 92.5023 230.37 92.1499 230.113 91.7025C229.858 91.2521 229.731 90.7374 229.731 90.1584C229.731 89.6086 229.854 89.1056 230.099 88.6493C230.348 88.1902 230.696 87.8246 231.144 87.5527C231.594 87.2807 232.123 87.1491 232.732 87.1579ZM232.732 88.1229C232.363 88.1229 232.031 88.2151 231.736 88.3993C231.443 88.5806 231.211 88.8263 231.038 89.1363C230.869 89.4433 230.784 89.784 230.784 90.1584C230.784 90.5327 230.866 90.8734 231.029 91.1805C231.196 91.4846 231.423 91.7273 231.709 91.9087C231.999 92.087 232.328 92.1762 232.696 92.1762C232.974 92.1762 233.233 92.1221 233.473 92.0139C233.713 91.9028 233.922 91.7522 234.1 91.5621C234.281 91.3691 234.423 91.1512 234.526 90.9085C234.628 90.6628 234.679 90.4069 234.679 90.1408C234.679 89.7899 234.594 89.4609 234.425 89.1538C234.258 88.8467 234.027 88.5982 233.732 88.4081C233.439 88.218 233.106 88.1229 232.732 88.1229Z" fill="#337AF7"/>
<path d="M272.382 87.2807V96.2646H271.294V88.4212H271.242L269.048 89.8776V88.7722L271.294 87.2807H272.382ZM277.896 96.3875C277.235 96.3875 276.673 96.2076 276.208 95.8479C275.743 95.4853 275.387 94.9603 275.142 94.2731C274.896 93.5829 274.773 92.7494 274.773 91.7727C274.773 90.8017 274.896 89.9727 275.142 89.2854C275.39 88.5952 275.747 88.0688 276.212 87.7062C276.68 87.3406 277.241 87.1579 277.896 87.1579C278.552 87.1579 279.112 87.3406 279.577 87.7062C280.044 88.0688 280.401 88.5952 280.647 89.2854C280.895 89.9727 281.02 90.8017 281.02 91.7727C281.02 92.7494 280.897 93.5829 280.651 94.2731C280.406 94.9603 280.05 95.4853 279.585 95.8479C279.12 96.2076 278.557 96.3875 277.896 96.3875ZM277.896 95.4224C278.552 95.4224 279.06 95.1066 279.423 94.4749C279.786 93.8432 279.967 92.9425 279.967 91.7727C279.967 90.9948 279.884 90.3324 279.717 89.7855C279.553 89.2386 279.316 88.8219 279.006 88.5353C278.699 88.2487 278.329 88.1054 277.896 88.1054C277.247 88.1054 276.74 88.4256 276.374 89.0661C276.009 89.7036 275.826 90.6058 275.826 91.7727C275.826 92.5506 275.908 93.2115 276.072 93.7555C276.235 94.2994 276.471 94.7132 276.778 94.9969C277.088 95.2806 277.461 95.4224 277.896 95.4224Z" fill="#163A53"/>
</g>
<g clip-path="url(#clip4_561_922)">
<rect width="296.471" height="42.3529" transform="translate(0 112.941)" fill="white"/>
<path d="M19.2652 129.634V138.618H18.1773V130.774H18.1246L15.9313 132.231V131.125L18.1773 129.634H19.2652ZM25.0073 129.634V138.618H23.9194V130.774H23.8668L21.6735 132.231V131.125L23.9194 129.634H25.0073Z" fill="#163A53"/>
<path d="M60.6177 129.634V138.618H59.5298V130.774H59.4772L57.2838 132.231V131.125L59.5298 129.634H60.6177ZM63.2015 138.618V137.828L66.1669 134.582C66.5149 134.202 66.8015 133.871 67.0267 133.591C67.2518 133.307 67.4185 133.041 67.5267 132.792C67.6379 132.541 67.6934 132.277 67.6934 132.003C67.6934 131.687 67.6174 131.413 67.4653 131.182C67.3162 130.951 67.1115 130.773 66.8512 130.647C66.5909 130.521 66.2985 130.458 65.9739 130.458C65.6288 130.458 65.3276 130.53 65.0702 130.673C64.8158 130.814 64.6184 131.011 64.478 131.266C64.3405 131.52 64.2718 131.818 64.2718 132.16H63.2366C63.2366 131.634 63.3579 131.172 63.6007 130.774C63.8434 130.377 64.1738 130.067 64.592 129.844C65.0132 129.622 65.4855 129.511 66.009 129.511C66.5354 129.511 67.0018 129.622 67.4083 129.844C67.8148 130.067 68.1336 130.366 68.3646 130.744C68.5956 131.121 68.7112 131.54 68.7112 132.003C68.7112 132.333 68.6512 132.656 68.5313 132.972C68.4143 133.285 68.2096 133.634 67.9172 134.02C67.6276 134.404 67.2255 134.871 66.7108 135.424L64.6929 137.582V137.653H68.8691V138.618H63.2015Z" fill="#163A53"/>
<path d="M102.971 129.634V138.618H101.883V130.774H101.831L99.6373 132.231V131.125L101.883 129.634H102.971ZM108.591 138.741C108.012 138.741 107.495 138.641 107.042 138.442C106.592 138.243 106.233 137.967 105.967 137.613C105.704 137.256 105.561 136.843 105.537 136.372H106.643C106.666 136.661 106.766 136.911 106.941 137.122C107.117 137.329 107.346 137.49 107.63 137.604C107.914 137.718 108.228 137.775 108.573 137.775C108.959 137.775 109.301 137.708 109.6 137.574C109.898 137.439 110.132 137.252 110.301 137.012C110.471 136.772 110.556 136.495 110.556 136.179C110.556 135.848 110.474 135.557 110.31 135.306C110.146 135.051 109.907 134.852 109.591 134.709C109.275 134.566 108.889 134.494 108.433 134.494H107.713V133.529H108.433C108.789 133.529 109.102 133.465 109.371 133.336C109.643 133.207 109.855 133.026 110.007 132.792C110.162 132.558 110.24 132.283 110.24 131.967C110.24 131.663 110.173 131.399 110.038 131.173C109.904 130.948 109.714 130.773 109.468 130.647C109.225 130.521 108.939 130.458 108.608 130.458C108.298 130.458 108.006 130.515 107.731 130.629C107.459 130.741 107.237 130.903 107.064 131.116C106.891 131.327 106.798 131.581 106.783 131.88H105.73C105.748 131.409 105.89 130.997 106.156 130.643C106.422 130.286 106.77 130.008 107.2 129.809C107.633 129.61 108.108 129.511 108.626 129.511C109.181 129.511 109.658 129.623 110.056 129.849C110.453 130.071 110.759 130.365 110.973 130.73C111.186 131.096 111.293 131.491 111.293 131.915C111.293 132.421 111.16 132.852 110.894 133.209C110.63 133.566 110.272 133.813 109.819 133.95V134.02C110.386 134.114 110.829 134.355 111.148 134.744C111.467 135.13 111.626 135.608 111.626 136.179C111.626 136.667 111.493 137.106 111.227 137.495C110.964 137.881 110.604 138.185 110.148 138.407C109.692 138.629 109.173 138.741 108.591 138.741Z" fill="#163A53"/>
<path d="M145.324 129.634V138.618H144.236V130.774H144.183L141.99 132.231V131.125L144.236 129.634H145.324ZM147.697 136.775V135.88L151.645 129.634H152.294V131.02H151.856L148.873 135.74V135.81H154.189V136.775H147.697ZM151.926 138.618V136.503V136.087V129.634H152.961V138.618H151.926Z" fill="#163A53"/>
<path d="M187.677 129.634V138.618H186.589V130.774H186.537L184.343 132.231V131.125L186.589 129.634H187.677ZM193.069 138.741C192.554 138.741 192.09 138.638 191.678 138.433C191.266 138.229 190.935 137.948 190.687 137.591C190.438 137.234 190.302 136.828 190.279 136.372H191.331C191.372 136.778 191.557 137.115 191.884 137.381C192.215 137.644 192.609 137.775 193.069 137.775C193.437 137.775 193.765 137.689 194.051 137.517C194.341 137.344 194.567 137.107 194.731 136.806C194.898 136.502 194.981 136.158 194.981 135.775C194.981 135.383 194.895 135.034 194.722 134.727C194.553 134.417 194.319 134.172 194.02 133.994C193.722 133.816 193.381 133.725 192.998 133.722C192.723 133.719 192.441 133.762 192.152 133.849C191.862 133.934 191.624 134.044 191.437 134.178L190.419 134.056L190.963 129.634H195.63V130.599H191.875L191.559 133.248H191.612C191.796 133.102 192.027 132.981 192.305 132.884C192.583 132.788 192.873 132.74 193.174 132.74C193.724 132.74 194.213 132.871 194.643 133.134C195.076 133.395 195.415 133.751 195.661 134.205C195.91 134.658 196.034 135.176 196.034 135.758C196.034 136.331 195.905 136.843 195.648 137.293C195.393 137.74 195.043 138.094 194.595 138.354C194.148 138.612 193.639 138.741 193.069 138.741Z" fill="#163A53"/>
<path d="M230.03 129.634V138.618H228.942V130.774H228.889L226.696 132.231V131.125L228.942 129.634H230.03ZM235.597 138.741C235.228 138.735 234.86 138.664 234.491 138.53C234.123 138.395 233.786 138.169 233.482 137.85C233.178 137.528 232.934 137.094 232.75 136.547C232.565 135.997 232.473 135.307 232.473 134.477C232.473 133.681 232.548 132.976 232.697 132.362C232.846 131.745 233.062 131.226 233.346 130.805C233.63 130.381 233.972 130.059 234.373 129.84C234.776 129.621 235.231 129.511 235.737 129.511C236.24 129.511 236.687 129.612 237.079 129.814C237.474 130.012 237.796 130.29 238.044 130.647C238.293 131.004 238.454 131.415 238.527 131.88H237.456C237.357 131.476 237.164 131.141 236.877 130.875C236.591 130.609 236.211 130.476 235.737 130.476C235.041 130.476 234.493 130.779 234.092 131.384C233.694 131.989 233.494 132.839 233.491 133.933H233.561C233.725 133.684 233.919 133.472 234.145 133.297C234.373 133.118 234.624 132.981 234.899 132.884C235.174 132.788 235.465 132.74 235.772 132.74C236.287 132.74 236.758 132.868 237.185 133.126C237.611 133.38 237.954 133.732 238.211 134.183C238.468 134.63 238.597 135.143 238.597 135.722C238.597 136.278 238.473 136.787 238.224 137.249C237.976 137.708 237.626 138.074 237.176 138.346C236.728 138.615 236.202 138.746 235.597 138.741ZM235.597 137.775C235.965 137.775 236.295 137.683 236.588 137.499C236.883 137.315 237.116 137.068 237.285 136.758C237.458 136.448 237.544 136.103 237.544 135.722C237.544 135.351 237.461 135.013 237.294 134.709C237.13 134.402 236.904 134.158 236.614 133.977C236.328 133.795 236 133.705 235.632 133.705C235.354 133.705 235.095 133.76 234.855 133.871C234.615 133.979 234.405 134.129 234.223 134.319C234.045 134.509 233.905 134.727 233.802 134.972C233.7 135.215 233.649 135.471 233.649 135.74C233.649 136.097 233.732 136.43 233.899 136.74C234.068 137.05 234.3 137.3 234.592 137.49C234.887 137.68 235.222 137.775 235.597 137.775Z" fill="#163A53"/>
<path d="M272.882 129.634V138.618H271.794V130.774H271.742L269.548 132.231V131.125L271.794 129.634H272.882ZM275.747 138.618L279.765 130.669V130.599H275.133V129.634H280.888V130.651L276.887 138.618H275.747Z" fill="#163A53"/>
</g>
<g clip-path="url(#clip5_561_922)">
<rect width="296.471" height="42.3529" transform="translate(0 155.294)" fill="white"/>
<path d="M18.2652 171.987V180.971H17.1773V173.127H17.1246L14.9313 174.584V173.478L17.1773 171.987H18.2652ZM23.7266 181.094C23.1242 181.094 22.5919 180.987 22.1298 180.773C21.6707 180.557 21.3125 180.26 21.0551 179.883C20.7977 179.503 20.6705 179.07 20.6735 178.584C20.6705 178.204 20.7451 177.853 20.8972 177.532C21.0493 177.207 21.2569 176.936 21.5201 176.72C21.7862 176.501 22.083 176.362 22.4106 176.303V176.251C21.9807 176.139 21.6385 175.898 21.3841 175.527C21.1297 175.152 21.0039 174.727 21.0068 174.25C21.0039 173.794 21.1194 173.386 21.3534 173.026C21.5874 172.667 21.909 172.383 22.3185 172.175C22.7308 171.968 23.2002 171.864 23.7266 171.864C24.2472 171.864 24.7121 171.968 25.1216 172.175C25.531 172.383 25.8527 172.667 26.0866 173.026C26.3235 173.386 26.4434 173.794 26.4464 174.25C26.4434 174.727 26.3133 175.152 26.0559 175.527C25.8015 175.898 25.4637 176.139 25.0426 176.251V176.303C25.3672 176.362 25.6597 176.501 25.9199 176.72C26.1802 176.936 26.3879 177.207 26.5429 177.532C26.6979 177.853 26.7768 178.204 26.7797 178.584C26.7768 179.07 26.6452 179.503 26.3849 179.883C26.1276 180.26 25.7693 180.557 25.3102 180.773C24.854 180.987 24.3261 181.094 23.7266 181.094ZM23.7266 180.128C24.1331 180.128 24.484 180.063 24.7794 179.931C25.0748 179.799 25.3029 179.614 25.4637 179.374C25.6246 179.134 25.7065 178.853 25.7094 178.532C25.7065 178.192 25.6187 177.893 25.4462 177.632C25.2736 177.372 25.0382 177.167 24.7399 177.018C24.4446 176.869 24.1068 176.795 23.7266 176.795C23.3435 176.795 23.0013 176.869 22.7001 177.018C22.4018 177.167 22.1664 177.372 21.9939 177.632C21.8242 177.893 21.7409 178.192 21.7438 178.532C21.7409 178.853 21.8184 179.134 21.9763 179.374C22.1372 179.614 22.3667 179.799 22.665 179.931C22.9633 180.063 23.3172 180.128 23.7266 180.128ZM23.7266 175.865C24.0483 175.865 24.3334 175.8 24.582 175.672C24.8335 175.543 25.0309 175.363 25.1742 175.132C25.3175 174.901 25.3906 174.63 25.3935 174.32C25.3906 174.016 25.319 173.752 25.1786 173.526C25.0382 173.298 24.8437 173.123 24.5952 173C24.3466 172.874 24.0571 172.811 23.7266 172.811C23.3903 172.811 23.0964 172.874 22.8449 173C22.5934 173.123 22.3989 173.298 22.2614 173.526C22.124 173.752 22.0567 174.016 22.0597 174.32C22.0567 174.63 22.1255 174.901 22.2658 175.132C22.4091 175.363 22.6065 175.543 22.858 175.672C23.1095 175.8 23.3991 175.865 23.7266 175.865Z" fill="#163A53"/>
<path d="M60.6177 171.987V180.971H59.5298V173.127H59.4772L57.2838 174.584V173.478L59.5298 171.987H60.6177ZM66.0616 171.864C66.4301 171.867 66.7986 171.937 67.167 172.074C67.5355 172.212 67.8718 172.44 68.176 172.759C68.4801 173.075 68.7243 173.506 68.9086 174.053C69.0928 174.6 69.1849 175.286 69.1849 176.11C69.1849 176.909 69.1089 177.618 68.9568 178.238C68.8077 178.855 68.5913 179.375 68.3076 179.799C68.0268 180.224 67.6847 180.545 67.2811 180.765C66.8804 180.984 66.4271 181.094 65.9212 181.094C65.4182 181.094 64.9693 180.994 64.5745 180.795C64.1826 180.593 63.8609 180.314 63.6094 179.957C63.3608 179.598 63.2015 179.181 63.1313 178.707H64.2016C64.2981 179.12 64.4897 179.46 64.7763 179.729C65.0658 179.995 65.4475 180.128 65.9212 180.128C66.6143 180.128 67.1612 179.826 67.5618 179.22C67.9654 178.615 68.1672 177.76 68.1672 176.654H68.097C67.9332 176.9 67.7388 177.112 67.5136 177.29C67.2884 177.469 67.0384 177.606 66.7635 177.703C66.4886 177.799 66.1961 177.847 65.8861 177.847C65.3714 177.847 64.8991 177.72 64.4692 177.466C64.0422 177.208 63.7001 176.856 63.4427 176.409C63.1883 175.958 63.0611 175.443 63.0611 174.864C63.0611 174.315 63.1839 173.812 63.4296 173.355C63.6782 172.896 64.0262 172.531 64.4736 172.259C64.924 171.987 65.4533 171.855 66.0616 171.864ZM66.0616 172.829C65.6931 172.829 65.3612 172.921 65.0658 173.105C64.7734 173.287 64.5409 173.532 64.3683 173.842C64.1987 174.149 64.1139 174.49 64.1139 174.864C64.1139 175.239 64.1958 175.579 64.3596 175.887C64.5262 176.191 64.7529 176.433 65.0395 176.615C65.329 176.793 65.658 176.882 66.0265 176.882C66.3043 176.882 66.5631 176.828 66.8029 176.72C67.0427 176.609 67.2518 176.458 67.4302 176.268C67.6116 176.075 67.7534 175.857 67.8558 175.615C67.9581 175.369 68.0093 175.113 68.0093 174.847C68.0093 174.496 67.9245 174.167 67.7549 173.86C67.5882 173.553 67.3571 173.304 67.0618 173.114C66.7693 172.924 66.4359 172.829 66.0616 172.829Z" fill="#163A53"/>
<path d="M98.8128 180.971V180.181L101.778 176.935C102.126 176.555 102.413 176.224 102.638 175.944C102.863 175.66 103.03 175.394 103.138 175.145C103.249 174.894 103.305 174.63 103.305 174.356C103.305 174.04 103.229 173.766 103.077 173.535C102.928 173.304 102.723 173.126 102.463 173C102.202 172.874 101.91 172.811 101.585 172.811C101.24 172.811 100.939 172.883 100.682 173.026C100.427 173.167 100.23 173.364 100.089 173.619C99.9519 173.873 99.8831 174.171 99.8831 174.513H98.8479C98.8479 173.987 98.9693 173.525 99.212 173.127C99.4547 172.73 99.7852 172.42 100.203 172.197C100.624 171.975 101.097 171.864 101.62 171.864C102.147 171.864 102.613 171.975 103.02 172.197C103.426 172.42 103.745 172.719 103.976 173.097C104.207 173.474 104.322 173.893 104.322 174.356C104.322 174.686 104.263 175.009 104.143 175.325C104.026 175.638 103.821 175.987 103.528 176.373C103.239 176.757 102.837 177.224 102.322 177.777L100.304 179.935V180.006H104.48V180.971H98.8128ZM109.222 181.094C108.561 181.094 107.999 180.914 107.534 180.554C107.069 180.191 106.713 179.666 106.468 178.979C106.222 178.289 106.099 177.455 106.099 176.479C106.099 175.508 106.222 174.679 106.468 173.991C106.716 173.301 107.073 172.775 107.538 172.412C108.006 172.047 108.567 171.864 109.222 171.864C109.878 171.864 110.438 172.047 110.903 172.412C111.37 172.775 111.727 173.301 111.973 173.991C112.221 174.679 112.346 175.508 112.346 176.479C112.346 177.455 112.223 178.289 111.977 178.979C111.732 179.666 111.376 180.191 110.911 180.554C110.446 180.914 109.883 181.094 109.222 181.094ZM109.222 180.128C109.878 180.128 110.386 179.813 110.749 179.181C111.112 178.549 111.293 177.649 111.293 176.479C111.293 175.701 111.21 175.038 111.043 174.492C110.879 173.945 110.642 173.528 110.332 173.241C110.025 172.955 109.655 172.811 109.222 172.811C108.573 172.811 108.066 173.132 107.7 173.772C107.335 174.41 107.152 175.312 107.152 176.479C107.152 177.257 107.234 177.918 107.398 178.462C107.561 179.005 107.797 179.419 108.104 179.703C108.414 179.987 108.787 180.128 109.222 180.128Z" fill="#163A53"/>
<path d="M142.165 180.971V180.181L145.131 176.935C145.479 176.555 145.765 176.224 145.991 175.944C146.216 175.66 146.382 175.394 146.491 175.145C146.602 174.894 146.657 174.63 146.657 174.356C146.657 174.04 146.581 173.766 146.429 173.535C146.28 173.304 146.075 173.126 145.815 173C145.555 172.874 145.262 172.811 144.938 172.811C144.593 172.811 144.291 172.883 144.034 173.026C143.78 173.167 143.582 173.364 143.442 173.619C143.304 173.873 143.236 174.171 143.236 174.513H142.2C142.2 173.987 142.322 173.525 142.565 173.127C142.807 172.73 143.138 172.42 143.556 172.197C143.977 171.975 144.449 171.864 144.973 171.864C145.499 171.864 145.966 171.975 146.372 172.197C146.779 172.42 147.097 172.719 147.328 173.097C147.56 173.474 147.675 173.893 147.675 174.356C147.675 174.686 147.615 175.009 147.495 175.325C147.378 175.638 147.173 175.987 146.881 176.373C146.592 176.757 146.189 177.224 145.675 177.777L143.657 179.935V180.006H147.833V180.971H142.165ZM152.803 171.987V180.971H151.715V173.127H151.663L149.469 174.584V173.478L151.715 171.987H152.803Z" fill="#163A53"/>
<path d="M184.019 180.971V180.181L186.984 176.935C187.332 176.555 187.619 176.224 187.844 175.944C188.069 175.66 188.236 175.394 188.344 175.145C188.455 174.894 188.511 174.63 188.511 174.356C188.511 174.04 188.435 173.766 188.283 173.535C188.134 173.304 187.929 173.126 187.669 173C187.408 172.874 187.116 172.811 186.791 172.811C186.446 172.811 186.145 172.883 185.888 173.026C185.633 173.167 185.436 173.364 185.295 173.619C185.158 173.873 185.089 174.171 185.089 174.513H184.054C184.054 173.987 184.175 173.525 184.418 173.127C184.661 172.73 184.991 172.42 185.409 172.197C185.831 171.975 186.303 171.864 186.826 171.864C187.353 171.864 187.819 171.975 188.226 172.197C188.632 172.42 188.951 172.719 189.182 173.097C189.413 173.474 189.529 173.893 189.529 174.356C189.529 174.686 189.469 175.009 189.349 175.325C189.232 175.638 189.027 175.987 188.735 176.373C188.445 176.757 188.043 177.224 187.528 177.777L185.51 179.935V180.006H189.686V180.971H184.019ZM191.498 180.971V180.181L194.464 176.935C194.812 176.555 195.098 176.224 195.323 175.944C195.549 175.66 195.715 175.394 195.823 175.145C195.935 174.894 195.99 174.63 195.99 174.356C195.99 174.04 195.914 173.766 195.762 173.535C195.613 173.304 195.408 173.126 195.148 173C194.888 172.874 194.595 172.811 194.271 172.811C193.925 172.811 193.624 172.883 193.367 173.026C193.112 173.167 192.915 173.364 192.775 173.619C192.637 173.873 192.569 174.171 192.569 174.513H191.533C191.533 173.987 191.655 173.525 191.897 173.127C192.14 172.73 192.471 172.42 192.889 172.197C193.31 171.975 193.782 171.864 194.306 171.864C194.832 171.864 195.299 171.975 195.705 172.197C196.112 172.42 196.43 172.719 196.661 173.097C196.892 173.474 197.008 173.893 197.008 174.356C197.008 174.686 196.948 175.009 196.828 175.325C196.711 175.638 196.506 175.987 196.214 176.373C195.924 176.757 195.522 177.224 195.008 177.777L192.99 179.935V180.006H197.166V180.971H191.498Z" fill="#163A53"/>
<path d="M225.871 180.971V180.181L228.837 176.935C229.185 176.555 229.471 176.224 229.697 175.944C229.922 175.66 230.088 175.394 230.197 175.145C230.308 174.894 230.363 174.63 230.363 174.356C230.363 174.04 230.287 173.766 230.135 173.535C229.986 173.304 229.781 173.126 229.521 173C229.261 172.874 228.968 172.811 228.644 172.811C228.299 172.811 227.997 172.883 227.74 173.026C227.486 173.167 227.288 173.364 227.148 173.619C227.01 173.873 226.942 174.171 226.942 174.513H225.906C225.906 173.987 226.028 173.525 226.271 173.127C226.513 172.73 226.844 172.42 227.262 172.197C227.683 171.975 228.155 171.864 228.679 171.864C229.205 171.864 229.672 171.975 230.078 172.197C230.485 172.42 230.803 172.719 231.035 173.097C231.266 173.474 231.381 173.893 231.381 174.356C231.381 174.686 231.321 175.009 231.201 175.325C231.084 175.638 230.88 175.987 230.587 176.373C230.298 176.757 229.895 177.224 229.381 177.777L227.363 179.935V180.006H231.539V180.971H225.871ZM236.386 181.094C235.807 181.094 235.291 180.994 234.838 180.795C234.387 180.596 234.029 180.32 233.763 179.966C233.5 179.609 233.357 179.196 233.333 178.725H234.439C234.462 179.014 234.561 179.264 234.737 179.475C234.912 179.682 235.142 179.843 235.426 179.957C235.709 180.071 236.024 180.128 236.369 180.128C236.755 180.128 237.097 180.061 237.395 179.927C237.694 179.792 237.927 179.605 238.097 179.365C238.267 179.125 238.352 178.848 238.352 178.532C238.352 178.201 238.27 177.91 238.106 177.659C237.942 177.404 237.702 177.205 237.386 177.062C237.071 176.919 236.685 176.847 236.228 176.847H235.509V175.882H236.228C236.585 175.882 236.898 175.818 237.167 175.689C237.439 175.56 237.651 175.379 237.803 175.145C237.958 174.911 238.036 174.636 238.036 174.32C238.036 174.016 237.968 173.752 237.834 173.526C237.699 173.301 237.509 173.126 237.264 173C237.021 172.874 236.734 172.811 236.404 172.811C236.094 172.811 235.801 172.868 235.527 172.983C235.255 173.094 235.032 173.256 234.86 173.469C234.687 173.68 234.594 173.934 234.579 174.233H233.526C233.544 173.762 233.686 173.35 233.952 172.996C234.218 172.639 234.566 172.361 234.996 172.162C235.429 171.963 235.904 171.864 236.421 171.864C236.977 171.864 237.454 171.977 237.851 172.202C238.249 172.424 238.555 172.718 238.768 173.083C238.982 173.449 239.089 173.844 239.089 174.268C239.089 174.774 238.955 175.205 238.689 175.562C238.426 175.919 238.068 176.166 237.615 176.303V176.373C238.182 176.467 238.625 176.708 238.944 177.097C239.263 177.483 239.422 177.961 239.422 178.532C239.422 179.02 239.289 179.459 239.023 179.848C238.76 180.234 238.4 180.538 237.944 180.76C237.487 180.982 236.968 181.094 236.386 181.094Z" fill="#163A53"/>
<path d="M268.224 180.971V180.181L271.189 176.935C271.537 176.555 271.824 176.224 272.049 175.944C272.274 175.66 272.441 175.394 272.549 175.145C272.66 174.894 272.716 174.63 272.716 174.356C272.716 174.04 272.64 173.766 272.488 173.535C272.339 173.304 272.134 173.126 271.874 173C271.613 172.874 271.321 172.811 270.996 172.811C270.651 172.811 270.35 172.883 270.093 173.026C269.838 173.167 269.641 173.364 269.5 173.619C269.363 173.873 269.294 174.171 269.294 174.513H268.259C268.259 173.987 268.38 173.525 268.623 173.127C268.866 172.73 269.196 172.42 269.615 172.197C270.036 171.975 270.508 171.864 271.031 171.864C271.558 171.864 272.024 171.975 272.431 172.197C272.837 172.42 273.156 172.719 273.387 173.097C273.618 173.474 273.734 173.893 273.734 174.356C273.734 174.686 273.674 175.009 273.554 175.325C273.437 175.638 273.232 175.987 272.94 176.373C272.65 176.757 272.248 177.224 271.733 177.777L269.715 179.935V180.006H273.892V180.971H268.224ZM275.3 179.128V178.233L279.248 171.987H279.897V173.373H279.458L276.475 178.093V178.163H281.792V179.128H275.3ZM279.528 180.971V178.856V178.44V171.987H280.564V180.971H279.528Z" fill="#163A53"/>
</g>
<g clip-path="url(#clip6_561_922)">
<rect width="296.471" height="42.3529" transform="translate(0 197.647)" fill="white"/>
<path d="M14.6067 223.323V222.534L17.5721 219.288C17.9202 218.908 18.2068 218.577 18.4319 218.296C18.6571 218.013 18.8238 217.747 18.932 217.498C19.0432 217.246 19.0987 216.983 19.0987 216.708C19.0987 216.393 19.0227 216.119 18.8706 215.888C18.7215 215.657 18.5167 215.479 18.2565 215.353C17.9962 215.227 17.7037 215.164 17.3791 215.164C17.034 215.164 16.7328 215.236 16.4755 215.379C16.221 215.52 16.0236 215.717 15.8833 215.971C15.7458 216.226 15.6771 216.524 15.6771 216.866H14.6418C14.6418 216.34 14.7632 215.878 15.0059 215.48C15.2487 215.082 15.5791 214.772 15.9973 214.55C16.4184 214.328 16.8907 214.217 17.4142 214.217C17.9406 214.217 18.4071 214.328 18.8136 214.55C19.2201 214.772 19.5388 215.072 19.7699 215.449C20.0009 215.827 20.1164 216.246 20.1164 216.708C20.1164 217.039 20.0565 217.362 19.9366 217.678C19.8196 217.991 19.6149 218.34 19.3224 218.726C19.0329 219.109 18.6308 219.577 18.1161 220.13L16.0982 222.288V222.358H20.2744V223.323H14.6067ZM24.8935 223.446C24.3788 223.446 23.9153 223.344 23.503 223.139C23.0906 222.935 22.7601 222.654 22.5116 222.297C22.263 221.94 22.127 221.534 22.1036 221.077H23.1564C23.1974 221.484 23.3816 221.82 23.7091 222.086C24.0396 222.35 24.4344 222.481 24.8935 222.481C25.262 222.481 25.5896 222.395 25.8762 222.222C26.1657 222.05 26.3923 221.813 26.5561 221.512C26.7228 221.208 26.8061 220.864 26.8061 220.481C26.8061 220.089 26.7199 219.74 26.5473 219.432C26.3777 219.122 26.1438 218.878 25.8455 218.7C25.5472 218.522 25.2065 218.431 24.8234 218.428C24.5485 218.425 24.2662 218.467 23.9767 218.555C23.6872 218.64 23.4489 218.75 23.2617 218.884L22.244 218.761L22.7879 214.34H27.4554V215.305H23.7004L23.3845 217.954H23.4372C23.6214 217.808 23.8524 217.687 24.1303 217.59C24.4081 217.494 24.6976 217.445 24.9988 217.445C25.5486 217.445 26.0385 217.577 26.4684 217.84C26.9012 218.1 27.2404 218.457 27.4861 218.91C27.7347 219.364 27.859 219.881 27.859 220.463C27.859 221.037 27.7303 221.548 27.4729 221.999C27.2185 222.446 26.8676 222.8 26.4201 223.06C25.9727 223.318 25.4638 223.446 24.8935 223.446Z" fill="#163A53"/>
<path d="M56.4593 223.323V222.534L59.4247 219.288C59.7727 218.908 60.0593 218.577 60.2845 218.296C60.5097 218.013 60.6764 217.747 60.7846 217.498C60.8957 217.246 60.9513 216.983 60.9513 216.708C60.9513 216.393 60.8752 216.119 60.7231 215.888C60.574 215.657 60.3693 215.479 60.109 215.353C59.8487 215.227 59.5563 215.164 59.2317 215.164C58.8866 215.164 58.5854 215.236 58.328 215.379C58.0736 215.52 57.8762 215.717 57.7358 215.971C57.5984 216.226 57.5296 216.524 57.5296 216.866H56.4944C56.4944 216.34 56.6157 215.878 56.8585 215.48C57.1012 215.082 57.4317 214.772 57.8499 214.55C58.271 214.328 58.7433 214.217 59.2668 214.217C59.7932 214.217 60.2596 214.328 60.6661 214.55C61.0726 214.772 61.3914 215.072 61.6224 215.449C61.8535 215.827 61.969 216.246 61.969 216.708C61.969 217.039 61.909 217.362 61.7891 217.678C61.6721 217.991 61.4674 218.34 61.175 218.726C60.8855 219.109 60.4833 219.577 59.9686 220.13L57.9508 222.288V222.358H62.1269V223.323H56.4593ZM66.9216 223.446C66.5531 223.44 66.1846 223.37 65.8161 223.236C65.4476 223.101 65.1113 222.875 64.8072 222.556C64.503 222.234 64.2588 221.8 64.0746 221.253C63.8903 220.703 63.7982 220.013 63.7982 219.182C63.7982 218.387 63.8728 217.682 64.0219 217.068C64.1711 216.451 64.3875 215.932 64.6712 215.511C64.9548 215.087 65.297 214.765 65.6977 214.546C66.1012 214.326 66.556 214.217 67.0619 214.217C67.5649 214.217 68.0124 214.318 68.4043 214.519C68.7991 214.718 69.1207 214.996 69.3693 215.353C69.6179 215.71 69.7788 216.121 69.8519 216.586H68.7815C68.6821 216.182 68.4891 215.847 68.2025 215.581C67.9159 215.315 67.5357 215.182 67.0619 215.182C66.3659 215.182 65.8176 215.484 65.4169 216.09C65.0192 216.695 64.8189 217.545 64.8159 218.638H64.8861C65.0499 218.39 65.2444 218.178 65.4696 218.002C65.6977 217.824 65.9492 217.687 66.2241 217.59C66.499 217.494 66.79 217.445 67.097 217.445C67.6117 217.445 68.0826 217.574 68.5095 217.831C68.9365 218.086 69.2787 218.438 69.536 218.889C69.7934 219.336 69.9221 219.849 69.9221 220.428C69.9221 220.984 69.7978 221.493 69.5492 221.955C69.3006 222.414 68.9511 222.78 68.5008 223.052C68.0533 223.321 67.5269 223.452 66.9216 223.446ZM66.9216 222.481C67.29 222.481 67.6205 222.389 67.9129 222.205C68.2083 222.021 68.4408 221.774 68.6104 221.464C68.783 221.154 68.8692 220.808 68.8692 220.428C68.8692 220.057 68.7859 219.719 68.6192 219.415C68.4554 219.108 68.2288 218.864 67.9393 218.682C67.6527 218.501 67.3251 218.41 66.9566 218.41C66.6788 218.41 66.42 218.466 66.1802 218.577C65.9404 218.685 65.7298 218.834 65.5485 219.025C65.3701 219.215 65.2297 219.432 65.1274 219.678C65.025 219.921 64.9739 220.177 64.9739 220.446C64.9739 220.803 65.0572 221.136 65.2239 221.446C65.3935 221.756 65.6246 222.006 65.917 222.196C66.2124 222.386 66.5472 222.481 66.9216 222.481Z" fill="#163A53"/>
<path d="M99.3128 223.323V222.534L102.278 219.288C102.626 218.908 102.913 218.577 103.138 218.296C103.363 218.013 103.53 217.747 103.638 217.498C103.749 217.246 103.805 216.983 103.805 216.708C103.805 216.393 103.729 216.119 103.577 215.888C103.428 215.657 103.223 215.479 102.963 215.353C102.702 215.227 102.41 215.164 102.085 215.164C101.74 215.164 101.439 215.236 101.182 215.379C100.927 215.52 100.73 215.717 100.589 215.971C100.452 216.226 100.383 216.524 100.383 216.866H99.3479C99.3479 216.34 99.4693 215.878 99.712 215.48C99.9547 215.082 100.285 214.772 100.703 214.55C101.124 214.328 101.597 214.217 102.12 214.217C102.647 214.217 103.113 214.328 103.52 214.55C103.926 214.772 104.245 215.072 104.476 215.449C104.707 215.827 104.822 216.246 104.822 216.708C104.822 217.039 104.763 217.362 104.643 217.678C104.526 217.991 104.321 218.34 104.028 218.726C103.739 219.109 103.337 219.577 102.822 220.13L100.804 222.288V222.358H104.98V223.323H99.3128ZM107.073 223.323L111.091 215.375V215.305H106.459V214.34H112.214V215.357L108.213 223.323H107.073Z" fill="#163A53"/>
<path d="M141.165 223.323V222.534L144.131 219.288C144.479 218.908 144.765 218.577 144.991 218.296C145.216 218.013 145.382 217.747 145.491 217.498C145.602 217.246 145.657 216.983 145.657 216.708C145.657 216.393 145.581 216.119 145.429 215.888C145.28 215.657 145.075 215.479 144.815 215.353C144.555 215.227 144.262 215.164 143.938 215.164C143.593 215.164 143.291 215.236 143.034 215.379C142.78 215.52 142.582 215.717 142.442 215.971C142.304 216.226 142.236 216.524 142.236 216.866H141.2C141.2 216.34 141.322 215.878 141.565 215.48C141.807 215.082 142.138 214.772 142.556 214.55C142.977 214.328 143.449 214.217 143.973 214.217C144.499 214.217 144.966 214.328 145.372 214.55C145.779 214.772 146.097 215.072 146.328 215.449C146.56 215.827 146.675 216.246 146.675 216.708C146.675 217.039 146.615 217.362 146.495 217.678C146.378 217.991 146.173 218.34 145.881 218.726C145.592 219.109 145.189 219.577 144.675 220.13L142.657 222.288V222.358H146.833V223.323H141.165ZM151.522 223.446C150.92 223.446 150.388 223.34 149.926 223.126C149.466 222.91 149.108 222.613 148.851 222.236C148.593 221.855 148.466 221.423 148.469 220.937C148.466 220.557 148.541 220.206 148.693 219.884C148.845 219.56 149.053 219.289 149.316 219.073C149.582 218.853 149.879 218.715 150.206 218.656V218.603C149.776 218.492 149.434 218.251 149.18 217.88C148.925 217.505 148.8 217.08 148.803 216.603C148.8 216.147 148.915 215.739 149.149 215.379C149.383 215.019 149.705 214.736 150.114 214.528C150.527 214.321 150.996 214.217 151.522 214.217C152.043 214.217 152.508 214.321 152.917 214.528C153.327 214.736 153.648 215.019 153.882 215.379C154.119 215.739 154.239 216.147 154.242 216.603C154.239 217.08 154.109 217.505 153.852 217.88C153.597 218.251 153.259 218.492 152.838 218.603V218.656C153.163 218.715 153.455 218.853 153.716 219.073C153.976 219.289 154.184 219.56 154.339 219.884C154.494 220.206 154.573 220.557 154.575 220.937C154.573 221.423 154.441 221.855 154.181 222.236C153.923 222.613 153.565 222.91 153.106 223.126C152.65 223.34 152.122 223.446 151.522 223.446ZM151.522 222.481C151.929 222.481 152.28 222.415 152.575 222.284C152.871 222.152 153.099 221.967 153.259 221.727C153.42 221.487 153.502 221.206 153.505 220.884C153.502 220.545 153.414 220.245 153.242 219.985C153.069 219.725 152.834 219.52 152.536 219.371C152.24 219.222 151.903 219.147 151.522 219.147C151.139 219.147 150.797 219.222 150.496 219.371C150.198 219.52 149.962 219.725 149.79 219.985C149.62 220.245 149.537 220.545 149.54 220.884C149.537 221.206 149.614 221.487 149.772 221.727C149.933 221.967 150.162 222.152 150.461 222.284C150.759 222.415 151.113 222.481 151.522 222.481ZM151.522 218.217C151.844 218.217 152.129 218.153 152.378 218.024C152.629 217.896 152.827 217.716 152.97 217.485C153.113 217.254 153.186 216.983 153.189 216.673C153.186 216.369 153.115 216.104 152.974 215.879C152.834 215.651 152.639 215.476 152.391 215.353C152.142 215.227 151.853 215.164 151.522 215.164C151.186 215.164 150.892 215.227 150.641 215.353C150.389 215.476 150.195 215.651 150.057 215.879C149.92 216.104 149.852 216.369 149.855 216.673C149.852 216.983 149.921 217.254 150.062 217.485C150.205 217.716 150.402 217.896 150.654 218.024C150.905 218.153 151.195 218.217 151.522 218.217Z" fill="#163A53"/>
<path d="M183.519 223.323V222.534L186.484 219.288C186.832 218.908 187.119 218.577 187.344 218.296C187.569 218.013 187.736 217.747 187.844 217.498C187.955 217.246 188.011 216.983 188.011 216.708C188.011 216.393 187.935 216.119 187.783 215.888C187.634 215.657 187.429 215.479 187.169 215.353C186.908 215.227 186.616 215.164 186.291 215.164C185.946 215.164 185.645 215.236 185.388 215.379C185.133 215.52 184.936 215.717 184.795 215.971C184.658 216.226 184.589 216.524 184.589 216.866H183.554C183.554 216.34 183.675 215.878 183.918 215.48C184.161 215.082 184.491 214.772 184.909 214.55C185.331 214.328 185.803 214.217 186.326 214.217C186.853 214.217 187.319 214.328 187.726 214.55C188.132 214.772 188.451 215.072 188.682 215.449C188.913 215.827 189.029 216.246 189.029 216.708C189.029 217.039 188.969 217.362 188.849 217.678C188.732 217.991 188.527 218.34 188.235 218.726C187.945 219.109 187.543 219.577 187.028 220.13L185.01 222.288V222.358H189.186V223.323H183.519ZM193.858 214.217C194.227 214.22 194.595 214.29 194.964 214.427C195.332 214.565 195.669 214.793 195.973 215.112C196.277 215.427 196.521 215.859 196.705 216.406C196.89 216.953 196.982 217.638 196.982 218.463C196.982 219.261 196.906 219.971 196.754 220.591C196.604 221.208 196.388 221.728 196.104 222.152C195.824 222.576 195.481 222.898 195.078 223.117C194.677 223.337 194.224 223.446 193.718 223.446C193.215 223.446 192.766 223.347 192.371 223.148C191.979 222.946 191.658 222.667 191.406 222.31C191.158 221.95 190.998 221.534 190.928 221.06H191.998C192.095 221.472 192.286 221.813 192.573 222.082C192.863 222.348 193.244 222.481 193.718 222.481C194.411 222.481 194.958 222.179 195.359 221.573C195.762 220.968 195.964 220.112 195.964 219.007H195.894C195.73 219.253 195.535 219.465 195.31 219.643C195.085 219.821 194.835 219.959 194.56 220.055C194.285 220.152 193.993 220.2 193.683 220.2C193.168 220.2 192.696 220.073 192.266 219.819C191.839 219.561 191.497 219.209 191.239 218.761C190.985 218.311 190.858 217.796 190.858 217.217C190.858 216.667 190.981 216.164 191.226 215.708C191.475 215.249 191.823 214.883 192.27 214.612C192.721 214.34 193.25 214.208 193.858 214.217ZM193.858 215.182C193.49 215.182 193.158 215.274 192.863 215.458C192.57 215.639 192.338 215.885 192.165 216.195C191.995 216.502 191.911 216.843 191.911 217.217C191.911 217.592 191.992 217.932 192.156 218.239C192.323 218.543 192.55 218.786 192.836 218.967C193.126 219.146 193.455 219.235 193.823 219.235C194.101 219.235 194.36 219.181 194.6 219.073C194.839 218.962 195.049 218.811 195.227 218.621C195.408 218.428 195.55 218.21 195.652 217.967C195.755 217.722 195.806 217.466 195.806 217.2C195.806 216.849 195.721 216.52 195.552 216.213C195.385 215.906 195.154 215.657 194.858 215.467C194.566 215.277 194.233 215.182 193.858 215.182Z" fill="#163A53"/>
<path d="M228.907 223.446C228.328 223.446 227.812 223.347 227.358 223.148C226.908 222.949 226.55 222.673 226.284 222.319C226.021 221.962 225.877 221.548 225.854 221.077H226.959C226.983 221.367 227.082 221.617 227.258 221.828C227.433 222.035 227.663 222.196 227.946 222.31C228.23 222.424 228.544 222.481 228.889 222.481C229.275 222.481 229.618 222.414 229.916 222.279C230.214 222.145 230.448 221.958 230.618 221.718C230.787 221.478 230.872 221.2 230.872 220.884C230.872 220.554 230.79 220.263 230.627 220.012C230.463 219.757 230.223 219.558 229.907 219.415C229.591 219.272 229.205 219.2 228.749 219.2H228.03V218.235H228.749C229.106 218.235 229.419 218.171 229.688 218.042C229.96 217.913 230.172 217.732 230.324 217.498C230.479 217.264 230.556 216.989 230.556 216.673C230.556 216.369 230.489 216.104 230.355 215.879C230.22 215.654 230.03 215.479 229.784 215.353C229.542 215.227 229.255 215.164 228.925 215.164C228.615 215.164 228.322 215.221 228.047 215.335C227.775 215.446 227.553 215.609 227.38 215.822C227.208 216.033 227.114 216.287 227.1 216.586H226.047C226.064 216.115 226.206 215.702 226.472 215.348C226.738 214.992 227.087 214.714 227.516 214.515C227.949 214.316 228.424 214.217 228.942 214.217C229.498 214.217 229.974 214.329 230.372 214.554C230.77 214.777 231.075 215.071 231.289 215.436C231.502 215.802 231.609 216.197 231.609 216.621C231.609 217.127 231.476 217.558 231.21 217.915C230.947 218.271 230.589 218.519 230.135 218.656V218.726C230.703 218.82 231.146 219.061 231.464 219.45C231.783 219.836 231.943 220.314 231.943 220.884C231.943 221.373 231.81 221.812 231.543 222.2C231.28 222.587 230.92 222.891 230.464 223.113C230.008 223.335 229.489 223.446 228.907 223.446ZM236.667 223.446C236.006 223.446 235.443 223.266 234.978 222.907C234.513 222.544 234.158 222.019 233.912 221.332C233.667 220.642 233.544 219.808 233.544 218.832C233.544 217.861 233.667 217.031 233.912 216.344C234.161 215.654 234.518 215.128 234.983 214.765C235.45 214.399 236.012 214.217 236.667 214.217C237.322 214.217 237.882 214.399 238.347 214.765C238.815 215.128 239.172 215.654 239.418 216.344C239.666 217.031 239.79 217.861 239.79 218.832C239.79 219.808 239.668 220.642 239.422 221.332C239.176 222.019 238.821 222.544 238.356 222.907C237.891 223.266 237.328 223.446 236.667 223.446ZM236.667 222.481C237.322 222.481 237.831 222.165 238.194 221.534C238.556 220.902 238.738 220.001 238.738 218.832C238.738 218.054 238.654 217.391 238.488 216.844C238.324 216.297 238.087 215.881 237.777 215.594C237.47 215.308 237.1 215.164 236.667 215.164C236.018 215.164 235.51 215.484 235.145 216.125C234.779 216.762 234.597 217.665 234.597 218.832C234.597 219.609 234.678 220.27 234.842 220.814C235.006 221.358 235.241 221.772 235.548 222.056C235.858 222.339 236.231 222.481 236.667 222.481Z" fill="#163A53"/>
<path d="M272.26 223.446C271.68 223.446 271.164 223.347 270.711 223.148C270.261 222.949 269.902 222.673 269.636 222.319C269.373 221.962 269.23 221.548 269.206 221.077H270.312C270.335 221.367 270.435 221.617 270.61 221.828C270.786 222.035 271.015 222.196 271.299 222.31C271.583 222.424 271.897 222.481 272.242 222.481C272.628 222.481 272.97 222.414 273.268 222.279C273.567 222.145 273.801 221.958 273.97 221.718C274.14 221.478 274.225 221.2 274.225 220.884C274.225 220.554 274.143 220.263 273.979 220.012C273.815 219.757 273.576 219.558 273.26 219.415C272.944 219.272 272.558 219.2 272.102 219.2H271.382V218.235H272.102C272.458 218.235 272.771 218.171 273.04 218.042C273.312 217.913 273.524 217.732 273.676 217.498C273.831 217.264 273.909 216.989 273.909 216.673C273.909 216.369 273.842 216.104 273.707 215.879C273.573 215.654 273.383 215.479 273.137 215.353C272.894 215.227 272.608 215.164 272.277 215.164C271.967 215.164 271.675 215.221 271.4 215.335C271.128 215.446 270.905 215.609 270.733 215.822C270.56 216.033 270.467 216.287 270.452 216.586H269.399C269.417 216.115 269.559 215.702 269.825 215.348C270.091 214.992 270.439 214.714 270.869 214.515C271.302 214.316 271.777 214.217 272.295 214.217C272.85 214.217 273.327 214.329 273.725 214.554C274.122 214.777 274.428 215.071 274.641 215.436C274.855 215.802 274.962 216.197 274.962 216.621C274.962 217.127 274.829 217.558 274.563 217.915C274.299 218.271 273.941 218.519 273.488 218.656V218.726C274.055 218.82 274.498 219.061 274.817 219.45C275.136 219.836 275.295 220.314 275.295 220.884C275.295 221.373 275.162 221.812 274.896 222.2C274.633 222.587 274.273 222.891 273.817 223.113C273.361 223.335 272.841 223.446 272.26 223.446ZM280.248 214.34V223.323H279.16V215.48H279.107L276.914 216.936V215.831L279.16 214.34H280.248Z" fill="#163A53"/>
</g>
</g>
<defs>
<clipPath id="clip0_561_922">
<path d="M0 0H296.471V240H0V0Z" fill="white"/>
</clipPath>
<clipPath id="clip1_561_922">
<rect width="296.471" height="28.2353" fill="white"/>
</clipPath>
<clipPath id="clip2_561_922">
<rect width="296.471" height="42.3529" fill="white" transform="translate(0 28.2354)"/>
</clipPath>
<clipPath id="clip3_561_922">
<rect width="296.471" height="42.3529" fill="white" transform="translate(0 70.5881)"/>
</clipPath>
<clipPath id="clip4_561_922">
<rect width="296.471" height="42.3529" fill="white" transform="translate(0 112.941)"/>
</clipPath>
<clipPath id="clip5_561_922">
<rect width="296.471" height="42.3529" fill="white" transform="translate(0 155.294)"/>
</clipPath>
<clipPath id="clip6_561_922">
<rect width="296.471" height="42.3529" fill="white" transform="translate(0 197.647)"/>
</clipPath>
</defs>
</svg>
