<svg width="240" height="207" viewBox="0 0 240 207" fill="none" xmlns="http://www.w3.org/2000/svg">
<g clip-path="url(#clip0_759_995)">
<path d="M136.723 205.125H69.5225C60.7666 205.125 53.6445 198.003 53.6445 189.247V15.878C53.6445 7.12211 60.7666 0 69.5225 0H136.723C145.479 0 152.601 7.12211 152.601 15.878V189.244C152.601 198 145.479 205.122 136.723 205.122V205.125Z" fill="#163A53"/>
<path d="M136.792 200.839H69.4563C62.8868 200.839 57.54 195.492 57.54 188.922V15.2251C57.54 8.6556 62.8868 3.30884 69.4563 3.30884H136.792C143.361 3.30884 148.708 8.6556 148.708 15.2251V188.922C148.708 195.492 143.361 200.839 136.792 200.839Z" fill="#F6ECDE"/>
<path d="M113.639 14.6103H92.2103C89.7407 14.6103 87.7305 12.6 87.7305 10.1305C87.7305 7.66085 89.7407 5.65063 92.2103 5.65063H113.639C116.108 5.65063 118.119 7.66085 118.119 10.1305C118.119 12.6 116.108 14.6103 113.639 14.6103Z" fill="#163A53"/>
<path d="M117.418 86.2769L110.759 81.0959C110.759 81.0959 103.16 83.4654 102.963 83.5621C102.766 83.6588 91.168 110.558 91.168 110.558C91.168 110.558 120.879 125.763 118.707 124.281C116.534 122.803 116.983 102.763 119.004 100.148C121.031 97.53 119.301 90.9674 119.301 90.9674L117.425 86.2804H117.415L117.418 86.2769Z" fill="#2F2E43"/>
<path d="M99.0058 98.397H108.038V112.724L98.0801 109.453L99.0058 98.397Z" fill="#F3A3A6"/>
<path d="M118.648 132.332C117.321 132.881 115.957 133.358 114.558 133.755C111.208 134.716 107.667 135.223 104.017 135.223C100.818 135.223 97.7096 134.833 94.7357 134.09C93.6857 133.831 92.6529 133.527 91.6444 133.182C90.3698 132.747 89.1264 132.253 87.9141 131.686L88.4909 128.868L90.0141 121.407L91.7998 112.69L92.1314 111.049L92.9223 107.184L92.9327 107.135H110.997L111.007 107.17L115.822 123.01L117.836 129.645L118.651 132.336L118.648 132.332Z" fill="#F9A826"/>
<path d="M124.806 129.11C122.868 130.364 120.806 131.445 118.648 132.332C117.321 132.882 115.957 133.358 114.558 133.755L113.902 131.03L111.446 120.837L108.141 107.139H108.144C108.144 107.139 108.462 107.132 109.001 107.132C109.505 107.132 110.199 107.139 111.004 107.167C112.935 107.236 115.487 107.433 117.484 107.951C119.024 108.348 120.233 108.939 120.578 109.805C120.92 110.666 122.347 117.256 124.191 126.16C124.392 127.12 124.592 128.101 124.803 129.11H124.806Z" fill="#F9A826"/>
<path d="M106.801 102.359C112.279 102.359 116.721 97.9175 116.721 92.4389C116.721 86.9603 112.279 82.519 106.801 82.519C101.322 82.519 96.8809 86.9603 96.8809 92.4389C96.8809 97.9175 101.322 102.359 106.801 102.359Z" fill="#F3A3A6"/>
<path d="M119.159 90.6186V90.6324L116.728 91.0503C116.596 90.5149 116.448 90.0176 116.296 89.5617C116.109 89.009 115.912 88.5116 115.705 88.0661C115.177 86.9332 114.583 86.1388 113.975 85.5896C111.692 83.5206 109.163 84.8953 108.828 84.8262C108.386 84.7364 102.428 91.2023 101.665 98.3935C101.585 99.1914 101.565 99.9996 101.623 100.811C101.627 100.842 101.627 100.87 101.627 100.901C101.786 103.353 100.926 105.409 99.658 107.077C99.6442 107.094 99.6304 107.111 99.6166 107.129C99.1676 107.716 98.6633 108.255 98.1417 108.749C96.6358 110.158 94.9364 111.184 93.6688 111.833C92.6913 112.337 91.9729 112.617 91.7968 112.683C91.7691 112.693 91.7553 112.696 91.7553 112.696C91.7553 112.696 90.1423 115.726 90.0145 121.4C89.9627 123.78 90.1699 126.623 90.8642 129.904C91.0092 130.588 91.1716 131.286 91.3616 132.004C91.4652 132.401 91.5619 132.795 91.6448 133.175C90.3703 132.74 89.1268 132.246 87.9145 131.68C86.9474 131.234 86.0079 130.75 85.0891 130.225C84.2498 129.752 83.4278 129.244 82.6299 128.706C83.0513 127.701 83.4588 126.823 83.8146 126.129C84.0564 125.656 84.274 125.272 84.4501 124.993C86.6227 121.535 85.1409 115.518 85.1409 115.518C81.7871 112.558 85.7316 106.044 85.7316 106.044C85.7316 106.044 85.0373 97.3573 87.1132 95.6821C89.189 94.0035 89.2857 89.8552 89.2857 89.8552C92.9435 73.9635 104.884 77.0237 104.884 77.0237C119.912 75.3727 119.194 90.0867 119.163 90.6082L119.159 90.6186Z" fill="#2F2E43"/>
<path d="M100.822 107.198L100.159 110.134L99.1397 114.624L95.3541 131.358L94.7358 134.09C93.6858 133.831 92.6531 133.527 91.6445 133.182C90.37 132.747 89.1266 132.253 87.9142 131.686C86.9471 131.241 86.0076 130.757 85.0889 130.232C85.2927 129.248 85.4895 128.284 85.6864 127.341C87.7381 117.394 89.3614 109.833 89.731 108.907C90.0799 108.03 91.199 107.522 92.6013 107.243C92.7049 107.222 92.8154 107.201 92.9225 107.184C93.0227 107.167 93.1297 107.149 93.2299 107.136C94.8809 106.894 96.7944 106.911 98.29 106.987C98.8081 107.015 99.2744 107.049 99.6612 107.08C99.8788 107.098 100.076 107.118 100.235 107.132C100.608 107.17 100.825 107.198 100.825 107.198H100.822Z" fill="#F9A826"/>
<path d="M104.016 135.914C100.818 135.914 97.6369 135.527 94.5663 134.761C93.5094 134.501 92.449 134.187 91.4163 133.835C90.1107 133.389 88.8327 132.878 87.6204 132.315C86.6602 131.873 85.693 131.376 84.7432 130.833C83.8901 130.353 83.0473 129.832 82.2391 129.286C71.3452 121.977 64.8379 109.809 64.8379 96.7391C64.8379 75.1379 82.4118 57.5605 104.016 57.5605C125.621 57.5605 143.195 75.1344 143.195 96.7391C143.195 110.106 136.46 122.423 125.182 129.69C123.203 130.968 121.093 132.073 118.913 132.971C117.563 133.531 116.164 134.018 114.751 134.422C111.28 135.413 107.671 135.918 104.02 135.918L104.016 135.914ZM104.016 58.9387C83.1751 58.9387 66.2195 75.8943 66.2195 96.7356C66.2195 109.346 72.4954 121.083 83.0093 128.139C83.7864 128.664 84.5981 129.165 85.4236 129.628C86.3424 130.153 87.275 130.633 88.2006 131.058C89.3715 131.604 90.6011 132.094 91.8653 132.526C92.8601 132.868 93.8824 133.168 94.9014 133.42C97.8649 134.16 100.932 134.533 104.02 134.533C107.539 134.533 111.025 134.046 114.371 133.089C115.736 132.702 117.086 132.229 118.388 131.69C120.492 130.823 122.526 129.759 124.436 128.526C135.32 121.514 141.817 109.629 141.817 96.7356C141.817 75.8943 124.861 58.9387 104.02 58.9387H104.016Z" fill="#163A53"/>
<path d="M150.107 110.856C150.842 110.134 151.747 109.602 152.749 109.305L160.033 101.364L163.874 105.046L156.068 112.707C155.733 113.688 155.167 114.565 154.41 115.266C152.542 117.052 150.065 117.511 148.877 116.292C147.685 115.076 148.235 112.641 150.1 110.859H150.107V110.856Z" fill="#F3A3A6"/>
<path d="M153.143 107.281L157.011 112.144L177.006 97.0084L177.023 96.9739L188.708 75.1689C190.497 71.8289 189.506 67.6737 186.401 65.5046C184.501 64.1748 182.139 63.8052 179.921 64.4857C177.704 65.1661 175.96 66.7998 175.131 68.9655L167.549 88.8086L153.143 107.274V107.281Z" fill="#163A53"/>
<path d="M186.069 56.8457H177.918V69.7774L186.905 66.8243L186.069 56.8457Z" fill="#F3A3A6"/>
<path d="M170.077 51.4713C170.077 56.4174 174.084 60.424 179.03 60.424C183.976 60.424 187.983 56.4174 187.983 51.4713C187.983 46.5252 183.976 42.5186 179.03 42.5186C174.084 42.5186 170.077 46.5252 170.077 51.4713Z" fill="#F3A3A6"/>
<path d="M185.366 57.1944L186.239 58.8523L190.094 51.5264C192.415 44.4181 184.309 40.3355 184.309 40.3355C181.663 37.22 176.347 40.8639 176.347 40.8639C168.679 39.1611 172.382 45.6235 172.382 45.6235C172.382 45.6235 174.997 45.6822 174.997 47.7961C174.997 49.9134 177.846 49.7648 177.846 49.7648L180.077 53.6713L181.311 52.1723C185.894 50.2311 185.366 57.1944 185.366 57.1944Z" fill="#2F2E43"/>
<path d="M189.371 189.351H182.139V199.613H189.371V189.351Z" fill="#F3A3A6"/>
<path d="M175.096 205.823C178.271 205.823 182.906 205.491 182.94 205.488C184.18 205.598 190.37 206.085 190.677 204.669C190.961 203.367 190.543 202.006 190.484 201.82C189.886 195.903 189.665 195.834 189.534 195.796C189.323 195.734 188.709 196.027 187.71 196.67L187.648 196.711L187.634 196.784C187.617 196.874 187.175 199.046 185.078 198.715C183.642 198.487 183.175 198.169 183.027 198.013C183.148 197.958 183.3 197.861 183.407 197.696C183.562 197.454 183.59 197.143 183.486 196.77C183.217 195.789 182.409 194.335 182.374 194.273L182.281 194.107L174.06 199.654L168.983 201.105C168.599 201.212 168.292 201.488 168.137 201.854C167.923 202.365 168.054 202.959 168.468 203.333C169.39 204.161 171.225 205.581 173.145 205.757C173.656 205.806 174.333 205.823 175.093 205.823H175.096Z" fill="#2F2E43"/>
<path d="M204.684 173.968L199.111 178.578L205.652 186.485L211.225 181.875L204.684 173.968Z" fill="#F3A3A6"/>
<path d="M204.192 195.748C206.638 193.724 209.998 190.515 210.023 190.491C211.048 189.789 216.129 186.218 215.463 184.93C214.851 183.745 213.663 182.961 213.497 182.857C209.266 178.675 209.055 178.764 208.928 178.82C208.724 178.906 208.437 179.521 208.078 180.654L208.057 180.723L208.092 180.788C208.14 180.871 209.183 182.83 207.356 183.907C206.102 184.646 205.543 184.698 205.329 184.674C205.387 184.553 205.443 184.381 205.418 184.184C205.384 183.9 205.208 183.641 204.89 183.42C204.054 182.837 202.507 182.229 202.441 182.205L202.265 182.135L199.467 191.648L196.479 196.003C196.255 196.331 196.193 196.739 196.307 197.122C196.469 197.654 196.949 198.027 197.505 198.051C198.742 198.103 201.059 198.027 202.652 196.939C203.073 196.649 203.605 196.231 204.192 195.748Z" fill="#2F2E43"/>
<path d="M170.181 110.217L181.206 192.224H189.475L194.988 110.217H170.178H170.181Z" fill="#2F2E43"/>
<path d="M191.541 155.011L208.006 176.374L200.96 182.194L172.703 155.319L170.178 110.217L175.231 114.734L191.541 155.011Z" fill="#2F2E43"/>
<path d="M175.231 61.9746L170.178 110.216H194.988L196.912 94.5595C198.096 84.8883 196.124 75.0928 191.288 66.6375L187.482 59.9851L175.231 61.9746Z" fill="#163A53"/>
<path d="M173.007 123.926C173.376 122.962 173.981 122.102 174.768 121.418L178.101 111.167L183.127 112.925L179.207 123.131C179.314 124.16 179.158 125.193 178.761 126.15C177.804 128.547 175.739 129.994 174.153 129.379C172.568 128.765 172.057 126.323 173.014 123.926H173.007Z" fill="#F3A3A6"/>
<path d="M174.295 119.39L179.832 122.209L191.744 100.141V100.103L193.33 75.4177C193.572 71.639 190.947 68.2679 187.22 67.584C184.937 67.1661 182.633 67.8086 180.902 69.349C179.165 70.8895 178.257 73.1035 178.402 75.4177L179.738 96.6148L174.295 119.394V119.39Z" fill="#163A53"/>
</g>
<defs>
<clipPath id="clip0_759_995">
<rect width="240" height="206.22" fill="white"/>
</clipPath>
</defs>
</svg>
