<svg width="473" height="359" viewBox="0 0 473 359" fill="none" xmlns="http://www.w3.org/2000/svg">
<g clip-path="url(#clip0_397_680)">
<rect width="472.906" height="358.762" rx="30" fill="#F6ECDE"/>
<path d="M402.927 341.537C404.993 341.667 406.135 339.1 404.572 337.604L404.416 336.986C404.437 336.936 404.457 336.887 404.478 336.837C406.567 331.856 413.648 331.89 415.719 336.879C417.558 341.307 419.899 345.743 420.475 350.425C420.733 352.492 420.617 354.597 420.159 356.626C424.467 347.215 426.734 336.939 426.734 326.605C426.734 324.008 426.592 321.412 426.301 318.822C426.062 316.703 425.733 314.598 425.306 312.511C423 301.234 418.008 290.493 410.806 281.522C407.344 279.629 404.457 276.671 402.713 273.125C402.087 271.846 401.596 270.471 401.363 269.069C401.757 269.121 402.849 263.12 402.552 262.752C403.101 261.919 404.083 261.505 404.683 260.692C407.665 256.649 411.774 257.355 413.919 262.849C418.502 265.162 418.546 268.997 415.734 272.686C413.946 275.033 413.7 278.208 412.13 280.721C412.292 280.928 412.46 281.128 412.621 281.335C415.582 285.132 418.143 289.215 420.302 293.503C419.692 288.737 420.593 282.995 422.129 279.294C423.877 275.076 427.153 271.524 430.039 267.879C433.505 263.499 440.612 265.41 441.223 270.962C441.229 271.016 441.235 271.069 441.24 271.123C440.812 271.365 440.392 271.622 439.982 271.893C437.642 273.44 438.451 277.067 441.223 277.495L441.286 277.504C441.13 279.048 440.866 280.579 440.478 282.084C444.18 296.4 436.188 301.614 424.777 301.848C424.525 301.977 424.279 302.106 424.027 302.229C425.184 305.484 426.107 308.823 426.792 312.208C427.405 315.198 427.832 318.221 428.071 321.257C428.368 325.087 428.342 328.936 428.019 332.76L428.038 332.624C428.859 328.413 431.145 324.48 434.465 321.754C439.411 317.691 446.398 316.195 451.733 312.93C454.302 311.358 457.593 313.389 457.144 316.367L457.123 316.51C456.328 316.832 455.553 317.207 454.804 317.627C454.375 317.869 453.955 318.126 453.545 318.397C451.206 319.944 452.014 323.571 454.786 323.999L454.849 324.008C454.894 324.015 454.933 324.021 454.978 324.028C453.615 327.264 451.717 330.267 449.34 332.857C447.025 345.354 437.084 346.54 426.45 342.9H426.443C425.28 347.964 423.582 352.912 421.399 357.627H403.378C403.314 357.427 403.256 357.22 403.198 357.02C404.864 357.123 406.543 357.026 408.184 356.723C406.847 355.082 405.51 353.428 404.173 351.788C404.141 351.756 404.115 351.723 404.089 351.691C403.411 350.851 402.726 350.018 402.048 349.179L402.048 349.178C402.005 346.6 402.315 344.03 402.927 341.537Z" fill="#DE6A38"/>
<path d="M155.236 357.572C155.236 358.232 155.766 358.762 156.426 358.762H471.716C472.376 358.762 472.906 358.232 472.906 357.572C472.906 356.912 472.376 356.382 471.716 356.382H156.426C155.766 356.382 155.236 356.912 155.236 357.572Z" fill="#CCCCCC"/>
<path d="M273.68 271.582L268.81 275.492L267.25 276.752C267.11 276.562 266.95 276.362 266.79 276.182C265.26 274.452 263.06 273.462 260.76 273.462H221.68C221.55 272.802 221.52 272.132 221.58 271.462C221.75 269.522 222.68 267.652 224.32 266.342L251.77 244.292C254.95 241.732 259.61 242.242 262.17 245.432L274.82 261.182C277.38 264.372 276.87 269.022 273.68 271.582Z" fill="#F6ECDE"/>
<path d="M265.5 273.462H217.24C215.98 273.462 214.75 273.762 213.65 274.322L213.38 274.112C212.9 273.742 212.47 273.322 212.12 272.872C210.03 270.272 209.9 266.502 212.02 263.742L224.33 247.722C226.82 244.482 231.47 243.872 234.71 246.362L262.62 267.812C263.88 268.772 264.73 270.062 265.17 271.462C265.37 272.112 265.49 272.782 265.5 273.462Z" fill="#EF9F64"/>
<path d="M304.98 25.4619H19.02C8.53003 25.4619 0 33.9919 0 44.4819V339.442C0 349.932 8.53003 358.462 19.02 358.462H304.98C315.47 358.462 324 349.932 324 339.442V44.4819C324 33.9919 315.47 25.4619 304.98 25.4619ZM322 339.442C322 348.832 314.37 356.462 304.98 356.462H19.02C9.63001 356.462 2 348.832 2 339.442V44.4819C2 35.0919 9.63 27.4619 19.02 27.4619H304.98C314.37 27.4619 322 35.0919 322 44.4819V339.442Z" fill="#256864"/>
<path d="M129.03 44.812H100.97C99.5602 44.812 98.4102 45.962 98.4102 47.372C98.4102 48.792 99.5602 49.942 100.97 49.942H129.03C130.44 49.942 131.59 48.792 131.59 47.372C131.59 45.962 130.44 44.812 129.03 44.812Z" fill="#EF9F64"/>
<path d="M176.03 44.812H147.97C146.56 44.812 145.41 45.962 145.41 47.372C145.41 48.792 146.56 49.942 147.97 49.942H176.03C177.44 49.942 178.59 48.792 178.59 47.372C178.59 45.962 177.44 44.812 176.03 44.812Z" fill="#EF9F64"/>
<path d="M223.03 44.812H194.97C193.56 44.812 192.41 45.962 192.41 47.372C192.41 48.792 193.56 49.942 194.97 49.942H223.03C224.44 49.942 225.59 48.792 225.59 47.372C225.59 45.962 224.44 44.812 223.03 44.812Z" fill="#EF9F64"/>
<path d="M52.4 96.4619H87.6C91.6839 96.4619 95 99.778 95 103.862V124.062C95 128.146 91.6839 131.462 87.6 131.462H52.4C48.3161 131.462 45 128.146 45 124.062V103.862C45 99.778 48.3161 96.4619 52.4 96.4619Z" fill="#F6ECDE" stroke="#256864"/>
<path d="M52.4 149.462H87.6C91.6839 149.462 95 152.778 95 156.862V177.062C95 181.146 91.6839 184.462 87.6 184.462H52.4C48.3161 184.462 45 181.146 45 177.062V156.862C45 152.778 48.3161 149.462 52.4 149.462Z" fill="#F6ECDE" stroke="#256864"/>
<path d="M52.4 202.462H87.6C91.6839 202.462 95 205.778 95 209.862V230.062C95 234.146 91.6839 237.462 87.6 237.462H52.4C48.3161 237.462 45 234.146 45 230.062V209.862C45 205.778 48.3161 202.462 52.4 202.462Z" fill="#F6ECDE" stroke="#256864"/>
<path d="M130.4 96.4619H165.6C169.684 96.4619 173 99.778 173 103.862V124.062C173 128.146 169.684 131.462 165.6 131.462H130.4C126.316 131.462 123 128.146 123 124.062V103.862C123 99.778 126.316 96.4619 130.4 96.4619Z" fill="#F6ECDE" stroke="#256864"/>
<path d="M130.4 149.462H165.6C169.684 149.462 173 152.778 173 156.862V177.062C173 181.146 169.684 184.462 165.6 184.462H130.4C126.316 184.462 123 181.146 123 177.062V156.862C123 152.778 126.316 149.462 130.4 149.462Z" fill="#F6ECDE" stroke="#256864"/>
<path d="M208.4 149.462H243.6C247.684 149.462 251 152.778 251 156.862V177.062C251 181.146 247.684 184.462 243.6 184.462H208.4C204.316 184.462 201 181.146 201 177.062V156.862C201 152.778 204.316 149.462 208.4 149.462Z" fill="#F6ECDE" stroke="#256864"/>
<path d="M54.69 300.462H269.31C277.964 300.462 285 307.498 285 316.152V330.772C285 339.426 277.964 346.462 269.31 346.462H54.69C46.0362 346.462 39 339.426 39 330.772V316.152C39 307.498 46.0362 300.462 54.69 300.462Z" fill="#F6ECDE" stroke="#256864"/>
<path d="M276.81 271.492C276.64 271.282 276.47 271.062 276.29 270.862C274.38 268.702 271.64 267.462 268.76 267.462C250.628 270.155 232.114 270.102 213.24 267.462C211.42 267.462 209.66 267.962 208.12 268.872C207.23 269.392 206.41 270.062 205.71 270.862C203.8 273.012 202.91 275.892 203.26 278.752L212.03 349.642C212.65 354.672 216.94 358.462 222 358.462H260C265.06 358.462 269.35 354.672 269.97 349.642L278.74 278.752C279.06 276.162 278.36 273.562 276.81 271.492Z" fill="#F6ECDE"/>
<path d="M276.81 271.492C276.64 271.282 276.47 271.062 276.29 270.862C274.38 268.702 271.64 267.462 268.76 267.462C250.254 269.446 231.747 269.446 213.24 267.462C211.42 267.462 209.66 267.962 208.12 268.872C207.23 269.392 206.41 270.062 205.71 270.862C203.8 273.012 202.91 275.892 203.26 278.752L212.03 349.642C212.26 351.532 213.01 353.242 214.12 354.642C215.97 356.972 218.81 358.452 221.96 358.462H260C263.53 358.462 266.69 356.612 268.48 353.792C269.26 352.562 269.78 351.162 269.97 349.642L278.74 278.752C279.06 276.162 278.36 273.562 276.81 271.492ZM276.75 278.502L267.99 349.392C267.99 349.412 267.98 349.442 267.98 349.462C267.45 353.462 264.03 356.462 260 356.462H222C217.97 356.462 214.55 353.462 214.02 349.462C214.02 349.442 214.01 349.412 214.01 349.392L205.25 278.502C204.97 276.212 205.68 273.912 207.21 272.182C207.9 271.402 208.73 270.772 209.65 270.322C210.75 269.762 211.98 269.462 213.24 269.462C231.747 273.063 250.254 273.063 268.76 269.462C271.06 269.462 273.26 270.452 274.79 272.182C274.95 272.362 275.11 272.562 275.25 272.752C276.46 274.402 277 276.462 276.75 278.502Z" fill="#256864"/>
<path d="M269 349.462L268.48 353.792C266.69 356.612 263.53 358.462 260 358.462H221.96C218.81 358.452 215.97 356.972 214.12 354.642L214 349.462H269Z" fill="#256864"/>
<path d="M309.032 117.286L261.167 150.178L255.267 143.799L299.297 106.906L309.032 117.286Z" fill="#A0616A"/>
<path d="M257.478 155.784C262.189 152 264.186 146.665 261.94 143.868C259.693 141.071 254.053 141.871 249.342 145.655C244.631 149.438 242.634 154.773 244.88 157.57C247.127 160.367 252.767 159.567 257.478 155.784Z" fill="#A0616A"/>
<path d="M333.607 353.011L324.512 353.01L320.186 317.929L333.609 317.93L333.607 353.011Z" fill="#A0616A"/>
<path d="M302.446 352.804C302.163 353.281 302.014 354.82 302.014 355.375C302.014 357.08 303.396 358.462 305.1 358.462H333.266C334.429 358.462 335.372 357.519 335.372 356.356V355.183C335.372 355.183 336.765 351.659 333.897 347.315C333.897 347.315 330.331 350.716 325.004 345.389L323.433 342.543L312.061 350.86L305.757 351.636C304.378 351.806 303.156 351.609 302.446 352.804Z" fill="#2F2E41"/>
<path d="M364.342 353.011L355.247 353.01L350.921 317.929L364.344 317.93L364.342 353.011Z" fill="#A0616A"/>
<path d="M333.183 352.804C332.899 353.281 332.75 354.82 332.75 355.375C332.75 357.08 334.132 358.462 335.837 358.462H364.003C365.166 358.462 366.108 357.519 366.108 356.356V355.183C366.108 355.183 367.502 351.659 364.633 347.315C364.633 347.315 361.068 350.716 355.74 345.389L354.169 342.543L342.797 350.86L336.494 351.636C335.115 351.806 333.892 351.609 333.183 352.804Z" fill="#2F2E41"/>
<path d="M317.953 157.48L307.534 257.5C307.534 257.5 314.827 325.743 316.39 325.743C317.953 325.743 319.516 327.031 317.953 328.471C316.39 329.911 314.306 330.952 316.39 330.952C318.474 330.952 318.727 330.317 318.6 332.458C318.474 334.599 316.911 336.162 316.911 336.162L338.27 334.599L335.665 264.793L345.563 209.053C345.563 209.053 348.688 325.222 349.73 326.264C350.772 327.306 350.772 324.701 350.772 327.306C350.772 329.911 349.73 330.953 349.73 330.953L349.681 336.162H365.186L387.238 191.341L383.591 154.875L317.953 157.48Z" fill="#2F2E41"/>
<path d="M369.005 49.646H350.251L339 52.4618C332.924 56.0696 322.031 66.8069 322.305 73.8682L324.725 136.122C324.725 136.122 316.437 155.655 318 155.655C319.563 155.655 311.962 161.908 311.962 165.555C311.962 169.201 309.357 168.68 310.92 170.243C312.483 171.806 387.238 170.243 387.238 170.243C387.238 170.243 388.019 168.68 388.019 166.076C388.019 163.471 389.57 161.92 389.57 161.92V157.029L384.893 140.029L393.228 63.9718L369.005 49.646Z" fill="#EF9F64"/>
<path d="M275.404 125.624L281.79 136.681C285.277 134.569 302.121 124.45 305.035 124.215C306.132 124.126 306.377 123.92 306.427 123.858C306.475 123.798 306.461 123.662 306.432 123.445C306.386 123.109 306.318 122.602 306.711 122.168C307.289 121.532 307.795 121.915 308.04 122.099C308.418 122.385 309.054 122.863 311.102 122.573C311.626 122.499 311.955 122.436 312.162 122.386L312.139 122.364C311.693 121.943 310.945 121.239 310.891 120.108C310.842 119.096 310.829 118.824 311.198 118.649C311.539 118.49 311.805 118.729 311.963 118.872C312.23 119.115 312.669 119.513 313.574 119.479C315.888 118.722 337.394 87.6699 341.593 75.2998C342.639 72.2197 342.509 69.3594 341.209 66.7998C338.716 61.8921 332.612 59.4336 331.105 58.8896L300.576 101.736L275.404 125.624Z" fill="#EF9F64"/>
<path d="M359.96 45.6373C371.116 45.6373 380.16 36.5931 380.16 25.4366C380.16 14.28 371.116 5.23584 359.96 5.23584C348.803 5.23584 339.759 14.28 339.759 25.4366C339.759 36.5931 348.803 45.6373 359.96 45.6373Z" fill="#A0616A"/>
<path d="M384.399 13.1595C382.624 9.35244 378.689 6.39437 374.494 6.61019C374.747 5.55349 374.279 4.42263 373.525 3.63998C372.772 2.85739 371.768 2.36764 370.763 1.95639C365.792 -0.0761992 360.194 -0.542509 354.955 0.639681C354.43 -0.0884393 346.953 1.74924 347.847 2.13937C348.741 2.52957 345.473 3.46145 345.318 4.42465C345.149 5.47995 344.031 6.12692 342.975 6.29153C341.919 6.4562 340.829 6.29592 339.779 6.496C337.663 6.89914 340.031 9.50064 340.001 11.6545C339.97 13.8084 337.545 15.2845 339.649 15.747C341.82 16.2245 338.816 20.0695 341.001 19.6545C345.942 18.7158 367.52 16.7143 369.44 21.363C369.973 22.6537 370.308 24.1163 371.355 25.0395C372.782 26.2962 375.158 26.1952 376.325 27.696C377.266 28.9059 376.996 30.6823 376.3 32.0478C375.605 33.4134 374.547 34.5764 373.917 35.9734C373.072 37.8462 373.076 39.9324 373.318 42.0035C373.504 41.9061 373.791 41.8087 374.221 41.7113L374.036 41.7347C379.427 37.8078 383.388 31.9602 385.034 25.4972C386.071 21.4266 386.174 16.9665 384.399 13.1595Z" fill="#2F2E41"/>
<path d="M398.602 181.462H363.398C359.312 181.462 356 184.774 356 188.86V209.064C356 213.15 359.312 216.462 363.398 216.462H398.602C402.688 216.462 406 213.15 406 209.064V188.86C406 184.774 402.688 181.462 398.602 181.462Z" fill="#EF9F64"/>
<path d="M405.622 124.979L385.651 179.515L377.146 177.732L391.675 122.155L405.622 124.979Z" fill="#A0616A"/>
<path d="M385.89 186.221C387.539 180.408 386.078 174.902 382.627 173.923C379.175 172.943 375.041 176.862 373.391 182.675C371.742 188.487 373.203 193.994 376.654 194.973C380.106 195.952 384.241 192.034 385.89 186.221Z" fill="#A0616A"/>
<path d="M373 52.4619C373 52.4619 394.791 56.1578 400.001 68.1394C405.21 80.121 410.419 118.67 408.857 120.233C407.294 121.796 405.731 120.233 407.294 121.796C408.857 123.359 411.504 121.3 409.138 124.153C406.773 127.005 405.731 125.443 405.731 126.484C405.731 127.526 407.815 127.243 405.731 129.469C403.647 131.694 396.875 154.615 396.875 154.615L383.851 150.448L386.456 115.545L373 52.4619Z" fill="#EF9F64"/>
<path d="M268.602 152.462H233.398C229.312 152.462 226 155.774 226 159.86V180.064C226 184.15 229.312 187.462 233.398 187.462H268.602C272.688 187.462 276 184.15 276 180.064V159.86C276 155.774 272.688 152.462 268.602 152.462Z" fill="#EF9F64"/>
<path d="M205.013 280.462L204.987 282.462L276.797 283.367L276.823 281.367L205.013 280.462Z" fill="#256864"/>
</g>
<defs>
<clipPath id="clip0_397_680">
<rect width="472.906" height="358.762" rx="30" fill="white"/>
</clipPath>
</defs>
</svg>
