<svg width="84" height="90" viewBox="0 0 84 90" fill="none" xmlns="http://www.w3.org/2000/svg">
<g clip-path="url(#clip0_542_772)">
<path d="M36.7017 29.1173C36.6397 28.4979 36.4381 27.9007 36.112 27.3705C35.7859 26.8403 35.3438 26.3909 34.8189 26.0563C34.2941 25.7216 33.7002 25.5103 33.0819 25.4383C32.4636 25.3663 31.8371 25.4354 31.2494 25.6405L31.5478 25.671C30.2095 25.9387 29.0201 26.6985 28.2146 27.8004C27.8212 28.3512 27.5507 28.9801 27.4216 29.6446C27.2925 30.3091 27.3078 30.9935 27.4664 31.6516C27.8046 32.9585 28.803 34.0923 30.081 34.5273C30.7916 34.7692 31.5544 34.7988 32.3047 34.8243C32.7917 34.8409 33.2876 34.8557 33.7572 34.7252C34.3611 34.5381 34.892 34.168 35.2765 33.666C35.6573 33.1659 35.9604 32.6111 36.1752 32.0204C36.5392 31.0965 36.8005 30.1053 36.7017 29.1173Z" fill="#2F2E41"/>
<path d="M47.3116 89.33C46.2506 85.3394 48.6068 81.4498 51.3601 78.7571C52.8275 77.3221 54.4616 76.0746 56.0551 74.7861C57.5842 73.5632 59.0403 72.2518 60.4161 70.8586C63.0726 68.1396 65.39 65.0322 66.9246 61.5392C68.3839 58.2176 69.0737 54.5993 68.732 50.975C68.408 47.5377 67.1759 44.1565 64.9095 41.5193C64.627 41.1907 64.33 40.8757 64.0182 40.5744C63.851 40.412 63.5948 40.6677 63.7623 40.8303C66.2932 43.2878 67.7663 46.6181 68.2648 50.0828C68.7789 53.6558 68.2492 57.2984 66.9131 60.6389C65.4898 64.1974 63.2265 67.3727 60.6018 70.1437C59.28 71.5303 57.8738 72.834 56.3913 74.0473C54.8082 75.3515 53.1631 76.5837 51.6556 77.9774C48.8772 80.546 46.38 84.0792 46.7231 88.0564C46.763 88.5191 46.8432 88.9774 46.9626 89.4262C46.9767 89.471 47.0076 89.5086 47.0488 89.531C47.09 89.5535 47.1383 89.5591 47.1836 89.5466C47.2289 89.5341 47.2675 89.5046 47.2914 89.4642C47.3153 89.4237 47.3225 89.3756 47.3116 89.33Z" fill="#F0F0F0"/>
<path d="M58.4234 66.6116C56.7514 63.745 55.4726 60.6666 54.6215 57.459C53.7678 54.2523 53.3408 50.9469 53.3515 47.6285C53.3637 44.3102 53.7666 40.9088 54.7953 37.7444C55.7716 34.7412 57.5209 31.8771 60.2981 30.2382C61.7144 29.4074 63.3312 28.9805 64.9731 29.0036C66.7073 29.0201 68.4174 29.4765 69.9799 30.2156C71.5102 30.9395 72.9095 31.915 74.2022 33.0025C75.4346 34.0376 76.5847 35.167 77.642 36.3804C79.737 38.7895 81.4485 41.5788 82.4045 44.6373C83.4007 47.8247 83.5754 51.3111 82.6508 54.537C81.7627 57.6355 79.8172 60.2764 77.4288 62.3978C74.8477 64.6904 71.7902 66.3565 68.7072 67.8686C67.9355 68.247 67.1597 68.6169 66.3838 68.9867C66.1737 69.0868 66.3571 69.3989 66.5665 69.2991C69.8174 67.7498 73.1005 66.1868 75.9985 64.0236C78.5556 62.1149 80.8349 59.7188 82.1908 56.8001C83.6248 53.7137 83.9186 50.2042 83.3243 46.8742C82.7434 43.6197 81.2863 40.5737 79.3361 37.9208C78.367 36.6084 77.29 35.3793 76.1162 34.2461C74.912 33.057 73.5972 31.9854 72.1896 31.0458C69.3042 29.1598 65.6959 28.0209 62.2764 28.9924C59.2364 29.8561 56.8968 32.2918 55.5046 35.0522C54.7254 36.5972 54.2002 38.2588 53.8266 39.9449C53.4621 41.6064 53.2169 43.292 53.0931 44.9885C52.5962 51.7583 53.9231 58.5376 56.9356 64.6206C57.3026 65.3583 57.6943 66.0828 58.1109 66.7943C58.1359 66.834 58.1754 66.8624 58.2211 66.8735C58.2667 66.8846 58.3148 66.8776 58.3554 66.8539C58.3959 66.8302 58.4257 66.7917 58.4383 66.7465C58.451 66.7013 58.4457 66.6529 58.4234 66.6116Z" fill="#F0F0F0"/>
<path d="M56.1314 63.1135C54.4594 60.247 53.1806 57.1685 52.3295 53.961C51.4758 50.7542 51.0488 47.4488 51.0595 44.1304C51.0717 40.8121 51.4746 37.4107 52.5033 34.2464C53.4796 31.2431 55.2289 28.379 58.0061 26.7402C59.4224 25.9094 61.0392 25.4824 62.6811 25.5056C64.4153 25.522 66.1254 25.9785 67.6879 26.7176C69.2182 27.4415 70.6175 28.417 71.9102 29.5044C73.1427 30.5395 74.2927 31.6689 75.3501 32.8823C77.445 35.2914 79.1565 38.0808 80.1125 41.1392C81.1087 44.3267 81.2834 47.813 80.3588 51.039C79.4707 54.1374 77.5252 56.7784 75.1369 58.8998C72.5557 61.1924 69.4983 62.8584 66.4152 64.3705C65.6435 64.749 64.8677 65.1188 64.0918 65.4886C63.8817 65.5888 64.0651 65.9009 64.2745 65.8011C67.5254 64.2517 70.8085 62.6888 73.7065 60.5256C76.2636 58.6168 78.5429 56.2208 79.8988 53.3021C81.3328 50.2156 81.6266 46.7062 81.0323 43.3761C80.4514 40.1216 78.9943 37.0756 77.0441 34.4228C76.075 33.1104 74.998 31.8812 73.8243 30.7481C72.62 29.559 71.3052 28.4873 69.8976 27.5478C67.0122 25.6618 63.4039 24.5229 59.9844 25.4943C56.9444 26.358 54.6048 28.7937 53.2126 31.5542C52.4334 33.0992 51.9082 34.7608 51.5346 36.4468C51.1701 38.1084 50.925 39.7939 50.8011 41.4905C50.3043 48.2603 51.6311 55.0396 54.6436 61.1225C55.0106 61.8602 55.4023 62.5848 55.8189 63.2962C55.844 63.3359 55.8835 63.3643 55.9291 63.3754C55.9747 63.3866 56.0228 63.3796 56.0634 63.3559C56.1039 63.3322 56.1337 63.2937 56.1464 63.2485C56.159 63.2032 56.1537 63.1549 56.1314 63.1135Z" fill="#F0F0F0"/>
<path d="M23.1863 56.3313C23.0587 56.1512 22.9721 55.9454 22.9326 55.7283C22.8931 55.5111 22.9017 55.288 22.9577 55.0745C23.0138 54.8611 23.116 54.6625 23.2571 54.4928C23.3982 54.3232 23.5749 54.1865 23.7745 54.0924L27.9576 40.9946L30.8709 42.508L25.843 54.9068C25.9788 55.2527 25.9829 55.6364 25.8547 55.9851C25.7265 56.3339 25.4748 56.6235 25.1474 56.7991C24.8199 56.9746 24.4394 57.024 24.078 56.9378C23.7165 56.8516 23.3993 56.6358 23.1863 56.3313Z" fill="#FFB6B6"/>
<path d="M26.6039 42.8058C26.5639 42.7171 26.5434 42.6209 26.544 42.5236C26.5445 42.4263 26.566 42.3303 26.6071 42.2421L28.0398 39.1618C28.1812 38.6847 28.506 38.283 28.9429 38.045C29.3799 37.8069 29.8935 37.7518 30.371 37.8918C30.8485 38.0318 31.2511 38.3554 31.4904 38.7916C31.7297 39.2279 31.7863 39.7413 31.6477 40.2192L31.1689 43.5937C31.1552 43.69 31.1209 43.7823 31.0684 43.8641C31.0159 43.946 30.9463 44.0156 30.8645 44.0681C30.7826 44.1207 30.6904 44.155 30.5941 44.1687C30.4978 44.1824 30.3997 44.1752 30.3064 44.1476L27.0286 43.1764C26.9353 43.1488 26.8491 43.1014 26.7758 43.0375C26.7025 42.9735 26.6439 42.8945 26.6039 42.8058Z" fill="#EF9F64"/>
<path d="M38.6887 43.3257C37.6931 45.9325 37.9475 48.6668 39.1736 51.5001H30.488C30.8371 49.4842 30.6955 47.6107 29.4023 46.0716L38.6887 43.3257Z" fill="#FFB6B6"/>
<path d="M28.5232 38.535L31.0938 36.6655L35.3001 35.4971L38.8053 36.1981L39.0114 38.1351C39.262 40.4911 39.1532 42.8716 38.6885 45.195L29.5748 47.2981L28.6401 45.6623C28.6401 45.6623 26.5369 43.5592 28.1727 41.2223L28.5232 38.535Z" fill="#EF9F64"/>
<path d="M50.8494 25.4589C50.9067 25.672 50.9167 25.8951 50.8785 26.1125C50.8403 26.3298 50.755 26.5362 50.6284 26.717C50.5018 26.8978 50.3372 27.0487 50.146 27.1589C49.9549 27.2692 49.7418 27.3363 49.522 27.3553L41.0601 38.1927L38.8516 35.7637L47.8637 25.8747C47.8562 25.5032 47.9852 25.1419 48.2263 24.8591C48.4674 24.5764 48.8039 24.3919 49.1719 24.3407C49.5399 24.2894 49.9139 24.375 50.2231 24.581C50.5323 24.7871 50.7551 25.0995 50.8494 25.4589Z" fill="#FFB6B6"/>
<path d="M42.9572 36.9628C42.964 37.0598 42.9499 37.1572 42.9156 37.2482C42.8814 37.3393 42.828 37.4219 42.7589 37.4904L40.3477 39.8836C40.0498 40.2823 39.606 40.5466 39.1136 40.6185C38.6212 40.6905 38.1203 40.5642 37.7208 40.2675C37.3213 39.9707 37.0558 39.5277 36.9824 39.0354C36.9091 38.5432 37.034 38.042 37.3296 37.6417L38.9479 34.6421C38.9941 34.5565 39.0582 34.4818 39.1359 34.4232C39.2135 34.3646 39.3029 34.3235 39.3978 34.3025C39.4928 34.2816 39.5912 34.2813 39.6863 34.3018C39.7814 34.3223 39.8709 34.3631 39.9488 34.4213L42.6872 36.4679C42.7651 36.5261 42.8296 36.6005 42.8762 36.6859C42.9228 36.7713 42.9504 36.8657 42.9572 36.9628Z" fill="#EF9F64"/>
<path d="M28.5344 86.958H29.8654L30.4986 81.8242H28.5342L28.5344 86.958Z" fill="#FFB6B6"/>
<path d="M28.0837 86.3014L30.1877 86.1758V87.0772L32.188 88.4587C32.2868 88.527 32.3612 88.625 32.4004 88.7385C32.4395 88.852 32.4414 88.975 32.4057 89.0897C32.3699 89.2043 32.2985 89.3045 32.2018 89.3757C32.105 89.4468 31.9881 89.4852 31.868 89.4852H29.3631L28.9314 88.5935L28.7628 89.4852H27.8184L28.0837 86.3014Z" fill="#2F2E41"/>
<path d="M37.9436 86.958H39.2745L39.9078 81.8242H37.9434L37.9436 86.958Z" fill="#FFB6B6"/>
<path d="M37.4928 86.3014L39.5969 86.1758V87.0772L41.5972 88.4587C41.696 88.527 41.7704 88.625 41.8096 88.7385C41.8487 88.852 41.8506 88.975 41.8148 89.0897C41.7791 89.2043 41.7077 89.3045 41.6109 89.3757C41.5142 89.4468 41.3973 89.4852 41.2772 89.4852H38.7723L38.3406 88.5935L38.172 89.4852H37.2275L37.4928 86.3014Z" fill="#2F2E41"/>
<path d="M41.4796 58.1943V60.8121L41.2239 64.0101C41.2239 64.0101 41.1431 66.8027 41.0453 69.0055C40.9862 70.3445 40.9199 71.4652 40.862 71.61C40.7908 71.7873 40.8077 72.271 40.8487 72.7789C40.897 73.3664 40.9766 73.9864 40.9898 74.1939C41.0152 74.5812 40.8101 76.2447 40.8101 76.2447C40.8101 76.2447 40.5809 80.4162 40.248 80.7491C39.915 81.0821 40.248 82.0291 40.248 82.0291C38.687 83.1799 36.7158 81.7733 36.7158 81.7733C37.1513 81.0797 36.46 76.3448 36.46 76.3448C36.46 76.3448 36.3587 74.7283 36.1537 74.2941C35.9486 73.8598 35.8967 71.1467 35.8967 71.1467V67.1284C35.8967 67.1284 35.3587 66.3057 35.2827 65.9221C35.2067 65.5385 35.2827 64.1826 35.2827 64.1826L34.7205 62.2886L34.3357 63.7724C34.3357 63.7724 33.3393 67.9186 33.1595 68.4301C32.9798 68.9416 33.2609 69.4542 33.2609 69.4542C33.2609 69.4542 33.5178 70.2432 33.2609 70.6051C33.1012 70.8318 32.979 71.0827 32.899 71.3482C32.899 71.3482 32.7675 72.8585 32.5371 73.399C32.3067 73.9394 32.1028 74.6053 32.1028 74.6053C32.1028 74.6053 32.157 75.6258 31.9267 75.8563C31.6962 76.0867 31.6203 77.2387 31.6203 77.2387C31.6203 77.2387 31.6709 78.5428 31.3633 79.0036C31.0557 79.4644 31.0557 82.0749 31.0557 82.0749C30.5222 82.4172 29.9074 82.6118 29.2741 82.6387C28.6408 82.6656 28.0118 82.5239 27.4512 82.2281C27.4512 82.2281 27.7552 81.9434 27.5247 80.6164C27.2944 79.2895 27.69 75.6765 27.69 75.6765C27.69 75.6765 27.6394 74.7597 27.8951 74.3495C28.1508 73.9394 27.766 73.1468 27.8686 72.7885C27.9711 72.4303 28.2787 70.4844 28.2787 70.4844C28.2787 70.4844 28.1508 65.6989 28.1508 65.4432C28.1206 64.988 27.9974 64.5437 27.7889 64.1379C27.5586 63.729 27.7889 60.7602 27.7889 60.7602C27.7889 60.7602 28.3318 59.2257 28.1508 58.8928C27.9699 58.5599 28.2715 57.9712 28.2715 57.9712C28.2715 57.9712 27.9904 57.2799 28.2715 57.1521C28.5525 57.0242 28.6044 56.5127 28.6044 56.5127L28.7998 54.0301C28.7998 54.0301 28.8734 52.9034 29.1075 52.8527C29.3415 52.802 29.2389 52.3677 29.4694 52.0601C29.5816 51.8522 29.659 51.6272 29.6986 51.3942C29.7311 51.2519 29.7613 51.1035 29.7866 50.9612C29.859 50.5751 29.9037 50.2422 29.9037 50.2422C31.414 51.4968 39.3552 50.6174 39.3637 50.6174C39.8679 50.7271 40.4675 52.4775 40.9005 54.0035C41.2855 55.3672 41.4804 56.7774 41.4796 58.1943Z" fill="#EF9F64"/>
<path d="M35.7033 32.2031C36.2822 30.299 35.2078 28.2862 33.3037 27.7073C31.3995 27.1285 29.3867 28.2028 28.8079 30.107C28.229 32.0111 29.3034 34.0239 31.2075 34.6028C33.1116 35.1816 35.1245 34.1073 35.7033 32.2031Z" fill="#FFB6B6"/>
<path d="M28.1835 31.7832L29.5789 31.4928L29.8358 29.641L30.3176 31.3391L30.9845 31.2003L31.1344 30.1201L31.4154 31.1107L36.371 30.0795C36.269 29.5891 36.0713 29.1236 35.7893 28.7095C35.5074 28.2954 35.1466 27.941 34.7277 27.6663C34.3087 27.3917 33.8398 27.2023 33.3476 27.1089C32.8554 27.0155 32.3497 27.0199 31.8593 27.122L31.1411 27.2714C30.1506 27.4775 29.2825 28.0687 28.7279 28.9148C28.1732 29.7609 27.9774 30.7927 28.1835 31.7832Z" fill="#2F2E41"/>
<path d="M42.4582 4.6876L42.449 4.7052C40.6292 3.86678 38.5565 3.76056 36.6605 4.40855C34.7645 5.05653 33.1904 6.40905 32.2643 8.1859C31.3382 9.96276 31.1312 12.0278 31.686 13.9531C32.2409 15.8785 33.5151 17.5166 35.2447 18.5281L35.2356 18.5457L49.0937 25.7683L56.3163 11.9102C56.7917 11.0002 57.0831 10.0054 57.1738 8.98263C57.2646 7.95991 57.1528 6.92932 56.845 5.9498C56.5372 4.97028 56.0394 4.06103 55.38 3.27401C54.7206 2.487 53.9126 1.83767 53.0021 1.36313C52.0916 0.888588 51.0964 0.598149 50.0736 0.508415C49.0508 0.41868 48.0203 0.531409 47.0411 0.840157C46.0619 1.14891 45.1531 1.64762 44.3668 2.30779C43.5804 2.96796 42.9318 3.77664 42.4582 4.6876Z" fill="#163A53"/>
<path d="M54.8047 84.2095L54.8024 84.214C54.3424 84.0021 53.8185 83.9752 53.3393 84.139C52.8601 84.3027 52.4622 84.6446 52.2282 85.0937C51.9941 85.5428 51.9418 86.0647 52.082 86.5514C52.2223 87.038 52.5443 87.452 52.9815 87.7077L52.9792 87.7121L56.4818 89.5376L58.3073 86.035C58.4275 85.805 58.5012 85.5536 58.5241 85.2951C58.5471 85.0365 58.5188 84.7761 58.4411 84.5285C58.3633 84.2809 58.2374 84.051 58.0708 83.8521C57.9041 83.6532 57.6999 83.489 57.4697 83.3691C57.2396 83.2491 56.988 83.1757 56.7295 83.1531C56.471 83.1304 56.2105 83.1589 55.963 83.2369C55.7155 83.315 55.4858 83.4411 55.2871 83.6079C55.0883 83.7748 54.9244 83.9793 54.8047 84.2095Z" fill="#DE6A38"/>
<path d="M8.34091 39.7978V39.8176C6.3396 39.9152 4.45252 40.7789 3.07064 42.2299C1.68875 43.6808 0.917968 45.6077 0.917969 47.6114C0.91797 49.6151 1.68876 51.542 3.07064 52.9929C4.45253 54.4439 6.3396 55.3076 8.34092 55.4052V55.4251L23.9682 55.4251L23.9682 39.7977C23.9692 38.771 23.7678 37.7541 23.3756 36.8053C22.9834 35.8564 22.408 34.9942 21.6823 34.2678C20.9567 33.5414 20.0949 32.9652 19.1465 32.5721C18.198 32.1789 17.1813 31.9766 16.1546 31.9766C15.1278 31.9766 14.1112 32.1789 13.1627 32.5721C12.2142 32.9652 11.3525 33.5414 10.6268 34.2678C9.90116 34.9942 9.32576 35.8564 8.93353 36.8053C8.5413 37.7541 8.33992 38.771 8.34091 39.7978Z" fill="#163A53"/>
<path d="M81.1702 89.7297H3.08504C3.04695 89.7297 3.01041 89.7145 2.98348 89.6876C2.95654 89.6606 2.94141 89.6241 2.94141 89.586C2.94141 89.5479 2.95654 89.5114 2.98348 89.4845C3.01041 89.4575 3.04695 89.4424 3.08504 89.4424H81.1702C81.2083 89.4424 81.2449 89.4575 81.2718 89.4845C81.2987 89.5114 81.3139 89.5479 81.3139 89.586C81.3139 89.6241 81.2987 89.6606 81.2718 89.6876C81.2449 89.7145 81.2083 89.7297 81.1702 89.7297Z" fill="#CACACA"/>
<path d="M68.7383 54.5611C70.3344 54.5512 71.8777 53.9878 73.1049 52.9671C74.3543 51.9165 75.1766 50.4454 75.417 48.8308C75.5581 47.918 75.5126 46.986 75.2833 46.0913C75.2692 46.0465 75.2384 46.0089 75.1971 45.9864C75.1559 45.964 75.1076 45.9584 75.0623 45.9709C75.0171 45.9833 74.9785 46.0129 74.9546 46.0533C74.9307 46.0937 74.9234 46.1418 74.9343 46.1875C75.3211 47.7067 75.1466 49.3144 74.4428 50.7152C73.9022 51.7626 73.0843 52.6415 72.0783 53.2558C71.0723 53.8702 69.917 54.1965 68.7383 54.1992C68.6914 54.2009 68.6469 54.2206 68.6143 54.2544C68.5817 54.2882 68.5635 54.3333 68.5635 54.3802C68.5635 54.4271 68.5817 54.4722 68.6143 54.506C68.6469 54.5397 68.6914 54.5595 68.7383 54.5611Z" fill="#F0F0F0"/>
<path d="M40.7938 7.55503C39.7641 6.57758 38.1382 6.58014 36.9491 7.26058C35.6146 8.02418 35.0096 9.60206 35.0402 11.0836C35.0746 12.751 35.8898 14.2607 36.9425 15.5112C38.0644 16.8104 39.37 17.939 40.8179 18.8611C42.2619 19.8014 43.8243 20.546 45.4641 21.0752C45.666 21.1403 45.8689 21.202 46.0728 21.2602C46.1185 21.2711 46.1666 21.2639 46.207 21.24C46.2474 21.2161 46.2769 21.1774 46.2894 21.1322C46.3019 21.0869 46.2963 21.0386 46.2739 20.9974C46.2514 20.9562 46.2138 20.9253 46.169 20.9112C43.0198 20.0113 40.1566 18.3126 37.8575 15.9798C36.763 14.8588 35.7903 13.5115 35.4912 11.9435C35.227 10.5586 35.519 8.9507 36.5923 7.96427C37.6357 7.00538 39.4618 6.78947 40.5379 7.81093C40.7068 7.97126 40.9631 7.71577 40.7938 7.55503Z" fill="white"/>
<path d="M8.07346 43.6048C6.6826 43.4319 5.37638 44.4101 4.83466 45.6458C4.22716 47.0315 4.63675 48.6288 5.51793 49.7999C6.4884 51.0896 7.95837 51.8414 9.49495 52.2405C11.1444 52.669 12.8953 52.7846 14.5932 52.7055C16.6003 52.6125 18.581 52.2098 20.4652 51.5119C20.6816 51.4315 20.588 51.0816 20.369 51.1629C17.2325 52.3275 13.7407 52.6949 10.4424 52.0801C8.96808 51.8052 7.46655 51.2809 6.36789 50.2201C5.3724 49.259 4.66816 47.8034 4.96775 46.3977C5.26545 45.0009 6.59349 43.7827 8.07346 43.9667C8.30401 43.9954 8.30193 43.6333 8.07346 43.6048Z" fill="white"/>
<path d="M31.213 25.8778C31.5494 24.533 30.8978 23.0906 29.8889 22.1399C28.8801 21.1893 27.5636 20.6429 26.2606 20.1698C25.2215 19.7926 24.0044 19.4644 23.0639 20.0455C22.3082 20.5124 21.9804 21.4193 21.5484 22.1954C20.7252 23.6744 19.3971 24.8077 17.807 25.388C16.2169 25.9682 14.471 25.9567 12.8887 25.3554C13.4464 26.9745 15.3675 27.7665 17.0764 27.6565C18.7853 27.5465 20.3637 26.7595 21.9556 26.1284C23.5475 25.4974 25.3183 25.0098 26.9545 25.5152C27.6451 25.7285 28.2731 26.1092 28.9569 26.3434C29.6406 26.5777 30.4407 26.6475 31.0501 26.2588" fill="#2F2E41"/>
<path d="M55.1485 75.1309L53.9836 73.0805C53.9586 73.0408 53.919 73.0124 53.8734 73.0013C53.8278 72.9901 53.7796 72.9972 53.7391 73.0208C53.6986 73.0445 53.6688 73.0831 53.6561 73.1283C53.6435 73.1735 53.6488 73.2218 53.6711 73.2632L54.836 75.3136C54.8611 75.3533 54.9006 75.3817 54.9462 75.3928C54.9918 75.404 55.04 75.397 55.0805 75.3733C55.1211 75.3496 55.1508 75.311 55.1635 75.2658C55.1762 75.2206 55.1708 75.1723 55.1485 75.1309Z" fill="#F0F0F0"/>
</g>
<defs>
<clipPath id="clip0_542_772">
<rect width="82.696" height="89.2463" fill="white" transform="translate(0.917969 0.483398)"/>
</clipPath>
</defs>
</svg>
