<svg width="645" height="492" viewBox="0 0 645 492" fill="none" xmlns="http://www.w3.org/2000/svg">
<g clip-path="url(#clip0_98_298)">
<rect width="653.796" height="491" transform="translate(-9 0.807617)" fill="#F6ECDE"/>
<path d="M387.44 148.766C388.254 148.803 389.059 148.592 389.747 148.163C390.435 147.733 390.973 147.105 391.287 146.364C391.601 145.623 391.676 144.805 391.503 144.02C391.33 143.235 390.917 142.522 390.319 141.976C390.218 141.584 390.147 141.302 390.047 140.909C390.082 140.824 390.118 140.738 390.155 140.653C393.811 132.053 406.202 132.113 409.827 140.725C413.045 148.369 417.141 156.026 418.15 164.109C418.594 167.681 418.407 171.303 417.596 174.812C425.153 158.551 429.077 140.877 429.103 122.989C429.104 118.5 428.851 114.015 428.345 109.554C427.927 105.897 427.347 102.266 426.604 98.6609C422.554 79.1005 413.858 60.7668 401.229 45.1655C395.117 41.8759 390.174 36.8172 387.066 30.6712C385.941 28.4619 385.145 26.1035 384.704 23.6693C385.394 23.7585 387.304 13.4005 386.784 12.765C387.745 11.3267 389.464 10.6118 390.514 9.20835C395.733 2.22849 402.923 3.44721 406.677 12.9323C414.696 16.9245 414.774 23.5453 409.853 29.913C406.723 33.9641 406.293 39.4458 403.546 43.7829C403.829 44.1397 404.123 44.4854 404.405 44.8422C409.571 51.3942 414.073 58.4297 417.847 65.848C416.779 57.6205 418.356 47.7084 421.043 41.319C424.103 34.0389 429.837 27.9076 434.887 21.614C440.952 14.0544 453.39 17.3535 454.459 26.9365C454.469 27.0293 454.479 27.1221 454.489 27.2148C453.739 27.6321 453.005 28.0752 452.287 28.5439C451.384 29.1386 450.685 29.9884 450.28 30.9819C449.876 31.9754 449.785 33.0662 450.02 34.1115C450.255 35.1568 450.804 36.1077 451.596 36.8397C452.388 37.5717 453.386 38.0507 454.458 38.2138L454.568 38.2305C454.301 40.897 453.829 43.5396 453.155 46.1356C459.634 70.848 445.648 79.8487 425.678 80.2531C425.237 80.476 424.807 80.699 424.367 80.9109C428.158 91.5109 430.537 102.552 431.442 113.757C431.955 120.368 431.925 127.009 431.352 133.615L431.386 133.38C432.833 126.035 436.805 119.407 442.632 114.616C451.287 107.603 463.515 105.02 472.852 99.3831C477.347 96.6695 483.106 100.176 482.322 105.316C482.309 105.398 482.296 105.48 482.283 105.562C480.892 106.122 479.536 106.766 478.226 107.491C477.476 107.909 476.741 108.352 476.023 108.82C475.121 109.415 474.421 110.265 474.017 111.258C473.612 112.252 473.522 113.343 473.756 114.388C473.991 115.433 474.54 116.384 475.332 117.116C476.124 117.848 477.122 118.327 478.195 118.49L478.305 118.507C478.384 118.518 478.452 118.529 478.531 118.541C476.153 124.142 472.815 129.298 468.663 133.782C464.613 155.355 447.215 157.402 428.605 151.119H428.594C426.552 159.872 423.594 168.391 419.766 176.54H388.231C388.118 176.195 388.016 175.838 387.914 175.492C390.833 175.673 393.764 175.501 396.64 174.979C394.3 172.147 391.961 169.293 389.621 166.461C389.569 166.408 389.52 166.352 389.474 166.294C388.287 164.844 387.089 163.406 385.902 161.957L385.902 161.955C385.838 157.512 386.355 153.08 387.439 148.767L387.44 148.766Z" fill="#F2F2F2"/>
<path d="M488.691 69.1562C482.828 48.0683 530.121 29.9849 542.54 46.9671C544.267 44.5528 550.649 43.0862 553.577 43.8269C556.506 44.5675 558.968 46.4191 561.371 48.2114C564.675 50.7147 568.098 53.3069 570.125 56.9063C572.168 60.4909 572.483 65.3791 569.735 68.4897C567.558 70.9633 561.131 72.5631 557.857 73.2148C555.575 73.674 553.652 74.0443 552.001 74.3109C550.5 72.1787 549.809 69.5932 550.048 67.0084C548.937 67.7482 548.005 68.7215 547.319 69.8586C546.634 70.9957 546.212 72.2683 546.084 73.5852C546.039 74.1332 564.539 141.278 564.539 141.278C562.317 142.526 559.978 143.563 557.557 144.374C552.766 137.151 549.096 129.263 546.67 120.97C546.112 126.515 546.183 132.105 546.88 137.634C547.251 140.735 547.782 143.815 548.472 146.862C526.488 151.543 493.421 150.003 479.036 130.095C479.033 130.012 479.031 129.93 479.028 129.847C479.017 129.062 478.729 128.304 478.214 127.705C477.699 127.105 476.989 126.701 476.205 126.561C475.421 126.422 474.612 126.555 473.917 126.939C473.221 127.323 472.683 127.934 472.394 128.666C472.045 129.544 471.724 130.305 471.437 130.909C467.248 116.127 472.669 99.0181 488.691 69.1562Z" fill="#2F2E41"/>
<path d="M451.281 422.703V423.393C451.253 423.164 451.253 422.932 451.281 422.703Z" fill="#2F2E41"/>
<path d="M472.81 303.36C473.369 303.21 473.938 303.101 474.513 303.033C473.853 303.139 473.285 303.248 472.81 303.36Z" fill="#2F2E41"/>
<path d="M472.312 303.484C472.463 303.442 472.631 303.401 472.81 303.359C472.643 303.402 472.483 303.433 472.312 303.484Z" fill="#2F2E41"/>
<path d="M631.369 491.805H550.787C549.637 490.9 548.838 489.632 548.524 488.214C548.21 486.797 548.4 485.316 549.062 484.02C551.263 479.04 546.949 474.49 546.949 474.49C545.485 472.797 544.467 470.774 543.985 468.601C543.503 466.427 543.573 464.17 544.188 462.029C546.323 454.673 537.956 433.912 537.956 433.912C537.956 433.912 533.445 460.72 527.918 491.805H451.281C449.997 489.648 449.32 487.192 449.32 484.69C449.32 482.189 449.997 479.733 451.281 477.576C455.747 470.106 451.281 468.673 451.281 468.673C451.281 468.673 446.815 460.314 451.281 454.245C455.747 448.176 451.281 423.393 451.281 423.393C451.449 424.489 452.721 422.497 454.681 418.32C457.663 411.965 462.22 400.537 466.825 387.269C470.117 377.799 473.436 367.38 476.21 357.194H476.216C476.943 354.517 477.632 351.866 478.283 349.238C479.555 344.085 480.646 339.078 481.474 334.376C483.271 324.25 483.864 315.55 482.484 309.893C481.339 305.184 478.835 302.588 474.513 303.033C476.829 302.654 480.222 302.296 484.402 301.957C485.156 301.897 485.937 301.838 486.745 301.771C517.928 299.447 584.831 298.112 584.831 298.112L605.323 334.31L631.275 380.163C631.275 380.163 630.568 441.675 631.369 491.805Z" fill="#2F2E41"/>
<path d="M545.359 141.659L498.147 131.78L488.773 150.393L457.205 168.421C457.205 168.421 477.553 250.491 477.437 262.033C477.142 291.339 429.607 357.032 465.512 351.978C501.417 346.924 508.71 325.755 520.237 329.103C530.632 332.121 543.325 345.55 551.823 335.946C560.321 326.342 563.314 337.432 568.687 337.816C571.241 337.998 569.703 325.688 576.128 338.198C582.553 350.708 616.623 333.868 605.076 322.478C585.844 303.507 581.936 163.664 581.936 163.664L560.527 157.167L545.359 141.659Z" fill="#EF9F64"/>
<path d="M456.312 439.702C458.209 437.47 459.148 434.597 458.93 431.693C458.712 428.789 457.354 426.083 455.145 424.152C454.69 423.766 454.203 423.418 453.689 423.112L461.583 384.897L443.334 374.124L438.258 427.627C437.135 429.825 436.782 432.329 437.253 434.747C437.724 437.165 438.994 439.361 440.863 440.992C441.936 441.91 443.182 442.611 444.529 443.054C445.876 443.497 447.299 443.675 448.716 443.576C450.132 443.477 451.516 443.103 452.786 442.477C454.057 441.851 455.19 440.984 456.12 439.926C456.185 439.852 456.249 439.777 456.312 439.702Z" fill="#A0616A"/>
<path d="M512.974 238.267C512.859 237.039 511.27 236.481 509.069 235.711C506.858 235.039 504.756 234.057 502.828 232.796C497.954 229.323 499.873 225.69 502.526 220.67C503.044 219.694 503.582 218.678 504.087 217.622C505.589 214.494 503.199 201.591 496.972 179.266C495.053 172.393 495.06 167.539 493.734 164.318C492.414 161.097 489.768 159.51 482.558 159.178C473.843 158.744 465.31 161.736 458.828 167.499C458.653 167.651 458.471 167.818 458.296 167.977C457.966 168.282 457.643 168.594 457.327 168.913C451.332 174.862 447.902 182.866 447.754 191.252L447.72 192.68L446.232 260.892L442.052 320.75L436.289 403.206L440.557 403.412L457.589 404.249L459.656 404.348L464.557 384.068L470.454 359.664L472.622 350.699L479.347 322.888L482.484 309.893L484.403 301.957L485.184 298.717L488.994 282.965C489.082 282.633 497.847 248.521 507.952 242.816C511.721 240.691 513.081 239.456 512.974 238.267Z" fill="#EF9F64"/>
<path d="M626.349 439.295C624.22 437.278 622.973 434.521 622.873 431.61C622.774 428.7 623.83 425.866 625.816 423.712C626.227 423.28 626.673 422.883 627.15 422.524L615.141 385.366L632.111 372.722L642.983 425.377C644.339 427.445 644.963 429.896 644.758 432.35C644.553 434.804 643.53 437.122 641.849 438.941C640.882 439.968 639.72 440.797 638.429 441.38C637.137 441.964 635.742 442.291 634.323 442.342C632.903 442.394 631.488 442.169 630.156 441.681C628.825 441.193 627.604 440.451 626.563 439.498C626.491 439.431 626.419 439.364 626.349 439.295Z" fill="#A0616A"/>
<path d="M634.65 358.667C634.65 358.667 621.415 312.732 625.451 307.759C629.487 302.787 617.566 301.815 622.703 292.554C627.841 283.293 620.75 281.744 620.75 281.744L616.902 260.451L610.024 208.148L609.815 206.593L607.814 191.377C607.255 187.03 605.814 182.84 603.576 179.056C601.338 175.272 598.349 171.972 594.788 169.353C594.606 169.216 594.421 169.084 594.235 168.952C593.388 168.351 592.523 167.794 591.639 167.281C585.036 163.438 577.282 161.985 569.711 163.172C555.445 165.364 559.885 170.612 557.571 184.671C553.811 207.53 552.835 220.608 554.669 223.563C555.286 224.558 555.935 225.51 556.554 226.423C559.739 231.14 562.042 234.543 557.572 238.52C555.79 239.973 553.809 241.17 551.686 242.072C549.585 243.076 548.064 243.796 548.084 245.03C548.108 246.225 549.593 247.304 553.57 249.015C558.389 251.096 563.565 258.961 567.805 266.996C571.168 273.472 574.168 280.126 576.791 286.927L613.23 388.017L619.173 404.503L621.223 404.183L638.059 401.55L642.281 400.891L634.65 358.667Z" fill="#EF9F64"/>
<path d="M525.44 131.082C546.713 131.082 563.958 114.071 563.958 93.087C563.958 72.1031 546.713 55.0923 525.44 55.0923C504.167 55.0923 486.922 72.1031 486.922 93.087C486.922 114.071 504.167 131.082 525.44 131.082Z" fill="#A0616A"/>
<path d="M467.668 72.1186C461.805 51.0307 509.098 32.9473 521.517 49.9295C523.244 47.5152 529.626 46.0487 532.554 46.7893C535.483 47.5299 537.945 49.3815 540.348 51.1738C543.652 53.6771 547.075 56.2693 549.102 59.8687C551.145 63.4533 551.46 68.3415 548.712 71.4521C546.535 73.9257 540.108 75.5255 536.834 76.1772C534.552 76.6364 532.629 77.0067 530.978 77.2733C529.477 75.1411 528.786 72.5556 529.025 69.9708C527.914 70.7106 526.982 71.684 526.296 72.821C525.611 73.9581 525.189 75.2307 525.061 76.5476C525.016 77.0956 543.516 144.241 543.516 144.241C541.294 145.488 538.955 146.525 536.534 147.336C531.743 140.114 528.073 132.225 525.647 123.933C525.089 129.478 525.16 135.067 525.857 140.597C526.228 143.697 526.759 146.777 527.449 149.825C505.465 154.506 472.398 152.965 458.013 133.057C458.01 132.975 458.008 132.892 458.005 132.81C457.994 132.024 457.706 131.267 457.191 130.667C456.676 130.068 455.966 129.663 455.182 129.524C454.398 129.384 453.589 129.518 452.894 129.902C452.198 130.286 451.66 130.896 451.371 131.629C451.022 132.507 450.701 133.267 450.414 133.872C446.225 119.089 451.646 101.981 467.668 72.1186Z" fill="#2F2E41"/>
<path d="M276.642 203.407C275.829 203.444 275.024 203.233 274.336 202.803C273.648 202.374 273.11 201.746 272.796 201.005C272.482 200.264 272.406 199.445 272.579 198.66C272.753 197.876 273.166 197.162 273.764 196.617C273.864 196.224 273.936 195.942 274.036 195.55C274 195.464 273.964 195.379 273.928 195.294C270.272 186.694 257.881 186.753 254.256 195.366C251.038 203.01 246.942 210.667 245.933 218.749C245.489 222.322 245.676 225.943 246.487 229.453C238.93 213.192 235.006 195.518 234.98 177.63C234.979 173.141 235.231 168.656 235.738 164.195C236.156 160.538 236.736 156.907 237.478 153.302C241.529 133.741 250.225 115.407 262.854 99.8062C268.966 96.5166 273.909 91.4579 277.016 85.3118C278.142 83.1025 278.938 80.7441 279.379 78.3099C278.689 78.3991 276.779 68.0411 277.299 67.4056C276.338 65.9674 274.618 65.2524 273.569 63.849C268.35 56.8691 261.159 58.0878 257.406 67.5729C249.387 71.5651 249.309 78.1859 254.229 84.5536C257.36 88.6047 257.79 94.0864 260.537 98.4235C260.254 98.7803 259.96 99.126 259.677 99.4828C254.512 106.035 250.01 113.07 246.236 120.489C247.303 112.261 245.727 102.349 243.039 95.9596C239.98 88.6795 234.246 82.5482 229.196 76.2546C223.131 68.695 210.693 71.9942 209.624 81.5771C209.614 81.6699 209.604 81.7627 209.594 81.8554C210.344 82.2728 211.078 82.7158 211.796 83.1845C212.699 83.7793 213.398 84.6291 213.802 85.6225C214.207 86.616 214.298 87.7069 214.063 88.7521C213.828 89.7974 213.279 90.7483 212.487 91.4803C211.695 92.2123 210.697 92.6913 209.624 92.8544L209.515 92.8711C209.782 95.5376 210.254 98.1803 210.927 100.776C204.449 125.489 218.435 134.489 238.405 134.894C238.846 135.117 239.276 135.34 239.716 135.552C235.924 146.152 233.546 157.193 232.641 168.398C232.128 175.009 232.158 181.649 232.731 188.255L232.697 188.021C231.25 180.675 227.278 174.048 221.451 169.256C212.796 162.243 200.568 159.661 191.231 154.024C186.736 151.31 180.977 154.817 181.761 159.957C181.774 160.039 181.787 160.121 181.799 160.203C183.191 160.762 184.547 161.406 185.857 162.132C186.607 162.549 187.341 162.992 188.06 163.461C188.962 164.056 189.662 164.906 190.066 165.899C190.471 166.893 190.561 167.983 190.327 169.029C190.092 170.074 189.542 171.025 188.75 171.757C187.958 172.489 186.961 172.968 185.888 173.131L185.778 173.148C185.699 173.159 185.631 173.17 185.552 173.181C187.93 178.782 191.268 183.938 195.42 188.422C199.47 209.995 216.868 212.042 235.478 205.76H235.489C237.531 214.512 240.489 223.032 244.317 231.181H275.852C275.965 230.835 276.067 230.478 276.169 230.133C273.25 230.314 270.319 230.142 267.443 229.62C269.782 226.788 272.122 223.934 274.462 221.102C274.514 221.049 274.563 220.993 274.609 220.934C275.796 219.485 276.994 218.047 278.181 216.597L278.181 216.596C278.244 212.153 277.728 207.72 276.643 203.407L276.642 203.407Z" fill="#F2F2F2"/>
<path d="M129.495 46.9678C128.78 48.6131 106.711 48.4368 105.7 49.9018C97.9069 61.2125 125.999 109.337 118.206 120.662L117.12 121.938C119.663 120.783 122.105 119.424 124.423 117.875C124.631 113.239 124.839 108.589 125.062 103.953C127.396 106.898 129.28 110.165 130.654 113.65C132.469 112.388 133.957 110.049 141.734 105.449C144.882 102.038 148.512 99.0904 152.511 96.6982L129.495 46.9678Z" fill="#2F2E41"/>
<path d="M145.521 139.665C143.085 138.1 140.307 137.131 137.416 136.837C134.524 136.544 131.604 136.935 128.896 137.977C126.189 139.02 123.773 140.685 121.848 142.833C119.923 144.981 118.546 147.552 117.83 150.33L84.2925 236.527L26.6463 204.244C26.3932 200.534 24.9553 196.997 22.5387 194.143C20.1222 191.288 16.8512 189.261 13.1949 188.354C9.53861 187.446 5.68485 187.704 2.18635 189.091C-1.31214 190.477 -4.27563 192.921 -6.27909 196.071C-8.28255 199.222 -9.22305 202.917 -8.96568 206.628C-8.70832 210.338 -7.26633 213.873 -4.84652 216.725C-2.42671 219.577 0.846592 221.6 4.50392 222.503C8.16125 223.407 12.0147 223.144 15.5116 221.754C27.6514 234.535 80.2819 286.935 102.07 266.461C120.385 249.252 146.815 182.554 153.177 159.522C154.196 155.839 154.004 151.932 152.628 148.363C151.252 144.795 148.764 141.749 145.521 139.665Z" fill="#FFB6B6"/>
<path d="M82.5479 270.073L93.1311 317.258L170.519 324.163L177.631 283.078L82.5479 270.073Z" fill="#FFB6B6"/>
<path d="M200.76 391.073C200.724 391.749 200.682 392.419 200.632 393.095C199.89 402.872 199.042 414.148 198.123 426.505C196.673 446.114 195.055 468.443 193.421 491.804H31.0991L62.5798 398.468C62.5798 398.468 75.291 391.564 68.8196 379.967C62.3482 368.371 75.0816 377.612 75.2 361.05C75.3185 344.488 86.7289 326.869 86.7289 326.869L88.6023 301.792L89.6698 301.813L174.143 303.201L175.684 303.229L178.279 324.756C194.032 343.247 202.068 366.954 200.76 391.073Z" fill="#2F2E41"/>
<path d="M130.849 116.798L169.368 114.841L187.26 142.727C187.26 142.727 220.923 148.279 218.59 187.408C216.256 226.537 177.632 260.873 177.632 260.873L179.283 255.289L176.415 263.371L176.783 267.91L180.695 272.716L181.097 277.686L177.632 285.55C178.082 286.263 178.321 287.086 178.322 287.926C178.323 288.765 178.084 289.589 177.635 290.302C177.185 291.015 176.542 291.59 175.778 291.96C175.014 292.331 174.159 292.483 173.312 292.4L117.654 286.898C116.387 283.459 115.37 279.345 110.291 286.194L105.048 285.693L83.2521 283.61L81.9692 279C81.2403 276.381 81.1267 273.632 81.6371 270.963C82.1475 268.294 83.2684 265.774 84.9145 263.597C83.0213 257.749 83.5172 251.404 86.2965 245.911L86.4008 245.705L88.7153 243.802C88.7153 243.802 63.393 206.276 92.4623 178.011L104.129 158.447L117.184 142.736L130.849 116.798Z" fill="#256864"/>
<path d="M140.436 100.337C160.609 100.337 176.963 84.2051 176.963 64.3056C176.963 44.4061 160.609 28.2744 140.436 28.2744C120.262 28.2744 103.908 44.4061 103.908 64.3056C103.908 84.2051 120.262 100.337 140.436 100.337Z" fill="#FFB6B6"/>
<path d="M168.178 116.211C165.204 113.759 163.133 110.407 162.289 106.675C161.613 111.206 161.79 115.821 162.809 120.289C160.831 121.756 158.913 123.15 157.098 124.411C155.725 120.927 153.841 117.66 151.506 114.715C151.283 119.35 151.075 124.001 150.867 128.636C148.549 130.185 146.107 131.544 143.565 132.7L144.65 131.424C152.443 120.098 132.277 99.2522 140.07 87.9415C142.256 84.7727 132.381 59.7308 124.855 58.6012C118.163 57.6037 118.446 59.5108 111.961 60.9045C111.288 58.1343 110.243 55.4652 108.853 52.9679C109.223 55.7506 109.138 58.5738 108.6 61.3298C106.295 61.4179 104.481 59.969 102.027 59.5988C86.3664 57.2369 87.9577 40.5277 92.3152 35.2317C96.6876 29.9505 111.203 28.3661 117.895 26.6496C118.505 26.0629 119.888 26.4296 120.498 25.8721C133.324 14.2937 150.477 12.3762 165.914 17.508C182.376 22.9808 192.64 33.5729 197.908 49.9018L199.418 62.9692C200.774 67.1708 199.069 86.7204 197.908 90.9782C193.394 107.529 183.781 99.2669 168.178 116.211Z" fill="#2F2E41"/>
<path d="M221.438 286.918L220 176.441C219.925 171.761 217.988 167.297 214.606 164.014C211.224 160.73 206.669 158.89 201.924 158.89C199.469 158.89 197.039 159.383 194.784 160.339C192.529 161.295 190.494 162.695 188.805 164.452C187.116 166.209 185.807 168.287 184.959 170.559C184.11 172.832 183.74 175.251 183.87 177.669L188.93 292.382L189.026 362.213C186.044 363.461 183.523 365.584 181.806 368.294C180.09 371.004 179.26 374.17 179.431 377.361C179.602 380.552 180.764 383.614 182.761 386.13C184.757 388.647 187.49 390.497 190.589 391.428C193.688 392.359 197.003 392.326 200.082 391.334C203.162 390.342 205.857 388.439 207.802 385.884C209.747 383.328 210.848 380.244 210.954 377.05C211.06 373.857 210.167 370.708 208.396 368.032L221.438 286.918Z" fill="#FFB6B6"/>
<path d="M409.959 429.848C409.959 429.848 407.736 469.305 406.714 491.808H330.146C328.57 471.329 328.04 456.283 328.04 456.283L323.85 491.808H246.456L241.658 426.016L264.845 369.32C264.845 369.32 390.502 360.724 402.158 371.629C413.806 382.526 409.959 429.848 409.959 429.848Z" fill="#2F2E41"/>
<path d="M342.252 97.9338C365.351 97.9338 384.075 79.4632 384.075 56.6786C384.075 33.8939 365.351 15.4233 342.252 15.4233C319.154 15.4233 300.429 33.8939 300.429 56.6786C300.429 79.4632 319.154 97.9338 342.252 97.9338Z" fill="#FFB6B6"/>
<path d="M391.001 43.2736C386.705 45.2058 383.922 59.1998 380.545 55.9465C377.169 52.6932 377.394 48.4595 372.842 47.2588C369.166 46.2851 365.21 47.398 361.857 49.1531C361.258 49.4627 360.678 49.7995 360.112 50.1343C359.738 49.8882 359.367 49.6566 358.968 49.443C355.969 47.8597 352.468 47.4713 349.187 48.3578C351.779 49.2143 354.033 50.8531 355.63 53.0424C354.508 53.7842 353.371 54.528 352.209 55.187C342.495 60.7163 328.673 48.693 318.449 44.1762C324.853 56.0309 321.7 60.9405 316.139 73.2008L315.947 73.899C316.263 70.8262 306.623 68.5362 307.182 72.8618C307.579 75.9329 310.274 82.7593 311.783 85.4709C301.033 73.21 293.687 58.2061 295.237 42.7283C295.575 39.4769 295.473 36.0463 297.173 33.2242C298.875 30.4168 302.423 28.4466 305.562 29.5172C305.296 24.5812 306.391 19.6663 308.731 15.2951C311.07 10.9239 314.567 7.25977 318.849 4.69225C323.131 2.12473 328.038 0.749802 333.049 0.713623C338.06 0.677445 342.988 1.98138 347.307 4.4868C351.321 6.81007 354.672 10.0959 358.351 12.9302C362.03 15.7645 366.271 18.2351 370.936 18.4691C373.895 18.6099 377.116 17.8972 379.658 19.4091C382.603 21.1635 383.107 24.8365 383.549 28.3709C380.922 28.6263 378.432 29.6485 376.397 31.3069C379.115 31.0334 381.852 31.6123 384.217 32.9612C384.262 32.9813 384.305 33.0053 384.345 33.033C385.902 38.8742 385.742 40.1691 391.001 43.2736Z" fill="#2F2E41"/>
<path d="M246.642 389.279C282.258 348.156 270.228 295.851 256.092 243.052L258.782 165.051C258.914 161.225 259.977 157.486 261.882 154.151C263.788 150.815 266.478 147.981 269.727 145.887L306.087 122.456L320.239 102.273L359.248 106.121L380.88 128.687L404.824 146.718C410.836 151.245 415.411 157.374 418.008 164.381C420.606 171.388 421.119 178.982 419.486 186.267L396.572 288.484C396.572 288.484 406.155 341.474 400.308 347.327C394.46 353.179 379.392 347.33 391.341 353.899C405.681 361.783 418.719 360.329 411.462 367.487C404.206 374.645 413.39 384.596 413.39 384.596L246.642 389.279Z" fill="#256864"/>
<path d="M261.87 449.045L267.808 407.318L244.115 400.646L239.429 444.983C237.468 446.757 236.048 449.034 235.328 451.56C234.607 454.086 234.616 456.761 235.352 459.282C236.087 461.804 237.522 464.073 239.494 465.835C241.465 467.596 243.896 468.78 246.512 469.254C249.129 469.728 251.828 469.472 254.305 468.515C256.782 467.559 258.94 465.94 260.535 463.841C262.131 461.741 263.101 459.244 263.337 456.63C263.573 454.017 263.065 451.39 261.87 449.045Z" fill="#FFB6B6"/>
<path d="M306.975 129.978C306.975 129.978 239.537 151.629 237.929 167.47C236.321 183.312 236.854 193.01 229.737 256.401L230.112 427.159C230.112 427.159 275.325 436.708 270.688 426.499C266.051 416.289 267.669 411.486 267.669 411.486C267.669 411.486 277.363 407.712 274.936 395.725C272.51 383.738 284.679 324.332 284.679 324.332L292.359 217.791L306.975 129.978Z" fill="#256864"/>
<path d="M390.128 446.835L386.968 404.814L411.052 399.685L412.79 444.229C414.629 446.125 415.896 448.49 416.447 451.057C416.998 453.624 416.813 456.292 415.911 458.76C415.01 461.229 413.428 463.401 411.344 465.032C409.26 466.662 406.756 467.687 404.114 467.991C401.471 468.295 398.796 467.866 396.387 466.752C393.978 465.638 391.933 463.883 390.48 461.685C389.026 459.487 388.224 456.933 388.162 454.31C388.1 451.686 388.781 449.098 390.128 446.835Z" fill="#FFB6B6"/>
<path d="M366.262 125.542C366.262 125.542 432.121 151.495 432.676 167.406C433.231 183.318 432.056 192.96 434.958 256.675L423.269 427.044C423.269 427.044 377.519 433.657 382.823 423.769C388.126 413.88 386.83 408.983 386.83 408.983C386.83 408.983 377.407 404.592 380.623 392.787C383.839 380.982 375.632 320.919 375.632 320.919L375.028 214.11L366.262 125.542Z" fill="#256864"/>
</g>
<defs>
<clipPath id="clip0_98_298">
<rect width="653.796" height="491" fill="white" transform="translate(-9 0.807617)"/>
</clipPath>
</defs>
</svg>
