<svg width="300" height="191" viewBox="0 0 300 191" fill="none" xmlns="http://www.w3.org/2000/svg">
<g clip-path="url(#clip0_349_495)">
<path d="M63.5949 44.9792L74.9294 60.4518C74.9294 60.4518 84.593 64.5154 95.8873 72.6746L93.1838 76.895C93.1838 76.895 74.5417 69.2615 69.7711 66.0361L61.0596 52.3789L63.5949 44.9792Z" fill="#A0616A"/>
<path d="M102.665 80.1689C103.747 78.5859 102.463 75.8259 99.7965 74.0041C97.1306 72.1823 94.0925 71.9887 93.0108 73.5716C91.9291 75.1545 93.2135 77.9146 95.8794 79.7364C98.5454 81.5582 101.583 81.7518 102.665 80.1689Z" fill="#A0616A"/>
<path d="M58.0547 31.7706L61.764 30.7185C61.764 30.7185 63.9232 30.7226 65.1413 32.8434C66.3594 34.9642 74.984 53.8736 74.5753 54.6061C74.1665 55.3386 73.5958 55.5005 74.3283 55.9093C75.0608 56.3181 75.7315 56.1109 75.2323 56.7234C74.733 57.336 75.423 58.6817 75.423 58.6817L65.908 65.7018L58.0547 31.7706Z" fill="#256864"/>
<path d="M43.6635 187.259L48.1888 187.259L50.3416 169.804L43.6626 169.804L43.6635 187.259Z" fill="#A0616A"/>
<path d="M59.1679 187.156C59.3088 187.394 59.3831 188.16 59.3831 188.436C59.3831 189.284 58.6955 189.972 57.8472 189.972H43.8328C43.2541 189.972 42.785 189.502 42.785 188.924V188.34C42.785 188.34 42.0917 186.587 43.5191 184.425C43.5191 184.425 45.2931 186.118 47.9439 183.467L48.7256 182.051L54.384 186.189L57.5204 186.575C58.2065 186.66 58.8149 186.562 59.1679 187.156Z" fill="#2F2E41"/>
<path d="M60.0425 182.849L64.5053 183.598L69.5203 166.741L62.9336 165.635L60.0425 182.849Z" fill="#A0616A"/>
<path d="M75.3491 185.316C75.4487 185.574 75.3952 186.341 75.3494 186.614C75.2089 187.45 74.4168 188.014 73.5803 187.874L59.7596 185.552C59.1889 185.456 58.804 184.916 58.8999 184.345L58.9966 183.77C58.9966 183.77 58.6034 181.925 60.3692 180.03C60.3692 180.03 61.8382 181.993 64.8916 179.818L65.8971 178.551L70.7917 183.57L73.8207 184.47C74.4834 184.667 75.0995 184.672 75.3491 185.316Z" fill="#2F2E41"/>
<path d="M69.3189 93.2844C69.3189 93.2844 75.3989 100.402 75.3989 106.927C75.3989 113.452 75.5472 133.949 75.5472 133.949C75.5472 133.949 71.9882 165.948 71.0984 168.617C70.2087 171.287 69.7638 175.735 69.7638 175.735L61.1628 173.659C61.1628 173.659 59.9764 143.556 63.5355 136.438L54.9345 112.118L51.9686 180.926H41.9839C41.9839 180.926 36.8427 144.742 39.512 135.251C39.512 135.251 33.5803 99.0679 35.0632 96.9918C36.5461 94.9157 69.3189 93.2844 69.3189 93.2844Z" fill="#2F2E41"/>
<path d="M47.2235 22.4004L55.2313 22.9936L57.9006 27.4424C57.9006 27.4424 64.1289 30.1116 65.0186 33.9673C65.9084 37.8229 66.205 82.904 66.205 82.904L70.6538 89.4289L70.3572 95.064L34.7668 96.8436V91.4256L31.5044 84.9801C31.5044 84.9801 35.0634 33.3741 35.9532 33.0775C36.8429 32.7809 43.6644 28.0355 43.6644 28.0355L47.2235 22.4004Z" fill="#256864"/>
<path d="M50.8476 21.2965C56.4168 21.2965 60.9315 16.7818 60.9315 11.2126C60.9315 5.64339 56.4168 1.12866 50.8476 1.12866C45.2784 1.12866 40.7637 5.64339 40.7637 11.2126C40.7637 16.7818 45.2784 21.2965 50.8476 21.2965Z" fill="#A0616A"/>
<path d="M58.9022 3.10177C58.3891 1.64651 56.9656 0.763638 55.4229 0.798027C55.3575 0.799467 55.2922 0.798863 55.2275 0.796205C54.4506 0.76444 53.7049 0.499088 52.9431 0.343421C51.5233 0.0532709 50.0262 0.150413 48.6558 0.621592C48.2299 0.768059 47.8034 0.952237 47.353 0.952287C46.9025 0.95235 46.4119 0.705357 46.302 0.268542C46.2759 0.664027 46.2499 1.05949 46.2239 1.45495C46.0773 1.13487 45.9308 0.814772 45.7842 0.494675L45.4906 1.77119L44.5502 0.704349C44.6343 1.17457 44.3601 1.64851 43.9889 1.94914C43.6178 2.2498 43.1593 2.4161 42.7199 2.6034C40.8232 3.41186 39.0424 4.84322 38.4959 6.83125C38.1506 8.08728 38.3312 9.42031 38.5142 10.71C38.6759 11.8501 38.8517 13.0297 39.4715 14.0002C39.8687 14.6224 40.4414 15.1459 40.6833 15.8434C40.9087 16.4935 40.8233 17.2378 41.1441 17.8466C41.4663 18.458 42.1314 18.804 42.7823 19.0363C43.4331 19.2687 44.125 19.433 44.6856 19.8373C45.2461 20.2417 45.8966 21.4065 47.1179 21.3438L47.512 20.6033C47.9175 20.2729 46.4169 20.5348 46.4013 20.012C46.3856 19.4893 48.2068 19.1663 47.9487 18.7114C47.5529 18.0138 47.0173 17.4067 46.5713 16.74C46.0497 15.9604 45.6394 15.0495 45.8194 14.098C45.8894 13.7278 46.0627 13.3782 46.3266 13.1093C47.0872 12.3342 47.9354 12.6749 48.7597 12.7857C49.3279 12.8622 50.0064 12.7739 50.3015 12.2824C50.6466 11.7073 50.2619 10.9757 50.309 10.3066C50.3588 9.5977 50.8959 9.01639 51.4804 8.61222C52.065 8.20807 52.7287 7.91361 53.2545 7.43559C53.7804 6.95753 54.1549 6.2107 53.9257 5.53803C56.4183 4.5003 56.7998 4.40215 59.4246 5.035C59.2995 4.37861 59.1244 3.73189 58.9022 3.10177Z" fill="#2F2E41"/>
<path d="M16.3311 132.074V101.466C16.3311 100.627 16.6889 99.8232 17.3128 99.2616C17.9367 98.7 18.7732 98.4283 19.6083 98.5164C27.3437 97.4757 34.6292 97.9706 41.2319 100.796C41.9798 100.796 42.5882 101.405 42.5882 102.153V132.868C42.5882 133.616 41.9798 134.224 41.2319 134.224C33.9638 132.52 26.298 132.963 18.4809 134.224C17.2955 134.224 16.3311 133.26 16.3311 132.074Z" fill="#E6E6E6"/>
<path d="M16.3311 134.799V103.868C16.3311 102.232 17.6617 100.901 19.2973 100.901C26.6942 98.9659 34.0059 98.9626 41.2319 100.901C41.9798 100.901 42.5882 101.51 42.5882 102.258V132.658C42.5882 133.405 41.9816 134.013 41.2352 134.015C34.1103 132.775 26.478 133.982 18.4809 136.949C17.2955 136.949 16.3311 135.985 16.3311 134.799Z" fill="#F2F2F2"/>
<path d="M33.4115 113.684H26.4948C24.0107 113.684 21.9897 111.663 21.9897 109.179C21.9897 106.695 24.0107 104.674 26.4948 104.674H33.4115C35.8958 104.674 37.9168 106.695 37.9168 109.179C37.9168 111.663 35.8958 113.684 33.4115 113.684Z" fill="#E6E6E6"/>
<path d="M39.7513 52.9304L39.4869 68.8999C39.4869 68.8999 38.6419 81.3455 36.5434 95.3514L31.5415 95.6705C31.5415 95.6705 32.1569 73.802 31.9327 68.0477L32.2864 55.267L39.7513 52.9304Z" fill="#A0616A"/>
<path d="M34.5146 105.25C36.4307 105.185 37.8951 102.516 37.7854 99.289C37.6757 96.0619 36.0335 93.4986 34.1174 93.5637C32.2013 93.6288 30.7369 96.2977 30.8466 99.5249C30.9563 102.752 32.5985 105.315 34.5146 105.25Z" fill="#A0616A"/>
<path d="M39.6731 32.5994L35.8201 32.7397C35.8201 32.7397 33.7669 33.408 33.2605 35.8007C32.7541 38.1935 29.2042 62.9557 29.8186 63.5269C30.4329 64.0981 31.0257 64.0765 30.4545 64.6909C29.8833 65.3053 29.1814 65.3145 29.845 65.7436C30.5085 66.1728 30.2661 67.6656 30.2661 67.6656L40.9228 66.9106L39.6731 32.5994Z" fill="#256864"/>
<path d="M293.89 175.275H191.372C190.777 175.275 190.188 175.184 189.621 175.005L189.561 174.981C157.46 159.027 129.938 150.32 105.422 148.362L105.329 148.343C102.903 147.576 101.274 145.351 101.274 142.808V5.81063C101.274 3.93998 102.14 2.23293 103.649 1.12743C105.158 0.021932 107.046 -0.288272 108.83 0.275342L189.875 25.9099C190.36 26.0635 190.864 26.1412 191.372 26.1412H293.89C297.091 26.1412 299.695 28.7457 299.695 31.9467V169.47C299.695 172.671 297.091 175.275 293.89 175.275ZM189.905 174.214C190.381 174.361 190.874 174.435 191.372 174.435H293.89C296.628 174.435 298.856 172.208 298.856 169.47V31.9467C298.856 29.2086 296.628 26.981 293.89 26.981H191.372C190.778 26.981 190.189 26.8902 189.621 26.7108L108.577 1.07617C107.051 0.593134 105.436 0.859258 104.145 1.80484C102.854 2.75062 102.114 4.21061 102.114 5.81063V142.808C102.114 144.968 103.487 146.859 105.537 147.528C130.143 149.503 157.741 158.232 189.905 174.214Z" fill="#3F3D56"/>
<path d="M192.66 174.419C220.612 164.528 251.796 165.663 284.924 173.433C289.083 174.408 293.07 171.277 293.07 167.005V41.8292C293.07 38.7895 290.998 36.1317 288.045 35.4096C253.098 26.8637 220.455 25.2914 191.688 35.4464C189.581 36.1903 187.242 35.7873 185.463 34.4336C161.222 15.9809 136.413 6.72884 110.863 9.476C107.521 9.83538 105 12.6839 105 16.0455V142.587C105 145.975 107.564 148.808 110.934 149.158C138.434 152.018 163.704 160.687 187.205 173.961C188.869 174.901 190.858 175.057 192.66 174.419Z" fill="#F6ECDE"/>
<path d="M193.212 162.035C191.309 162.035 189.434 161.511 187.781 160.485C168.044 148.228 146.542 141.067 123.87 139.202C118.555 138.765 114.392 134.231 114.392 128.881V20.7939C114.392 15.2463 118.694 10.7007 124.186 10.4454C140.693 9.67573 160.735 17.0368 187.256 33.6027C189.5 35.0036 192.228 35.4196 194.741 34.7455C219.947 27.9796 247.269 27.782 278.272 34.1413C283.084 35.1287 286.578 39.4006 286.578 44.2993V149.802C286.578 152.986 285.146 155.943 282.649 157.915C280.134 159.902 276.898 160.614 273.77 159.869C244.442 152.889 219.258 153.393 196.778 161.412C195.611 161.829 194.406 162.035 193.212 162.035ZM126.543 11.2311C125.761 11.2311 124.991 11.2487 124.225 11.2844C119.182 11.5187 115.231 15.6957 115.231 20.7939V128.881C115.231 133.797 119.056 137.963 123.939 138.365C146.744 140.241 168.373 147.443 188.224 159.772C190.694 161.306 193.709 161.616 196.496 160.622C219.133 152.546 244.473 152.033 273.964 159.052C276.841 159.737 279.816 159.083 282.129 157.256C284.422 155.444 285.738 152.727 285.738 149.802V44.2993C285.738 39.7975 282.527 35.8715 278.103 34.9638C247.232 28.631 220.035 28.825 194.959 35.5566C192.221 36.291 189.252 35.8389 186.811 34.3149C161.678 18.6159 142.431 11.2311 126.543 11.2311Z" fill="#F6ECDE"/>
<path d="M191.305 35.3729L190.465 35.3806L191.634 161.843L192.474 161.835L191.305 35.3729Z" fill="white"/>
<path d="M22.7829 183.722C21.9155 183.776 21.436 182.699 22.0923 182.07L22.1576 181.811C22.149 181.79 22.1404 181.769 22.1317 181.749C21.2544 179.657 18.2813 179.671 17.4115 181.766C16.6395 183.625 15.6566 185.488 15.4146 187.454C15.3061 188.322 15.3549 189.206 15.5475 190.057C13.7385 186.106 12.7866 181.791 12.7866 177.452C12.7866 176.362 12.8463 175.271 12.9683 174.184C13.0687 173.294 13.207 172.41 13.386 171.534C14.3542 166.799 16.4506 162.289 19.4745 158.522C20.9282 157.727 22.1404 156.485 22.8727 154.996C23.1357 154.459 23.3419 153.882 23.4395 153.293C23.2741 153.315 22.8157 150.795 22.9405 150.641C22.7099 150.291 22.2973 150.117 22.0455 149.776C20.7933 148.078 19.068 148.374 18.1673 150.681C16.2432 151.653 16.2246 153.263 17.4052 154.812C18.1563 155.797 18.2595 157.131 18.9185 158.186C18.8507 158.272 18.7802 158.357 18.7124 158.443C17.4691 160.038 16.3937 161.752 15.4872 163.553C15.7434 161.552 15.3651 159.141 14.7203 157.586C13.9862 155.816 12.6104 154.324 11.3987 152.793C9.94339 150.954 6.95906 151.757 6.70266 154.088C6.70017 154.11 6.69776 154.133 6.69539 154.156C6.87535 154.257 7.05166 154.365 7.22388 154.479C8.20622 155.129 7.86672 156.651 6.70277 156.831L6.67641 156.835C6.7415 157.483 6.8527 158.126 7.0154 158.758C5.46105 164.769 8.81679 166.958 13.6083 167.057C13.7141 167.111 13.8172 167.165 13.923 167.217C13.4375 168.584 13.0497 169.986 12.7622 171.407C12.5046 172.662 12.3256 173.932 12.2252 175.206C12.1005 176.815 12.1113 178.431 12.2469 180.037L12.2388 179.98C11.8944 178.211 10.9343 176.56 9.5403 175.415C7.46367 173.709 4.52979 173.081 2.28948 171.71C1.21105 171.05 -0.170865 171.903 0.0173476 173.153L0.0265097 173.213C0.360085 173.349 0.68552 173.506 1.00012 173.682C1.18009 173.784 1.35639 173.892 1.52861 174.006C2.51095 174.655 2.17145 176.178 1.0075 176.358L0.98112 176.362C0.962141 176.364 0.945862 176.367 0.926908 176.37C1.49915 177.729 2.29646 178.99 3.29449 180.077C4.26639 185.325 8.44072 185.823 12.9059 184.294H12.9087C13.3968 186.421 14.1101 188.498 15.0268 190.478H22.5933C22.6205 190.394 22.6449 190.307 22.6693 190.223C21.9696 190.266 21.2644 190.226 20.5756 190.098C21.137 189.409 21.6983 188.715 22.2597 188.026C22.2733 188.013 22.2842 187.999 22.295 187.986C22.5798 187.633 22.8672 187.283 23.152 186.931L23.1522 186.93C23.17 185.848 23.04 184.769 22.7829 183.722Z" fill="#F2F2F2"/>
<path d="M107.413 190.5C107.413 190.778 107.19 191 106.913 191H0.558267C0.28115 191 0.0585938 190.778 0.0585938 190.5C0.0585938 190.223 0.28115 190.001 0.558267 190.001H106.913C107.19 190.001 107.413 190.223 107.413 190.5Z" fill="#CCCCCC"/>
<path d="M278.889 163.938C284.222 163.938 288.546 159.614 288.546 154.281C288.546 148.947 284.222 144.623 278.889 144.623C273.555 144.623 269.231 148.947 269.231 154.281C269.231 159.614 273.555 163.938 278.889 163.938Z" fill="#256864"/>
<path d="M283.411 153.917L277.419 150.457C277.139 150.295 276.789 150.497 276.789 150.82V153.861H274.992C274.76 153.861 274.572 154.049 274.572 154.281C274.572 154.512 274.76 154.7 274.992 154.7H276.789V157.741C276.789 158.064 277.139 158.266 277.419 158.104L283.411 154.644C283.691 154.483 283.691 154.079 283.411 153.917Z" fill="#F6ECDE"/>
<path d="M134.8 99.62C134.52 100.367 134.12 101.013 133.6 101.56C133.08 102.093 132.467 102.5 131.76 102.78C131.067 103.06 130.307 103.2 129.48 103.2C128.227 103.2 127.14 102.927 126.22 102.38C125.313 101.82 124.607 101.033 124.1 100.02C123.607 99.0067 123.36 97.8 123.36 96.4C123.36 95 123.607 93.7933 124.1 92.78C124.607 91.7667 125.313 90.9867 126.22 90.44C127.14 89.88 128.213 89.6 129.44 89.6C130.293 89.6 131.053 89.72 131.72 89.96C132.387 90.1867 132.953 90.5333 133.42 91C133.9 91.4533 134.28 92.0133 134.56 92.68L132.98 93.42C132.687 92.66 132.26 92.0867 131.7 91.7C131.153 91.3 130.44 91.1 129.56 91.1C128.667 91.1 127.88 91.3133 127.2 91.74C126.52 92.1533 125.987 92.7533 125.6 93.54C125.227 94.3267 125.04 95.28 125.04 96.4C125.04 97.5067 125.22 98.46 125.58 99.26C125.94 100.047 126.453 100.653 127.12 101.08C127.787 101.493 128.573 101.7 129.48 101.7C130.36 101.7 131.127 101.48 131.78 101.04C132.433 100.587 132.907 99.9133 133.2 99.02L134.8 99.62ZM141.711 92.8C142.658 92.8 143.491 93.0067 144.211 93.42C144.944 93.8333 145.518 94.4333 145.931 95.22C146.344 95.9933 146.551 96.92 146.551 98C146.551 99.08 146.344 100.013 145.931 100.8C145.518 101.573 144.944 102.167 144.211 102.58C143.491 102.993 142.658 103.2 141.711 103.2C140.778 103.2 139.944 102.993 139.211 102.58C138.478 102.167 137.904 101.573 137.491 100.8C137.078 100.013 136.871 99.08 136.871 98C136.871 96.92 137.078 95.9933 137.491 95.22C137.904 94.4333 138.478 93.8333 139.211 93.42C139.944 93.0067 140.778 92.8 141.711 92.8ZM141.711 94.18C141.031 94.18 140.451 94.3333 139.971 94.64C139.491 94.9467 139.118 95.3867 138.851 95.96C138.598 96.52 138.471 97.2 138.471 98C138.471 98.7867 138.598 99.4667 138.851 100.04C139.118 100.613 139.491 101.053 139.971 101.36C140.451 101.667 141.031 101.82 141.711 101.82C142.391 101.82 142.971 101.667 143.451 101.36C143.931 101.053 144.298 100.613 144.551 100.04C144.818 99.4667 144.951 98.7867 144.951 98C144.951 97.2 144.818 96.52 144.551 95.96C144.298 95.3867 143.931 94.9467 143.451 94.64C142.971 94.3333 142.391 94.18 141.711 94.18ZM149.563 103V93H150.963L151.103 95.24L150.843 95.02C151.056 94.4867 151.343 94.06 151.703 93.74C152.063 93.4067 152.476 93.1667 152.943 93.02C153.423 92.8733 153.916 92.8 154.423 92.8C155.143 92.8 155.796 92.94 156.383 93.22C156.97 93.4867 157.436 93.9 157.783 94.46C158.143 95.02 158.323 95.7333 158.323 96.6V103H156.723V97.16C156.723 96.0533 156.483 95.2867 156.003 94.86C155.536 94.42 154.956 94.2 154.263 94.2C153.783 94.2 153.303 94.3133 152.823 94.54C152.343 94.7667 151.943 95.1333 151.623 95.64C151.316 96.1467 151.163 96.8267 151.163 97.68V103H149.563ZM164.169 90.16V100.24C164.169 100.733 164.309 101.1 164.589 101.34C164.869 101.58 165.229 101.7 165.669 101.7C166.056 101.7 166.389 101.633 166.669 101.5C166.949 101.367 167.203 101.187 167.429 100.96L167.989 102.3C167.683 102.58 167.316 102.8 166.889 102.96C166.476 103.12 165.996 103.2 165.449 103.2C164.943 103.2 164.469 103.113 164.029 102.94C163.589 102.753 163.236 102.467 162.969 102.08C162.716 101.68 162.583 101.16 162.569 100.52V90.6L164.169 90.16ZM167.809 93V94.38H160.569V93H167.809ZM176.028 96.54C176.028 95.7933 175.828 95.22 175.428 94.82C175.028 94.4067 174.461 94.2 173.728 94.2C173.035 94.2 172.448 94.3533 171.968 94.66C171.488 94.9533 171.135 95.4333 170.908 96.1L169.608 95.3C169.875 94.5533 170.368 93.9533 171.088 93.5C171.808 93.0333 172.701 92.8 173.768 92.8C174.488 92.8 175.141 92.9267 175.728 93.18C176.315 93.42 176.775 93.7933 177.108 94.3C177.455 94.7933 177.628 95.4333 177.628 96.22V101.06C177.628 101.54 177.881 101.78 178.388 101.78C178.641 101.78 178.888 101.747 179.128 101.68L179.048 102.94C178.781 103.073 178.435 103.14 178.008 103.14C177.621 103.14 177.275 103.067 176.968 102.92C176.661 102.773 176.421 102.553 176.248 102.26C176.075 101.953 175.988 101.573 175.988 101.12V100.92L176.388 100.98C176.228 101.5 175.955 101.927 175.568 102.26C175.181 102.58 174.748 102.82 174.268 102.98C173.788 103.127 173.315 103.2 172.848 103.2C172.261 103.2 171.715 103.1 171.208 102.9C170.701 102.7 170.295 102.4 169.988 102C169.695 101.587 169.548 101.08 169.548 100.48C169.548 99.7333 169.795 99.12 170.288 98.64C170.795 98.1467 171.495 97.8133 172.388 97.64L176.348 96.86V98.18L173.128 98.84C172.475 98.9733 171.988 99.16 171.668 99.4C171.348 99.64 171.188 99.9733 171.188 100.4C171.188 100.813 171.348 101.153 171.668 101.42C172.001 101.673 172.468 101.8 173.068 101.8C173.455 101.8 173.821 101.753 174.168 101.66C174.528 101.553 174.848 101.4 175.128 101.2C175.408 100.987 175.628 100.727 175.788 100.42C175.948 100.1 176.028 99.7267 176.028 99.3V96.54ZM185.656 92.8C186.35 92.8 186.956 92.9067 187.476 93.12C188.01 93.3333 188.47 93.64 188.856 94.04C189.243 94.44 189.556 94.9133 189.796 95.46L188.276 96.18C188.063 95.54 187.736 95.0533 187.296 94.72C186.87 94.3733 186.31 94.2 185.616 94.2C184.95 94.2 184.376 94.3533 183.896 94.66C183.416 94.9533 183.05 95.3867 182.796 95.96C182.543 96.52 182.416 97.2 182.416 98C182.416 98.7867 182.543 99.4667 182.796 100.04C183.05 100.613 183.416 101.053 183.896 101.36C184.376 101.653 184.95 101.8 185.616 101.8C186.136 101.8 186.583 101.72 186.956 101.56C187.343 101.4 187.656 101.167 187.896 100.86C188.15 100.553 188.323 100.18 188.416 99.74L189.896 100.26C189.67 100.873 189.356 101.4 188.956 101.84C188.57 102.28 188.096 102.62 187.536 102.86C186.99 103.087 186.363 103.2 185.656 103.2C184.723 103.2 183.89 102.993 183.156 102.58C182.423 102.167 181.85 101.573 181.436 100.8C181.023 100.013 180.816 99.08 180.816 98C180.816 96.92 181.023 95.9933 181.436 95.22C181.85 94.4333 182.423 93.8333 183.156 93.42C183.89 93.0067 184.723 92.8 185.656 92.8ZM195.068 90.16V100.24C195.068 100.733 195.208 101.1 195.488 101.34C195.768 101.58 196.128 101.7 196.568 101.7C196.954 101.7 197.288 101.633 197.568 101.5C197.848 101.367 198.101 101.187 198.328 100.96L198.888 102.3C198.581 102.58 198.214 102.8 197.788 102.96C197.374 103.12 196.894 103.2 196.348 103.2C195.841 103.2 195.368 103.113 194.928 102.94C194.488 102.753 194.134 102.467 193.868 102.08C193.614 101.68 193.481 101.16 193.468 100.52V90.6L195.068 90.16ZM198.708 93V94.38H191.468V93H198.708ZM205.267 103.2C204.32 103.2 203.473 102.993 202.727 102.58C201.993 102.167 201.42 101.573 201.007 100.8C200.593 100.013 200.387 99.08 200.387 98C200.387 96.92 200.593 95.9933 201.007 95.22C201.42 94.4333 201.987 93.8333 202.707 93.42C203.427 93.0067 204.247 92.8 205.167 92.8C206.1 92.8 206.893 93 207.547 93.4C208.213 93.8 208.72 94.3467 209.067 95.04C209.413 95.72 209.587 96.4867 209.587 97.34C209.587 97.5667 209.58 97.7733 209.567 97.96C209.553 98.1467 209.533 98.3133 209.507 98.46H201.427V97.04H208.807L207.987 97.2C207.987 96.24 207.72 95.5 207.187 94.98C206.667 94.46 205.98 94.2 205.127 94.2C204.473 94.2 203.907 94.3533 203.427 94.66C202.96 94.9533 202.593 95.3867 202.327 95.96C202.073 96.52 201.947 97.2 201.947 98C201.947 98.7867 202.08 99.4667 202.347 100.04C202.613 100.613 202.987 101.053 203.467 101.36C203.96 101.653 204.547 101.8 205.227 101.8C205.96 101.8 206.553 101.66 207.007 101.38C207.473 101.1 207.847 100.72 208.127 100.24L209.387 100.98C209.133 101.433 208.807 101.827 208.407 102.16C208.02 102.493 207.56 102.753 207.027 102.94C206.507 103.113 205.92 103.2 205.267 103.2ZM211.91 103V101.78L217.15 95.64L218.41 94.34L216.63 94.38H211.97V93H220.19V94.22L214.95 100.36L213.71 101.66L215.65 101.62H220.35V103H211.91ZM228.955 96.94V98.6H222.355V96.94H228.955ZM232.61 103V93H234.01L234.15 95.24L233.89 95.02C234.103 94.4867 234.39 94.06 234.75 93.74C235.11 93.4067 235.523 93.1667 235.99 93.02C236.47 92.8733 236.963 92.8 237.47 92.8C238.19 92.8 238.843 92.94 239.43 93.22C240.017 93.4867 240.483 93.9 240.83 94.46C241.19 95.02 241.37 95.7333 241.37 96.6V103H239.77V97.16C239.77 96.0533 239.53 95.2867 239.05 94.86C238.583 94.42 238.003 94.2 237.31 94.2C236.83 94.2 236.35 94.3133 235.87 94.54C235.39 94.7667 234.99 95.1333 234.67 95.64C234.363 96.1467 234.21 96.8267 234.21 97.68V103H232.61ZM249.133 92.8C250.079 92.8 250.913 93.0067 251.633 93.42C252.366 93.8333 252.939 94.4333 253.353 95.22C253.766 95.9933 253.973 96.92 253.973 98C253.973 99.08 253.766 100.013 253.353 100.8C252.939 101.573 252.366 102.167 251.633 102.58C250.913 102.993 250.079 103.2 249.133 103.2C248.199 103.2 247.366 102.993 246.633 102.58C245.899 102.167 245.326 101.573 244.913 100.8C244.499 100.013 244.293 99.08 244.293 98C244.293 96.92 244.499 95.9933 244.913 95.22C245.326 94.4333 245.899 93.8333 246.633 93.42C247.366 93.0067 248.199 92.8 249.133 92.8ZM249.133 94.18C248.453 94.18 247.873 94.3333 247.393 94.64C246.913 94.9467 246.539 95.3867 246.273 95.96C246.019 96.52 245.893 97.2 245.893 98C245.893 98.7867 246.019 99.4667 246.273 100.04C246.539 100.613 246.913 101.053 247.393 101.36C247.873 101.667 248.453 101.82 249.133 101.82C249.813 101.82 250.393 101.667 250.873 101.36C251.353 101.053 251.719 100.613 251.973 100.04C252.239 99.4667 252.373 98.7867 252.373 98C252.373 97.2 252.239 96.52 251.973 95.96C251.719 95.3867 251.353 94.9467 250.873 94.64C250.393 94.3333 249.813 94.18 249.133 94.18ZM260.605 103.2C259.965 103.2 259.358 103.08 258.785 102.84C258.225 102.6 257.765 102.213 257.405 101.68C257.058 101.133 256.885 100.427 256.885 99.56V93H258.485V99.14C258.485 100.153 258.705 100.853 259.145 101.24C259.585 101.613 260.205 101.8 261.005 101.8C261.378 101.8 261.745 101.74 262.105 101.62C262.465 101.487 262.785 101.287 263.065 101.02C263.358 100.74 263.585 100.387 263.745 99.96C263.918 99.5333 264.005 99.0267 264.005 98.44V93H265.605V103H264.205L264.105 101.48C263.758 102.08 263.285 102.52 262.685 102.8C262.098 103.067 261.405 103.2 260.605 103.2ZM272.929 103.2C271.955 103.2 271.055 102.993 270.229 102.58C269.415 102.167 268.789 101.58 268.349 100.82L269.709 99.84C270.002 100.453 270.429 100.933 270.989 101.28C271.562 101.627 272.249 101.8 273.049 101.8C273.755 101.8 274.309 101.667 274.709 101.4C275.109 101.12 275.309 100.76 275.309 100.32C275.309 100.04 275.215 99.7867 275.029 99.56C274.855 99.32 274.515 99.1467 274.009 99.04L271.609 98.54C270.635 98.34 269.935 98.0067 269.509 97.54C269.095 97.0733 268.889 96.4933 268.889 95.8C268.889 95.2533 269.042 94.7533 269.349 94.3C269.669 93.8467 270.115 93.4867 270.689 93.22C271.275 92.94 271.962 92.8 272.749 92.8C273.735 92.8 274.569 92.9933 275.249 93.38C275.929 93.7667 276.435 94.3133 276.769 95.02L275.429 95.9C275.202 95.3133 274.835 94.8867 274.329 94.62C273.822 94.34 273.295 94.2 272.749 94.2C272.269 94.2 271.855 94.2667 271.509 94.4C271.175 94.5333 270.915 94.72 270.729 94.96C270.555 95.1867 270.469 95.4467 270.469 95.74C270.469 96.0333 270.569 96.3067 270.769 96.56C270.969 96.8 271.342 96.9733 271.889 97.08L274.389 97.6C275.322 97.7867 275.975 98.0933 276.349 98.52C276.722 98.9467 276.909 99.4667 276.909 100.08C276.909 100.707 276.742 101.26 276.409 101.74C276.075 102.207 275.609 102.567 275.009 102.82C274.409 103.073 273.715 103.2 272.929 103.2Z" fill="#163A53"/>
</g>
<defs>
<clipPath id="clip0_349_495">
<rect width="299.695" height="191" fill="white"/>
</clipPath>
</defs>
</svg>
