<svg width="219" height="118" viewBox="0 0 219 118" fill="none" xmlns="http://www.w3.org/2000/svg">
<path fill-rule="evenodd" clip-rule="evenodd" d="M202.271 72.7283C204.128 68.2943 205.112 63.6651 205.112 58.9039C205.112 26.3722 159.196 0 102.556 0C45.9158 0 0 26.3722 0 58.9039C0 91.4356 45.9158 117.808 102.556 117.808C130.921 117.808 156.596 111.194 175.162 100.505H218.308L202.271 72.7283Z" fill="#EF9F64"/>
<path d="M58.8 56.4276C58.52 57.1743 58.12 57.821 57.6 58.3676C57.08 58.901 56.4667 59.3076 55.76 59.5876C55.0667 59.8676 54.3067 60.0076 53.48 60.0076C52.2267 60.0076 51.14 59.7343 50.22 59.1876C49.3133 58.6276 48.6067 57.841 48.1 56.8276C47.6067 55.8143 47.36 54.6076 47.36 53.2076C47.36 51.8076 47.6067 50.6009 48.1 49.5876C48.6067 48.5743 49.3133 47.7943 50.22 47.2476C51.14 46.6876 52.2133 46.4076 53.44 46.4076C54.2933 46.4076 55.0533 46.5276 55.72 46.7676C56.3867 46.9943 56.9533 47.3409 57.42 47.8076C57.9 48.2609 58.28 48.8209 58.56 49.4876L56.98 50.2276C56.6867 49.4676 56.26 48.8943 55.7 48.5076C55.1533 48.1076 54.44 47.9076 53.56 47.9076C52.6667 47.9076 51.88 48.1209 51.2 48.5476C50.52 48.961 49.9867 49.561 49.6 50.3476C49.2267 51.1343 49.04 52.0876 49.04 53.2076C49.04 54.3143 49.22 55.2676 49.58 56.0676C49.94 56.8543 50.4533 57.461 51.12 57.8876C51.7867 58.301 52.5733 58.5076 53.48 58.5076C54.36 58.5076 55.1267 58.2876 55.78 57.8476C56.4333 57.3943 56.9067 56.721 57.2 55.8276L58.8 56.4276ZM61.5709 59.8076V49.8076H62.8709L63.0909 51.4476C63.3709 50.8343 63.7776 50.3743 64.3109 50.0676C64.8576 49.7609 65.5176 49.6076 66.2909 49.6076C66.4643 49.6076 66.6509 49.6209 66.8509 49.6476C67.0643 49.6743 67.2443 49.7276 67.3909 49.8076L67.1109 51.2676C66.9643 51.2143 66.8043 51.1743 66.6309 51.1476C66.4576 51.1209 66.2109 51.1076 65.8909 51.1076C65.4776 51.1076 65.0576 51.2276 64.6309 51.4676C64.2176 51.7076 63.8709 52.0743 63.5909 52.5676C63.3109 53.0476 63.1709 53.661 63.1709 54.4076V59.8076H61.5709ZM73.6025 60.0076C72.6558 60.0076 71.8092 59.801 71.0625 59.3876C70.3292 58.9743 69.7558 58.381 69.3425 57.6076C68.9292 56.821 68.7225 55.8876 68.7225 54.8076C68.7225 53.7276 68.9292 52.8009 69.3425 52.0276C69.7558 51.241 70.3225 50.641 71.0425 50.2276C71.7625 49.8143 72.5825 49.6076 73.5025 49.6076C74.4358 49.6076 75.2292 49.8076 75.8825 50.2076C76.5492 50.6076 77.0558 51.1543 77.4025 51.8476C77.7492 52.5276 77.9225 53.2943 77.9225 54.1476C77.9225 54.3743 77.9158 54.581 77.9025 54.7676C77.8892 54.9543 77.8692 55.121 77.8425 55.2676H69.7625V53.8476H77.1425L76.3225 54.0076C76.3225 53.0476 76.0558 52.3076 75.5225 51.7876C75.0025 51.2676 74.3158 51.0076 73.4625 51.0076C72.8092 51.0076 72.2425 51.1609 71.7625 51.4676C71.2958 51.761 70.9292 52.1943 70.6625 52.7676C70.4092 53.3276 70.2825 54.0076 70.2825 54.8076C70.2825 55.5943 70.4158 56.2743 70.6825 56.8476C70.9492 57.421 71.3225 57.861 71.8025 58.1676C72.2958 58.461 72.8825 58.6076 73.5625 58.6076C74.2958 58.6076 74.8892 58.4676 75.3425 58.1876C75.8092 57.9076 76.1825 57.5276 76.4625 57.0476L77.7225 57.7876C77.4692 58.241 77.1425 58.6343 76.7425 58.9676C76.3558 59.301 75.8958 59.561 75.3625 59.7476C74.8425 59.921 74.2558 60.0076 73.6025 60.0076ZM73.9225 44.8076H75.6625L73.7025 48.1476H72.4025L73.9225 44.8076ZM85.1455 60.0076C84.1988 60.0076 83.3521 59.801 82.6055 59.3876C81.8721 58.9743 81.2988 58.381 80.8855 57.6076C80.4721 56.821 80.2655 55.8876 80.2655 54.8076C80.2655 53.7276 80.4721 52.8009 80.8855 52.0276C81.2988 51.241 81.8655 50.641 82.5855 50.2276C83.3055 49.8143 84.1255 49.6076 85.0455 49.6076C85.9788 49.6076 86.7721 49.8076 87.4255 50.2076C88.0921 50.6076 88.5988 51.1543 88.9455 51.8476C89.2921 52.5276 89.4655 53.2943 89.4655 54.1476C89.4655 54.3743 89.4588 54.581 89.4455 54.7676C89.4321 54.9543 89.4121 55.121 89.3855 55.2676H81.3055V53.8476H88.6855L87.8655 54.0076C87.8655 53.0476 87.5988 52.3076 87.0655 51.7876C86.5455 51.2676 85.8588 51.0076 85.0055 51.0076C84.3521 51.0076 83.7855 51.1609 83.3055 51.4676C82.8388 51.761 82.4721 52.1943 82.2055 52.7676C81.9521 53.3276 81.8255 54.0076 81.8255 54.8076C81.8255 55.5943 81.9588 56.2743 82.2255 56.8476C82.4921 57.421 82.8655 57.861 83.3455 58.1676C83.8388 58.461 84.4255 58.6076 85.1055 58.6076C85.8388 58.6076 86.4321 58.4676 86.8855 58.1876C87.3521 57.9076 87.7255 57.5276 88.0055 57.0476L89.2655 57.7876C89.0121 58.241 88.6855 58.6343 88.2855 58.9676C87.8988 59.301 87.4388 59.561 86.9055 59.7476C86.3855 59.921 85.7988 60.0076 85.1455 60.0076ZM92.5084 59.8076V49.8076H93.8084L94.0284 51.4476C94.3084 50.8343 94.7151 50.3743 95.2484 50.0676C95.7951 49.7609 96.4551 49.6076 97.2284 49.6076C97.4018 49.6076 97.5884 49.6209 97.7884 49.6476C98.0018 49.6743 98.1818 49.7276 98.3284 49.8076L98.0484 51.2676C97.9018 51.2143 97.7418 51.1743 97.5684 51.1476C97.3951 51.1209 97.1484 51.1076 96.8284 51.1076C96.4151 51.1076 95.9951 51.2276 95.5684 51.4676C95.1551 51.7076 94.8084 52.0743 94.5284 52.5676C94.2484 53.0476 94.1084 53.661 94.1084 54.4076V59.8076H92.5084ZM110.92 60.0076C110.093 60.0076 109.333 59.801 108.64 59.3876C107.947 58.9743 107.393 58.381 106.98 57.6076C106.567 56.821 106.36 55.8876 106.36 54.8076C106.36 53.701 106.58 52.761 107.02 51.9876C107.46 51.2143 108.04 50.6276 108.76 50.2276C109.48 49.8143 110.253 49.6076 111.08 49.6076C111.907 49.6076 112.62 49.8209 113.22 50.2476C113.833 50.6743 114.24 51.241 114.44 51.9476L114.24 52.0876V45.2076H115.84V59.8076H114.44L114.3 57.3876L114.52 57.2676C114.427 57.8543 114.2 58.3543 113.84 58.7676C113.493 59.1676 113.06 59.4743 112.54 59.6876C112.033 59.901 111.493 60.0076 110.92 60.0076ZM111.08 58.6076C111.72 58.6076 112.273 58.4476 112.74 58.1276C113.22 57.8076 113.587 57.3543 113.84 56.7676C114.107 56.1676 114.24 55.4676 114.24 54.6676C114.24 53.9076 114.107 53.2543 113.84 52.7076C113.587 52.161 113.227 51.741 112.76 51.4476C112.307 51.1543 111.773 51.0076 111.16 51.0076C110.147 51.0076 109.36 51.3543 108.8 52.0476C108.24 52.741 107.96 53.661 107.96 54.8076C107.96 55.9543 108.233 56.8743 108.78 57.5676C109.327 58.261 110.093 58.6076 111.08 58.6076ZM123.179 60.0076C122.539 60.0076 121.933 59.8876 121.359 59.6476C120.799 59.4076 120.339 59.021 119.979 58.4876C119.633 57.941 119.459 57.2343 119.459 56.3676V49.8076H121.059V55.9476C121.059 56.961 121.279 57.661 121.719 58.0476C122.159 58.421 122.779 58.6076 123.579 58.6076C123.953 58.6076 124.319 58.5476 124.679 58.4276C125.039 58.2943 125.359 58.0943 125.639 57.8276C125.933 57.5476 126.159 57.1943 126.319 56.7676C126.493 56.341 126.579 55.8343 126.579 55.2476V49.8076H128.179V59.8076H126.779L126.679 58.2876C126.333 58.8876 125.859 59.3276 125.259 59.6076C124.673 59.8743 123.979 60.0076 123.179 60.0076ZM140.239 45.2076V57.2676C140.239 57.7743 140.333 58.1276 140.519 58.3276C140.706 58.5143 141.006 58.6076 141.419 58.6076C141.686 58.6076 141.906 58.5876 142.079 58.5476C142.253 58.5076 142.486 58.4343 142.779 58.3276L142.519 59.7276C142.306 59.821 142.073 59.8876 141.819 59.9276C141.566 59.981 141.306 60.0076 141.039 60.0076C140.226 60.0076 139.619 59.7876 139.219 59.3476C138.833 58.9076 138.639 58.2343 138.639 57.3276V45.2076H140.239ZM145.633 47.8876C145.273 47.8876 144.979 47.7809 144.753 47.5676C144.539 47.341 144.433 47.0476 144.433 46.6876C144.433 46.3276 144.539 46.0409 144.753 45.8276C144.979 45.6009 145.273 45.4876 145.633 45.4876C145.993 45.4876 146.279 45.6009 146.493 45.8276C146.719 46.0409 146.833 46.3276 146.833 46.6876C146.833 47.0476 146.719 47.341 146.493 47.5676C146.279 47.7809 145.993 47.8876 145.633 47.8876ZM146.433 49.8076V59.8076H144.833V49.8076H146.433ZM154.325 60.0076C153.378 60.0076 152.532 59.801 151.785 59.3876C151.052 58.9743 150.478 58.381 150.065 57.6076C149.652 56.821 149.445 55.8876 149.445 54.8076C149.445 53.7276 149.652 52.8009 150.065 52.0276C150.478 51.241 151.045 50.641 151.765 50.2276C152.485 49.8143 153.305 49.6076 154.225 49.6076C155.158 49.6076 155.952 49.8076 156.605 50.2076C157.272 50.6076 157.778 51.1543 158.125 51.8476C158.472 52.5276 158.645 53.2943 158.645 54.1476C158.645 54.3743 158.638 54.581 158.625 54.7676C158.612 54.9543 158.592 55.121 158.565 55.2676H150.485V53.8476H157.865L157.045 54.0076C157.045 53.0476 156.778 52.3076 156.245 51.7876C155.725 51.2676 155.038 51.0076 154.185 51.0076C153.532 51.0076 152.965 51.1609 152.485 51.4676C152.018 51.761 151.652 52.1943 151.385 52.7676C151.132 53.3276 151.005 54.0076 151.005 54.8076C151.005 55.5943 151.138 56.2743 151.405 56.8476C151.672 57.421 152.045 57.861 152.525 58.1676C153.018 58.461 153.605 58.6076 154.285 58.6076C155.018 58.6076 155.612 58.4676 156.065 58.1876C156.532 57.9076 156.905 57.5276 157.185 57.0476L158.445 57.7876C158.192 58.241 157.865 58.6343 157.465 58.9676C157.078 59.301 156.618 59.561 156.085 59.7476C155.565 59.921 154.978 60.0076 154.325 60.0076ZM161.688 59.8076V49.8076H163.088L163.228 52.0476L162.968 51.8276C163.181 51.2943 163.468 50.8676 163.828 50.5476C164.188 50.2143 164.601 49.9743 165.068 49.8276C165.548 49.6809 166.041 49.6076 166.548 49.6076C167.268 49.6076 167.921 49.7476 168.508 50.0276C169.095 50.2943 169.561 50.7076 169.908 51.2676C170.268 51.8276 170.448 52.541 170.448 53.4076V59.8076H168.848V53.9676C168.848 52.8609 168.608 52.0943 168.128 51.6676C167.661 51.2276 167.081 51.0076 166.388 51.0076C165.908 51.0076 165.428 51.121 164.948 51.3476C164.468 51.5743 164.068 51.941 163.748 52.4476C163.441 52.9543 163.288 53.6343 163.288 54.4876V59.8076H161.688Z" fill="#256864"/>
</svg>
