<svg width="167" height="91" viewBox="0 0 167 91" fill="none" xmlns="http://www.w3.org/2000/svg">
<path fill-rule="evenodd" clip-rule="evenodd" d="M154.732 56.443C156.153 53.0511 156.905 49.5098 156.905 45.8675C156.905 20.9816 121.781 0.807617 78.4526 0.807617C35.1244 0.807617 0 20.9816 0 45.8675C0 70.7535 35.1244 90.9275 78.4526 90.9275C100.151 90.9275 119.792 85.868 133.994 77.6911H167L154.732 56.443Z" fill="#EF9F64"/>
<path d="M38.16 55.8076V42.6076H47.42V44.1076H39.76V48.3676H45.72V49.8676H39.76V54.3076H47.72V55.8076H38.16ZM54.3828 45.6076C55.0761 45.6076 55.6828 45.7143 56.2028 45.9276C56.7361 46.141 57.1961 46.4476 57.5828 46.8476C57.9695 47.2476 58.2828 47.721 58.5228 48.2676L57.0028 48.9876C56.7895 48.3476 56.4628 47.8609 56.0228 47.5276C55.5961 47.1809 55.0361 47.0076 54.3428 47.0076C53.6761 47.0076 53.1028 47.1609 52.6228 47.4676C52.1428 47.761 51.7761 48.1943 51.5228 48.7676C51.2695 49.3276 51.1428 50.0076 51.1428 50.8076C51.1428 51.5943 51.2695 52.2743 51.5228 52.8476C51.7761 53.421 52.1428 53.861 52.6228 54.1676C53.1028 54.461 53.6761 54.6076 54.3428 54.6076C54.8628 54.6076 55.3095 54.5276 55.6828 54.3676C56.0695 54.2076 56.3828 53.9743 56.6228 53.6676C56.8761 53.361 57.0495 52.9876 57.1428 52.5476L58.6228 53.0676C58.3961 53.681 58.0828 54.2076 57.6828 54.6476C57.2961 55.0876 56.8228 55.4276 56.2628 55.6676C55.7161 55.8943 55.0895 56.0076 54.3828 56.0076C53.4495 56.0076 52.6161 55.801 51.8828 55.3876C51.1495 54.9743 50.5761 54.381 50.1628 53.6076C49.7495 52.821 49.5428 51.8876 49.5428 50.8076C49.5428 49.7276 49.7495 48.8009 50.1628 48.0276C50.5761 47.241 51.1495 46.641 51.8828 46.2276C52.6161 45.8143 53.4495 45.6076 54.3828 45.6076ZM61.4342 55.8076V41.2076H63.0342V47.3076C63.3809 46.7076 63.8409 46.2743 64.4142 46.0076C64.9876 45.7409 65.6142 45.6076 66.2942 45.6076C67.0142 45.6076 67.6676 45.7476 68.2542 46.0276C68.8409 46.2943 69.3076 46.7076 69.6542 47.2676C70.0142 47.8276 70.1942 48.541 70.1942 49.4076V55.8076H68.5942V49.9676C68.5942 48.8609 68.3542 48.0943 67.8742 47.6676C67.4076 47.2276 66.8276 47.0076 66.1342 47.0076C65.6542 47.0076 65.1742 47.121 64.6942 47.3476C64.2142 47.5743 63.8142 47.9476 63.4942 48.4676C63.1876 48.9743 63.0342 49.6543 63.0342 50.5076V55.8076H61.4342ZM79.657 49.3476C79.657 48.601 79.457 48.0276 79.057 47.6276C78.657 47.2143 78.0904 47.0076 77.357 47.0076C76.6637 47.0076 76.077 47.1609 75.597 47.4676C75.117 47.761 74.7637 48.241 74.537 48.9076L73.237 48.1076C73.5037 47.361 73.997 46.761 74.717 46.3076C75.437 45.8409 76.3304 45.6076 77.397 45.6076C78.117 45.6076 78.7704 45.7343 79.357 45.9876C79.9437 46.2276 80.4037 46.601 80.737 47.1076C81.0837 47.6009 81.257 48.2409 81.257 49.0276V53.8676C81.257 54.3476 81.5104 54.5876 82.017 54.5876C82.2704 54.5876 82.517 54.5543 82.757 54.4876L82.677 55.7476C82.4104 55.881 82.0637 55.9476 81.637 55.9476C81.2504 55.9476 80.9037 55.8743 80.597 55.7276C80.2904 55.581 80.0504 55.361 79.877 55.0676C79.7037 54.761 79.617 54.381 79.617 53.9276V53.7276L80.017 53.7876C79.857 54.3076 79.5837 54.7343 79.197 55.0676C78.8104 55.3876 78.377 55.6276 77.897 55.7876C77.417 55.9343 76.9437 56.0076 76.477 56.0076C75.8904 56.0076 75.3437 55.9076 74.837 55.7076C74.3304 55.5076 73.9237 55.2076 73.617 54.8076C73.3237 54.3943 73.177 53.8876 73.177 53.2876C73.177 52.541 73.4237 51.9276 73.917 51.4476C74.4237 50.9543 75.1237 50.621 76.017 50.4476L79.977 49.6676V50.9876L76.757 51.6476C76.1037 51.781 75.617 51.9676 75.297 52.2076C74.977 52.4476 74.817 52.781 74.817 53.2076C74.817 53.621 74.977 53.961 75.297 54.2276C75.6304 54.481 76.097 54.6076 76.697 54.6076C77.0837 54.6076 77.4504 54.561 77.797 54.4676C78.157 54.361 78.477 54.2076 78.757 54.0076C79.037 53.7943 79.257 53.5343 79.417 53.2276C79.577 52.9076 79.657 52.5343 79.657 52.1076V49.3476ZM85.1452 55.8076V45.8076H86.5452L86.6852 48.0476L86.4252 47.8276C86.6385 47.2943 86.9252 46.8676 87.2852 46.5476C87.6452 46.2143 88.0585 45.9743 88.5252 45.8276C89.0052 45.6809 89.4985 45.6076 90.0052 45.6076C90.7252 45.6076 91.3785 45.7476 91.9652 46.0276C92.5518 46.2943 93.0185 46.7076 93.3652 47.2676C93.7252 47.8276 93.9052 48.541 93.9052 49.4076V55.8076H92.3052V49.9676C92.3052 48.8609 92.0652 48.0943 91.5852 47.6676C91.1185 47.2276 90.5385 47.0076 89.8452 47.0076C89.3652 47.0076 88.8852 47.121 88.4052 47.3476C87.9252 47.5743 87.5252 47.941 87.2052 48.4476C86.8985 48.9543 86.7452 49.6343 86.7452 50.4876V55.8076H85.1452ZM105.948 43.9676L106.308 45.3876C106.295 45.3876 106.275 45.3876 106.248 45.3876C106.221 45.3876 106.195 45.3876 106.168 45.3876C105.515 45.3876 105.008 45.5209 104.648 45.7876C104.301 46.0409 104.128 46.4543 104.128 47.0276L103.148 46.5276C103.148 46.0076 103.268 45.5543 103.508 45.1676C103.748 44.7809 104.075 44.4876 104.488 44.2876C104.901 44.0743 105.355 43.9676 105.848 43.9676C105.861 43.9676 105.875 43.9676 105.888 43.9676C105.915 43.9676 105.935 43.9676 105.948 43.9676ZM102.908 54.5276C103.855 54.5276 104.595 54.7476 105.128 55.1876C105.661 55.6143 105.928 56.1876 105.928 56.9076C105.928 57.561 105.708 58.1276 105.268 58.6076C104.841 59.0876 104.261 59.4543 103.528 59.7076C102.808 59.9743 101.995 60.1076 101.088 60.1076C99.5146 60.1076 98.3346 59.841 97.548 59.3076C96.7746 58.7743 96.388 58.1343 96.388 57.3876C96.388 56.8543 96.5613 56.3743 96.908 55.9476C97.268 55.5343 97.868 55.301 98.708 55.2476L98.568 55.5476C98.1146 55.4276 97.728 55.2276 97.408 54.9476C97.1013 54.6543 96.948 54.2343 96.948 53.6876C96.948 53.141 97.148 52.6743 97.548 52.2876C97.9613 51.8876 98.568 51.641 99.368 51.5476L100.428 52.0876H100.228C99.5746 52.1543 99.108 52.321 98.828 52.5876C98.5613 52.841 98.428 53.121 98.428 53.4276C98.428 53.801 98.5613 54.081 98.828 54.2676C99.108 54.441 99.4946 54.5276 99.988 54.5276H102.908ZM101.068 58.7676C101.841 58.7676 102.475 58.6876 102.968 58.5276C103.475 58.3676 103.848 58.161 104.088 57.9076C104.328 57.6543 104.448 57.381 104.448 57.0876C104.448 56.7276 104.301 56.441 104.008 56.2276C103.728 56.0143 103.215 55.9076 102.468 55.9076H99.388C98.9613 55.9076 98.6013 56.0143 98.308 56.2276C98.0146 56.4543 97.868 56.761 97.868 57.1476C97.868 57.641 98.148 58.0343 98.708 58.3276C99.2813 58.621 100.068 58.7676 101.068 58.7676ZM100.928 45.6076C101.728 45.6076 102.435 45.7543 103.048 46.0476C103.675 46.3276 104.161 46.721 104.508 47.2276C104.855 47.7343 105.028 48.3209 105.028 48.9876C105.028 49.641 104.855 50.2276 104.508 50.7476C104.161 51.2543 103.675 51.6543 103.048 51.9476C102.435 52.2276 101.728 52.3676 100.928 52.3676C99.608 52.3676 98.5946 52.0543 97.888 51.4276C97.1813 50.7876 96.828 49.9743 96.828 48.9876C96.828 48.3209 97.0013 47.7343 97.348 47.2276C97.708 46.721 98.1946 46.3276 98.808 46.0476C99.4213 45.7543 100.128 45.6076 100.928 45.6076ZM100.928 46.9076C100.235 46.9076 99.6546 47.101 99.188 47.4876C98.7213 47.861 98.488 48.361 98.488 48.9876C98.488 49.601 98.7213 50.101 99.188 50.4876C99.6546 50.8743 100.235 51.0676 100.928 51.0676C101.621 51.0676 102.201 50.8743 102.668 50.4876C103.135 50.101 103.368 49.601 103.368 48.9876C103.368 48.361 103.135 47.861 102.668 47.4876C102.201 47.101 101.621 46.9076 100.928 46.9076ZM112.353 56.0076C111.406 56.0076 110.559 55.801 109.813 55.3876C109.079 54.9743 108.506 54.381 108.093 53.6076C107.679 52.821 107.473 51.8876 107.473 50.8076C107.473 49.7276 107.679 48.8009 108.093 48.0276C108.506 47.241 109.073 46.641 109.793 46.2276C110.513 45.8143 111.333 45.6076 112.253 45.6076C113.186 45.6076 113.979 45.8076 114.633 46.2076C115.299 46.6076 115.806 47.1543 116.153 47.8476C116.499 48.5276 116.673 49.2943 116.673 50.1476C116.673 50.3743 116.666 50.581 116.653 50.7676C116.639 50.9543 116.619 51.121 116.592 51.2676H108.513V49.8476H115.893L115.073 50.0076C115.073 49.0476 114.806 48.3076 114.273 47.7876C113.753 47.2676 113.066 47.0076 112.213 47.0076C111.559 47.0076 110.993 47.1609 110.513 47.4676C110.046 47.761 109.679 48.1943 109.413 48.7676C109.159 49.3276 109.033 50.0076 109.033 50.8076C109.033 51.5943 109.166 52.2743 109.433 52.8476C109.699 53.421 110.073 53.861 110.553 54.1676C111.046 54.461 111.633 54.6076 112.313 54.6076C113.046 54.6076 113.639 54.4676 114.093 54.1876C114.559 53.9076 114.933 53.5276 115.213 53.0476L116.473 53.7876C116.219 54.241 115.893 54.6343 115.493 54.9676C115.106 55.301 114.646 55.561 114.113 55.7476C113.593 55.921 113.006 56.0076 112.353 56.0076ZM119.715 55.8076V45.8076H121.015L121.235 47.4476C121.515 46.8343 121.922 46.3743 122.455 46.0676C123.002 45.7609 123.662 45.6076 124.435 45.6076C124.609 45.6076 124.795 45.6209 124.995 45.6476C125.209 45.6743 125.389 45.7276 125.535 45.8076L125.255 47.2676C125.109 47.2143 124.949 47.1743 124.775 47.1476C124.602 47.1209 124.355 47.1076 124.035 47.1076C123.622 47.1076 123.202 47.2276 122.775 47.4676C122.362 47.7076 122.015 48.0743 121.735 48.5676C121.455 49.0476 121.315 49.661 121.315 50.4076V55.8076H119.715Z" fill="#256864"/>
</svg>
