<svg width="203" height="200" viewBox="0 0 203 200" fill="none" xmlns="http://www.w3.org/2000/svg">
<circle cx="100" cy="100" r="100" fill="#256864"/>
<path d="M48.9332 123.533L45.5998 132.333H44.3865L41.0398 123.533H42.1865L44.4265 129.613L44.9865 131.36L45.5465 129.627L47.7865 123.533H48.9332ZM52.7004 125.533C53.3315 125.533 53.887 125.671 54.367 125.947C54.8559 126.222 55.2381 126.622 55.5137 127.147C55.7892 127.662 55.927 128.28 55.927 129C55.927 129.72 55.7892 130.342 55.5137 130.867C55.2381 131.382 54.8559 131.778 54.367 132.053C53.887 132.329 53.3315 132.467 52.7004 132.467C52.0781 132.467 51.5226 132.329 51.0337 132.053C50.5448 131.778 50.1626 131.382 49.887 130.867C49.6115 130.342 49.4737 129.72 49.4737 129C49.4737 128.28 49.6115 127.662 49.887 127.147C50.1626 126.622 50.5448 126.222 51.0337 125.947C51.5226 125.671 52.0781 125.533 52.7004 125.533ZM52.7004 126.453C52.247 126.453 51.8604 126.556 51.5404 126.76C51.2204 126.965 50.9715 127.258 50.7937 127.64C50.6248 128.013 50.5404 128.467 50.5404 129C50.5404 129.525 50.6248 129.978 50.7937 130.36C50.9715 130.742 51.2204 131.036 51.5404 131.24C51.8604 131.445 52.247 131.547 52.7004 131.547C53.1537 131.547 53.5404 131.445 53.8604 131.24C54.1804 131.036 54.4248 130.742 54.5937 130.36C54.7715 129.978 54.8604 129.525 54.8604 129C54.8604 128.467 54.7715 128.013 54.5937 127.64C54.4248 127.258 54.1804 126.965 53.8604 126.76C53.5404 126.556 53.1537 126.453 52.7004 126.453ZM58.4685 124.387C58.2285 124.387 58.0329 124.316 57.8818 124.173C57.7396 124.022 57.6685 123.827 57.6685 123.587C57.6685 123.347 57.7396 123.156 57.8818 123.013C58.0329 122.862 58.2285 122.787 58.4685 122.787C58.7085 122.787 58.8996 122.862 59.0418 123.013C59.1929 123.156 59.2685 123.347 59.2685 123.587C59.2685 123.827 59.1929 124.022 59.0418 124.173C58.8996 124.316 58.7085 124.387 58.4685 124.387ZM59.0018 125.667V132.333H57.9352V125.667H59.0018ZM63.8768 132.467C63.2279 132.467 62.6279 132.329 62.0768 132.053C61.5346 131.778 61.1168 131.387 60.8235 130.88L61.7301 130.227C61.9257 130.636 62.2101 130.956 62.5835 131.187C62.9657 131.418 63.4235 131.533 63.9568 131.533C64.4279 131.533 64.7968 131.445 65.0635 131.267C65.3302 131.08 65.4635 130.84 65.4635 130.547C65.4635 130.36 65.4013 130.191 65.2768 130.04C65.1613 129.88 64.9346 129.765 64.5968 129.693L62.9968 129.36C62.3479 129.227 61.8813 129.005 61.5968 128.693C61.3213 128.382 61.1835 127.996 61.1835 127.533C61.1835 127.169 61.2857 126.836 61.4901 126.533C61.7035 126.231 62.0013 125.991 62.3835 125.813C62.7746 125.627 63.2324 125.533 63.7568 125.533C64.4146 125.533 64.9702 125.662 65.4235 125.92C65.8768 126.178 66.2146 126.542 66.4368 127.013L65.5435 127.6C65.3924 127.209 65.1479 126.925 64.8102 126.747C64.4724 126.56 64.1213 126.467 63.7568 126.467C63.4368 126.467 63.1613 126.511 62.9301 126.6C62.7079 126.689 62.5346 126.813 62.4101 126.973C62.2946 127.125 62.2368 127.298 62.2368 127.493C62.2368 127.689 62.3035 127.871 62.4368 128.04C62.5701 128.2 62.819 128.316 63.1835 128.387L64.8502 128.733C65.4724 128.858 65.9079 129.062 66.1568 129.347C66.4057 129.631 66.5302 129.978 66.5302 130.387C66.5302 130.805 66.419 131.173 66.1968 131.493C65.9746 131.805 65.6635 132.045 65.2635 132.213C64.8635 132.382 64.4013 132.467 63.8768 132.467ZM69.0414 124.387C68.8014 124.387 68.6058 124.316 68.4547 124.173C68.3125 124.022 68.2414 123.827 68.2414 123.587C68.2414 123.347 68.3125 123.156 68.4547 123.013C68.6058 122.862 68.8014 122.787 69.0414 122.787C69.2814 122.787 69.4725 122.862 69.6147 123.013C69.7658 123.156 69.8414 123.347 69.8414 123.587C69.8414 123.827 69.7658 124.022 69.6147 124.173C69.4725 124.316 69.2814 124.387 69.0414 124.387ZM69.5747 125.667V132.333H68.5081V125.667H69.5747ZM72.0497 132.333V125.667H72.9831L73.0764 127.16L72.9031 127.013C73.0453 126.658 73.2364 126.373 73.4764 126.16C73.7164 125.938 73.992 125.778 74.3031 125.68C74.6231 125.582 74.952 125.533 75.2897 125.533C75.7697 125.533 76.2053 125.627 76.5964 125.813C76.9875 125.991 77.2986 126.267 77.5297 126.64C77.7697 127.013 77.8897 127.489 77.8897 128.067V132.333H76.8231V128.44C76.8231 127.702 76.6631 127.191 76.3431 126.907C76.032 126.613 75.6453 126.467 75.1831 126.467C74.8631 126.467 74.5431 126.542 74.2231 126.693C73.9031 126.845 73.6364 127.089 73.4231 127.427C73.2186 127.765 73.1164 128.218 73.1164 128.787V132.333H72.0497ZM82.7049 132.467C82.0561 132.467 81.4561 132.329 80.9049 132.053C80.3627 131.778 79.9449 131.387 79.6516 130.88L80.5583 130.227C80.7538 130.636 81.0383 130.956 81.4116 131.187C81.7938 131.418 82.2516 131.533 82.7849 131.533C83.2561 131.533 83.6249 131.445 83.8916 131.267C84.1583 131.08 84.2916 130.84 84.2916 130.547C84.2916 130.36 84.2294 130.191 84.1049 130.04C83.9894 129.88 83.7627 129.765 83.4249 129.693L81.8249 129.36C81.1761 129.227 80.7094 129.005 80.4249 128.693C80.1494 128.382 80.0116 127.996 80.0116 127.533C80.0116 127.169 80.1138 126.836 80.3183 126.533C80.5316 126.231 80.8294 125.991 81.2116 125.813C81.6027 125.627 82.0605 125.533 82.5849 125.533C83.2427 125.533 83.7983 125.662 84.2516 125.92C84.7049 126.178 85.0427 126.542 85.2649 127.013L84.3716 127.6C84.2205 127.209 83.9761 126.925 83.6383 126.747C83.3005 126.56 82.9494 126.467 82.5849 126.467C82.2649 126.467 81.9894 126.511 81.7583 126.6C81.5361 126.689 81.3627 126.813 81.2383 126.973C81.1227 127.125 81.0649 127.298 81.0649 127.493C81.0649 127.689 81.1316 127.871 81.2649 128.04C81.3983 128.2 81.6472 128.316 82.0116 128.387L83.6783 128.733C84.3005 128.858 84.7361 129.062 84.9849 129.347C85.2338 129.631 85.3583 129.978 85.3583 130.387C85.3583 130.805 85.2472 131.173 85.0249 131.493C84.8027 131.805 84.4916 132.045 84.0916 132.213C83.6916 132.382 83.2294 132.467 82.7049 132.467ZM98.5599 132.333H97.4266L96.4933 129.893H92.5066L91.5733 132.333H90.4533L93.8799 123.533H95.1466L98.5599 132.333ZM92.8933 128.893H96.1066L94.4933 124.56L92.8933 128.893ZM100.149 132.333V125.667H101.082L101.175 127.16L101.002 127.013C101.144 126.658 101.335 126.373 101.575 126.16C101.815 125.938 102.091 125.778 102.402 125.68C102.722 125.582 103.051 125.533 103.389 125.533C103.869 125.533 104.304 125.627 104.695 125.813C105.086 125.991 105.398 126.267 105.629 126.64C105.869 127.013 105.989 127.489 105.989 128.067V132.333H104.922V128.44C104.922 127.702 104.762 127.191 104.442 126.907C104.131 126.613 103.744 126.467 103.282 126.467C102.962 126.467 102.642 126.542 102.322 126.693C102.002 126.845 101.735 127.089 101.522 127.427C101.318 127.765 101.215 128.218 101.215 128.787V132.333H100.149ZM109.886 123.773V130.493C109.886 130.822 109.979 131.067 110.166 131.227C110.353 131.387 110.593 131.467 110.886 131.467C111.144 131.467 111.366 131.422 111.553 131.333C111.739 131.245 111.908 131.125 112.059 130.973L112.433 131.867C112.228 132.053 111.984 132.2 111.699 132.307C111.424 132.413 111.104 132.467 110.739 132.467C110.402 132.467 110.086 132.409 109.793 132.293C109.499 132.169 109.264 131.978 109.086 131.72C108.917 131.453 108.828 131.107 108.819 130.68V124.067L109.886 123.773ZM112.313 125.667V126.587H107.486V125.667H112.313ZM114.432 124.387C114.192 124.387 113.996 124.316 113.845 124.173C113.703 124.022 113.632 123.827 113.632 123.587C113.632 123.347 113.703 123.156 113.845 123.013C113.996 122.862 114.192 122.787 114.432 122.787C114.672 122.787 114.863 122.862 115.005 123.013C115.156 123.156 115.232 123.347 115.232 123.587C115.232 123.827 115.156 124.022 115.005 124.173C114.863 124.316 114.672 124.387 114.432 124.387ZM114.965 125.667V132.333H113.899V125.667H114.965ZM121.8 128.293V129.4H117.4V128.293H121.8ZM127.984 132.467C127.148 132.467 126.424 132.285 125.811 131.92C125.206 131.547 124.735 131.022 124.397 130.347C124.068 129.671 123.904 128.867 123.904 127.933C123.904 127 124.077 126.196 124.424 125.52C124.779 124.845 125.273 124.325 125.904 123.96C126.535 123.587 127.259 123.4 128.077 123.4C128.948 123.4 129.655 123.565 130.197 123.893C130.748 124.222 131.193 124.729 131.531 125.413L130.557 125.947C130.362 125.44 130.051 125.058 129.624 124.8C129.206 124.533 128.691 124.4 128.077 124.4C127.482 124.4 126.953 124.542 126.491 124.827C126.037 125.102 125.677 125.507 125.411 126.04C125.153 126.565 125.024 127.196 125.024 127.933C125.024 128.671 125.135 129.307 125.357 129.84C125.588 130.365 125.926 130.769 126.371 131.053C126.824 131.329 127.375 131.467 128.024 131.467C128.388 131.467 128.726 131.422 129.037 131.333C129.357 131.236 129.633 131.093 129.864 130.907C130.104 130.72 130.291 130.485 130.424 130.2C130.557 129.916 130.624 129.582 130.624 129.2V128.893H127.824V127.893H131.597V132.333H130.757L130.704 130.693L130.931 130.733C130.699 131.285 130.335 131.711 129.837 132.013C129.339 132.316 128.722 132.467 127.984 132.467ZM137.779 128.027C137.779 127.529 137.646 127.147 137.379 126.88C137.112 126.605 136.735 126.467 136.246 126.467C135.783 126.467 135.392 126.569 135.072 126.773C134.752 126.969 134.517 127.289 134.366 127.733L133.499 127.2C133.677 126.702 134.006 126.302 134.486 126C134.966 125.689 135.561 125.533 136.272 125.533C136.752 125.533 137.188 125.618 137.579 125.787C137.97 125.947 138.277 126.196 138.499 126.533C138.73 126.862 138.846 127.289 138.846 127.813V131.04C138.846 131.36 139.015 131.52 139.352 131.52C139.521 131.52 139.686 131.498 139.846 131.453L139.792 132.293C139.615 132.382 139.383 132.427 139.099 132.427C138.841 132.427 138.61 132.378 138.406 132.28C138.201 132.182 138.041 132.036 137.926 131.84C137.81 131.636 137.752 131.382 137.752 131.08V130.947L138.019 130.987C137.912 131.333 137.73 131.618 137.472 131.84C137.215 132.053 136.926 132.213 136.606 132.32C136.286 132.418 135.97 132.467 135.659 132.467C135.268 132.467 134.903 132.4 134.566 132.267C134.228 132.133 133.957 131.933 133.752 131.667C133.557 131.391 133.459 131.053 133.459 130.653C133.459 130.156 133.623 129.747 133.952 129.427C134.29 129.098 134.757 128.876 135.352 128.76L137.992 128.24V129.12L135.846 129.56C135.41 129.649 135.086 129.773 134.872 129.933C134.659 130.093 134.552 130.316 134.552 130.6C134.552 130.876 134.659 131.102 134.872 131.28C135.095 131.449 135.406 131.533 135.806 131.533C136.063 131.533 136.308 131.502 136.539 131.44C136.779 131.369 136.992 131.267 137.179 131.133C137.366 130.991 137.512 130.818 137.619 130.613C137.726 130.4 137.779 130.151 137.779 129.867V128.027ZM143.838 132.467C143.189 132.467 142.589 132.329 142.038 132.053C141.496 131.778 141.078 131.387 140.784 130.88L141.691 130.227C141.887 130.636 142.171 130.956 142.544 131.187C142.927 131.418 143.384 131.533 143.918 131.533C144.389 131.533 144.758 131.445 145.024 131.267C145.291 131.08 145.424 130.84 145.424 130.547C145.424 130.36 145.362 130.191 145.238 130.04C145.122 129.88 144.896 129.765 144.558 129.693L142.958 129.36C142.309 129.227 141.842 129.005 141.558 128.693C141.282 128.382 141.144 127.996 141.144 127.533C141.144 127.169 141.247 126.836 141.451 126.533C141.664 126.231 141.962 125.991 142.344 125.813C142.736 125.627 143.193 125.533 143.718 125.533C144.376 125.533 144.931 125.662 145.384 125.92C145.838 126.178 146.176 126.542 146.398 127.013L145.504 127.6C145.353 127.209 145.109 126.925 144.771 126.747C144.433 126.56 144.082 126.467 143.718 126.467C143.398 126.467 143.122 126.511 142.891 126.6C142.669 126.689 142.496 126.813 142.371 126.973C142.256 127.125 142.198 127.298 142.198 127.493C142.198 127.689 142.264 127.871 142.398 128.04C142.531 128.2 142.78 128.316 143.144 128.387L144.811 128.733C145.433 128.858 145.869 129.062 146.118 129.347C146.367 129.631 146.491 129.978 146.491 130.387C146.491 130.805 146.38 131.173 146.158 131.493C145.936 131.805 145.624 132.045 145.224 132.213C144.824 132.382 144.362 132.467 143.838 132.467ZM148.469 135.133V125.667H149.402L149.496 127.293L149.349 127.107C149.465 126.796 149.638 126.525 149.869 126.293C150.1 126.053 150.38 125.867 150.709 125.733C151.038 125.6 151.393 125.533 151.776 125.533C152.318 125.533 152.816 125.671 153.269 125.947C153.731 126.222 154.1 126.618 154.376 127.133C154.651 127.649 154.789 128.271 154.789 129C154.789 129.72 154.647 130.342 154.362 130.867C154.087 131.382 153.718 131.778 153.256 132.053C152.793 132.329 152.287 132.467 151.736 132.467C151.185 132.467 150.7 132.333 150.282 132.067C149.873 131.791 149.58 131.445 149.402 131.027L149.536 130.827V135.133H148.469ZM151.629 131.533C152.287 131.533 152.798 131.302 153.162 130.84C153.536 130.378 153.722 129.765 153.722 129C153.722 128.236 153.54 127.622 153.176 127.16C152.82 126.698 152.318 126.467 151.669 126.467C151.242 126.467 150.869 126.573 150.549 126.787C150.229 126.991 149.98 127.285 149.802 127.667C149.625 128.04 149.536 128.485 149.536 129C149.536 129.507 149.62 129.951 149.789 130.333C149.967 130.716 150.211 131.013 150.522 131.227C150.842 131.431 151.211 131.533 151.629 131.533ZM157.362 124.387C157.122 124.387 156.926 124.316 156.775 124.173C156.633 124.022 156.562 123.827 156.562 123.587C156.562 123.347 156.633 123.156 156.775 123.013C156.926 122.862 157.122 122.787 157.362 122.787C157.602 122.787 157.793 122.862 157.935 123.013C158.086 123.156 158.162 123.347 158.162 123.587C158.162 123.827 158.086 124.022 157.935 124.173C157.793 124.316 157.602 124.387 157.362 124.387ZM157.895 125.667V132.333H156.828V125.667H157.895Z" fill="#F6ECDE"/>
<mask id="mask0_357_898" style="mask-type:alpha" maskUnits="userSpaceOnUse" x="38" y="64" width="43" height="53">
<rect x="38" y="64.6665" width="42.6667" height="52" fill="#DE6A38"/>
</mask>
<g mask="url(#mask0_357_898)">
<path d="M67.6318 76.8696L58.0318 107.334H50.1812L40.6665 76.8696H48.0478L52.7412 95.003C52.8265 95.3159 52.9687 95.899 53.1678 96.7523C53.3669 97.5772 53.5661 98.459 53.7652 99.3976C53.9643 100.308 54.0923 101.076 54.1492 101.702C54.2345 101.076 54.3625 100.308 54.5332 99.3976C54.7323 98.4874 54.9172 97.6199 55.0878 96.795C55.287 95.9416 55.4292 95.3443 55.5145 95.003L60.2078 76.8696H67.6318Z" fill="#DE6A38"/>
</g>
<mask id="mask1_357_898" style="mask-type:alpha" maskUnits="userSpaceOnUse" x="77" y="64" width="43" height="53">
<rect x="77.3335" y="64.667" width="42.6667" height="52" fill="#DE6A38"/>
</mask>
<g mask="url(#mask1_357_898)">
<path d="M104.24 107.334L102.491 100.08H92.6348L90.8428 107.334H83.3335L93.0615 76.7417H101.936L111.707 107.334H104.24ZM98.9922 87.579C98.8215 86.9817 98.6508 86.3559 98.4802 85.7017C98.3095 85.0475 98.1388 84.3648 97.9682 83.6537C97.8259 82.9426 97.6837 82.2173 97.5415 81.4777C97.4277 82.2173 97.2855 82.9568 97.1148 83.6964C96.9442 84.4075 96.7735 85.0901 96.6028 85.7444C96.4606 86.3986 96.3042 87.0101 96.1335 87.579L94.1708 94.6617H100.997L98.9922 87.579Z" fill="#DE6A38"/>
</g>
<mask id="mask2_357_898" style="mask-type:alpha" maskUnits="userSpaceOnUse" x="120" y="64" width="44" height="53">
<rect x="120.667" y="64.667" width="42.6667" height="52" fill="#DE6A38"/>
</mask>
<g mask="url(#mask2_357_898)">
<path d="M140.549 90.2242H152.368V106.011C150.889 106.551 149.267 106.978 147.504 107.291C145.74 107.604 143.82 107.76 141.744 107.76C138.956 107.76 136.538 107.163 134.49 105.968C132.471 104.774 130.906 103.01 129.797 100.678C128.716 98.3451 128.176 95.4722 128.176 92.0589C128.176 88.8731 128.745 86.114 129.882 83.7815C131.049 81.4491 132.741 79.6429 134.96 78.3629C137.207 77.0829 139.952 76.4429 143.194 76.4429C144.844 76.4429 146.437 76.6135 147.973 76.9549C149.509 77.2962 150.874 77.7513 152.069 78.3202L149.85 83.4829C148.883 82.9993 147.845 82.6011 146.736 82.2882C145.626 81.9753 144.446 81.8189 143.194 81.8189C141.459 81.8189 139.994 82.2455 138.8 83.0989C137.634 83.9522 136.752 85.1611 136.154 86.7255C135.586 88.2615 135.301 90.082 135.301 92.1869C135.301 94.178 135.557 95.9415 136.069 97.4775C136.581 99.0135 137.349 100.222 138.373 101.104C139.397 101.958 140.691 102.384 142.256 102.384C142.711 102.384 143.152 102.37 143.578 102.342C144.005 102.285 144.403 102.228 144.773 102.171C145.171 102.086 145.513 102.014 145.797 101.958V95.6002H140.549V90.2242Z" fill="#DE6A38"/>
</g>
</svg>
