<svg width="203" height="200" viewBox="0 0 203 200" fill="none" xmlns="http://www.w3.org/2000/svg">
<circle cx="100" cy="100" r="100" fill="#256864"/>
<path d="M48.9337 123.533L45.6003 132.333H44.387L41.0403 123.533H42.187L44.427 129.613L44.987 131.36L45.547 129.627L47.787 123.533H48.9337ZM52.7008 125.533C53.332 125.533 53.8875 125.671 54.3675 125.947C54.8564 126.222 55.2386 126.622 55.5142 127.147C55.7897 127.662 55.9275 128.28 55.9275 129C55.9275 129.72 55.7897 130.342 55.5142 130.867C55.2386 131.382 54.8564 131.778 54.3675 132.053C53.8875 132.329 53.332 132.467 52.7008 132.467C52.0786 132.467 51.5231 132.329 51.0342 132.053C50.5453 131.778 50.1631 131.382 49.8875 130.867C49.612 130.342 49.4742 129.72 49.4742 129C49.4742 128.28 49.612 127.662 49.8875 127.147C50.1631 126.622 50.5453 126.222 51.0342 125.947C51.5231 125.671 52.0786 125.533 52.7008 125.533ZM52.7008 126.453C52.2475 126.453 51.8608 126.556 51.5408 126.76C51.2208 126.965 50.972 127.258 50.7942 127.64C50.6253 128.013 50.5408 128.467 50.5408 129C50.5408 129.525 50.6253 129.978 50.7942 130.36C50.972 130.742 51.2208 131.036 51.5408 131.24C51.8608 131.445 52.2475 131.547 52.7008 131.547C53.1542 131.547 53.5408 131.445 53.8608 131.24C54.1808 131.036 54.4253 130.742 54.5942 130.36C54.772 129.978 54.8608 129.525 54.8608 129C54.8608 128.467 54.772 128.013 54.5942 127.64C54.4253 127.258 54.1808 126.965 53.8608 126.76C53.5408 126.556 53.1542 126.453 52.7008 126.453ZM58.469 124.387C58.229 124.387 58.0334 124.316 57.8823 124.173C57.7401 124.022 57.669 123.827 57.669 123.587C57.669 123.347 57.7401 123.156 57.8823 123.013C58.0334 122.862 58.229 122.787 58.469 122.787C58.709 122.787 58.9001 122.862 59.0423 123.013C59.1934 123.156 59.269 123.347 59.269 123.587C59.269 123.827 59.1934 124.022 59.0423 124.173C58.9001 124.316 58.709 124.387 58.469 124.387ZM59.0023 125.667V132.333H57.9356V125.667H59.0023ZM63.8773 132.467C63.2284 132.467 62.6284 132.329 62.0773 132.053C61.5351 131.778 61.1173 131.387 60.824 130.88L61.7306 130.227C61.9262 130.636 62.2106 130.956 62.584 131.187C62.9662 131.418 63.424 131.533 63.9573 131.533C64.4284 131.533 64.7973 131.445 65.064 131.267C65.3306 131.08 65.464 130.84 65.464 130.547C65.464 130.36 65.4017 130.191 65.2773 130.04C65.1617 129.88 64.9351 129.765 64.5973 129.693L62.9973 129.36C62.3484 129.227 61.8817 129.005 61.5973 128.693C61.3217 128.382 61.184 127.996 61.184 127.533C61.184 127.169 61.2862 126.836 61.4906 126.533C61.704 126.231 62.0017 125.991 62.384 125.813C62.7751 125.627 63.2329 125.533 63.7573 125.533C64.4151 125.533 64.9706 125.662 65.424 125.92C65.8773 126.178 66.2151 126.542 66.4373 127.013L65.544 127.6C65.3929 127.209 65.1484 126.925 64.8106 126.747C64.4729 126.56 64.1217 126.467 63.7573 126.467C63.4373 126.467 63.1617 126.511 62.9306 126.6C62.7084 126.689 62.5351 126.813 62.4106 126.973C62.2951 127.125 62.2373 127.298 62.2373 127.493C62.2373 127.689 62.304 127.871 62.4373 128.04C62.5706 128.2 62.8195 128.316 63.184 128.387L64.8506 128.733C65.4729 128.858 65.9084 129.062 66.1573 129.347C66.4062 129.631 66.5306 129.978 66.5306 130.387C66.5306 130.805 66.4195 131.173 66.1973 131.493C65.9751 131.805 65.664 132.045 65.264 132.213C64.864 132.382 64.4017 132.467 63.8773 132.467ZM69.0419 124.387C68.8019 124.387 68.6063 124.316 68.4552 124.173C68.313 124.022 68.2419 123.827 68.2419 123.587C68.2419 123.347 68.313 123.156 68.4552 123.013C68.6063 122.862 68.8019 122.787 69.0419 122.787C69.2819 122.787 69.473 122.862 69.6152 123.013C69.7663 123.156 69.8419 123.347 69.8419 123.587C69.8419 123.827 69.7663 124.022 69.6152 124.173C69.473 124.316 69.2819 124.387 69.0419 124.387ZM69.5752 125.667V132.333H68.5086V125.667H69.5752ZM72.0502 132.333V125.667H72.9836L73.0769 127.16L72.9036 127.013C73.0458 126.658 73.2369 126.373 73.4769 126.16C73.7169 125.938 73.9924 125.778 74.3036 125.68C74.6236 125.582 74.9524 125.533 75.2902 125.533C75.7702 125.533 76.2058 125.627 76.5969 125.813C76.988 125.991 77.2991 126.267 77.5302 126.64C77.7702 127.013 77.8902 127.489 77.8902 128.067V132.333H76.8236V128.44C76.8236 127.702 76.6636 127.191 76.3436 126.907C76.0324 126.613 75.6458 126.467 75.1836 126.467C74.8636 126.467 74.5436 126.542 74.2236 126.693C73.9036 126.845 73.6369 127.089 73.4236 127.427C73.2191 127.765 73.1169 128.218 73.1169 128.787V132.333H72.0502ZM82.7054 132.467C82.0565 132.467 81.4565 132.329 80.9054 132.053C80.3632 131.778 79.9454 131.387 79.6521 130.88L80.5588 130.227C80.7543 130.636 81.0388 130.956 81.4121 131.187C81.7943 131.418 82.2521 131.533 82.7854 131.533C83.2565 131.533 83.6254 131.445 83.8921 131.267C84.1588 131.08 84.2921 130.84 84.2921 130.547C84.2921 130.36 84.2299 130.191 84.1054 130.04C83.9899 129.88 83.7632 129.765 83.4254 129.693L81.8254 129.36C81.1765 129.227 80.7099 129.005 80.4254 128.693C80.1499 128.382 80.0121 127.996 80.0121 127.533C80.0121 127.169 80.1143 126.836 80.3188 126.533C80.5321 126.231 80.8299 125.991 81.2121 125.813C81.6032 125.627 82.061 125.533 82.5854 125.533C83.2432 125.533 83.7988 125.662 84.2521 125.92C84.7054 126.178 85.0432 126.542 85.2654 127.013L84.3721 127.6C84.221 127.209 83.9765 126.925 83.6388 126.747C83.301 126.56 82.9499 126.467 82.5854 126.467C82.2654 126.467 81.9899 126.511 81.7588 126.6C81.5365 126.689 81.3632 126.813 81.2388 126.973C81.1232 127.125 81.0654 127.298 81.0654 127.493C81.0654 127.689 81.1321 127.871 81.2654 128.04C81.3988 128.2 81.6477 128.316 82.0121 128.387L83.6788 128.733C84.301 128.858 84.7365 129.062 84.9854 129.347C85.2343 129.631 85.3588 129.978 85.3588 130.387C85.3588 130.805 85.2477 131.173 85.0254 131.493C84.8032 131.805 84.4921 132.045 84.0921 132.213C83.6921 132.382 83.2299 132.467 82.7054 132.467ZM98.5604 132.333H97.4271L96.4938 129.893H92.5071L91.5738 132.333H90.4538L93.8804 123.533H95.1471L98.5604 132.333ZM92.8938 128.893H96.1071L94.4938 124.56L92.8938 128.893ZM100.149 132.333V125.667H101.083L101.176 127.16L101.003 127.013C101.145 126.658 101.336 126.373 101.576 126.16C101.816 125.938 102.091 125.778 102.403 125.68C102.723 125.582 103.051 125.533 103.389 125.533C103.869 125.533 104.305 125.627 104.696 125.813C105.087 125.991 105.398 126.267 105.629 126.64C105.869 127.013 105.989 127.489 105.989 128.067V132.333H104.923V128.44C104.923 127.702 104.763 127.191 104.443 126.907C104.131 126.613 103.745 126.467 103.283 126.467C102.963 126.467 102.643 126.542 102.323 126.693C102.003 126.845 101.736 127.089 101.523 127.427C101.318 127.765 101.216 128.218 101.216 128.787V132.333H100.149ZM109.887 123.773V130.493C109.887 130.822 109.98 131.067 110.167 131.227C110.353 131.387 110.593 131.467 110.887 131.467C111.144 131.467 111.367 131.422 111.553 131.333C111.74 131.245 111.909 131.125 112.06 130.973L112.433 131.867C112.229 132.053 111.984 132.2 111.7 132.307C111.424 132.413 111.104 132.467 110.74 132.467C110.402 132.467 110.087 132.409 109.793 132.293C109.5 132.169 109.264 131.978 109.087 131.72C108.918 131.453 108.829 131.107 108.82 130.68V124.067L109.887 123.773ZM112.313 125.667V126.587H107.487V125.667H112.313ZM114.433 124.387C114.193 124.387 113.997 124.316 113.846 124.173C113.704 124.022 113.633 123.827 113.633 123.587C113.633 123.347 113.704 123.156 113.846 123.013C113.997 122.862 114.193 122.787 114.433 122.787C114.673 122.787 114.864 122.862 115.006 123.013C115.157 123.156 115.233 123.347 115.233 123.587C115.233 123.827 115.157 124.022 115.006 124.173C114.864 124.316 114.673 124.387 114.433 124.387ZM114.966 125.667V132.333H113.899V125.667H114.966ZM121.801 128.293V129.4H117.401V128.293H121.801ZM127.984 132.467C127.149 132.467 126.424 132.285 125.811 131.92C125.207 131.547 124.736 131.022 124.398 130.347C124.069 129.671 123.904 128.867 123.904 127.933C123.904 127 124.078 126.196 124.424 125.52C124.78 124.845 125.273 124.325 125.904 123.96C126.536 123.587 127.26 123.4 128.078 123.4C128.949 123.4 129.656 123.565 130.198 123.893C130.749 124.222 131.193 124.729 131.531 125.413L130.558 125.947C130.362 125.44 130.051 125.058 129.624 124.8C129.207 124.533 128.691 124.4 128.078 124.4C127.482 124.4 126.953 124.542 126.491 124.827C126.038 125.102 125.678 125.507 125.411 126.04C125.153 126.565 125.024 127.196 125.024 127.933C125.024 128.671 125.136 129.307 125.358 129.84C125.589 130.365 125.927 130.769 126.371 131.053C126.824 131.329 127.376 131.467 128.024 131.467C128.389 131.467 128.727 131.422 129.038 131.333C129.358 131.236 129.633 131.093 129.864 130.907C130.104 130.72 130.291 130.485 130.424 130.2C130.558 129.916 130.624 129.582 130.624 129.2V128.893H127.824V127.893H131.598V132.333H130.758L130.704 130.693L130.931 130.733C130.7 131.285 130.336 131.711 129.838 132.013C129.34 132.316 128.722 132.467 127.984 132.467ZM137.779 128.027C137.779 127.529 137.646 127.147 137.379 126.88C137.113 126.605 136.735 126.467 136.246 126.467C135.784 126.467 135.393 126.569 135.073 126.773C134.753 126.969 134.517 127.289 134.366 127.733L133.499 127.2C133.677 126.702 134.006 126.302 134.486 126C134.966 125.689 135.562 125.533 136.273 125.533C136.753 125.533 137.188 125.618 137.579 125.787C137.971 125.947 138.277 126.196 138.499 126.533C138.731 126.862 138.846 127.289 138.846 127.813V131.04C138.846 131.36 139.015 131.52 139.353 131.52C139.522 131.52 139.686 131.498 139.846 131.453L139.793 132.293C139.615 132.382 139.384 132.427 139.099 132.427C138.842 132.427 138.611 132.378 138.406 132.28C138.202 132.182 138.042 132.036 137.926 131.84C137.811 131.636 137.753 131.382 137.753 131.08V130.947L138.019 130.987C137.913 131.333 137.731 131.618 137.473 131.84C137.215 132.053 136.926 132.213 136.606 132.32C136.286 132.418 135.971 132.467 135.659 132.467C135.268 132.467 134.904 132.4 134.566 132.267C134.228 132.133 133.957 131.933 133.753 131.667C133.557 131.391 133.459 131.053 133.459 130.653C133.459 130.156 133.624 129.747 133.953 129.427C134.291 129.098 134.757 128.876 135.353 128.76L137.993 128.24V129.12L135.846 129.56C135.411 129.649 135.086 129.773 134.873 129.933C134.659 130.093 134.553 130.316 134.553 130.6C134.553 130.876 134.659 131.102 134.873 131.28C135.095 131.449 135.406 131.533 135.806 131.533C136.064 131.533 136.308 131.502 136.539 131.44C136.779 131.369 136.993 131.267 137.179 131.133C137.366 130.991 137.513 130.818 137.619 130.613C137.726 130.4 137.779 130.151 137.779 129.867V128.027ZM143.838 132.467C143.189 132.467 142.589 132.329 142.038 132.053C141.496 131.778 141.078 131.387 140.785 130.88L141.692 130.227C141.887 130.636 142.172 130.956 142.545 131.187C142.927 131.418 143.385 131.533 143.918 131.533C144.389 131.533 144.758 131.445 145.025 131.267C145.292 131.08 145.425 130.84 145.425 130.547C145.425 130.36 145.363 130.191 145.238 130.04C145.123 129.88 144.896 129.765 144.558 129.693L142.958 129.36C142.309 129.227 141.843 129.005 141.558 128.693C141.283 128.382 141.145 127.996 141.145 127.533C141.145 127.169 141.247 126.836 141.452 126.533C141.665 126.231 141.963 125.991 142.345 125.813C142.736 125.627 143.194 125.533 143.718 125.533C144.376 125.533 144.932 125.662 145.385 125.92C145.838 126.178 146.176 126.542 146.398 127.013L145.505 127.6C145.354 127.209 145.109 126.925 144.772 126.747C144.434 126.56 144.083 126.467 143.718 126.467C143.398 126.467 143.123 126.511 142.892 126.6C142.669 126.689 142.496 126.813 142.372 126.973C142.256 127.125 142.198 127.298 142.198 127.493C142.198 127.689 142.265 127.871 142.398 128.04C142.532 128.2 142.78 128.316 143.145 128.387L144.812 128.733C145.434 128.858 145.869 129.062 146.118 129.347C146.367 129.631 146.492 129.978 146.492 130.387C146.492 130.805 146.38 131.173 146.158 131.493C145.936 131.805 145.625 132.045 145.225 132.213C144.825 132.382 144.363 132.467 143.838 132.467ZM148.469 135.133V125.667H149.403L149.496 127.293L149.35 127.107C149.465 126.796 149.638 126.525 149.87 126.293C150.101 126.053 150.381 125.867 150.71 125.733C151.038 125.6 151.394 125.533 151.776 125.533C152.318 125.533 152.816 125.671 153.27 125.947C153.732 126.222 154.101 126.618 154.376 127.133C154.652 127.649 154.79 128.271 154.79 129C154.79 129.72 154.647 130.342 154.363 130.867C154.087 131.382 153.718 131.778 153.256 132.053C152.794 132.329 152.287 132.467 151.736 132.467C151.185 132.467 150.701 132.333 150.283 132.067C149.874 131.791 149.581 131.445 149.403 131.027L149.536 130.827V135.133H148.469ZM151.63 131.533C152.287 131.533 152.798 131.302 153.163 130.84C153.536 130.378 153.723 129.765 153.723 129C153.723 128.236 153.541 127.622 153.176 127.16C152.821 126.698 152.318 126.467 151.67 126.467C151.243 126.467 150.87 126.573 150.55 126.787C150.23 126.991 149.981 127.285 149.803 127.667C149.625 128.04 149.536 128.485 149.536 129C149.536 129.507 149.621 129.951 149.789 130.333C149.967 130.716 150.212 131.013 150.523 131.227C150.843 131.431 151.212 131.533 151.63 131.533ZM157.362 124.387C157.122 124.387 156.927 124.316 156.776 124.173C156.633 124.022 156.562 123.827 156.562 123.587C156.562 123.347 156.633 123.156 156.776 123.013C156.927 122.862 157.122 122.787 157.362 122.787C157.602 122.787 157.793 122.862 157.936 123.013C158.087 123.156 158.162 123.347 158.162 123.587C158.162 123.827 158.087 124.022 157.936 124.173C157.793 124.316 157.602 124.387 157.362 124.387ZM157.896 125.667V132.333H156.829V125.667H157.896Z" fill="#F6ECDE"/>
<mask id="mask0_420_560" style="mask-type:alpha" maskUnits="userSpaceOnUse" x="38" y="64" width="43" height="53">
<rect x="38" y="64.6665" width="42.6667" height="52" fill="#DE6A38"/>
</mask>
<g mask="url(#mask0_420_560)">
<path d="M67.6323 76.8696L58.0323 107.334H50.1817L40.667 76.8696H48.0483L52.7417 95.003C52.827 95.3159 52.9692 95.899 53.1683 96.7523C53.3674 97.5772 53.5665 98.459 53.7657 99.3976C53.9648 100.308 54.0928 101.076 54.1497 101.702C54.235 101.076 54.363 100.308 54.5337 99.3976C54.7328 98.4874 54.9177 97.6199 55.0883 96.795C55.2874 95.9416 55.4297 95.3443 55.515 95.003L60.2083 76.8696H67.6323Z" fill="#DE6A38"/>
</g>
<mask id="mask1_420_560" style="mask-type:alpha" maskUnits="userSpaceOnUse" x="77" y="64" width="44" height="53">
<rect x="77.334" y="64.667" width="42.6667" height="52" fill="#DE6A38"/>
</mask>
<g mask="url(#mask1_420_560)">
<path d="M104.241 107.334L102.491 100.08H92.6353L90.8433 107.334H83.334L93.062 76.7417H101.937L111.707 107.334H104.241ZM98.9927 87.579C98.822 86.9817 98.6513 86.3559 98.4807 85.7017C98.31 85.0475 98.1393 84.3648 97.9687 83.6537C97.8264 82.9426 97.6842 82.2173 97.542 81.4777C97.4282 82.2173 97.286 82.9568 97.1153 83.6964C96.9447 84.4075 96.774 85.0901 96.6033 85.7444C96.4611 86.3986 96.3047 87.0101 96.134 87.579L94.1713 94.6617H100.998L98.9927 87.579Z" fill="#DE6A38"/>
</g>
<mask id="mask2_420_560" style="mask-type:alpha" maskUnits="userSpaceOnUse" x="120" y="64" width="44" height="53">
<rect x="120.666" y="64.667" width="42.6667" height="52" fill="#DE6A38"/>
</mask>
<g mask="url(#mask2_420_560)">
<path d="M140.548 90.2242H152.367V106.011C150.888 106.551 149.266 106.978 147.503 107.291C145.739 107.604 143.819 107.76 141.743 107.76C138.955 107.76 136.537 107.163 134.489 105.968C132.47 104.774 130.905 103.01 129.796 100.678C128.715 98.3451 128.175 95.4722 128.175 92.0589C128.175 88.8731 128.744 86.114 129.881 83.7815C131.048 81.4491 132.74 79.6429 134.959 78.3629C137.206 77.0829 139.951 76.4429 143.193 76.4429C144.843 76.4429 146.436 76.6135 147.972 76.9549C149.508 77.2962 150.873 77.7513 152.068 78.3202L149.849 83.4829C148.882 82.9993 147.844 82.6011 146.735 82.2882C145.625 81.9753 144.445 81.8189 143.193 81.8189C141.458 81.8189 139.993 82.2455 138.799 83.0989C137.633 83.9522 136.751 85.1611 136.153 86.7255C135.585 88.2615 135.3 90.082 135.3 92.1869C135.3 94.178 135.556 95.9415 136.068 97.4775C136.58 99.0135 137.348 100.222 138.372 101.104C139.396 101.958 140.69 102.384 142.255 102.384C142.71 102.384 143.151 102.37 143.577 102.342C144.004 102.285 144.402 102.228 144.772 102.171C145.17 102.086 145.512 102.014 145.796 101.958V95.6002H140.548V90.2242Z" fill="#DE6A38"/>
</g>
</svg>
