<svg width="432" height="394" viewBox="0 0 432 394" fill="none" xmlns="http://www.w3.org/2000/svg">
<g clip-path="url(#clip0_348_453)">
<path d="M83.4687 80.7079C105.756 80.7079 123.823 62.6408 123.823 40.3539C123.823 18.0671 105.756 0 83.4687 0C61.1818 0 43.1147 18.0671 43.1147 40.3539C43.1147 62.6408 61.1818 80.7079 83.4687 80.7079Z" fill="#FCC77D"/>
<path d="M209.142 83.7209C207.81 81.4753 202.048 83.8797 200.989 81.8417C199.934 79.8111 205.287 76.717 208.345 69.649C208.897 68.3743 212.372 60.342 209.799 57.8635C204.922 53.1655 182.606 72.5529 174.796 66.2084C173.082 64.8161 171.885 62.0365 166.698 57.5237C164.634 55.7284 163.386 54.9178 162.178 55.2194C160.465 55.6473 160.329 57.9407 158.492 62.45C155.736 69.2126 154.106 68.8043 152.501 74.1998C151.309 78.2051 151.581 80.5337 150.178 80.9874C148.194 81.6294 146.367 77.381 143.852 77.7614C141.285 78.1496 139.733 83.0962 139.243 86.7997C138.323 93.7497 140.875 98.3358 142.29 103.158C143.827 108.399 144.74 116.368 141.19 127.651L106.05 226.656C113.808 206.34 136.27 150.65 145.709 129.955C148.434 123.981 151.442 117.921 157.619 115.53C163.567 113.227 171.735 114.602 182.148 112.093C183.364 111.8 186.739 110.942 187.164 108.957C187.515 107.315 185.53 106.399 185.835 104.862C186.244 102.801 190.148 102.776 194.945 100.397C198.327 98.7197 200.435 96.7251 202.247 95.0098C202.793 94.4926 210.915 86.7102 209.142 83.7209Z" fill="#F2F2F2"/>
<path d="M70.8933 135.842C69.4069 135.847 68.9247 139.369 67.6188 139.301C66.3176 139.233 66.3436 135.713 63.757 132.172C63.2905 131.534 60.351 127.51 58.3921 128.058C54.6792 129.096 57.7556 145.643 52.3883 147.646C51.2105 148.085 49.5007 147.871 45.7891 149.115C44.3126 149.61 43.5547 149.988 43.3542 150.668C43.0698 151.632 44.1563 152.361 45.8393 154.564C48.3633 157.867 47.6926 158.549 49.8775 160.894C51.4994 162.635 52.7209 163.173 52.5389 163.992C52.2813 165.152 49.6691 164.823 49.1301 166.167C48.58 167.539 50.5601 169.727 52.2364 171.037C55.3821 173.493 58.3694 173.564 61.1443 174.261C64.16 175.018 68.3349 176.87 72.848 181.868L111.302 227.681C103.569 218.012 82.7168 190.919 75.2829 180.315C73.1369 177.254 71.0308 174.029 71.6394 170.307C72.2253 166.723 75.2568 163.111 77.03 157.276C77.2372 156.595 77.7895 154.691 76.9378 153.91C76.2337 153.264 75.2114 153.974 74.545 153.381C73.6512 152.585 74.7651 150.662 74.9818 147.621C75.1345 145.477 74.7636 143.867 74.4446 142.483C74.3484 142.065 72.872 135.834 70.8933 135.842Z" fill="#F2F2F2"/>
<path d="M100.547 142.498L99.6514 134.504L100.061 133.898C101.954 131.095 102.919 128.358 102.931 125.76C102.932 125.347 102.913 124.934 102.894 124.514C102.817 122.846 102.72 120.773 103.801 118.357C104.407 117.01 106.109 113.891 108.669 114.277C109.358 114.373 109.879 114.69 110.274 115.06C110.332 114.968 110.392 114.875 110.456 114.774C111.253 113.559 111.884 113.037 112.492 112.536C112.959 112.15 113.442 111.752 114.198 110.81C114.53 110.397 114.789 110.034 115.007 109.729C115.669 108.807 116.534 107.707 118.058 107.726C119.687 107.803 120.541 109.15 121.106 110.042C122.115 111.632 122.573 112.779 122.876 113.539C122.986 113.817 123.111 114.13 123.175 114.226C123.7 114.998 127.967 114.276 129.575 114.014C133.186 113.412 136.311 112.891 137.599 115.168C138.521 116.797 137.836 118.951 135.501 121.742C134.773 122.611 133.999 123.271 133.312 123.788C133.881 124.128 134.391 124.649 134.597 125.467C135.084 127.405 133.418 129.347 129.649 131.246C128.712 131.721 127.452 132.354 125.686 132.659C124.854 132.801 124.105 132.836 123.465 132.855C123.451 133.226 123.364 133.627 123.138 134.041C122.476 135.256 121.098 135.835 119.022 135.696C116.736 135.577 114.855 135.141 113.195 134.758C111.745 134.427 110.496 134.145 109.516 134.21C107.698 134.357 106.297 135.812 104.652 137.7L100.547 142.498Z" fill="#F2F2F2"/>
<path d="M104.701 94.8995L97.1953 97.7935L96.5052 97.5514C93.3142 96.4308 90.4221 96.1915 87.9062 96.8393C87.5062 96.9422 87.1116 97.0656 86.7095 97.191C85.116 97.6887 83.1354 98.3078 80.5238 97.8753C79.0669 97.6308 75.6182 96.7752 75.3424 94.2017C75.261 93.5108 75.4349 92.9264 75.6931 92.4497C75.5887 92.4172 75.4839 92.3828 75.3707 92.3467C73.9924 91.884 73.3282 91.4057 72.6886 90.9449C72.1967 90.591 71.6897 90.2251 70.5867 89.7322C70.103 89.5159 69.6864 89.3577 69.3361 89.2241C68.2758 88.8178 66.9923 88.2604 66.6242 86.7806C66.2857 85.1853 67.3725 84.0184 68.0916 83.2452C69.3739 81.8654 70.3668 81.1321 71.0255 80.6461C71.2665 80.4692 71.5371 80.2685 71.6143 80.1824C72.2279 79.4788 70.4473 75.534 69.7856 74.0455C68.2871 70.7052 66.9904 67.8148 68.8669 65.9918C70.2086 64.6862 72.4659 64.8026 75.7579 66.3537C76.7826 66.8373 77.6174 67.4185 78.2921 67.952C78.4763 67.3151 78.8511 66.69 79.5903 66.2827C81.3414 65.3207 83.642 66.4393 86.4352 69.6038C87.1319 70.3888 88.064 71.4473 88.8069 73.0782C89.156 73.8466 89.3796 74.5622 89.5608 75.1772C89.9227 75.0962 90.333 75.0784 90.7899 75.1921C92.134 75.524 93.0436 76.7101 93.4359 78.7543C93.8998 80.9951 93.9553 82.926 94.0066 84.6285C94.0532 86.1148 94.0973 87.3942 94.4095 88.326C95.0126 90.0474 96.7757 91.0337 99.0187 92.1455L104.701 94.8995Z" fill="#F2F2F2"/>
<path d="M100.547 71.3479L99.6514 63.3535L100.061 62.7475C101.954 59.945 102.919 57.2082 102.931 54.6103C102.932 54.1973 102.913 53.7842 102.894 53.3635C102.817 51.6959 102.72 49.623 103.801 47.2066C104.407 45.8594 106.109 42.7404 108.669 43.1264C109.358 43.2229 109.879 43.5394 110.274 43.91C110.332 43.8173 110.392 43.7247 110.456 43.6243C111.253 42.4084 111.884 41.8873 112.492 41.3854C112.959 40.9994 113.442 40.6019 114.198 39.66C114.53 39.2469 114.789 38.8841 115.007 38.5791C115.669 37.6566 116.534 36.5564 118.058 36.5757C119.687 36.6529 120.541 38.0001 121.106 38.8918C122.115 40.4821 122.573 41.6286 122.876 42.3891C122.986 42.667 123.111 42.9797 123.175 43.0762C123.7 43.8482 127.967 43.1263 129.575 42.8638C133.186 42.2616 136.311 41.7406 137.599 44.018C138.521 45.647 137.836 47.801 135.501 50.5919C134.773 51.4604 133.999 52.1205 133.312 52.6378C133.881 52.9775 134.391 53.4986 134.597 54.3169C135.084 56.2547 133.418 58.1964 129.649 60.0956C128.712 60.5704 127.452 61.2035 125.686 61.5084C124.854 61.6513 124.105 61.686 123.465 61.7053C123.451 62.0759 123.364 62.4774 123.138 62.8904C122.476 64.1063 121.098 64.6853 119.022 64.5463C116.736 64.4267 114.855 63.9905 113.195 63.6083C111.745 63.2764 110.496 62.9946 109.516 63.0602C107.698 63.2069 106.297 64.6622 104.652 66.5498L100.547 71.3479Z" fill="#F2F2F2"/>
<path d="M108.726 226.526L107.051 225.476L105.098 225.7C105.067 225.518 104.961 225.101 104.801 224.449C103.926 220.874 101.261 209.996 99.0373 192.865C97.4855 180.906 96.6073 168.612 96.4259 156.317C96.2445 144.003 96.8274 134.681 97.2944 127.189C97.6476 121.537 98.0761 116.156 98.4969 110.914C99.6163 96.9096 100.672 83.6809 99.8865 69.0355C99.7128 65.7659 99.348 58.9605 95.3721 51.7188C93.0656 47.519 89.8887 43.7901 85.9282 40.6402L88.391 37.5444C92.7626 41.0263 96.2772 45.1566 98.8385 49.8197C103.247 57.8488 103.644 65.2642 103.835 68.8271C104.634 83.7311 103.567 97.0872 102.436 111.227C102.019 116.45 101.591 121.808 101.24 127.436C100.776 134.859 100.199 144.1 100.379 156.256C100.556 168.403 101.425 180.547 102.955 192.356C105.152 209.271 107.779 219.987 108.641 223.507C109.101 225.387 109.197 225.781 108.726 226.526Z" fill="#F2F2F2"/>
<path d="M78.6792 46.9208C78.517 46.9208 78.353 46.9169 78.187 46.9053C74.8209 46.7239 71.7039 44.7089 68.9207 40.9182C67.616 39.1348 66.9482 37.1005 65.6164 33.0435C65.4099 32.4182 64.4063 29.2451 63.7964 24.8793C63.3968 22.0266 63.447 20.8339 64.0126 19.7801C64.6398 18.6066 65.6551 17.7882 66.7976 17.2362C66.7475 16.8579 66.788 16.4681 66.9521 16.0704C67.6257 14.4222 69.4167 14.6384 70.3857 14.7426C70.8759 14.8043 71.4877 14.8854 72.1478 14.8506C73.1862 14.8005 73.744 14.4916 74.5894 14.0284C75.3981 13.5845 76.4036 13.0325 77.8956 12.7275C80.837 12.1138 83.3017 12.9476 84.1143 13.2216C88.3894 14.646 90.497 17.9696 92.9366 21.8181C93.423 22.5902 95.0925 25.4003 96.1946 29.2528C96.9897 32.0321 96.8778 33.2674 96.6385 34.1861C96.1521 36.0737 95.0037 37.1545 92.0874 39.5401C89.0417 42.0376 87.5131 43.2883 86.2006 44.0487C83.1454 45.8128 81.2268 46.9208 78.6792 46.9208Z" fill="#F2F2F2"/>
<path d="M128.94 88.5817L128.901 89.2255L127.657 109.777L156.648 112.823L148.544 86.197L128.94 88.5817Z" fill="#A0616A"/>
<path d="M216.833 87.1613C216.861 87.1662 216.903 87.1734 216.955 87.1819C217.961 87.3484 224.044 88.2869 230.176 85.9508C232.774 84.9612 231.888 84.7145 237.674 81.2739C244.457 77.2401 246.198 77.2683 246.703 75.3874C247.712 71.6317 242.326 65.7275 238.761 66.1162C237.822 66.2186 236.817 66.7781 235.254 66.3987C234.91 66.3154 233.407 65.9504 232.674 64.7058C232.02 63.5955 232.574 62.7946 232.311 61.884C231.62 59.4937 225.866 58.3009 220.821 59.1437C217.92 59.6284 215.663 60.9519 211.267 63.5789C203.617 68.1514 199.792 70.4376 198.933 73.9403C198.118 77.2603 200.074 78.6908 198.651 82.2448C197.327 85.5539 195.223 85.3329 194.5 88.0098C193.335 92.3175 197.658 97.0453 199.459 99.0147C201.433 101.174 203.322 102.359 205.829 103.932C208.975 105.907 210.549 106.894 212.44 106.794C215.87 106.612 226.061 107.232 226.194 104.394C226.243 103.33 238.603 104.201 232.517 92.7503C231.771 91.3458 217.147 92.846 216.954 92.0391" fill="#2F2E41"/>
<path d="M204.792 92.4857L204.753 93.1296L203.509 113.681L232.499 116.727L224.395 90.1011L204.792 92.4857Z" fill="#FFB6B6"/>
<path d="M431.707 227.194C431.707 227.453 431.497 227.663 431.238 227.663H0V226.726H431.238C431.497 226.726 431.707 226.936 431.707 227.194Z" fill="#E6E6E6"/>
<path d="M287.886 197.508C292.537 202.516 298.89 204.176 302.077 201.216C305.264 198.256 304.076 191.798 299.424 186.789C297.592 184.762 295.303 183.204 292.746 182.244L272.773 161.273L263.132 170.855L283.845 190.511C284.614 193.133 286 195.532 287.886 197.508Z" fill="#FFB6B6"/>
<path d="M245.985 183.134C252.452 185.342 258.834 183.794 260.239 179.678C261.643 175.562 257.539 170.436 251.069 168.228C248.496 167.311 245.741 167.023 243.035 167.388L215.512 158.378L211.56 171.384L239.111 178.885C241.03 180.83 243.387 182.287 245.985 183.134Z" fill="#A0616A"/>
<path d="M154.657 104.34C154.657 104.34 137.596 124.865 147.466 133.357C157.336 141.849 201.412 173.286 201.412 173.286L218.595 175.962L222.99 159.352L184.19 130.601L154.657 104.34Z" fill="#256864"/>
<path d="M219.615 99.7705C230.286 99.7705 238.936 91.1201 238.936 80.4493C238.936 69.7786 230.286 61.1282 219.615 61.1282C208.944 61.1282 200.294 69.7786 200.294 80.4493C200.294 91.1201 208.944 99.7705 219.615 99.7705Z" fill="#FFB6B6"/>
<path d="M213.392 81.6997C213.42 81.7045 213.462 81.7117 213.514 81.7202C214.52 81.8867 220.603 82.8252 226.735 80.4891C229.333 79.4995 228.447 79.2528 234.233 75.8122C241.016 71.7785 242.757 71.8067 243.262 69.9258C244.271 66.17 238.885 60.2658 235.32 60.6546C234.381 60.7569 233.376 61.3165 231.813 60.937C231.469 60.8537 229.966 60.4888 229.233 59.2441C228.579 58.1338 229.133 57.3329 228.87 56.4223C228.179 54.0321 222.425 52.8392 217.38 53.682C214.479 54.1668 212.222 55.4902 207.827 58.1172C200.176 62.6897 196.351 64.9759 195.492 68.4787C194.677 71.7986 196.633 73.2292 195.21 76.7831C193.886 80.0922 191.782 79.8712 191.059 82.5482C189.894 86.8559 194.217 91.5836 196.018 93.5531C197.993 95.7123 199.881 96.8974 202.388 98.4707C205.534 100.445 207.108 101.433 208.999 101.332C212.429 101.15 215.84 98.0422 215.973 95.2042C216.023 94.1406 215.579 93.8216 214.481 90.1652C214.023 88.6419 213.706 87.3843 213.513 86.5775" fill="#2F2E41"/>
<path d="M336.506 255.351L356.584 280.449L367.181 264.832L351.565 250.331L336.506 255.351Z" fill="#FFB6B6"/>
<path d="M253.961 194.558C253.961 194.558 315.69 201.808 320.799 206.828C325.909 211.848 356.584 254.235 356.584 254.235L343.756 264.274L310.681 229.111L240.174 228.561L253.961 194.558Z" fill="#2F2E41"/>
<path d="M287.425 194.558L307.504 219.656L318.101 204.04L302.484 189.539L287.425 194.558Z" fill="#FFB6B6"/>
<path d="M304.715 212.405C304.715 212.405 300.253 211.29 300.253 215.194C300.253 219.098 301.369 230.811 301.369 230.811C301.369 230.811 352.68 221.887 352.68 216.31C352.68 210.732 338.737 211.848 338.737 211.848L318.659 202.366L304.715 212.405Z" fill="#2F2E41"/>
<path d="M199.861 322.836L209.343 357.974L224.402 355.185L221.055 318.932L199.861 322.836Z" fill="#A0616A"/>
<path d="M211.574 355.743L205.997 356.858L201.535 371.917C201.535 371.917 208.786 374.705 208.786 380.283C208.786 385.86 211.574 389.764 222.729 389.206C233.884 388.649 234.999 389.206 234.999 384.745C234.999 380.283 226.633 356.858 226.633 356.858C226.633 356.858 227.191 347.377 220.498 347.934C213.805 348.492 211.574 355.743 211.574 355.743Z" fill="#2F2E41"/>
<path d="M148.876 322.29L149.523 358.678L164.808 359.637L170.383 323.66L148.876 322.29Z" fill="#A0616A"/>
<path d="M152.23 357.057L146.548 356.782L138.557 370.302C138.557 370.302 144.911 374.771 143.554 380.181C142.197 385.591 143.951 390.056 154.907 392.229C165.862 394.402 166.808 395.215 167.894 390.887C168.979 386.559 166.564 361.803 166.564 361.803C166.564 361.803 169.412 352.742 162.785 351.655C156.158 350.567 152.23 357.057 152.23 357.057Z" fill="#2F2E41"/>
<path d="M155.243 104.763L125.125 102.532L118.433 110.898C118.433 110.898 115.086 167.229 117.317 172.806C119.548 178.384 117.875 210.174 117.875 210.174L193.799 204.876L176.994 164.44L177.552 141.016L162.493 112.571L155.243 104.763Z" fill="#256864"/>
<path d="M121.221 198.462C121.221 198.462 108.951 216.31 113.413 225.791C117.875 235.272 148.14 290.325 148.14 290.325L144.236 341.636L171.007 339.405L175.469 284.19L156.916 239.177L160.262 234.157L188.149 268.179L198.188 327.298L224.959 323.952L210.458 237.503L193.511 204.184L121.221 198.462Z" fill="#2F2E41"/>
<path d="M227.191 103.09L204.881 100.859L186.476 118.707C186.476 118.707 177.552 144.362 179.226 158.306C180.899 172.249 195.4 206.828 195.4 206.828L218.267 190.096L244.48 191.212V138.998L231.095 109.783L227.191 103.09Z" fill="#F6ECDE"/>
<path d="M222.861 109.777C222.861 109.777 235.69 111.442 241.24 120.988C246.79 130.535 286.8 175.453 286.8 175.453L279.22 182.389L239.797 156.954L224.66 130.919L222.861 109.777Z" fill="#F6ECDE"/>
<path d="M193.448 200.972C193.448 200.972 191.496 224.118 203.766 227.464C216.036 230.811 247.827 228.022 247.827 228.022L267.905 176.153L287.426 199.578L306.388 190.654C306.388 190.654 286.31 134.323 275.155 134.323C264.001 134.323 246.153 149.939 246.153 149.939L217.151 188.981L193.448 200.972Z" fill="#2F2E41"/>
<path d="M353.796 273.198C353.796 273.198 349.334 272.083 349.334 275.987C349.334 279.891 350.449 291.604 350.449 291.604C350.449 291.604 401.761 282.68 401.761 277.102C401.761 271.525 387.817 272.641 387.817 272.641L367.739 263.159L353.796 273.198Z" fill="#2F2E41"/>
<path d="M118.6 70.6078C124.311 70.6078 128.94 65.9783 128.94 60.2676C128.94 54.5569 124.311 49.9275 118.6 49.9275C112.889 49.9275 108.26 54.5569 108.26 60.2676C108.26 65.9783 112.889 70.6078 118.6 70.6078Z" fill="#2F2E41"/>
<path d="M142.479 98.6012C154.916 98.6012 164.998 88.5194 164.998 76.0828C164.998 63.6463 154.916 53.5645 142.479 53.5645C130.043 53.5645 119.961 63.6463 119.961 76.0828C119.961 88.5194 130.043 98.6012 142.479 98.6012Z" fill="#A0616A"/>
<path d="M135.34 100.77C132.946 102.038 126.212 97.3832 123.802 91.1462C122.252 87.1338 118.484 87.8014 116.079 82.7975C114.677 79.8818 118.862 77.0295 118.172 74.5086C116.921 69.9409 118.489 65.8542 118.689 65.3536C120.413 61.0319 122.955 61.1324 125.004 56.1022C126.238 53.0737 125.447 52.719 126.484 51.1697C129.477 46.6984 138.163 46.5283 144.288 48.6428C146.408 49.3745 151.514 45.4537 155.659 48.2941C160.543 51.6406 163.792 61.2869 163.044 63.0545C162.59 64.1284 160.062 63.0343 154.803 63.8607C149.935 64.6259 156.36 68.2631 150.882 69.503C144.403 70.9692 142.451 69.6312 140.656 71.6808C138.758 73.8474 138.407 78.2327 140.139 80.8358C140.998 82.1276 142.107 82.5834 141.968 83.4824C141.714 85.1237 140.256 84.2315 139.778 85.9727C139.222 87.998 143.837 90.6534 143.436 91.2659C143.355 91.3893 143.009 91.523 138.503 89.7863C136.704 89.0929 136.01 88.4942 135.808 88.7157C135.482 89.0744 133.864 92.6703 135.702 94.1999C138.563 96.5802 136.58 97.5255 137.884 99.3894C139.23 101.312 136.861 99.9643 135.34 100.77Z" fill="#2F2E41"/>
<path d="M140.612 230.878C144.205 236.691 150.118 239.548 153.817 237.261C157.516 234.973 157.601 228.407 154.005 222.592C152.6 220.25 150.655 218.278 148.333 216.841L132.795 192.403L121.482 199.939L138.001 223.231C138.248 225.952 139.143 228.574 140.612 230.878Z" fill="#A0616A"/>
<path d="M120.106 112.014C120.106 112.014 93.8931 117.033 96.124 129.861C98.3549 142.689 112.437 194.964 112.437 194.964L124.011 207.944L137.954 197.904L126.242 151.055L120.106 112.014Z" fill="#256864"/>
<path d="M245.288 232.953C248.866 238.775 254.772 241.648 258.477 239.37C262.181 237.092 262.283 230.526 258.702 224.702C257.303 222.356 255.363 220.379 253.044 218.937L237.569 194.459L226.237 201.966L242.696 225.3C242.936 228.021 243.825 230.645 245.288 232.953Z" fill="#FFB6B6"/>
<path d="M210.464 115.361L188.39 120.897C188.39 120.897 196.119 148.44 197.93 158.314C199.741 168.188 237.861 222.591 237.861 222.591L249.391 208.799L215.628 146.576L210.464 115.361Z" fill="#F6ECDE"/>
</g>
<defs>
<clipPath id="clip0_348_453">
<rect width="431.707" height="394" fill="white"/>
</clipPath>
</defs>
</svg>
