<svg width="215" height="118" viewBox="0 0 215 118" fill="none" xmlns="http://www.w3.org/2000/svg">
<path fill-rule="evenodd" clip-rule="evenodd" d="M199.651 72.5934C201.483 68.2169 202.454 63.6477 202.454 58.9482C202.454 26.8381 157.133 0.807617 101.227 0.807617C45.3209 0.807617 0 26.8381 0 58.9482C0 91.0584 45.3209 117.089 101.227 117.089C129.224 117.089 154.567 110.561 172.892 100.01H215.48L199.651 72.5934Z" fill="#EF9F64"/>
<path d="M26.82 40.6076C27.7133 40.6076 28.4867 40.7743 29.14 41.1076C29.8067 41.4276 30.3267 41.8876 30.7 42.4876C31.0733 43.0876 31.26 43.801 31.26 44.6276C31.26 45.4543 31.0733 46.1676 30.7 46.7676C30.3267 47.3676 29.8067 47.8343 29.14 48.1676C28.4867 48.4876 27.7133 48.6476 26.82 48.6476H23.76V53.8076H22.16V40.6076H26.82ZM26.58 47.1476C27.62 47.1476 28.38 46.9343 28.86 46.5076C29.34 46.0676 29.58 45.4409 29.58 44.6276C29.58 43.801 29.34 43.1743 28.86 42.7476C28.38 42.3209 27.62 42.1076 26.58 42.1076H23.76V47.1476H26.58ZM39.907 47.3476C39.907 46.601 39.707 46.0276 39.307 45.6276C38.907 45.2143 38.3404 45.0076 37.607 45.0076C36.9137 45.0076 36.327 45.1609 35.847 45.4676C35.367 45.761 35.0137 46.241 34.787 46.9076L33.487 46.1076C33.7537 45.361 34.247 44.761 34.967 44.3076C35.687 43.8409 36.5804 43.6076 37.647 43.6076C38.367 43.6076 39.0204 43.7343 39.607 43.9876C40.1937 44.2276 40.6537 44.601 40.987 45.1076C41.3337 45.6009 41.507 46.2409 41.507 47.0276V51.8676C41.507 52.3476 41.7604 52.5876 42.267 52.5876C42.5204 52.5876 42.767 52.5543 43.007 52.4876L42.927 53.7476C42.6604 53.881 42.3137 53.9476 41.887 53.9476C41.5004 53.9476 41.1537 53.8743 40.847 53.7276C40.5404 53.581 40.3004 53.361 40.127 53.0676C39.9537 52.761 39.867 52.381 39.867 51.9276V51.7276L40.267 51.7876C40.107 52.3076 39.8337 52.7343 39.447 53.0676C39.0604 53.3876 38.627 53.6276 38.147 53.7876C37.667 53.9343 37.1937 54.0076 36.727 54.0076C36.1404 54.0076 35.5937 53.9076 35.087 53.7076C34.5804 53.5076 34.1737 53.2076 33.867 52.8076C33.5737 52.3943 33.427 51.8876 33.427 51.2876C33.427 50.541 33.6737 49.9276 34.167 49.4476C34.6737 48.9543 35.3737 48.621 36.267 48.4476L40.227 47.6676V48.9876L37.007 49.6476C36.3537 49.781 35.867 49.9676 35.547 50.2076C35.227 50.4476 35.067 50.781 35.067 51.2076C35.067 51.621 35.227 51.961 35.547 52.2276C35.8804 52.481 36.347 52.6076 36.947 52.6076C37.3337 52.6076 37.7004 52.561 38.047 52.4676C38.407 52.361 38.727 52.2076 39.007 52.0076C39.287 51.7943 39.507 51.5343 39.667 51.2276C39.827 50.9076 39.907 50.5343 39.907 50.1076V47.3476ZM45.3952 53.8076V43.8076H46.6952L46.9152 45.4476C47.1952 44.8343 47.6018 44.3743 48.1352 44.0676C48.6818 43.7609 49.3418 43.6076 50.1152 43.6076C50.2885 43.6076 50.4752 43.6209 50.6752 43.6476C50.8885 43.6743 51.0685 43.7276 51.2152 43.8076L50.9352 45.2676C50.7885 45.2143 50.6285 45.1743 50.4552 45.1476C50.2818 45.1209 50.0352 45.1076 49.7152 45.1076C49.3018 45.1076 48.8818 45.2276 48.4552 45.4676C48.0418 45.7076 47.6952 46.0743 47.4152 46.5676C47.1352 47.0476 46.9952 47.661 46.9952 48.4076V53.8076H45.3952ZM55.3138 40.9676V51.0476C55.3138 51.541 55.4538 51.9076 55.7338 52.1476C56.0138 52.3876 56.3738 52.5076 56.8138 52.5076C57.2004 52.5076 57.5338 52.441 57.8138 52.3076C58.0938 52.1743 58.3471 51.9943 58.5738 51.7676L59.1338 53.1076C58.8271 53.3876 58.4604 53.6076 58.0338 53.7676C57.6204 53.9276 57.1404 54.0076 56.5938 54.0076C56.0871 54.0076 55.6138 53.921 55.1738 53.7476C54.7338 53.561 54.3804 53.2743 54.1138 52.8876C53.8604 52.4876 53.7271 51.9676 53.7138 51.3276V41.4076L55.3138 40.9676ZM58.9538 43.8076V45.1876H51.7138V43.8076H58.9538ZM62.1327 41.8876C61.7727 41.8876 61.4793 41.7809 61.2527 41.5676C61.0393 41.341 60.9327 41.0476 60.9327 40.6876C60.9327 40.3276 61.0393 40.0409 61.2527 39.8276C61.4793 39.6009 61.7727 39.4876 62.1327 39.4876C62.4927 39.4876 62.7793 39.6009 62.9927 39.8276C63.2193 40.0409 63.3327 40.3276 63.3327 40.6876C63.3327 41.0476 63.2193 41.341 62.9927 41.5676C62.7793 41.7809 62.4927 41.8876 62.1327 41.8876ZM62.9327 43.8076V53.8076H61.3327V43.8076H62.9327ZM70.7852 43.6076C71.4785 43.6076 72.0852 43.7143 72.6052 43.9276C73.1385 44.141 73.5985 44.4476 73.9852 44.8476C74.3718 45.2476 74.6852 45.721 74.9252 46.2676L73.4052 46.9876C73.1918 46.3476 72.8652 45.8609 72.4252 45.5276C71.9985 45.1809 71.4385 45.0076 70.7452 45.0076C70.0785 45.0076 69.5052 45.1609 69.0252 45.4676C68.5452 45.761 68.1785 46.1943 67.9252 46.7676C67.6718 47.3276 67.5452 48.0076 67.5452 48.8076C67.5452 49.5943 67.6718 50.2743 67.9252 50.8476C68.1785 51.421 68.5452 51.861 69.0252 52.1676C69.5052 52.461 70.0785 52.6076 70.7452 52.6076C71.2652 52.6076 71.7118 52.5276 72.0852 52.3676C72.4718 52.2076 72.7852 51.9743 73.0252 51.6676C73.2785 51.361 73.4518 50.9876 73.5452 50.5476L75.0252 51.0676C74.7985 51.681 74.4852 52.2076 74.0852 52.6476C73.6985 53.0876 73.2252 53.4276 72.6652 53.6676C72.1185 53.8943 71.4918 54.0076 70.7852 54.0076C69.8518 54.0076 69.0185 53.801 68.2852 53.3876C67.5518 52.9743 66.9785 52.381 66.5652 51.6076C66.1518 50.821 65.9452 49.8876 65.9452 48.8076C65.9452 47.7276 66.1518 46.8009 66.5652 46.0276C66.9785 45.241 67.5518 44.641 68.2852 44.2276C69.0185 43.8143 69.8518 43.6076 70.7852 43.6076ZM78.6366 41.8876C78.2766 41.8876 77.9832 41.7809 77.7566 41.5676C77.5432 41.341 77.4366 41.0476 77.4366 40.6876C77.4366 40.3276 77.5432 40.0409 77.7566 39.8276C77.9832 39.6009 78.2766 39.4876 78.6366 39.4876C78.9966 39.4876 79.2832 39.6009 79.4966 39.8276C79.7232 40.0409 79.8366 40.3276 79.8366 40.6876C79.8366 41.0476 79.7232 41.341 79.4966 41.5676C79.2832 41.7809 78.9966 41.8876 78.6366 41.8876ZM79.4366 43.8076V53.8076H77.8366V43.8076H79.4366ZM83.1491 58.0076V43.8076H84.5491L84.6891 46.2476L84.4691 45.9676C84.6424 45.501 84.9024 45.0943 85.2491 44.7476C85.5957 44.3876 86.0157 44.1076 86.5091 43.9076C87.0024 43.7076 87.5357 43.6076 88.1091 43.6076C88.9224 43.6076 89.6691 43.8143 90.3491 44.2276C91.0424 44.641 91.5957 45.2343 92.0091 46.0076C92.4224 46.781 92.6291 47.7143 92.6291 48.8076C92.6291 49.8876 92.4157 50.821 91.9891 51.6076C91.5757 52.381 91.0224 52.9743 90.3291 53.3876C89.6357 53.801 88.8757 54.0076 88.0491 54.0076C87.2224 54.0076 86.4957 53.8076 85.8691 53.4076C85.2557 52.9943 84.8157 52.4743 84.5491 51.8476L84.7491 51.5476V58.0076H83.1491ZM87.8891 52.6076C88.8757 52.6076 89.6424 52.261 90.1891 51.5676C90.7491 50.8743 91.0291 49.9543 91.0291 48.8076C91.0291 47.661 90.7557 46.741 90.2091 46.0476C89.6757 45.3543 88.9224 45.0076 87.9491 45.0076C87.3091 45.0076 86.7491 45.1676 86.2691 45.4876C85.7891 45.7943 85.4157 46.2343 85.1491 46.8076C84.8824 47.3676 84.7491 48.0343 84.7491 48.8076C84.7491 49.5676 84.8757 50.2343 85.1291 50.8076C85.3957 51.381 85.7624 51.8276 86.2291 52.1476C86.7091 52.4543 87.2624 52.6076 87.8891 52.6076ZM99.8681 54.0076C98.9215 54.0076 98.0748 53.801 97.3281 53.3876C96.5948 52.9743 96.0215 52.381 95.6081 51.6076C95.1948 50.821 94.9881 49.8876 94.9881 48.8076C94.9881 47.7276 95.1948 46.8009 95.6081 46.0276C96.0215 45.241 96.5881 44.641 97.3081 44.2276C98.0281 43.8143 98.8481 43.6076 99.7681 43.6076C100.701 43.6076 101.495 43.8076 102.148 44.2076C102.815 44.6076 103.321 45.1543 103.668 45.8476C104.015 46.5276 104.188 47.2943 104.188 48.1476C104.188 48.3743 104.181 48.581 104.168 48.7676C104.155 48.9543 104.135 49.121 104.108 49.2676H96.0281V47.8476H103.408L102.588 48.0076C102.588 47.0476 102.321 46.3076 101.788 45.7876C101.268 45.2676 100.581 45.0076 99.7281 45.0076C99.0748 45.0076 98.5081 45.1609 98.0281 45.4676C97.5615 45.761 97.1948 46.1943 96.9281 46.7676C96.6748 47.3276 96.5481 48.0076 96.5481 48.8076C96.5481 49.5943 96.6815 50.2743 96.9481 50.8476C97.2148 51.421 97.5881 51.861 98.0681 52.1676C98.5615 52.461 99.1481 52.6076 99.8281 52.6076C100.561 52.6076 101.155 52.4676 101.608 52.1876C102.075 51.9076 102.448 51.5276 102.728 51.0476L103.988 51.7876C103.735 52.241 103.408 52.6343 103.008 52.9676C102.621 53.301 102.161 53.561 101.628 53.7476C101.108 53.921 100.521 54.0076 99.8681 54.0076ZM107.231 53.8076V43.8076H108.531L108.751 45.4476C109.031 44.8343 109.438 44.3743 109.971 44.0676C110.518 43.7609 111.178 43.6076 111.951 43.6076C112.124 43.6076 112.311 43.6209 112.511 43.6476C112.724 43.6743 112.904 43.7276 113.051 43.8076L112.771 45.2676C112.624 45.2143 112.464 45.1743 112.291 45.1476C112.118 45.1209 111.871 45.1076 111.551 45.1076C111.138 45.1076 110.718 45.2276 110.291 45.4676C109.878 45.7076 109.531 46.0743 109.251 46.5676C108.971 47.0476 108.831 47.661 108.831 48.4076V53.8076H107.231ZM127.583 47.3476C127.583 46.601 127.383 46.0276 126.983 45.6276C126.583 45.2143 126.016 45.0076 125.283 45.0076C124.589 45.0076 124.003 45.1609 123.523 45.4676C123.043 45.761 122.689 46.241 122.463 46.9076L121.163 46.1076C121.429 45.361 121.923 44.761 122.643 44.3076C123.363 43.8409 124.256 43.6076 125.323 43.6076C126.043 43.6076 126.696 43.7343 127.283 43.9876C127.869 44.2276 128.329 44.601 128.663 45.1076C129.009 45.6009 129.183 46.2409 129.183 47.0276V51.8676C129.183 52.3476 129.436 52.5876 129.943 52.5876C130.196 52.5876 130.443 52.5543 130.683 52.4876L130.603 53.7476C130.336 53.881 129.989 53.9476 129.563 53.9476C129.176 53.9476 128.829 53.8743 128.523 53.7276C128.216 53.581 127.976 53.361 127.803 53.0676C127.629 52.761 127.543 52.381 127.543 51.9276V51.7276L127.943 51.7876C127.783 52.3076 127.509 52.7343 127.123 53.0676C126.736 53.3876 126.303 53.6276 125.823 53.7876C125.343 53.9343 124.869 54.0076 124.403 54.0076C123.816 54.0076 123.269 53.9076 122.763 53.7076C122.256 53.5076 121.849 53.2076 121.543 52.8076C121.249 52.3943 121.103 51.8876 121.103 51.2876C121.103 50.541 121.349 49.9276 121.843 49.4476C122.349 48.9543 123.049 48.621 123.943 48.4476L127.903 47.6676V48.9876L124.683 49.6476C124.029 49.781 123.543 49.9676 123.223 50.2076C122.903 50.4476 122.743 50.781 122.743 51.2076C122.743 51.621 122.903 51.961 123.223 52.2276C123.556 52.481 124.023 52.6076 124.623 52.6076C125.009 52.6076 125.376 52.561 125.723 52.4676C126.083 52.361 126.403 52.2076 126.683 52.0076C126.963 51.7943 127.183 51.5343 127.343 51.2276C127.503 50.9076 127.583 50.5343 127.583 50.1076V47.3476ZM124.723 38.8076L126.243 42.1476H124.943L122.983 38.8076H124.723ZM140.939 39.2076V51.2676C140.939 51.7743 141.032 52.1276 141.219 52.3276C141.405 52.5143 141.705 52.6076 142.119 52.6076C142.385 52.6076 142.605 52.5876 142.779 52.5476C142.952 52.5076 143.185 52.4343 143.479 52.3276L143.219 53.7276C143.005 53.821 142.772 53.8876 142.519 53.9276C142.265 53.981 142.005 54.0076 141.739 54.0076C140.925 54.0076 140.319 53.7876 139.919 53.3476C139.532 52.9076 139.339 52.2343 139.339 51.3276V39.2076H140.939ZM151.372 47.3476C151.372 46.601 151.172 46.0276 150.772 45.6276C150.372 45.2143 149.805 45.0076 149.072 45.0076C148.379 45.0076 147.792 45.1609 147.312 45.4676C146.832 45.761 146.479 46.241 146.252 46.9076L144.952 46.1076C145.219 45.361 145.712 44.761 146.432 44.3076C147.152 43.8409 148.045 43.6076 149.112 43.6076C149.832 43.6076 150.485 43.7343 151.072 43.9876C151.659 44.2276 152.119 44.601 152.452 45.1076C152.799 45.6009 152.972 46.2409 152.972 47.0276V51.8676C152.972 52.3476 153.225 52.5876 153.732 52.5876C153.985 52.5876 154.232 52.5543 154.472 52.4876L154.392 53.7476C154.125 53.881 153.779 53.9476 153.352 53.9476C152.965 53.9476 152.619 53.8743 152.312 53.7276C152.005 53.581 151.765 53.361 151.592 53.0676C151.419 52.761 151.332 52.381 151.332 51.9276V51.7276L151.732 51.7876C151.572 52.3076 151.299 52.7343 150.912 53.0676C150.525 53.3876 150.092 53.6276 149.612 53.7876C149.132 53.9343 148.659 54.0076 148.192 54.0076C147.605 54.0076 147.059 53.9076 146.552 53.7076C146.045 53.5076 145.639 53.2076 145.332 52.8076C145.039 52.3943 144.892 51.8876 144.892 51.2876C144.892 50.541 145.139 49.9276 145.632 49.4476C146.139 48.9543 146.839 48.621 147.732 48.4476L151.692 47.6676V48.9876L148.472 49.6476C147.819 49.781 147.332 49.9676 147.012 50.2076C146.692 50.4476 146.532 50.781 146.532 51.2076C146.532 51.621 146.692 51.961 147.012 52.2276C147.345 52.481 147.812 52.6076 148.412 52.6076C148.799 52.6076 149.165 52.561 149.512 52.4676C149.872 52.361 150.192 52.2076 150.472 52.0076C150.752 51.7943 150.972 51.5343 151.132 51.2276C151.292 50.9076 151.372 50.5343 151.372 50.1076V47.3476ZM169.32 43.8076H171L166.84 53.8076H165.24L161.08 43.8076H162.9L166.06 52.1876L169.32 43.8076ZM173.89 41.8876C173.53 41.8876 173.237 41.7809 173.01 41.5676C172.797 41.341 172.69 41.0476 172.69 40.6876C172.69 40.3276 172.797 40.0409 173.01 39.8276C173.237 39.6009 173.53 39.4876 173.89 39.4876C174.25 39.4876 174.537 39.6009 174.75 39.8276C174.977 40.0409 175.09 40.3276 175.09 40.6876C175.09 41.0476 174.977 41.341 174.75 41.5676C174.537 41.7809 174.25 41.8876 173.89 41.8876ZM174.69 43.8076V53.8076H173.09V43.8076H174.69ZM182.583 54.0076C181.636 54.0076 180.79 53.801 180.043 53.3876C179.31 52.9743 178.736 52.381 178.323 51.6076C177.91 50.821 177.703 49.8876 177.703 48.8076C177.703 47.7276 177.91 46.8009 178.323 46.0276C178.736 45.241 179.303 44.641 180.023 44.2276C180.743 43.8143 181.563 43.6076 182.483 43.6076C183.416 43.6076 184.21 43.8076 184.863 44.2076C185.53 44.6076 186.036 45.1543 186.383 45.8476C186.73 46.5276 186.903 47.2943 186.903 48.1476C186.903 48.3743 186.896 48.581 186.883 48.7676C186.87 48.9543 186.85 49.121 186.823 49.2676H178.743V47.8476H186.123L185.303 48.0076C185.303 47.0476 185.036 46.3076 184.503 45.7876C183.983 45.2676 183.296 45.0076 182.443 45.0076C181.79 45.0076 181.223 45.1609 180.743 45.4676C180.276 45.761 179.91 46.1943 179.643 46.7676C179.39 47.3276 179.263 48.0076 179.263 48.8076C179.263 49.5943 179.396 50.2743 179.663 50.8476C179.93 51.421 180.303 51.861 180.783 52.1676C181.276 52.461 181.863 52.6076 182.543 52.6076C183.276 52.6076 183.87 52.4676 184.323 52.1876C184.79 51.9076 185.163 51.5276 185.443 51.0476L186.703 51.7876C186.45 52.241 186.123 52.6343 185.723 52.9676C185.336 53.301 184.876 53.561 184.343 53.7476C183.823 53.921 183.236 54.0076 182.583 54.0076ZM25.76 77.0076C24.9333 77.0076 24.1733 76.801 23.48 76.3876C22.7867 75.9743 22.2333 75.381 21.82 74.6076C21.4067 73.821 21.2 72.8876 21.2 71.8076C21.2 70.701 21.42 69.761 21.86 68.9876C22.3 68.2143 22.88 67.6276 23.6 67.2276C24.32 66.8143 25.0933 66.6076 25.92 66.6076C26.7467 66.6076 27.46 66.8209 28.06 67.2476C28.6733 67.6743 29.08 68.241 29.28 68.9476L29.08 69.0876V62.2076H30.68V76.8076H29.28L29.14 74.3876L29.36 74.2676C29.2667 74.8543 29.04 75.3543 28.68 75.7676C28.3333 76.1676 27.9 76.4743 27.38 76.6876C26.8733 76.901 26.3333 77.0076 25.76 77.0076ZM25.92 75.6076C26.56 75.6076 27.1133 75.4476 27.58 75.1276C28.06 74.8076 28.4267 74.3543 28.68 73.7676C28.9467 73.1676 29.08 72.4676 29.08 71.6676C29.08 70.9076 28.9467 70.2543 28.68 69.7076C28.4267 69.161 28.0667 68.741 27.6 68.4476C27.1467 68.1543 26.6133 68.0076 26 68.0076C24.9867 68.0076 24.2 68.3543 23.64 69.0476C23.08 69.741 22.8 70.661 22.8 71.8076C22.8 72.9543 23.0733 73.8743 23.62 74.5676C24.1667 75.261 24.9333 75.6076 25.92 75.6076ZM38.5791 77.0076C37.6324 77.0076 36.7857 76.801 36.0391 76.3876C35.3057 75.9743 34.7324 75.381 34.3191 74.6076C33.9057 73.821 33.6991 72.8876 33.6991 71.8076C33.6991 70.7276 33.9057 69.8009 34.3191 69.0276C34.7324 68.241 35.2991 67.641 36.0191 67.2276C36.7391 66.8143 37.5591 66.6076 38.4791 66.6076C39.4124 66.6076 40.2057 66.8076 40.8591 67.2076C41.5257 67.6076 42.0324 68.1543 42.3791 68.8476C42.7257 69.5276 42.8991 70.2943 42.8991 71.1476C42.8991 71.3743 42.8924 71.581 42.8791 71.7676C42.8657 71.9543 42.8457 72.121 42.8191 72.2676H34.7391V70.8476H42.1191L41.2991 71.0076C41.2991 70.0476 41.0324 69.3076 40.4991 68.7876C39.9791 68.2676 39.2924 68.0076 38.4391 68.0076C37.7857 68.0076 37.2191 68.1609 36.7391 68.4676C36.2724 68.761 35.9057 69.1943 35.6391 69.7676C35.3857 70.3276 35.2591 71.0076 35.2591 71.8076C35.2591 72.5943 35.3924 73.2743 35.6591 73.8476C35.9257 74.421 36.2991 74.861 36.7791 75.1676C37.2724 75.461 37.8591 75.6076 38.5391 75.6076C39.2724 75.6076 39.8657 75.4676 40.3191 75.1876C40.7857 74.9076 41.1591 74.5276 41.4391 74.0476L42.6991 74.7876C42.4457 75.241 42.1191 75.6343 41.7191 75.9676C41.3324 76.301 40.8724 76.561 40.3391 76.7476C39.8191 76.921 39.2324 77.0076 38.5791 77.0076ZM56.3584 77.0076C55.3851 77.0076 54.4851 76.801 53.6584 76.3876C52.8451 75.9743 52.2184 75.3876 51.7784 74.6276L53.1384 73.6476C53.4318 74.261 53.8584 74.741 54.4184 75.0876C54.9918 75.4343 55.6784 75.6076 56.4784 75.6076C57.1851 75.6076 57.7384 75.4743 58.1384 75.2076C58.5384 74.9276 58.7384 74.5676 58.7384 74.1276C58.7384 73.8476 58.6451 73.5943 58.4584 73.3676C58.2851 73.1276 57.9451 72.9543 57.4384 72.8476L55.0384 72.3476C54.0651 72.1476 53.3651 71.8143 52.9384 71.3476C52.5251 70.881 52.3184 70.301 52.3184 69.6076C52.3184 69.061 52.4718 68.561 52.7784 68.1076C53.0984 67.6543 53.5451 67.2943 54.1184 67.0276C54.7051 66.7476 55.3918 66.6076 56.1784 66.6076C57.1651 66.6076 57.9984 66.8009 58.6784 67.1876C59.3584 67.5743 59.8651 68.121 60.1984 68.8276L58.8584 69.7076C58.6318 69.121 58.2651 68.6943 57.7584 68.4276C57.2518 68.1476 56.7251 68.0076 56.1784 68.0076C55.6984 68.0076 55.2851 68.0743 54.9384 68.2076C54.6051 68.341 54.3451 68.5276 54.1584 68.7676C53.9851 68.9943 53.8984 69.2543 53.8984 69.5476C53.8984 69.841 53.9984 70.1143 54.1984 70.3676C54.3984 70.6076 54.7718 70.781 55.3184 70.8876L57.8184 71.4076C58.7518 71.5943 59.4051 71.901 59.7784 72.3276C60.1518 72.7543 60.3384 73.2743 60.3384 73.8876C60.3384 74.5143 60.1718 75.0676 59.8384 75.5476C59.5051 76.0143 59.0384 76.3743 58.4384 76.6276C57.8384 76.881 57.1451 77.0076 56.3584 77.0076ZM67.4453 66.6076C68.392 66.6076 69.2253 66.8143 69.9453 67.2276C70.6786 67.641 71.252 68.241 71.6653 69.0276C72.0786 69.8009 72.2853 70.7276 72.2853 71.8076C72.2853 72.8876 72.0786 73.821 71.6653 74.6076C71.252 75.381 70.6786 75.9743 69.9453 76.3876C69.2253 76.801 68.392 77.0076 67.4453 77.0076C66.512 77.0076 65.6786 76.801 64.9453 76.3876C64.212 75.9743 63.6386 75.381 63.2253 74.6076C62.812 73.821 62.6053 72.8876 62.6053 71.8076C62.6053 70.7276 62.812 69.8009 63.2253 69.0276C63.6386 68.241 64.212 67.641 64.9453 67.2276C65.6786 66.8143 66.512 66.6076 67.4453 66.6076ZM67.4453 67.9876C66.7653 67.9876 66.1853 68.141 65.7053 68.4476C65.2253 68.7543 64.852 69.1943 64.5853 69.7676C64.332 70.3276 64.2053 71.0076 64.2053 71.8076C64.2053 72.5943 64.332 73.2743 64.5853 73.8476C64.852 74.421 65.2253 74.861 65.7053 75.1676C66.1853 75.4743 66.7653 75.6276 67.4453 75.6276C68.1253 75.6276 68.7053 75.4743 69.1853 75.1676C69.6653 74.861 70.032 74.421 70.2853 73.8476C70.552 73.2743 70.6853 72.5943 70.6853 71.8076C70.6853 71.0076 70.552 70.3276 70.2853 69.7676C70.032 69.1943 69.6653 68.7543 69.1853 68.4476C68.7053 68.141 68.1253 67.9876 67.4453 67.9876ZM75.2975 76.8076V66.8076H76.6975L76.8375 69.0476L76.5775 68.8276C76.7908 68.2943 77.0775 67.8676 77.4375 67.5476C77.7975 67.2143 78.2108 66.9743 78.6775 66.8276C79.1575 66.6809 79.6508 66.6076 80.1575 66.6076C80.8775 66.6076 81.5308 66.7476 82.1175 67.0276C82.7042 67.2943 83.1708 67.7076 83.5175 68.2676C83.8775 68.8276 84.0575 69.541 84.0575 70.4076V76.8076H82.4575V70.9676C82.4575 69.8609 82.2175 69.0943 81.7375 68.6676C81.2708 68.2276 80.6908 68.0076 79.9975 68.0076C79.5175 68.0076 79.0375 68.121 78.5575 68.3476C78.0775 68.5743 77.6775 68.941 77.3575 69.4476C77.0508 69.9543 76.8975 70.6343 76.8975 71.4876V76.8076H75.2975ZM101.717 81.0076V74.0676L101.997 74.2676C101.903 74.8543 101.677 75.3543 101.317 75.7676C100.97 76.1676 100.537 76.4743 100.017 76.6876C99.5101 76.901 98.9701 77.0076 98.3967 77.0076C97.5701 77.0076 96.8101 76.801 96.1167 76.3876C95.4234 75.9743 94.8701 75.381 94.4567 74.6076C94.0434 73.821 93.8367 72.8876 93.8367 71.8076C93.8367 70.701 94.0567 69.761 94.4967 68.9876C94.9367 68.2143 95.5167 67.6276 96.2367 67.2276C96.9567 66.8143 97.7301 66.6076 98.5567 66.6076C99.1167 66.6076 99.6367 66.7143 100.117 66.9276C100.597 67.1276 101.003 67.4209 101.337 67.8076C101.683 68.181 101.91 68.6276 102.017 69.1476H101.777L101.917 66.8076H103.317V81.0076H101.717ZM98.5567 75.6076C99.1834 75.6076 99.7301 75.4543 100.197 75.1476C100.677 74.8276 101.05 74.381 101.317 73.8076C101.583 73.221 101.717 72.5343 101.717 71.7476C101.717 70.9476 101.583 70.2743 101.317 69.7276C101.063 69.1676 100.703 68.741 100.237 68.4476C99.7701 68.1543 99.2234 68.0076 98.5967 68.0076C97.6101 68.0076 96.8367 68.3543 96.2767 69.0476C95.7167 69.741 95.4367 70.661 95.4367 71.8076C95.4367 72.9543 95.7101 73.8743 96.2567 74.5676C96.8034 75.261 97.5701 75.6076 98.5567 75.6076ZM110.656 77.0076C110.016 77.0076 109.409 76.8876 108.836 76.6476C108.276 76.4076 107.816 76.021 107.456 75.4876C107.109 74.941 106.936 74.2343 106.936 73.3676V66.8076H108.536V72.9476C108.536 73.961 108.756 74.661 109.196 75.0476C109.636 75.421 110.256 75.6076 111.056 75.6076C111.429 75.6076 111.796 75.5476 112.156 75.4276C112.516 75.2943 112.836 75.0943 113.116 74.8276C113.409 74.5476 113.636 74.1943 113.796 73.7676C113.969 73.341 114.056 72.8343 114.056 72.2476V66.8076H115.656V76.8076H114.256L114.156 75.2876C113.809 75.8876 113.336 76.3276 112.736 76.6076C112.149 76.8743 111.456 77.0076 110.656 77.0076ZM125.22 70.3476C125.22 69.601 125.02 69.0276 124.62 68.6276C124.22 68.2143 123.653 68.0076 122.92 68.0076C122.226 68.0076 121.64 68.1609 121.16 68.4676C120.68 68.761 120.326 69.241 120.1 69.9076L118.8 69.1076C119.066 68.361 119.56 67.761 120.28 67.3076C121 66.8409 121.893 66.6076 122.96 66.6076C123.68 66.6076 124.333 66.7343 124.92 66.9876C125.506 67.2276 125.966 67.601 126.3 68.1076C126.646 68.6009 126.82 69.2409 126.82 70.0276V74.8676C126.82 75.3476 127.073 75.5876 127.58 75.5876C127.833 75.5876 128.08 75.5543 128.32 75.4876L128.24 76.7476C127.973 76.881 127.626 76.9476 127.2 76.9476C126.813 76.9476 126.466 76.8743 126.16 76.7276C125.853 76.581 125.613 76.361 125.44 76.0676C125.266 75.761 125.18 75.381 125.18 74.9276V74.7276L125.58 74.7876C125.42 75.3076 125.146 75.7343 124.76 76.0676C124.373 76.3876 123.94 76.6276 123.46 76.7876C122.98 76.9343 122.506 77.0076 122.04 77.0076C121.453 77.0076 120.906 76.9076 120.4 76.7076C119.893 76.5076 119.486 76.2076 119.18 75.8076C118.886 75.3943 118.74 74.8876 118.74 74.2876C118.74 73.541 118.986 72.9276 119.48 72.4476C119.986 71.9543 120.686 71.621 121.58 71.4476L125.54 70.6676V71.9876L122.32 72.6476C121.666 72.781 121.18 72.9676 120.86 73.2076C120.54 73.4476 120.38 73.781 120.38 74.2076C120.38 74.621 120.54 74.961 120.86 75.2276C121.193 75.481 121.66 75.6076 122.26 75.6076C122.646 75.6076 123.013 75.561 123.36 75.4676C123.72 75.361 124.04 75.2076 124.32 75.0076C124.6 74.7943 124.82 74.5343 124.98 74.2276C125.14 73.9076 125.22 73.5343 125.22 73.1076V70.3476ZM130.708 76.8076V66.8076H132.008L132.228 68.4476C132.508 67.8343 132.914 67.3743 133.448 67.0676C133.994 66.7609 134.654 66.6076 135.428 66.6076C135.601 66.6076 135.788 66.6209 135.988 66.6476C136.201 66.6743 136.381 66.7276 136.528 66.8076L136.248 68.2676C136.101 68.2143 135.941 68.1743 135.768 68.1476C135.594 68.1209 135.348 68.1076 135.028 68.1076C134.614 68.1076 134.194 68.2276 133.768 68.4676C133.354 68.7076 133.008 69.0743 132.728 69.5676C132.448 70.0476 132.308 70.661 132.308 71.4076V76.8076H130.708ZM140.626 63.9676V74.0476C140.626 74.541 140.766 74.9076 141.046 75.1476C141.326 75.3876 141.686 75.5076 142.126 75.5076C142.513 75.5076 142.846 75.441 143.126 75.3076C143.406 75.1743 143.66 74.9943 143.886 74.7676L144.446 76.1076C144.14 76.3876 143.773 76.6076 143.346 76.7676C142.933 76.9276 142.453 77.0076 141.906 77.0076C141.4 77.0076 140.926 76.921 140.486 76.7476C140.046 76.561 139.693 76.2743 139.426 75.8876C139.173 75.4876 139.04 74.9676 139.026 74.3276V64.4076L140.626 63.9676ZM144.266 66.8076V68.1876H137.026V66.8076H144.266ZM147.445 64.8876C147.085 64.8876 146.792 64.7809 146.565 64.5676C146.352 64.341 146.245 64.0476 146.245 63.6876C146.245 63.3276 146.352 63.0409 146.565 62.8276C146.792 62.6009 147.085 62.4876 147.445 62.4876C147.805 62.4876 148.092 62.6009 148.305 62.8276C148.532 63.0409 148.645 63.3276 148.645 63.6876C148.645 64.0476 148.532 64.341 148.305 64.5676C148.092 64.7809 147.805 64.8876 147.445 64.8876ZM148.245 66.8076V76.8076H146.645V66.8076H148.245ZM156.138 77.0076C155.191 77.0076 154.344 76.801 153.598 76.3876C152.864 75.9743 152.291 75.381 151.878 74.6076C151.464 73.821 151.258 72.8876 151.258 71.8076C151.258 70.7276 151.464 69.8009 151.878 69.0276C152.291 68.241 152.858 67.641 153.578 67.2276C154.298 66.8143 155.118 66.6076 156.038 66.6076C156.971 66.6076 157.764 66.8076 158.418 67.2076C159.084 67.6076 159.591 68.1543 159.938 68.8476C160.284 69.5276 160.458 70.2943 160.458 71.1476C160.458 71.3743 160.451 71.581 160.438 71.7676C160.424 71.9543 160.404 72.121 160.378 72.2676H152.298V70.8476H159.678L158.858 71.0076C158.858 70.0476 158.591 69.3076 158.058 68.7876C157.538 68.2676 156.851 68.0076 155.998 68.0076C155.344 68.0076 154.778 68.1609 154.298 68.4676C153.831 68.761 153.464 69.1943 153.198 69.7676C152.944 70.3276 152.818 71.0076 152.818 71.8076C152.818 72.5943 152.951 73.2743 153.218 73.8476C153.484 74.421 153.858 74.861 154.338 75.1676C154.831 75.461 155.418 75.6076 156.098 75.6076C156.831 75.6076 157.424 75.4676 157.878 75.1876C158.344 74.9076 158.718 74.5276 158.998 74.0476L160.258 74.7876C160.004 75.241 159.678 75.6343 159.278 75.9676C158.891 76.301 158.431 76.561 157.898 76.7476C157.378 76.921 156.791 77.0076 156.138 77.0076ZM163.501 76.8076V66.8076H164.801L165.021 68.4476C165.301 67.8343 165.707 67.3743 166.241 67.0676C166.787 66.7609 167.447 66.6076 168.221 66.6076C168.394 66.6076 168.581 66.6209 168.781 66.6476C168.994 66.6743 169.174 66.7276 169.321 66.8076L169.041 68.2676C168.894 68.2143 168.734 68.1743 168.561 68.1476C168.387 68.1209 168.141 68.1076 167.821 68.1076C167.407 68.1076 166.987 68.2276 166.561 68.4676C166.147 68.7076 165.801 69.0743 165.521 69.5676C165.241 70.0476 165.101 70.661 165.101 71.4076V76.8076H163.501Z" fill="#256864"/>
</svg>
