<svg width="160" height="87" viewBox="0 0 160 87" fill="none" xmlns="http://www.w3.org/2000/svg">
<path fill-rule="evenodd" clip-rule="evenodd" d="M147.923 53.9946C149.281 50.7519 150 47.3665 150 43.8845C150 20.0938 116.421 0.807617 75 0.807617C33.5786 0.807617 0 20.0938 0 43.8845C0 67.6753 33.5786 86.9615 75 86.9615C95.7433 86.9615 114.52 82.1247 128.097 74.3076H159.651L147.923 53.9946Z" fill="#EF9F64"/>
<path d="M37.82 37.6076C38.7133 37.6076 39.4867 37.7743 40.14 38.1076C40.8067 38.4276 41.3267 38.8876 41.7 39.4876C42.0733 40.0876 42.26 40.801 42.26 41.6276C42.26 42.4543 42.0733 43.1676 41.7 43.7676C41.3267 44.3676 40.8067 44.8343 40.14 45.1676C39.4867 45.4876 38.7133 45.6476 37.82 45.6476H34.76V50.8076H33.16V37.6076H37.82ZM37.58 44.1476C38.62 44.1476 39.38 43.9343 39.86 43.5076C40.34 43.0676 40.58 42.4409 40.58 41.6276C40.58 40.801 40.34 40.1743 39.86 39.7476C39.38 39.3209 38.62 39.1076 37.58 39.1076H34.76V44.1476H37.58ZM50.907 44.3476C50.907 43.601 50.707 43.0276 50.307 42.6276C49.907 42.2143 49.3404 42.0076 48.607 42.0076C47.9137 42.0076 47.327 42.1609 46.847 42.4676C46.367 42.761 46.0137 43.241 45.787 43.9076L44.487 43.1076C44.7537 42.361 45.247 41.761 45.967 41.3076C46.687 40.8409 47.5804 40.6076 48.647 40.6076C49.367 40.6076 50.0204 40.7343 50.607 40.9876C51.1937 41.2276 51.6537 41.601 51.987 42.1076C52.3337 42.6009 52.507 43.2409 52.507 44.0276V48.8676C52.507 49.3476 52.7604 49.5876 53.267 49.5876C53.5204 49.5876 53.767 49.5543 54.007 49.4876L53.927 50.7476C53.6604 50.881 53.3137 50.9476 52.887 50.9476C52.5004 50.9476 52.1537 50.8743 51.847 50.7276C51.5404 50.581 51.3004 50.361 51.127 50.0676C50.9537 49.761 50.867 49.381 50.867 48.9276V48.7276L51.267 48.7876C51.107 49.3076 50.8337 49.7343 50.447 50.0676C50.0604 50.3876 49.627 50.6276 49.147 50.7876C48.667 50.9343 48.1937 51.0076 47.727 51.0076C47.1404 51.0076 46.5937 50.9076 46.087 50.7076C45.5804 50.5076 45.1737 50.2076 44.867 49.8076C44.5737 49.3943 44.427 48.8876 44.427 48.2876C44.427 47.541 44.6737 46.9276 45.167 46.4476C45.6737 45.9543 46.3737 45.621 47.267 45.4476L51.227 44.6676V45.9876L48.007 46.6476C47.3537 46.781 46.867 46.9676 46.547 47.2076C46.227 47.4476 46.067 47.781 46.067 48.2076C46.067 48.621 46.227 48.961 46.547 49.2276C46.8804 49.481 47.347 49.6076 47.947 49.6076C48.3337 49.6076 48.7004 49.561 49.047 49.4676C49.407 49.361 49.727 49.2076 50.007 49.0076C50.287 48.7943 50.507 48.5343 50.667 48.2276C50.827 47.9076 50.907 47.5343 50.907 47.1076V44.3476ZM56.3952 50.8076V40.8076H57.6952L57.9152 42.4476C58.1952 41.8343 58.6018 41.3743 59.1352 41.0676C59.6818 40.7609 60.3418 40.6076 61.1152 40.6076C61.2885 40.6076 61.4752 40.6209 61.6752 40.6476C61.8885 40.6743 62.0685 40.7276 62.2152 40.8076L61.9352 42.2676C61.7885 42.2143 61.6285 42.1743 61.4552 42.1476C61.2818 42.1209 61.0352 42.1076 60.7152 42.1076C60.3018 42.1076 59.8818 42.2276 59.4552 42.4676C59.0418 42.7076 58.6952 43.0743 58.4152 43.5676C58.1352 44.0476 57.9952 44.661 57.9952 45.4076V50.8076H56.3952ZM66.3138 37.9676V48.0476C66.3138 48.541 66.4538 48.9076 66.7338 49.1476C67.0138 49.3876 67.3738 49.5076 67.8138 49.5076C68.2004 49.5076 68.5338 49.441 68.8138 49.3076C69.0938 49.1743 69.3471 48.9943 69.5738 48.7676L70.1338 50.1076C69.8271 50.3876 69.4604 50.6076 69.0338 50.7676C68.6204 50.9276 68.1404 51.0076 67.5938 51.0076C67.0871 51.0076 66.6138 50.921 66.1738 50.7476C65.7338 50.561 65.3804 50.2743 65.1138 49.8876C64.8604 49.4876 64.7271 48.9676 64.7138 48.3276V38.4076L66.3138 37.9676ZM69.9538 40.8076V42.1876H62.7138V40.8076H69.9538ZM78.1727 44.3476C78.1727 43.601 77.9727 43.0276 77.5727 42.6276C77.1727 42.2143 76.606 42.0076 75.8727 42.0076C75.1793 42.0076 74.5927 42.1609 74.1127 42.4676C73.6327 42.761 73.2793 43.241 73.0527 43.9076L71.7527 43.1076C72.0193 42.361 72.5127 41.761 73.2327 41.3076C73.9527 40.8409 74.846 40.6076 75.9127 40.6076C76.6327 40.6076 77.286 40.7343 77.8727 40.9876C78.4593 41.2276 78.9193 41.601 79.2527 42.1076C79.5993 42.6009 79.7727 43.2409 79.7727 44.0276V48.8676C79.7727 49.3476 80.026 49.5876 80.5327 49.5876C80.786 49.5876 81.0327 49.5543 81.2727 49.4876L81.1927 50.7476C80.926 50.881 80.5793 50.9476 80.1527 50.9476C79.766 50.9476 79.4193 50.8743 79.1127 50.7276C78.806 50.581 78.566 50.361 78.3927 50.0676C78.2193 49.761 78.1327 49.381 78.1327 48.9276V48.7276L78.5327 48.7876C78.3727 49.3076 78.0993 49.7343 77.7127 50.0676C77.326 50.3876 76.8927 50.6276 76.4127 50.7876C75.9327 50.9343 75.4593 51.0076 74.9927 51.0076C74.406 51.0076 73.8593 50.9076 73.3527 50.7076C72.846 50.5076 72.4393 50.2076 72.1327 49.8076C71.8393 49.3943 71.6927 48.8876 71.6927 48.2876C71.6927 47.541 71.9393 46.9276 72.4327 46.4476C72.9393 45.9543 73.6393 45.621 74.5327 45.4476L78.4927 44.6676V45.9876L75.2727 46.6476C74.6193 46.781 74.1327 46.9676 73.8127 47.2076C73.4927 47.4476 73.3327 47.781 73.3327 48.2076C73.3327 48.621 73.4927 48.961 73.8127 49.2276C74.146 49.481 74.6127 49.6076 75.2127 49.6076C75.5993 49.6076 75.966 49.561 76.3127 49.4676C76.6727 49.361 76.9927 49.2076 77.2727 49.0076C77.5527 48.7943 77.7727 48.5343 77.9327 48.2276C78.0927 47.9076 78.1727 47.5343 78.1727 47.1076V44.3476ZM92.0808 38.9676L92.4408 40.3876C92.4274 40.3876 92.4074 40.3876 92.3808 40.3876C92.3541 40.3876 92.3274 40.3876 92.3008 40.3876C91.6474 40.3876 91.1408 40.5209 90.7808 40.7876C90.4341 41.0409 90.2608 41.4543 90.2608 42.0276L89.2808 41.5276C89.2808 41.0076 89.4008 40.5543 89.6408 40.1676C89.8808 39.7809 90.2074 39.4876 90.6208 39.2876C91.0341 39.0743 91.4874 38.9676 91.9808 38.9676C91.9941 38.9676 92.0074 38.9676 92.0208 38.9676C92.0474 38.9676 92.0674 38.9676 92.0808 38.9676ZM89.0408 49.5276C89.9874 49.5276 90.7274 49.7476 91.2608 50.1876C91.7941 50.6143 92.0608 51.1876 92.0608 51.9076C92.0608 52.561 91.8408 53.1276 91.4008 53.6076C90.9741 54.0876 90.3941 54.4543 89.6608 54.7076C88.9408 54.9743 88.1274 55.1076 87.2208 55.1076C85.6474 55.1076 84.4674 54.841 83.6808 54.3076C82.9074 53.7743 82.5208 53.1343 82.5208 52.3876C82.5208 51.8543 82.6941 51.3743 83.0408 50.9476C83.4008 50.5343 84.0008 50.301 84.8408 50.2476L84.7008 50.5476C84.2474 50.4276 83.8608 50.2276 83.5408 49.9476C83.2341 49.6543 83.0808 49.2343 83.0808 48.6876C83.0808 48.141 83.2808 47.6743 83.6808 47.2876C84.0941 46.8876 84.7008 46.641 85.5008 46.5476L86.5608 47.0876H86.3608C85.7074 47.1543 85.2408 47.321 84.9608 47.5876C84.6941 47.841 84.5608 48.121 84.5608 48.4276C84.5608 48.801 84.6941 49.081 84.9608 49.2676C85.2408 49.441 85.6274 49.5276 86.1208 49.5276H89.0408ZM87.2008 53.7676C87.9741 53.7676 88.6074 53.6876 89.1008 53.5276C89.6074 53.3676 89.9808 53.161 90.2208 52.9076C90.4608 52.6543 90.5808 52.381 90.5808 52.0876C90.5808 51.7276 90.4341 51.441 90.1408 51.2276C89.8608 51.0143 89.3474 50.9076 88.6008 50.9076H85.5208C85.0941 50.9076 84.7341 51.0143 84.4408 51.2276C84.1474 51.4543 84.0008 51.761 84.0008 52.1476C84.0008 52.641 84.2808 53.0343 84.8408 53.3276C85.4141 53.621 86.2008 53.7676 87.2008 53.7676ZM87.0608 40.6076C87.8608 40.6076 88.5674 40.7543 89.1808 41.0476C89.8074 41.3276 90.2941 41.721 90.6408 42.2276C90.9874 42.7343 91.1608 43.3209 91.1608 43.9876C91.1608 44.641 90.9874 45.2276 90.6408 45.7476C90.2941 46.2543 89.8074 46.6543 89.1808 46.9476C88.5674 47.2276 87.8608 47.3676 87.0608 47.3676C85.7408 47.3676 84.7274 47.0543 84.0208 46.4276C83.3141 45.7876 82.9608 44.9743 82.9608 43.9876C82.9608 43.3209 83.1341 42.7343 83.4808 42.2276C83.8408 41.721 84.3274 41.3276 84.9408 41.0476C85.5541 40.7543 86.2608 40.6076 87.0608 40.6076ZM87.0608 41.9076C86.3674 41.9076 85.7874 42.101 85.3208 42.4876C84.8541 42.861 84.6208 43.361 84.6208 43.9876C84.6208 44.601 84.8541 45.101 85.3208 45.4876C85.7874 45.8743 86.3674 46.0676 87.0608 46.0676C87.7541 46.0676 88.3341 45.8743 88.8008 45.4876C89.2674 45.101 89.5008 44.601 89.5008 43.9876C89.5008 43.361 89.2674 42.861 88.8008 42.4876C88.3341 42.101 87.7541 41.9076 87.0608 41.9076ZM98.4853 51.0076C97.5386 51.0076 96.692 50.801 95.9453 50.3876C95.212 49.9743 94.6386 49.381 94.2253 48.6076C93.812 47.821 93.6053 46.8876 93.6053 45.8076C93.6053 44.7276 93.812 43.8009 94.2253 43.0276C94.6386 42.241 95.2053 41.641 95.9253 41.2276C96.6453 40.8143 97.4653 40.6076 98.3853 40.6076C99.3186 40.6076 100.112 40.8076 100.765 41.2076C101.432 41.6076 101.939 42.1543 102.285 42.8476C102.632 43.5276 102.805 44.2943 102.805 45.1476C102.805 45.3743 102.799 45.581 102.785 45.7676C102.772 45.9543 102.752 46.121 102.725 46.2676H94.6453V44.8476H102.025L101.205 45.0076C101.205 44.0476 100.939 43.3076 100.405 42.7876C99.8853 42.2676 99.1986 42.0076 98.3453 42.0076C97.692 42.0076 97.1253 42.1609 96.6453 42.4676C96.1786 42.761 95.812 43.1943 95.5453 43.7676C95.292 44.3276 95.1653 45.0076 95.1653 45.8076C95.1653 46.5943 95.2986 47.2743 95.5653 47.8476C95.832 48.421 96.2053 48.861 96.6853 49.1676C97.1786 49.461 97.7653 49.6076 98.4453 49.6076C99.1786 49.6076 99.772 49.4676 100.225 49.1876C100.692 48.9076 101.065 48.5276 101.345 48.0476L102.605 48.7876C102.352 49.241 102.025 49.6343 101.625 49.9676C101.239 50.301 100.779 50.561 100.245 50.7476C99.7253 50.921 99.1386 51.0076 98.4853 51.0076ZM105.848 50.8076V40.8076H107.148L107.368 42.4476C107.648 41.8343 108.055 41.3743 108.588 41.0676C109.135 40.7609 109.795 40.6076 110.568 40.6076C110.742 40.6076 110.928 40.6209 111.128 40.6476C111.342 40.6743 111.522 40.7276 111.668 40.8076L111.388 42.2676C111.242 42.2143 111.082 42.1743 110.908 42.1476C110.735 42.1209 110.488 42.1076 110.168 42.1076C109.755 42.1076 109.335 42.2276 108.908 42.4676C108.495 42.7076 108.148 43.0743 107.868 43.5676C107.588 44.0476 107.448 44.661 107.448 45.4076V50.8076H105.848Z" fill="#256864"/>
</svg>
