<svg width="178" height="97" viewBox="0 0 178 97" fill="none" xmlns="http://www.w3.org/2000/svg">
<path fill-rule="evenodd" clip-rule="evenodd" d="M164.601 60.1347C166.112 56.5265 166.912 52.7594 166.912 48.8849C166.912 22.4118 129.547 0.951172 83.456 0.951172C37.3645 0.951172 0 22.4118 0 48.8849C0 75.3579 37.3645 96.8185 83.456 96.8185C106.538 96.8185 127.432 91.4364 142.54 82.7379H177.651L164.601 60.1347Z" fill="#EF9F64"/>
<path d="M27.4 41.4076C28.56 41.4076 29.56 41.6476 30.4 42.1276C31.24 42.5943 31.94 43.2876 32.5 44.2076L31.16 45.2476C30.6667 44.3943 30.1067 43.7943 29.48 43.4476C28.8667 43.0876 28.12 42.9076 27.24 42.9076C26.5333 42.9076 25.9467 43.0076 25.48 43.2076C25.0267 43.4076 24.6933 43.6743 24.48 44.0076C24.2667 44.3276 24.16 44.6943 24.16 45.1076C24.16 45.5743 24.3067 45.9876 24.6 46.3476C24.8933 46.6943 25.48 46.9676 26.36 47.1676L29.22 47.8076C30.4867 48.0876 31.3667 48.5143 31.86 49.0876C32.3667 49.6476 32.62 50.3476 32.62 51.1876C32.62 51.9343 32.4067 52.601 31.98 53.1876C31.5667 53.761 30.98 54.2076 30.22 54.5276C29.46 54.8476 28.5667 55.0076 27.54 55.0076C26.58 55.0076 25.7333 54.881 25 54.6276C24.28 54.361 23.66 54.0076 23.14 53.5676C22.62 53.1276 22.1933 52.6343 21.86 52.0876L23.26 50.9476C23.5133 51.4543 23.84 51.901 24.24 52.2876C24.64 52.6743 25.12 52.9743 25.68 53.1876C26.2533 53.401 26.9067 53.5076 27.64 53.5076C28.32 53.5076 28.9067 53.4276 29.4 53.2676C29.9067 53.0943 30.2933 52.8476 30.56 52.5276C30.8267 52.1943 30.96 51.7943 30.96 51.3276C30.96 50.901 30.82 50.521 30.54 50.1876C30.26 49.841 29.7333 49.581 28.96 49.4076L25.86 48.7076C25.0467 48.521 24.3867 48.2676 23.88 47.9476C23.3867 47.6143 23.0267 47.2276 22.8 46.7876C22.5867 46.3343 22.48 45.8476 22.48 45.3276C22.48 44.621 22.6733 43.9743 23.06 43.3876C23.46 42.7876 24.0267 42.3076 24.76 41.9476C25.5067 41.5876 26.3867 41.4076 27.4 41.4076ZM39.8525 55.0076C38.9058 55.0076 38.0592 54.801 37.3125 54.3876C36.5792 53.9743 36.0058 53.381 35.5925 52.6076C35.1792 51.821 34.9725 50.8876 34.9725 49.8076C34.9725 48.7276 35.1792 47.8009 35.5925 47.0276C36.0058 46.241 36.5725 45.641 37.2925 45.2276C38.0125 44.8143 38.8325 44.6076 39.7525 44.6076C40.6858 44.6076 41.4792 44.8076 42.1325 45.2076C42.7992 45.6076 43.3058 46.1543 43.6525 46.8476C43.9992 47.5276 44.1725 48.2943 44.1725 49.1476C44.1725 49.3743 44.1658 49.581 44.1525 49.7676C44.1392 49.9543 44.1192 50.121 44.0925 50.2676H36.0125V48.8476H43.3925L42.5725 49.0076C42.5725 48.0476 42.3058 47.3076 41.7725 46.7876C41.2525 46.2676 40.5658 46.0076 39.7125 46.0076C39.0592 46.0076 38.4925 46.1609 38.0125 46.4676C37.5458 46.761 37.1792 47.1943 36.9125 47.7676C36.6592 48.3276 36.5325 49.0076 36.5325 49.8076C36.5325 50.5943 36.6658 51.2743 36.9325 51.8476C37.1992 52.421 37.5725 52.861 38.0525 53.1676C38.5458 53.461 39.1325 53.6076 39.8125 53.6076C40.5458 53.6076 41.1392 53.4676 41.5925 53.1876C42.0592 52.9076 42.4325 52.5276 42.7125 52.0476L43.9725 52.7876C43.7192 53.241 43.3925 53.6343 42.9925 53.9676C42.6058 54.301 42.1458 54.561 41.6125 54.7476C41.0925 54.921 40.5058 55.0076 39.8525 55.0076ZM54.0319 54.8076V44.8076H55.3319L55.5519 46.4476C55.8319 45.8343 56.2385 45.3743 56.7719 45.0676C57.3185 44.7609 57.9785 44.6076 58.7519 44.6076C58.9252 44.6076 59.1119 44.6209 59.3119 44.6476C59.5252 44.6743 59.7052 44.7276 59.8519 44.8076L59.5719 46.2676C59.4252 46.2143 59.2652 46.1743 59.0919 46.1476C58.9185 46.1209 58.6719 46.1076 58.3519 46.1076C57.9385 46.1076 57.5185 46.2276 57.0919 46.4676C56.6785 46.7076 56.3319 47.0743 56.0519 47.5676C55.7719 48.0476 55.6319 48.661 55.6319 49.4076V54.8076H54.0319ZM66.0634 55.0076C65.1168 55.0076 64.2701 54.801 63.5234 54.3876C62.7901 53.9743 62.2168 53.381 61.8034 52.6076C61.3901 51.821 61.1834 50.8876 61.1834 49.8076C61.1834 48.7276 61.3901 47.8009 61.8034 47.0276C62.2168 46.241 62.7834 45.641 63.5034 45.2276C64.2234 44.8143 65.0434 44.6076 65.9634 44.6076C66.8968 44.6076 67.6901 44.8076 68.3434 45.2076C69.0101 45.6076 69.5168 46.1543 69.8634 46.8476C70.2101 47.5276 70.3834 48.2943 70.3834 49.1476C70.3834 49.3743 70.3768 49.581 70.3634 49.7676C70.3501 49.9543 70.3301 50.121 70.3034 50.2676H62.2234V48.8476H69.6034L68.7834 49.0076C68.7834 48.0476 68.5168 47.3076 67.9834 46.7876C67.4634 46.2676 66.7768 46.0076 65.9234 46.0076C65.2701 46.0076 64.7034 46.1609 64.2234 46.4676C63.7568 46.761 63.3901 47.1943 63.1234 47.7676C62.8701 48.3276 62.7434 49.0076 62.7434 49.8076C62.7434 50.5943 62.8768 51.2743 63.1434 51.8476C63.4101 52.421 63.7834 52.861 64.2634 53.1676C64.7568 53.461 65.3434 53.6076 66.0234 53.6076C66.7568 53.6076 67.3501 53.4676 67.8034 53.1876C68.2701 52.9076 68.6434 52.5276 68.9234 52.0476L70.1834 52.7876C69.9301 53.241 69.6034 53.6343 69.2034 53.9676C68.8168 54.301 68.3568 54.561 67.8234 54.7476C67.3034 54.921 66.7168 55.0076 66.0634 55.0076ZM73.4264 54.8076V44.8076H74.8264L74.9664 47.0476L74.7064 46.8276C74.9197 46.2943 75.2064 45.8676 75.5664 45.5476C75.9264 45.2143 76.3397 44.9743 76.8064 44.8276C77.2864 44.6809 77.7797 44.6076 78.2864 44.6076C79.0064 44.6076 79.6597 44.7476 80.2464 45.0276C80.8331 45.2943 81.2997 45.7076 81.6464 46.2676C82.0064 46.8276 82.1864 47.541 82.1864 48.4076V54.8076H80.5864V48.9676C80.5864 47.8609 80.3464 47.0943 79.8664 46.6676C79.3997 46.2276 78.8197 46.0076 78.1264 46.0076C77.6464 46.0076 77.1664 46.121 76.6864 46.3476C76.2064 46.5743 75.8064 46.941 75.4864 47.4476C75.1797 47.9543 75.0264 48.6343 75.0264 49.4876V54.8076H73.4264ZM89.9492 44.6076C90.6426 44.6076 91.2492 44.7143 91.7692 44.9276C92.3026 45.141 92.7626 45.4476 93.1492 45.8476C93.5359 46.2476 93.8492 46.721 94.0892 47.2676L92.5692 47.9876C92.3559 47.3476 92.0292 46.8609 91.5892 46.5276C91.1626 46.1809 90.6026 46.0076 89.9092 46.0076C89.2426 46.0076 88.6692 46.1609 88.1892 46.4676C87.7092 46.761 87.3426 47.1943 87.0892 47.7676C86.8359 48.3276 86.7092 49.0076 86.7092 49.8076C86.7092 50.5943 86.8359 51.2743 87.0892 51.8476C87.3426 52.421 87.7092 52.861 88.1892 53.1676C88.6692 53.461 89.2426 53.6076 89.9092 53.6076C90.4292 53.6076 90.8759 53.5276 91.2492 53.3676C91.6359 53.2076 91.9492 52.9743 92.1892 52.6676C92.4426 52.361 92.6159 51.9876 92.7092 51.5476L94.1892 52.0676C93.9626 52.681 93.6492 53.2076 93.2492 53.6476C92.8626 54.0876 92.3892 54.4276 91.8292 54.6676C91.2826 54.8943 90.6559 55.0076 89.9492 55.0076C89.0159 55.0076 88.1826 54.801 87.4492 54.3876C86.7159 53.9743 86.1426 53.381 85.7292 52.6076C85.3159 51.821 85.1092 50.8876 85.1092 49.8076C85.1092 48.7276 85.3159 47.8009 85.7292 47.0276C86.1426 46.241 86.7159 45.641 87.4492 45.2276C88.1826 44.8143 89.0159 44.6076 89.9492 44.6076ZM101.141 44.6076C102.087 44.6076 102.921 44.8143 103.641 45.2276C104.374 45.641 104.947 46.241 105.361 47.0276C105.774 47.8009 105.981 48.7276 105.981 49.8076C105.981 50.8876 105.774 51.821 105.361 52.6076C104.947 53.381 104.374 53.9743 103.641 54.3876C102.921 54.801 102.087 55.0076 101.141 55.0076C100.207 55.0076 99.374 54.801 98.6406 54.3876C97.9073 53.9743 97.334 53.381 96.9206 52.6076C96.5073 51.821 96.3006 50.8876 96.3006 49.8076C96.3006 48.7276 96.5073 47.8009 96.9206 47.0276C97.334 46.241 97.9073 45.641 98.6406 45.2276C99.374 44.8143 100.207 44.6076 101.141 44.6076ZM101.141 45.9876C100.461 45.9876 99.8806 46.141 99.4006 46.4476C98.9206 46.7543 98.5473 47.1943 98.2806 47.7676C98.0273 48.3276 97.9006 49.0076 97.9006 49.8076C97.9006 50.5943 98.0273 51.2743 98.2806 51.8476C98.5473 52.421 98.9206 52.861 99.4006 53.1676C99.8806 53.4743 100.461 53.6276 101.141 53.6276C101.821 53.6276 102.401 53.4743 102.881 53.1676C103.361 52.861 103.727 52.421 103.981 51.8476C104.247 51.2743 104.381 50.5943 104.381 49.8076C104.381 49.0076 104.247 48.3276 103.981 47.7676C103.727 47.1943 103.361 46.7543 102.881 46.4476C102.401 46.141 101.821 45.9876 101.141 45.9876ZM108.993 54.8076V44.8076H110.393L110.533 47.0476L110.273 46.8276C110.486 46.2943 110.773 45.8676 111.133 45.5476C111.493 45.2143 111.906 44.9743 112.373 44.8276C112.853 44.6809 113.346 44.6076 113.853 44.6076C114.573 44.6076 115.226 44.7476 115.813 45.0276C116.399 45.2943 116.866 45.7076 117.213 46.2676C117.573 46.8276 117.753 47.541 117.753 48.4076V54.8076H116.153V48.9676C116.153 47.8609 115.913 47.0943 115.433 46.6676C114.966 46.2276 114.386 46.0076 113.693 46.0076C113.213 46.0076 112.733 46.121 112.253 46.3476C111.773 46.5743 111.373 46.941 111.053 47.4476C110.746 47.9543 110.593 48.6343 110.593 49.4876V54.8076H108.993ZM123.599 41.9676V52.0476C123.599 52.541 123.739 52.9076 124.019 53.1476C124.299 53.3876 124.659 53.5076 125.099 53.5076C125.486 53.5076 125.819 53.441 126.099 53.3076C126.379 53.1743 126.632 52.9943 126.859 52.7676L127.419 54.1076C127.112 54.3876 126.746 54.6076 126.319 54.7676C125.906 54.9276 125.426 55.0076 124.879 55.0076C124.372 55.0076 123.899 54.921 123.459 54.7476C123.019 54.561 122.666 54.2743 122.399 53.8876C122.146 53.4876 122.012 52.9676 121.999 52.3276V42.4076L123.599 41.9676ZM127.239 44.8076V46.1876H119.999V44.8076H127.239ZM129.618 54.8076V44.8076H130.918L131.138 46.4476C131.418 45.8343 131.824 45.3743 132.358 45.0676C132.904 44.7609 133.564 44.6076 134.338 44.6076C134.511 44.6076 134.698 44.6209 134.898 44.6476C135.111 44.6743 135.291 44.7276 135.438 44.8076L135.158 46.2676C135.011 46.2143 134.851 46.1743 134.678 46.1476C134.504 46.1209 134.258 46.1076 133.938 46.1076C133.524 46.1076 133.104 46.2276 132.678 46.4676C132.264 46.7076 131.918 47.0743 131.638 47.5676C131.358 48.0476 131.218 48.661 131.218 49.4076V54.8076H129.618ZM141.649 55.0076C140.703 55.0076 139.856 54.801 139.109 54.3876C138.376 53.9743 137.803 53.381 137.389 52.6076C136.976 51.821 136.769 50.8876 136.769 49.8076C136.769 48.7276 136.976 47.8009 137.389 47.0276C137.803 46.241 138.369 45.641 139.089 45.2276C139.809 44.8143 140.629 44.6076 141.549 44.6076C142.483 44.6076 143.276 44.8076 143.929 45.2076C144.596 45.6076 145.103 46.1543 145.449 46.8476C145.796 47.5276 145.969 48.2943 145.969 49.1476C145.969 49.3743 145.963 49.581 145.949 49.7676C145.936 49.9543 145.916 50.121 145.889 50.2676H137.809V48.8476H145.189L144.369 49.0076C144.369 48.0476 144.103 47.3076 143.569 46.7876C143.049 46.2676 142.363 46.0076 141.509 46.0076C140.856 46.0076 140.289 46.1609 139.809 46.4676C139.343 46.761 138.976 47.1943 138.709 47.7676C138.456 48.3276 138.329 49.0076 138.329 49.8076C138.329 50.5943 138.463 51.2743 138.729 51.8476C138.996 52.421 139.369 52.861 139.849 53.1676C140.343 53.461 140.929 53.6076 141.609 53.6076C142.343 53.6076 142.936 53.4676 143.389 53.1876C143.856 52.9076 144.229 52.5276 144.509 52.0476L145.769 52.7876C145.516 53.241 145.189 53.6343 144.789 53.9676C144.403 54.301 143.943 54.561 143.409 54.7476C142.889 54.921 142.303 55.0076 141.649 55.0076ZM149.012 54.8076V44.8076H150.312L150.532 46.4476C150.812 45.8343 151.219 45.3743 151.752 45.0676C152.299 44.7609 152.959 44.6076 153.732 44.6076C153.906 44.6076 154.092 44.6209 154.292 44.6476C154.506 44.6743 154.686 44.7276 154.832 44.8076L154.552 46.2676C154.406 46.2143 154.246 46.1743 154.072 46.1476C153.899 46.1209 153.652 46.1076 153.332 46.1076C152.919 46.1076 152.499 46.2276 152.072 46.4676C151.659 46.7076 151.312 47.0743 151.032 47.5676C150.752 48.0476 150.612 48.661 150.612 49.4076V54.8076H149.012Z" fill="#256864"/>
</svg>
