<svg width="152" height="123" viewBox="0 0 152 123" fill="none" xmlns="http://www.w3.org/2000/svg">
<g clip-path="url(#clip0_561_922)">
<path d="M0 0H151.941V123H0V0Z" fill="white"/>
<g clip-path="url(#clip1_561_922)">
<rect width="151.941" height="14.4706" fill="white"/>
<path d="M9.98869 5.77546C9.96557 5.58019 9.87179 5.4286 9.70735 5.32068C9.54291 5.21277 9.34122 5.15881 9.10227 5.15881C8.92755 5.15881 8.77468 5.18708 8.64364 5.2436C8.51389 5.30013 8.4124 5.37785 8.33917 5.47677C8.26723 5.57569 8.23126 5.6881 8.23126 5.814C8.23126 5.91934 8.25631 6.00991 8.30641 6.08571C8.3578 6.16022 8.42332 6.22253 8.50297 6.27263C8.58262 6.32145 8.66612 6.36191 8.75348 6.39403C8.84084 6.42486 8.92113 6.44991 8.99435 6.46918L9.39517 6.5771C9.49795 6.60407 9.61228 6.64133 9.73818 6.68886C9.86537 6.7364 9.98677 6.80127 10.1024 6.88349C10.2193 6.96443 10.3156 7.06848 10.3914 7.19567C10.4672 7.32285 10.5051 7.47894 10.5051 7.66393C10.5051 7.87719 10.4493 8.06989 10.3375 8.24204C10.227 8.41418 10.0651 8.551 9.85188 8.65249C9.6399 8.75398 9.38233 8.80472 9.07914 8.80472C8.79651 8.80472 8.55178 8.75912 8.34495 8.66791C8.1394 8.57669 7.97753 8.44951 7.85934 8.28636C7.74244 8.1232 7.67628 7.93371 7.66086 7.71789H8.15418C8.16702 7.86691 8.21713 7.99024 8.30448 8.08787C8.39313 8.18423 8.50489 8.25617 8.63978 8.3037C8.77596 8.34995 8.92241 8.37307 9.07914 8.37307C9.26157 8.37307 9.42536 8.34353 9.57053 8.28443C9.7157 8.22405 9.83068 8.14055 9.91547 8.03392C10.0003 7.92601 10.0427 7.80011 10.0427 7.65622C10.0427 7.52519 10.006 7.41856 9.93281 7.33634C9.85958 7.25412 9.76323 7.18732 9.64376 7.13593C9.52428 7.08454 9.39517 7.03958 9.25643 7.00104L8.77082 6.86229C8.4625 6.77365 8.21841 6.64711 8.03856 6.48267C7.8587 6.31823 7.76877 6.10305 7.76877 5.83712C7.76877 5.61616 7.82851 5.42346 7.94799 5.25902C8.06875 5.0933 8.23062 4.96483 8.43359 4.87362C8.63786 4.78112 8.86589 4.73487 9.11768 4.73487C9.37205 4.73487 9.59815 4.78048 9.79599 4.87169C9.99383 4.96162 10.1506 5.08494 10.2662 5.24168C10.3831 5.39841 10.4448 5.57633 10.4512 5.77546H9.98869ZM13.0946 7.52519V5.77546H13.5493V8.73535H13.0946V8.23433H13.0637C12.9944 8.38464 12.8864 8.51246 12.74 8.6178C12.5935 8.72186 12.4085 8.77389 12.185 8.77389C12 8.77389 11.8356 8.73342 11.6917 8.65249C11.5478 8.57027 11.4348 8.44694 11.3525 8.2825C11.2703 8.11678 11.2292 7.90802 11.2292 7.65622V5.77546H11.684V7.62539C11.684 7.84122 11.7444 8.01336 11.8651 8.14183C11.9872 8.2703 12.1426 8.33453 12.3315 8.33453C12.4445 8.33453 12.5595 8.30563 12.6764 8.24782C12.7946 8.19001 12.8935 8.10136 12.9732 7.98189C13.0541 7.86241 13.0946 7.71018 13.0946 7.52519Z" fill="#666666"/>
<path d="M28.5365 4.78883H29.1069L30.4481 8.06475H30.4943L31.8355 4.78883H32.4059V8.73535H31.9589V5.73692H31.9203L30.687 8.73535H30.2554L29.0221 5.73692H28.9836V8.73535H28.5365V4.78883ZM34.5049 8.79702C34.2377 8.79702 34.0033 8.73342 33.8016 8.60624C33.6012 8.47906 33.4444 8.30113 33.3314 8.07246C33.2196 7.84379 33.1637 7.57657 33.1637 7.27082C33.1637 6.9625 33.2196 6.69336 33.3314 6.4634C33.4444 6.23345 33.6012 6.05488 33.8016 5.92769C34.0033 5.80051 34.2377 5.73692 34.5049 5.73692C34.7721 5.73692 35.006 5.80051 35.2064 5.92769C35.4081 6.05488 35.5648 6.23345 35.6766 6.4634C35.7896 6.69336 35.8461 6.9625 35.8461 7.27082C35.8461 7.57657 35.7896 7.84379 35.6766 8.07246C35.5648 8.30113 35.4081 8.47906 35.2064 8.60624C35.006 8.73342 34.7721 8.79702 34.5049 8.79702ZM34.5049 8.38849C34.7079 8.38849 34.8749 8.33646 35.006 8.2324C35.137 8.12834 35.234 7.99152 35.2969 7.82195C35.3599 7.65237 35.3914 7.46866 35.3914 7.27082C35.3914 7.07298 35.3599 6.88863 35.2969 6.71777C35.234 6.54691 35.137 6.4088 35.006 6.30346C34.8749 6.19812 34.7079 6.14544 34.5049 6.14544C34.302 6.14544 34.1349 6.19812 34.0039 6.30346C33.8729 6.4088 33.7759 6.54691 33.7129 6.71777C33.65 6.88863 33.6185 7.07298 33.6185 7.27082C33.6185 7.46866 33.65 7.65237 33.7129 7.82195C33.7759 7.99152 33.8729 8.12834 34.0039 8.2324C34.1349 8.33646 34.302 8.38849 34.5049 8.38849Z" fill="#666666"/>
<path d="M51.0267 5.21277V4.78883H53.9866V5.21277H52.7456V8.73535H52.2677V5.21277H51.0267ZM56.1251 7.52519V5.77546H56.5799V8.73535H56.1251V8.23433H56.0943C56.0249 8.38464 55.917 8.51246 55.7705 8.6178C55.6241 8.72186 55.4391 8.77389 55.2156 8.77389C55.0306 8.77389 54.8661 8.73342 54.7223 8.65249C54.5784 8.57027 54.4653 8.44694 54.3831 8.2825C54.3009 8.11678 54.2598 7.90802 54.2598 7.65622V5.77546H54.7145V7.62539C54.7145 7.84122 54.7749 8.01336 54.8957 8.14183C55.0177 8.2703 55.1732 8.33453 55.362 8.33453C55.4751 8.33453 55.5901 8.30563 55.707 8.24782C55.8251 8.19001 55.9241 8.10136 56.0037 7.98189C56.0847 7.86241 56.1251 7.71018 56.1251 7.52519Z" fill="#666666"/>
<path d="M72.6645 8.73535L71.5853 4.78883H72.071L72.8957 8.00309H72.9343L73.7744 4.78883H74.314L75.1542 8.00309H75.1927L76.0175 4.78883H76.5031L75.424 8.73535H74.9306L74.0596 5.59046H74.0288L73.1578 8.73535H72.6645ZM78.0023 8.79702C77.7171 8.79702 77.4711 8.73407 77.2643 8.60817C77.0587 8.48099 76.9001 8.3037 76.7883 8.07631C76.6778 7.84764 76.6226 7.58171 76.6226 7.27853C76.6226 6.97535 76.6778 6.70813 76.7883 6.47689C76.9001 6.24437 77.0555 6.06323 77.2546 5.93347C77.455 5.80244 77.6888 5.73692 77.9561 5.73692C78.1102 5.73692 78.2625 5.76261 78.4128 5.814C78.5631 5.86539 78.6999 5.94889 78.8232 6.06451C78.9465 6.17885 79.0448 6.33044 79.118 6.51929C79.1913 6.70813 79.2279 6.94066 79.2279 7.21686V7.40957H76.9463V7.01646H78.7654C78.7654 6.84945 78.732 6.70042 78.6652 6.56939C78.5997 6.43835 78.5059 6.33493 78.3839 6.25914C78.2631 6.18334 78.1205 6.14544 77.9561 6.14544C77.7749 6.14544 77.6182 6.19041 77.4859 6.28034C77.3548 6.36898 77.254 6.4846 77.1833 6.6272C77.1127 6.7698 77.0773 6.92267 77.0773 7.08583V7.3479C77.0773 7.57144 77.1159 7.76092 77.193 7.91637C77.2713 8.07053 77.3799 8.18808 77.5186 8.26901C77.6574 8.34866 77.8186 8.38849 78.0023 8.38849C78.1218 8.38849 78.2297 8.37179 78.326 8.33839C78.4237 8.3037 78.5078 8.25231 78.5785 8.18423C78.6491 8.11485 78.7037 8.02878 78.7423 7.92601L79.1816 8.04933C79.1354 8.19836 79.0577 8.32939 78.9485 8.44245C78.8393 8.55421 78.7044 8.64157 78.5438 8.70452C78.3832 8.76618 78.2027 8.79702 78.0023 8.79702Z" fill="#666666"/>
<path d="M94.4379 5.21277V4.78883H97.3977V5.21277H96.1568V8.73535H95.6789V5.21277H94.4379ZM98.5284 6.95479V8.73535H98.0736V4.78883H98.5284V6.23794H98.567C98.6363 6.08507 98.7404 5.96366 98.8791 5.87374C99.0192 5.78252 99.2054 5.73692 99.438 5.73692C99.6397 5.73692 99.8163 5.77739 99.9679 5.85832C100.119 5.93797 100.237 6.06066 100.321 6.22638C100.405 6.39082 100.448 6.60022 100.448 6.85459V8.73535H99.993V6.88542C99.993 6.65032 99.9319 6.46854 99.8099 6.34007C99.6891 6.21032 99.5215 6.14544 99.3069 6.14544C99.1579 6.14544 99.0243 6.17692 98.9061 6.23987C98.7892 6.30282 98.6967 6.39467 98.6286 6.51543C98.5618 6.63619 98.5284 6.78264 98.5284 6.95479Z" fill="#666666"/>
<path d="M116.644 5.21277V4.78883H119.604V5.21277H118.363V8.73535H117.885V5.21277H116.644ZM119.972 8.73535V5.77546H120.412V6.22253H120.443C120.496 6.07607 120.594 5.95724 120.735 5.86603C120.877 5.77482 121.036 5.72921 121.213 5.72921C121.247 5.72921 121.288 5.72985 121.339 5.73114C121.389 5.73242 121.427 5.73435 121.452 5.73692V6.1994C121.437 6.19555 121.402 6.18977 121.346 6.18206C121.292 6.17307 121.235 6.16857 121.175 6.16857C121.031 6.16857 120.902 6.19876 120.789 6.25914C120.678 6.31823 120.589 6.40045 120.523 6.5058C120.459 6.60986 120.427 6.72869 120.427 6.86229V8.73535H119.972Z" fill="#666666"/>
<path d="M140.224 5.77546C140.201 5.58019 140.107 5.4286 139.943 5.32068C139.778 5.21277 139.577 5.15881 139.338 5.15881C139.163 5.15881 139.01 5.18708 138.879 5.2436C138.749 5.30013 138.648 5.37785 138.575 5.47677C138.503 5.57569 138.467 5.6881 138.467 5.814C138.467 5.91934 138.492 6.00991 138.542 6.08571C138.593 6.16022 138.659 6.22253 138.738 6.27263C138.818 6.32145 138.901 6.36191 138.989 6.39403C139.076 6.42486 139.156 6.44991 139.23 6.46918L139.631 6.5771C139.733 6.60407 139.848 6.64133 139.974 6.68886C140.101 6.7364 140.222 6.80127 140.338 6.88349C140.455 6.96443 140.551 7.06848 140.627 7.19567C140.703 7.32285 140.74 7.47894 140.74 7.66393C140.74 7.87719 140.685 8.06989 140.573 8.24204C140.462 8.41418 140.3 8.551 140.087 8.65249C139.875 8.75398 139.618 8.80472 139.314 8.80472C139.032 8.80472 138.787 8.75912 138.58 8.66791C138.375 8.57669 138.213 8.44951 138.095 8.28636C137.978 8.1232 137.912 7.93371 137.896 7.71789H138.39C138.402 7.86691 138.452 7.99024 138.54 8.08787C138.628 8.18423 138.74 8.25617 138.875 8.3037C139.011 8.34995 139.158 8.37307 139.314 8.37307C139.497 8.37307 139.661 8.34353 139.806 8.28443C139.951 8.22405 140.066 8.14055 140.151 8.03392C140.236 7.92601 140.278 7.80011 140.278 7.65622C140.278 7.52519 140.241 7.41856 140.168 7.33634C140.095 7.25412 139.999 7.18732 139.879 7.13593C139.76 7.08454 139.631 7.03958 139.492 7.00104L139.006 6.86229C138.698 6.77365 138.454 6.64711 138.274 6.48267C138.094 6.31823 138.004 6.10305 138.004 5.83712C138.004 5.61616 138.064 5.42346 138.183 5.25902C138.304 5.0933 138.466 4.96483 138.669 4.87362C138.873 4.78112 139.101 4.73487 139.353 4.73487C139.607 4.73487 139.834 4.78048 140.031 4.87169C140.229 4.96162 140.386 5.08494 140.502 5.24168C140.618 5.39841 140.68 5.57633 140.687 5.77546H140.224ZM142.336 8.80472C142.148 8.80472 141.978 8.7694 141.825 8.69874C141.672 8.6268 141.551 8.52338 141.461 8.38849C141.371 8.25231 141.326 8.08787 141.326 7.89517C141.326 7.7256 141.359 7.58814 141.426 7.48279C141.493 7.37616 141.582 7.29266 141.694 7.23228C141.806 7.1719 141.929 7.12694 142.064 7.09739C142.2 7.06656 142.337 7.04215 142.474 7.02416C142.654 7.00104 142.8 6.9837 142.912 6.97213C143.025 6.95929 143.107 6.93809 143.158 6.90854C143.211 6.87899 143.237 6.82761 143.237 6.75438V6.73897C143.237 6.54883 143.185 6.4011 143.081 6.29575C142.979 6.19041 142.822 6.13774 142.613 6.13774C142.396 6.13774 142.226 6.18527 142.102 6.28034C141.979 6.3754 141.892 6.47689 141.842 6.5848L141.411 6.43064C141.488 6.25079 141.59 6.11076 141.719 6.01055C141.849 5.90906 141.99 5.83841 142.143 5.79858C142.297 5.75747 142.449 5.73692 142.598 5.73692C142.693 5.73692 142.802 5.74848 142.925 5.7716C143.05 5.79344 143.17 5.83905 143.286 5.90842C143.402 5.97779 143.499 6.0825 143.577 6.22253C143.654 6.36256 143.692 6.55012 143.692 6.78521V8.73535H143.237V8.33453H143.214C143.183 8.39877 143.132 8.4675 143.06 8.54072C142.988 8.61395 142.892 8.67626 142.773 8.72764C142.654 8.77903 142.508 8.80472 142.336 8.80472ZM142.405 8.3962C142.585 8.3962 142.736 8.36087 142.86 8.29021C142.984 8.21955 143.078 8.12834 143.141 8.01658C143.205 7.90481 143.237 7.78726 143.237 7.66393V7.2477C143.218 7.27082 143.176 7.29202 143.11 7.31129C143.046 7.32927 142.971 7.34533 142.887 7.35946C142.803 7.37231 142.722 7.38387 142.642 7.39415C142.564 7.40314 142.5 7.41085 142.451 7.41727C142.333 7.43269 142.223 7.45774 142.12 7.49243C142.018 7.52583 141.936 7.57657 141.873 7.64466C141.811 7.71146 141.781 7.80268 141.781 7.9183C141.781 8.07631 141.839 8.19579 141.956 8.27672C142.074 8.35637 142.224 8.3962 142.405 8.3962Z" fill="#666666"/>
</g>
<g clip-path="url(#clip2_561_922)">
<rect width="151.941" height="21.7059" transform="translate(0 14.4706)" fill="white"/>
<path d="M7.32915 27.3235V26.9188L8.84893 25.2552C9.02728 25.0603 9.17416 24.891 9.28957 24.7471C9.40498 24.6017 9.49041 24.4653 9.54586 24.3379C9.60282 24.209 9.63129 24.0741 9.63129 23.9332C9.63129 23.7714 9.59232 23.6312 9.51439 23.5128C9.43795 23.3944 9.33303 23.303 9.19964 23.2385C9.06625 23.1741 8.91637 23.1419 8.75001 23.1419C8.57315 23.1419 8.41877 23.1786 8.28688 23.252C8.15649 23.324 8.05532 23.4251 7.98338 23.5555C7.91293 23.6859 7.87771 23.8388 7.87771 24.0142H7.34714C7.34714 23.7444 7.40934 23.5076 7.53374 23.3037C7.65814 23.0999 7.8275 22.941 8.04183 22.8271C8.25765 22.7132 8.49971 22.6563 8.76799 22.6563C9.03777 22.6563 9.27683 22.7132 9.48516 22.8271C9.69349 22.941 9.85686 23.0947 9.97526 23.288C10.0937 23.4813 10.1529 23.6964 10.1529 23.9332C10.1529 24.1026 10.1221 24.2682 10.0607 24.4301C10.0007 24.5904 9.89583 24.7696 9.74595 24.9674C9.59757 25.1637 9.39149 25.4035 9.1277 25.6868L8.09354 26.7929V26.8289H10.2338V27.3235H7.32915ZM12.6371 27.3864C12.3284 27.3864 12.0556 27.3317 11.8188 27.2223C11.5835 27.1114 11.3999 26.9593 11.268 26.7659C11.1361 26.5711 11.0709 26.3493 11.0724 26.1005C11.0709 25.9056 11.1091 25.7258 11.187 25.5609C11.265 25.3945 11.3714 25.2559 11.5063 25.145C11.6427 25.0326 11.7948 24.9614 11.9627 24.9314V24.9044C11.7423 24.8475 11.567 24.7238 11.4366 24.5335C11.3062 24.3416 11.2417 24.1236 11.2432 23.8793C11.2417 23.6455 11.3009 23.4364 11.4208 23.252C11.5407 23.0677 11.7056 22.9223 11.9154 22.8159C12.1268 22.7095 12.3673 22.6563 12.6371 22.6563C12.9039 22.6563 13.1422 22.7095 13.352 22.8159C13.5619 22.9223 13.7267 23.0677 13.8466 23.252C13.968 23.4364 14.0295 23.6455 14.031 23.8793C14.0295 24.1236 13.9628 24.3416 13.8309 24.5335C13.7005 24.7238 13.5274 24.8475 13.3116 24.9044V24.9314C13.4779 24.9614 13.6278 25.0326 13.7612 25.145C13.8946 25.2559 14.001 25.3945 14.0804 25.5609C14.1599 25.7258 14.2003 25.9056 14.2018 26.1005C14.2003 26.3493 14.1329 26.5711 13.9995 26.7659C13.8676 26.9593 13.684 27.1114 13.4487 27.2223C13.2149 27.3317 12.9444 27.3864 12.6371 27.3864ZM12.6371 26.8918C12.8454 26.8918 13.0253 26.8581 13.1767 26.7907C13.3281 26.7232 13.445 26.628 13.5274 26.5051C13.6098 26.3822 13.6518 26.2384 13.6533 26.0735C13.6518 25.8996 13.6068 25.746 13.5184 25.6126C13.43 25.4792 13.3093 25.3743 13.1564 25.2979C13.0051 25.2214 12.832 25.1832 12.6371 25.1832C12.4408 25.1832 12.2654 25.2214 12.111 25.2979C11.9582 25.3743 11.8375 25.4792 11.7491 25.6126C11.6622 25.746 11.6194 25.8996 11.6209 26.0735C11.6194 26.2384 11.6592 26.3822 11.7401 26.5051C11.8225 26.628 11.9402 26.7232 12.0931 26.7907C12.2459 26.8581 12.4273 26.8918 12.6371 26.8918ZM12.6371 24.7066C12.802 24.7066 12.9481 24.6736 13.0755 24.6077C13.2044 24.5417 13.3056 24.4496 13.379 24.3312C13.4525 24.2128 13.4899 24.0741 13.4914 23.9152C13.4899 23.7594 13.4532 23.6237 13.3813 23.5083C13.3093 23.3914 13.2097 23.3015 13.0823 23.2385C12.9549 23.1741 12.8065 23.1419 12.6371 23.1419C12.4648 23.1419 12.3141 23.1741 12.1852 23.2385C12.0563 23.3015 11.9567 23.3914 11.8862 23.5083C11.8158 23.6237 11.7813 23.7594 11.7828 23.9152C11.7813 24.0741 11.8165 24.2128 11.8885 24.3312C11.9619 24.4496 12.0631 24.5417 12.192 24.6077C12.3209 24.6736 12.4692 24.7066 12.6371 24.7066Z" fill="#AAAAAA"/>
<path d="M29.0352 27.3235V26.9188L30.555 25.2552C30.7333 25.0603 30.8802 24.891 30.9956 24.7471C31.111 24.6017 31.1965 24.4653 31.2519 24.3379C31.3089 24.209 31.3373 24.0741 31.3373 23.9332C31.3373 23.7714 31.2984 23.6312 31.2204 23.5128C31.144 23.3944 31.0391 23.303 30.9057 23.2385C30.7723 23.1741 30.6224 23.1419 30.4561 23.1419C30.2792 23.1419 30.1248 23.1786 29.9929 23.252C29.8625 23.324 29.7614 23.4251 29.6894 23.5555C29.619 23.6859 29.5838 23.8388 29.5838 24.0142H29.0532C29.0532 23.7444 29.1154 23.5076 29.2398 23.3037C29.3642 23.0999 29.5336 22.941 29.7479 22.8271C29.9637 22.7132 30.2058 22.6563 30.474 22.6563C30.7438 22.6563 30.9829 22.7132 31.1912 22.8271C31.3995 22.941 31.5629 23.0947 31.6813 23.288C31.7997 23.4813 31.8589 23.6964 31.8589 23.9332C31.8589 24.1026 31.8282 24.2682 31.7668 24.4301C31.7068 24.5904 31.6019 24.7696 31.452 24.9674C31.3036 25.1637 31.0975 25.4035 30.8338 25.6868L29.7996 26.7929V26.8289H31.9399V27.3235H29.0352ZM34.3342 22.6563C34.523 22.6578 34.7119 22.6937 34.9007 22.7642C35.0896 22.8346 35.2619 22.9515 35.4178 23.1149C35.5737 23.2768 35.6988 23.4978 35.7932 23.7781C35.8877 24.0584 35.9349 24.4098 35.9349 24.8325C35.9349 25.2417 35.8959 25.6051 35.818 25.9229C35.7415 26.2391 35.6306 26.5059 35.4852 26.7232C35.3414 26.9405 35.166 27.1054 34.9592 27.2178C34.7538 27.3302 34.5215 27.3864 34.2622 27.3864C34.0044 27.3864 33.7744 27.3355 33.572 27.2336C33.3712 27.1301 33.2063 26.987 33.0774 26.8042C32.95 26.6198 32.8684 26.4062 32.8324 26.1634H33.3809C33.4304 26.3748 33.5286 26.5494 33.6755 26.6873C33.8238 26.8236 34.0194 26.8918 34.2622 26.8918C34.6174 26.8918 34.8977 26.7367 35.1031 26.4265C35.3099 26.1162 35.4133 25.6778 35.4133 25.1113H35.3773C35.2934 25.2372 35.1937 25.3458 35.0783 25.4373C34.9629 25.5287 34.8348 25.5991 34.6939 25.6486C34.553 25.6981 34.4031 25.7228 34.2442 25.7228C33.9805 25.7228 33.7384 25.6576 33.5181 25.5272C33.2993 25.3953 33.1239 25.2147 32.992 24.9854C32.8616 24.7546 32.7964 24.4908 32.7964 24.194C32.7964 23.9122 32.8594 23.6545 32.9853 23.4206C33.1127 23.1853 33.291 22.998 33.5203 22.8586C33.7511 22.7192 34.0224 22.6518 34.3342 22.6563ZM34.3342 23.1509C34.1453 23.1509 33.9752 23.1981 33.8238 23.2925C33.674 23.3854 33.5548 23.5113 33.4664 23.6702C33.3794 23.8276 33.336 24.0022 33.336 24.194C33.336 24.3859 33.3779 24.5605 33.4619 24.7178C33.5473 24.8737 33.6635 24.9981 33.8103 25.091C33.9587 25.1825 34.1273 25.2282 34.3162 25.2282C34.4586 25.2282 34.5912 25.2005 34.7141 25.145C34.837 25.088 34.9442 25.0109 35.0356 24.9134C35.1285 24.8145 35.2012 24.7029 35.2537 24.5785C35.3061 24.4526 35.3324 24.3214 35.3324 24.185C35.3324 24.0052 35.2889 23.8366 35.202 23.6792C35.1165 23.5218 34.9981 23.3944 34.8468 23.297C34.6969 23.1996 34.526 23.1509 34.3342 23.1509Z" fill="#AAAAAA"/>
<path d="M52.297 27.3864C52.0002 27.3864 51.7357 27.3355 51.5034 27.2336C51.2726 27.1316 51.089 26.99 50.9526 26.8087C50.8177 26.6258 50.7443 26.4137 50.7323 26.1724H51.2988C51.3108 26.3208 51.3618 26.4489 51.4517 26.5569C51.5416 26.6633 51.6593 26.7457 51.8047 26.8042C51.95 26.8626 52.1112 26.8918 52.288 26.8918C52.4859 26.8918 52.6612 26.8574 52.8141 26.7884C52.967 26.7195 53.0869 26.6236 53.1738 26.5007C53.2607 26.3778 53.3042 26.2354 53.3042 26.0735C53.3042 25.9041 53.2622 25.755 53.1783 25.6261C53.0944 25.4957 52.9715 25.3938 52.8096 25.3204C52.6477 25.2469 52.4499 25.2102 52.2161 25.2102H51.8474V24.7156H52.2161C52.3989 24.7156 52.5593 24.6826 52.6972 24.6167C52.8366 24.5507 52.9452 24.4578 53.0232 24.3379C53.1026 24.218 53.1423 24.0771 53.1423 23.9152C53.1423 23.7594 53.1079 23.6237 53.0389 23.5083C52.97 23.3929 52.8725 23.303 52.7466 23.2385C52.6222 23.1741 52.4754 23.1419 52.306 23.1419C52.1471 23.1419 51.9972 23.1711 51.8564 23.2295C51.717 23.2865 51.6031 23.3697 51.5146 23.4791C51.4262 23.587 51.3782 23.7174 51.3708 23.8703H50.8312C50.8402 23.629 50.9129 23.4176 51.0493 23.2363C51.1857 23.0534 51.364 22.9111 51.5843 22.8091C51.8062 22.7072 52.0497 22.6563 52.315 22.6563C52.5998 22.6563 52.8441 22.714 53.0479 22.8294C53.2517 22.9433 53.4084 23.0939 53.5178 23.2813C53.6272 23.4686 53.6819 23.6709 53.6819 23.8883C53.6819 24.1476 53.6137 24.3686 53.4773 24.5515C53.3424 24.7343 53.1588 24.861 52.9265 24.9314V24.9674C53.2173 25.0154 53.4443 25.139 53.6077 25.3383C53.7711 25.5362 53.8527 25.7812 53.8527 26.0735C53.8527 26.3238 53.7846 26.5486 53.6482 26.748C53.5133 26.9458 53.3289 27.1017 53.0951 27.2156C52.8613 27.3295 52.5953 27.3864 52.297 27.3864ZM56.274 27.3864C55.9353 27.3864 55.6468 27.2943 55.4085 27.1099C55.1702 26.9241 54.9881 26.655 54.8622 26.3028C54.7363 25.9491 54.6733 25.5219 54.6733 25.0213C54.6733 24.5237 54.7363 24.0988 54.8622 23.7466C54.9896 23.3929 55.1724 23.1231 55.4107 22.9373C55.6505 22.7499 55.9383 22.6563 56.274 22.6563C56.6098 22.6563 56.8968 22.7499 57.1351 22.9373C57.3749 23.1231 57.5578 23.3929 57.6837 23.7466C57.811 24.0988 57.8747 24.5237 57.8747 25.0213C57.8747 25.5219 57.8118 25.9491 57.6859 26.3028C57.56 26.655 57.3779 26.9241 57.1396 27.1099C56.9013 27.2943 56.6128 27.3864 56.274 27.3864ZM56.274 26.8918C56.6098 26.8918 56.8706 26.73 57.0564 26.4062C57.2423 26.0825 57.3352 25.6209 57.3352 25.0213C57.3352 24.6227 57.2925 24.2832 57.207 24.0029C57.1231 23.7226 57.0017 23.5091 56.8428 23.3622C56.6855 23.2153 56.4959 23.1419 56.274 23.1419C55.9413 23.1419 55.6813 23.306 55.4939 23.6342C55.3066 23.961 55.2129 24.4233 55.2129 25.0213C55.2129 25.42 55.2549 25.7588 55.3388 26.0375C55.4227 26.3163 55.5434 26.5284 55.7008 26.6738C55.8596 26.8191 56.0507 26.8918 56.274 26.8918Z" fill="#AAAAAA"/>
<path d="M74.5021 27.3864C74.2053 27.3864 73.9408 27.3355 73.7085 27.2336C73.4777 27.1316 73.2941 26.99 73.1577 26.8087C73.0228 26.6258 72.9493 26.4137 72.9373 26.1724H73.5039C73.5159 26.3208 73.5668 26.4489 73.6568 26.5569C73.7467 26.6633 73.8643 26.7457 74.0097 26.8042C74.1551 26.8626 74.3162 26.8918 74.4931 26.8918C74.6909 26.8918 74.8663 26.8574 75.0192 26.7884C75.172 26.7195 75.2919 26.6236 75.3789 26.5007C75.4658 26.3778 75.5093 26.2354 75.5093 26.0735C75.5093 25.9041 75.4673 25.755 75.3834 25.6261C75.2994 25.4957 75.1765 25.3938 75.0147 25.3204C74.8528 25.2469 74.655 25.2102 74.4211 25.2102H74.0524V24.7156H74.4211C74.604 24.7156 74.7644 24.6826 74.9023 24.6167C75.0416 24.5507 75.1503 24.4578 75.2282 24.3379C75.3077 24.218 75.3474 24.0771 75.3474 23.9152C75.3474 23.7594 75.3129 23.6237 75.244 23.5083C75.175 23.3929 75.0776 23.303 74.9517 23.2385C74.8273 23.1741 74.6804 23.1419 74.5111 23.1419C74.3522 23.1419 74.2023 23.1711 74.0614 23.2295C73.9221 23.2865 73.8081 23.3697 73.7197 23.4791C73.6313 23.587 73.5833 23.7174 73.5758 23.8703H73.0363C73.0453 23.629 73.118 23.4176 73.2543 23.2363C73.3907 23.0534 73.5691 22.9111 73.7894 22.8091C74.0112 22.7072 74.2548 22.6563 74.5201 22.6563C74.8048 22.6563 75.0491 22.714 75.253 22.8294C75.4568 22.9433 75.6134 23.0939 75.7228 23.2813C75.8323 23.4686 75.887 23.6709 75.887 23.8883C75.887 24.1476 75.8188 24.3686 75.6824 24.5515C75.5475 24.7343 75.3639 24.861 75.1316 24.9314V24.9674C75.4223 25.0154 75.6494 25.139 75.8128 25.3383C75.9761 25.5362 76.0578 25.7812 76.0578 26.0735C76.0578 26.3238 75.9896 26.5486 75.8532 26.748C75.7184 26.9458 75.534 27.1017 75.3002 27.2156C75.0664 27.3295 74.8003 27.3864 74.5021 27.3864ZM78.596 22.7192V27.3235H78.0385V23.3037H78.0115L76.8874 24.0501V23.4836L78.0385 22.7192H78.596Z" fill="#AAAAAA"/>
<path d="M98.2711 22.7192V27.3235H97.7135V23.3037H97.6866L96.5625 24.0501V23.4836L97.7135 22.7192H98.2711Z" fill="#163A53"/>
<path d="M117.858 27.3235V26.9188L119.378 25.2552C119.557 25.0603 119.703 24.891 119.819 24.7471C119.934 24.6017 120.02 24.4653 120.075 24.3379C120.132 24.209 120.161 24.0741 120.161 23.9332C120.161 23.7714 120.122 23.6312 120.044 23.5128C119.967 23.3944 119.862 23.303 119.729 23.2385C119.596 23.1741 119.446 23.1419 119.279 23.1419C119.102 23.1419 118.948 23.1786 118.816 23.252C118.686 23.324 118.585 23.4251 118.513 23.5555C118.442 23.6859 118.407 23.8388 118.407 24.0142H117.876C117.876 23.7444 117.939 23.5076 118.063 23.3037C118.187 23.0999 118.357 22.941 118.571 22.8271C118.787 22.7132 119.029 22.6563 119.297 22.6563C119.567 22.6563 119.806 22.7132 120.014 22.8271C120.223 22.941 120.386 23.0947 120.505 23.288C120.623 23.4813 120.682 23.6964 120.682 23.9332C120.682 24.1026 120.651 24.2682 120.59 24.4301C120.53 24.5904 120.425 24.7696 120.275 24.9674C120.127 25.1637 119.921 25.4035 119.657 25.6868L118.623 26.7929V26.8289H120.763V27.3235H117.858Z" fill="#163A53"/>
<path d="M140.62 27.3864C140.323 27.3864 140.059 27.3355 139.827 27.2336C139.596 27.1316 139.412 26.99 139.276 26.8087C139.141 26.6258 139.068 26.4137 139.056 26.1724H139.622C139.634 26.3208 139.685 26.4489 139.775 26.5569C139.865 26.6633 139.983 26.7457 140.128 26.8042C140.273 26.8626 140.434 26.8918 140.611 26.8918C140.809 26.8918 140.984 26.8574 141.137 26.7884C141.29 26.7195 141.41 26.6236 141.497 26.5007C141.584 26.3778 141.627 26.2354 141.627 26.0735C141.627 25.9041 141.585 25.755 141.502 25.6261C141.418 25.4957 141.295 25.3938 141.133 25.3204C140.971 25.2469 140.773 25.2102 140.539 25.2102H140.171V24.7156H140.539C140.722 24.7156 140.883 24.6826 141.02 24.6167C141.16 24.5507 141.268 24.4578 141.346 24.3379C141.426 24.218 141.466 24.0771 141.466 23.9152C141.466 23.7594 141.431 23.6237 141.362 23.5083C141.293 23.3929 141.196 23.303 141.07 23.2385C140.945 23.1741 140.799 23.1419 140.629 23.1419C140.47 23.1419 140.32 23.1711 140.18 23.2295C140.04 23.2865 139.926 23.3697 139.838 23.4791C139.749 23.587 139.701 23.7174 139.694 23.8703H139.154C139.163 23.629 139.236 23.4176 139.373 23.2363C139.509 23.0534 139.687 22.9111 139.908 22.8091C140.129 22.7072 140.373 22.6563 140.638 22.6563C140.923 22.6563 141.167 22.714 141.371 22.8294C141.575 22.9433 141.732 23.0939 141.841 23.2813C141.95 23.4686 142.005 23.6709 142.005 23.8883C142.005 24.1476 141.937 24.3686 141.801 24.5515C141.666 24.7343 141.482 24.861 141.25 24.9314V24.9674C141.541 25.0154 141.768 25.139 141.931 25.3383C142.094 25.5362 142.176 25.7812 142.176 26.0735C142.176 26.3238 142.108 26.5486 141.971 26.748C141.837 26.9458 141.652 27.1017 141.418 27.2156C141.185 27.3295 140.919 27.3864 140.62 27.3864Z" fill="#163A53"/>
</g>
<g clip-path="url(#clip3_561_922)">
<rect width="151.941" height="21.7059" transform="translate(0 36.1765)" fill="white"/>
<path d="M8.72124 48.0852V47.6266L10.7446 44.4251H11.0773V45.1356H10.8525L9.32375 47.5546V47.5906H12.0486V48.0852H8.72124ZM10.8885 49.0294V47.9458V47.7322V44.4251H11.4191V49.0294H10.8885Z" fill="#163A53"/>
<path d="M32.474 49.0924C32.2103 49.0924 31.9727 49.0399 31.7614 48.935C31.55 48.8301 31.3807 48.6862 31.2533 48.5033C31.1259 48.3205 31.0562 48.1122 31.0442 47.8783H31.5838C31.6047 48.0867 31.6992 48.259 31.867 48.3954C32.0364 48.5303 32.2387 48.5978 32.474 48.5978C32.6629 48.5978 32.8308 48.5536 32.9776 48.4651C33.126 48.3767 33.2422 48.2553 33.3261 48.1009C33.4115 47.945 33.4543 47.7689 33.4543 47.5726C33.4543 47.3718 33.41 47.1927 33.3216 47.0353C33.2347 46.8764 33.1148 46.7513 32.9619 46.6598C32.809 46.5684 32.6344 46.5219 32.4381 46.5204C32.2972 46.5189 32.1526 46.5407 32.0042 46.5856C31.8558 46.6291 31.7336 46.6853 31.6377 46.7543L31.1161 46.6913L31.3949 44.4251H33.787V44.9197H31.8625L31.7007 46.2776H31.7276C31.8221 46.2027 31.9405 46.1405 32.0829 46.091C32.2252 46.0416 32.3736 46.0169 32.528 46.0169C32.8098 46.0169 33.0608 46.0843 33.2811 46.2192C33.503 46.3526 33.6768 46.5354 33.8027 46.7677C33.9301 47.0001 33.9938 47.2653 33.9938 47.5636C33.9938 47.8574 33.9279 48.1197 33.796 48.3505C33.6656 48.5798 33.4857 48.7611 33.2564 48.8945C33.0271 49.0264 32.7663 49.0924 32.474 49.0924Z" fill="#163A53"/>
<path d="M54.27 49.0924C54.0812 49.0894 53.8923 49.0534 53.7035 48.9845C53.5146 48.9155 53.3423 48.7994 53.1864 48.636C53.0305 48.4711 52.9054 48.2486 52.811 47.9683C52.7165 47.6865 52.6693 47.3328 52.6693 46.9071C52.6693 46.4995 52.7075 46.1383 52.784 45.8235C52.8604 45.5073 52.9713 45.2412 53.1167 45.0254C53.2621 44.8081 53.4375 44.6432 53.6428 44.5308C53.8496 44.4184 54.0827 44.3622 54.342 44.3622C54.5998 44.3622 54.8291 44.4139 55.0299 44.5173C55.2322 44.6192 55.3971 44.7616 55.5245 44.9445C55.6519 45.1273 55.7343 45.3379 55.7718 45.5762H55.2233C55.1723 45.3694 55.0734 45.1978 54.9265 45.0614C54.7796 44.925 54.5848 44.8568 54.342 44.8568C53.9853 44.8568 53.7042 45.0119 53.4989 45.3222C53.2951 45.6324 53.1924 46.0678 53.1909 46.6284H53.2269C53.3108 46.501 53.4105 46.3923 53.5259 46.3024C53.6428 46.2109 53.7717 46.1405 53.9126 46.091C54.0535 46.0416 54.2026 46.0169 54.36 46.0169C54.6237 46.0169 54.865 46.0828 55.0839 46.2147C55.3027 46.3451 55.4781 46.5257 55.6099 46.7565C55.7418 46.9858 55.8078 47.2489 55.8078 47.5456C55.8078 47.8304 55.7441 48.0912 55.6167 48.328C55.4893 48.5633 55.3102 48.7506 55.0794 48.89C54.8501 49.0279 54.5803 49.0954 54.27 49.0924ZM54.27 48.5978C54.4589 48.5978 54.6282 48.5506 54.7781 48.4561C54.9295 48.3617 55.0486 48.2351 55.1356 48.0762C55.224 47.9173 55.2682 47.7405 55.2682 47.5456C55.2682 47.3553 55.2255 47.1822 55.1401 47.0263C55.0561 46.8689 54.94 46.7438 54.7916 46.6508C54.6447 46.5579 54.4769 46.5115 54.288 46.5115C54.1456 46.5115 54.013 46.5399 53.8901 46.5969C53.7672 46.6523 53.6593 46.7288 53.5663 46.8262C53.4749 46.9236 53.403 47.0353 53.3505 47.1612C53.2981 47.2856 53.2718 47.4167 53.2718 47.5546C53.2718 47.7375 53.3145 47.9083 53.4 48.0672C53.4869 48.2261 53.6053 48.3542 53.7552 48.4516C53.9066 48.5491 54.0782 48.5978 54.27 48.5978Z" fill="#163A53"/>
<path d="M74.5902 49.0294L76.6496 44.9557V44.9197H74.2755V44.4251H77.2251V44.9467L75.1748 49.0294H74.5902Z" fill="#163A53"/>
<path d="M97.6272 49.0924C97.3185 49.0924 97.0457 49.0377 96.8089 48.9283C96.5736 48.8173 96.39 48.6652 96.2581 48.4719C96.1262 48.277 96.061 48.0552 96.0625 47.8064C96.061 47.6116 96.0992 47.4317 96.1771 47.2668C96.2551 47.1005 96.3615 46.9618 96.4964 46.8509C96.6328 46.7385 96.7849 46.6673 96.9527 46.6374V46.6104C96.7324 46.5534 96.5571 46.4298 96.4267 46.2394C96.2963 46.0476 96.2318 45.8295 96.2333 45.5852C96.2318 45.3514 96.291 45.1423 96.4109 44.958C96.5308 44.7736 96.6957 44.6282 96.9055 44.5218C97.1169 44.4154 97.3574 44.3622 97.6272 44.3622C97.894 44.3622 98.1323 44.4154 98.3421 44.5218C98.552 44.6282 98.7168 44.7736 98.8367 44.958C98.9581 45.1423 99.0196 45.3514 99.0211 45.5852C99.0196 45.8295 98.9529 46.0476 98.821 46.2394C98.6906 46.4298 98.5175 46.5534 98.3017 46.6104V46.6374C98.468 46.6673 98.6179 46.7385 98.7513 46.8509C98.8847 46.9618 98.9911 47.1005 99.0705 47.2668C99.15 47.4317 99.1904 47.6116 99.1919 47.8064C99.1904 48.0552 99.123 48.277 98.9896 48.4719C98.8577 48.6652 98.6741 48.8173 98.4388 48.9283C98.205 49.0377 97.9345 49.0924 97.6272 49.0924ZM97.6272 48.5978C97.8355 48.5978 98.0154 48.564 98.1668 48.4966C98.3181 48.4292 98.4351 48.334 98.5175 48.2111C98.5999 48.0882 98.6419 47.9443 98.6434 47.7794C98.6419 47.6056 98.5969 47.4519 98.5085 47.3186C98.4201 47.1852 98.2994 47.0802 98.1465 47.0038C97.9952 46.9274 97.822 46.8891 97.6272 46.8891C97.4309 46.8891 97.2555 46.9274 97.1011 47.0038C96.9483 47.0802 96.8276 47.1852 96.7392 47.3186C96.6522 47.4519 96.6095 47.6056 96.611 47.7794C96.6095 47.9443 96.6492 48.0882 96.7302 48.2111C96.8126 48.334 96.9303 48.4292 97.0831 48.4966C97.236 48.564 97.4174 48.5978 97.6272 48.5978ZM97.6272 46.4125C97.7921 46.4125 97.9382 46.3796 98.0656 46.3136C98.1945 46.2477 98.2957 46.1555 98.3691 46.0371C98.4425 45.9187 98.48 45.78 98.4815 45.6212C98.48 45.4653 98.4433 45.3297 98.3714 45.2143C98.2994 45.0973 98.1997 45.0074 98.0723 44.9445C97.9449 44.88 97.7966 44.8478 97.6272 44.8478C97.4548 44.8478 97.3042 44.88 97.1753 44.9445C97.0464 45.0074 96.9468 45.0973 96.8763 45.2143C96.8059 45.3297 96.7714 45.4653 96.7729 45.6212C96.7714 45.78 96.8066 45.9187 96.8786 46.0371C96.952 46.1555 97.0532 46.2477 97.1821 46.3136C97.311 46.3796 97.4593 46.4125 97.6272 46.4125Z" fill="#163A53"/>
<rect x="111.468" y="39.1159" width="15.8272" height="15.8272" rx="7.9136" stroke="#337AF7" stroke-width="0.452206"/>
<path d="M119.324 44.3622C119.513 44.3637 119.702 44.3997 119.891 44.4701C120.08 44.5405 120.252 44.6575 120.408 44.8208C120.564 44.9827 120.689 45.2038 120.783 45.484C120.878 45.7643 120.925 46.1158 120.925 46.5384C120.925 46.9476 120.886 47.3111 120.808 47.6288C120.732 47.945 120.621 48.2118 120.475 48.4292C120.331 48.6465 120.156 48.8113 119.949 48.9238C119.744 49.0362 119.512 49.0924 119.252 49.0924C118.995 49.0924 118.764 49.0414 118.562 48.9395C118.361 48.8361 118.196 48.6929 118.068 48.5101C117.94 48.3257 117.858 48.1122 117.822 47.8694H118.371C118.42 48.0807 118.519 48.2553 118.666 48.3932C118.814 48.5296 119.01 48.5978 119.252 48.5978C119.608 48.5978 119.888 48.4426 120.093 48.1324C120.3 47.8221 120.403 47.3837 120.403 46.8172H120.367C120.283 46.9431 120.184 47.0518 120.068 47.1432C119.953 47.2346 119.825 47.3051 119.684 47.3545C119.543 47.404 119.393 47.4287 119.234 47.4287C118.971 47.4287 118.728 47.3635 118.508 47.2331C118.289 47.1012 118.114 46.9206 117.982 46.6913C117.852 46.4605 117.787 46.1967 117.787 45.8999C117.787 45.6182 117.849 45.3604 117.975 45.1266C118.103 44.8913 118.281 44.7039 118.51 44.5645C118.741 44.4251 119.013 44.3577 119.324 44.3622ZM119.324 44.8568C119.135 44.8568 118.965 44.904 118.814 44.9984C118.664 45.0914 118.545 45.2173 118.456 45.3761C118.37 45.5335 118.326 45.7081 118.326 45.8999C118.326 46.0918 118.368 46.2664 118.452 46.4238C118.537 46.5796 118.654 46.704 118.8 46.797C118.949 46.8884 119.117 46.9341 119.306 46.9341C119.449 46.9341 119.581 46.9064 119.704 46.8509C119.827 46.794 119.934 46.7168 120.026 46.6194C120.119 46.5204 120.191 46.4088 120.244 46.2844C120.296 46.1585 120.322 46.0273 120.322 45.891C120.322 45.7111 120.279 45.5425 120.192 45.3851C120.107 45.2277 119.988 45.1003 119.837 45.0029C119.687 44.9055 119.516 44.8568 119.324 44.8568Z" fill="#337AF7"/>
<path d="M139.683 44.4251V49.0294H139.126V45.0097H139.099L137.975 45.7561V45.1895L139.126 44.4251H139.683ZM142.509 49.0924C142.17 49.0924 141.882 49.0002 141.644 48.8158C141.405 48.63 141.223 48.361 141.097 48.0087C140.971 47.655 140.908 47.2279 140.908 46.7273C140.908 46.2297 140.971 45.8048 141.097 45.4526C141.225 45.0988 141.408 44.8291 141.646 44.6432C141.886 44.4559 142.173 44.3622 142.509 44.3622C142.845 44.3622 143.132 44.4559 143.37 44.6432C143.61 44.8291 143.793 45.0988 143.919 45.4526C144.046 45.8048 144.11 46.2297 144.11 46.7273C144.11 47.2279 144.047 47.655 143.921 48.0087C143.795 48.361 143.613 48.63 143.375 48.8158C143.136 49.0002 142.848 49.0924 142.509 49.0924ZM142.509 48.5978C142.845 48.5978 143.106 48.4359 143.292 48.1122C143.477 47.7884 143.57 47.3268 143.57 46.7273C143.57 46.3286 143.528 45.9891 143.442 45.7089C143.358 45.4286 143.237 45.215 143.078 45.0681C142.921 44.9212 142.731 44.8478 142.509 44.8478C142.176 44.8478 141.916 45.0119 141.729 45.3402C141.542 45.6669 141.448 46.1293 141.448 46.7273C141.448 47.126 141.49 47.4647 141.574 47.7435C141.658 48.0222 141.779 48.2343 141.936 48.3797C142.095 48.5251 142.286 48.5978 142.509 48.5978Z" fill="#163A53"/>
</g>
<g clip-path="url(#clip4_561_922)">
<rect width="151.941" height="21.7059" transform="translate(0 57.8823)" fill="white"/>
<path d="M9.94785 66.131V70.7352H9.3903V66.7155H9.36332L8.23923 67.4619V66.8953L9.3903 66.131H9.94785ZM12.8907 66.131V70.7352H12.3332V66.7155H12.3062L11.1821 67.4619V66.8953L12.3332 66.131H12.8907Z" fill="#163A53"/>
<path d="M31.1539 66.131V70.7352H30.5964V66.7155H30.5694L29.4453 67.4619V66.8953L30.5964 66.131H31.1539ZM32.4781 70.7352V70.3306L33.9979 68.6669C34.1762 68.4721 34.3231 68.3027 34.4385 68.1588C34.5539 68.0134 34.6393 67.877 34.6948 67.7496C34.7517 67.6207 34.7802 67.4859 34.7802 67.345C34.7802 67.1831 34.7413 67.043 34.6633 66.9246C34.5869 66.8062 34.482 66.7147 34.3486 66.6503C34.2152 66.5858 34.0653 66.5536 33.8989 66.5536C33.7221 66.5536 33.5677 66.5903 33.4358 66.6638C33.3054 66.7357 33.2042 66.8369 33.1323 66.9673C33.0619 67.0977 33.0266 67.2505 33.0266 67.4259H32.4961C32.4961 67.1561 32.5583 66.9193 32.6827 66.7155C32.8071 66.5116 32.9764 66.3528 33.1908 66.2389C33.4066 66.125 33.6486 66.068 33.9169 66.068C34.1867 66.068 34.4258 66.125 34.6341 66.2389C34.8424 66.3528 35.0058 66.5064 35.1242 66.6997C35.2426 66.8931 35.3018 67.1082 35.3018 67.345C35.3018 67.5143 35.2711 67.6799 35.2096 67.8418C35.1497 68.0022 35.0448 68.1813 34.8949 68.3791C34.7465 68.5755 34.5404 68.8153 34.2766 69.0986L33.2425 70.2047V70.2406H35.3827V70.7352H32.4781Z" fill="#163A53"/>
<path d="M52.86 66.131V70.7352H52.3024V66.7155H52.2754L51.1513 67.4619V66.8953L52.3024 66.131H52.86ZM55.7399 70.7982C55.4431 70.7982 55.1786 70.7472 54.9463 70.6453C54.7155 70.5434 54.5319 70.4017 54.3955 70.2204C54.2606 70.0375 54.1871 69.8255 54.1751 69.5842H54.7417C54.7537 69.7325 54.8046 69.8607 54.8946 69.9686C54.9845 70.075 55.1021 70.1574 55.2475 70.2159C55.3929 70.2744 55.554 70.3036 55.7309 70.3036C55.9287 70.3036 56.1041 70.2691 56.257 70.2002C56.4098 70.1312 56.5297 70.0353 56.6167 69.9124C56.7036 69.7895 56.7471 69.6471 56.7471 69.4852C56.7471 69.3159 56.7051 69.1667 56.6212 69.0379C56.5372 68.9075 56.4143 68.8055 56.2525 68.7321C56.0906 68.6587 55.8928 68.6219 55.6589 68.6219H55.2902V68.1273H55.6589C55.8418 68.1273 56.0022 68.0944 56.1401 68.0284C56.2794 67.9625 56.3881 67.8695 56.466 67.7496C56.5455 67.6297 56.5852 67.4889 56.5852 67.327C56.5852 67.1711 56.5507 67.0355 56.4818 66.9201C56.4128 66.8047 56.3154 66.7147 56.1895 66.6503C56.0651 66.5858 55.9182 66.5536 55.7489 66.5536C55.59 66.5536 55.4401 66.5828 55.2992 66.6413C55.1598 66.6982 55.0459 66.7814 54.9575 66.8908C54.8691 66.9987 54.8211 67.1291 54.8136 67.282H54.2741C54.2831 67.0407 54.3557 66.8294 54.4921 66.648C54.6285 66.4652 54.8069 66.3228 55.0272 66.2209C55.249 66.119 55.4926 66.068 55.7579 66.068C56.0426 66.068 56.2869 66.1257 56.4908 66.2411C56.6946 66.355 56.8512 66.5056 56.9606 66.693C57.0701 66.8803 57.1248 67.0827 57.1248 67.3C57.1248 67.5593 57.0566 67.7804 56.9202 67.9632C56.7853 68.1461 56.6017 68.2727 56.3694 68.3432V68.3791C56.6601 68.4271 56.8872 68.5507 57.0506 68.7501C57.2139 68.9479 57.2956 69.193 57.2956 69.4852C57.2956 69.7355 57.2274 69.9604 57.091 70.1597C56.9561 70.3575 56.7718 70.5134 56.538 70.6273C56.3042 70.7412 56.0381 70.7982 55.7399 70.7982Z" fill="#163A53"/>
<path d="M74.065 66.131V70.7352H73.5075V66.7155H73.4805L72.3564 67.4619V66.8953L73.5075 66.131H74.065ZM75.2813 69.791V69.3324L77.3047 66.131H77.6374V66.8414H77.4126L75.8838 69.2604V69.2964H78.6086V69.791H75.2813ZM77.4485 70.7352V69.6516V69.438V66.131H77.9791V70.7352H77.4485Z" fill="#163A53"/>
<path d="M96.2711 66.131V70.7352H95.7135V66.7155H95.6866L94.5625 67.4619V66.8953L95.7135 66.131H96.2711ZM99.0341 70.7982C98.7703 70.7982 98.5328 70.7457 98.3214 70.6408C98.1101 70.5359 97.9407 70.392 97.8133 70.2092C97.6859 70.0263 97.6163 69.818 97.6043 69.5842H98.1438C98.1648 69.7925 98.2592 69.9649 98.4271 70.1012C98.5965 70.2361 98.7988 70.3036 99.0341 70.3036C99.223 70.3036 99.3908 70.2594 99.5377 70.1709C99.6861 70.0825 99.8022 69.9611 99.8862 69.8067C99.9716 69.6509 100.014 69.4747 100.014 69.2784C100.014 69.0776 99.9701 68.8985 99.8817 68.7411C99.7947 68.5822 99.6748 68.4571 99.522 68.3656C99.3691 68.2742 99.1945 68.2278 98.9981 68.2263C98.8572 68.2248 98.7126 68.2465 98.5642 68.2915C98.4159 68.3349 98.2937 68.3911 98.1978 68.4601L97.6762 68.3971L97.955 66.131H100.347V66.6256H98.4226L98.2607 67.9835H98.2877C98.3821 67.9085 98.5005 67.8463 98.6429 67.7969C98.7853 67.7474 98.9337 67.7227 99.0881 67.7227C99.3698 67.7227 99.6209 67.7901 99.8412 67.925C100.063 68.0584 100.237 68.2412 100.363 68.4736C100.49 68.7059 100.554 68.9712 100.554 69.2694C100.554 69.5632 100.488 69.8255 100.356 70.0563C100.226 70.2856 100.046 70.4669 99.8165 70.6003C99.5872 70.7322 99.3264 70.7982 99.0341 70.7982Z" fill="#163A53"/>
<path d="M117.977 66.131V70.7352H117.42V66.7155H117.393L116.269 67.4619V66.8953L117.42 66.131H117.977ZM120.83 70.7982C120.641 70.7952 120.452 70.7592 120.264 70.6903C120.075 70.6213 119.902 70.5052 119.746 70.3418C119.591 70.1769 119.465 69.9544 119.371 69.6741C119.277 69.3923 119.229 69.0386 119.229 68.6129C119.229 68.2053 119.268 67.8441 119.344 67.5293C119.42 67.2131 119.531 66.947 119.677 66.7312C119.822 66.5139 119.998 66.349 120.203 66.2366C120.41 66.1242 120.643 66.068 120.902 66.068C121.16 66.068 121.389 66.1197 121.59 66.2231C121.792 66.325 121.957 66.4674 122.085 66.6503C122.212 66.8331 122.294 67.0437 122.332 67.282H121.783C121.732 67.0752 121.633 66.9036 121.487 66.7672C121.34 66.6308 121.145 66.5626 120.902 66.5626C120.545 66.5626 120.264 66.7177 120.059 67.028C119.855 67.3382 119.752 67.7736 119.751 68.3342H119.787C119.871 68.2068 119.971 68.0981 120.086 68.0082C120.203 67.9168 120.332 67.8463 120.473 67.7969C120.614 67.7474 120.763 67.7227 120.92 67.7227C121.184 67.7227 121.425 67.7886 121.644 67.9205C121.863 68.0509 122.038 68.2315 122.17 68.4623C122.302 68.6916 122.368 68.9547 122.368 69.2514C122.368 69.5362 122.304 69.797 122.177 70.0338C122.049 70.2691 121.87 70.4565 121.639 70.5958C121.41 70.7337 121.14 70.8012 120.83 70.7982ZM120.83 70.3036C121.019 70.3036 121.188 70.2564 121.338 70.1619C121.49 70.0675 121.609 69.9409 121.696 69.782C121.784 69.6231 121.828 69.4463 121.828 69.2514C121.828 69.0611 121.786 68.888 121.7 68.7321C121.616 68.5747 121.5 68.4496 121.352 68.3567C121.205 68.2637 121.037 68.2173 120.848 68.2173C120.706 68.2173 120.573 68.2457 120.45 68.3027C120.327 68.3582 120.219 68.4346 120.126 68.532C120.035 68.6294 119.963 68.7411 119.911 68.867C119.858 68.9914 119.832 69.1225 119.832 69.2604C119.832 69.4433 119.875 69.6141 119.96 69.773C120.047 69.9319 120.165 70.06 120.315 70.1574C120.467 70.2549 120.638 70.3036 120.83 70.3036Z" fill="#163A53"/>
<path d="M139.683 66.131V70.7352H139.126V66.7155H139.099L137.975 67.4619V66.8953L139.126 66.131H139.683ZM141.151 70.7352L143.211 66.6615V66.6256H140.837V66.131H143.786V66.6525L141.736 70.7352H141.151Z" fill="#163A53"/>
</g>
<g clip-path="url(#clip5_561_922)">
<rect width="151.941" height="21.7059" transform="translate(0 79.5883)" fill="white"/>
<path d="M9.44785 87.8369V92.4412H8.8903V88.4214H8.86332L7.73923 89.1678V88.6013L8.8903 87.8369H9.44785ZM12.2468 92.5041C11.9381 92.5041 11.6653 92.4494 11.4285 92.34C11.1932 92.2291 11.0096 92.077 10.8777 91.8836C10.7458 91.6888 10.6806 91.4669 10.6821 91.2182C10.6806 91.0233 10.7188 90.8435 10.7968 90.6786C10.8747 90.5122 10.9811 90.3736 11.116 90.2627C11.2524 90.1503 11.4045 90.0791 11.5724 90.0491V90.0221C11.3521 89.9652 11.1767 89.8415 11.0463 89.6512C10.9159 89.4593 10.8515 89.2412 10.853 88.9969C10.8515 88.7631 10.9107 88.5541 11.0306 88.3697C11.1505 88.1854 11.3153 88.04 11.5252 87.9336C11.7365 87.8271 11.9771 87.7739 12.2468 87.7739C12.5136 87.7739 12.7519 87.8271 12.9618 87.9336C13.1716 88.04 13.3365 88.1854 13.4564 88.3697C13.5778 88.5541 13.6392 88.7631 13.6407 88.9969C13.6392 89.2412 13.5725 89.4593 13.4406 89.6512C13.3102 89.8415 13.1371 89.9652 12.9213 90.0221V90.0491C13.0877 90.0791 13.2375 90.1503 13.3709 90.2627C13.5043 90.3736 13.6107 90.5122 13.6902 90.6786C13.7696 90.8435 13.8101 91.0233 13.8116 91.2182C13.8101 91.4669 13.7426 91.6888 13.6092 91.8836C13.4773 92.077 13.2937 92.2291 13.0584 92.34C12.8246 92.4494 12.5541 92.5041 12.2468 92.5041ZM12.2468 92.0095C12.4552 92.0095 12.635 91.9758 12.7864 91.9083C12.9378 91.8409 13.0547 91.7457 13.1371 91.6228C13.2195 91.4999 13.2615 91.356 13.263 91.1912C13.2615 91.0173 13.2165 90.8637 13.1281 90.7303C13.0397 90.5969 12.919 90.492 12.7662 90.4155C12.6148 90.3391 12.4417 90.3009 12.2468 90.3009C12.0505 90.3009 11.8751 90.3391 11.7208 90.4155C11.5679 90.492 11.4472 90.5969 11.3588 90.7303C11.2719 90.8637 11.2292 91.0173 11.2307 91.1912C11.2292 91.356 11.2689 91.4999 11.3498 91.6228C11.4322 91.7457 11.5499 91.8409 11.7028 91.9083C11.8556 91.9758 12.037 92.0095 12.2468 92.0095ZM12.2468 89.8243C12.4117 89.8243 12.5578 89.7913 12.6852 89.7254C12.8141 89.6594 12.9153 89.5672 12.9887 89.4488C13.0622 89.3304 13.0996 89.1918 13.1011 89.0329C13.0996 88.877 13.0629 88.7414 12.991 88.626C12.919 88.5091 12.8194 88.4192 12.692 88.3562C12.5646 88.2918 12.4162 88.2595 12.2468 88.2595C12.0745 88.2595 11.9238 88.2918 11.7949 88.3562C11.6661 88.4192 11.5664 88.5091 11.4959 88.626C11.4255 88.7414 11.391 88.877 11.3925 89.0329C11.391 89.1918 11.4262 89.3304 11.4982 89.4488C11.5716 89.5672 11.6728 89.6594 11.8017 89.7254C11.9306 89.7913 12.079 89.8243 12.2468 89.8243Z" fill="#163A53"/>
<path d="M31.1539 87.8369V92.4412H30.5964V88.4214H30.5694L29.4453 89.1678V88.6013L30.5964 87.8369H31.1539ZM33.9439 87.7739C34.1327 87.7754 34.3216 87.8114 34.5104 87.8818C34.6993 87.9523 34.8716 88.0692 35.0275 88.2326C35.1834 88.3944 35.3085 88.6155 35.403 88.8958C35.4974 89.1761 35.5446 89.5275 35.5446 89.9502C35.5446 90.3593 35.5056 90.7228 35.4277 91.0405C35.3513 91.3568 35.2403 91.6236 35.095 91.8409C34.9511 92.0582 34.7757 92.2231 34.5689 92.3355C34.3636 92.4479 34.1312 92.5041 33.872 92.5041C33.6142 92.5041 33.3841 92.4532 33.1818 92.3512C32.9809 92.2478 32.8161 92.1047 32.6872 91.9218C32.5598 91.7375 32.4781 91.5239 32.4421 91.2811H32.9907C33.0401 91.4924 33.1383 91.667 33.2852 91.8049C33.4336 91.9413 33.6291 92.0095 33.872 92.0095C34.2272 92.0095 34.5074 91.8544 34.7128 91.5441C34.9196 91.2339 35.023 90.7955 35.023 90.229H34.9871C34.9031 90.3548 34.8035 90.4635 34.688 90.5549C34.5726 90.6464 34.4445 90.7168 34.3036 90.7663C34.1627 90.8157 34.0128 90.8405 33.854 90.8405C33.5902 90.8405 33.3481 90.7753 33.1278 90.6449C32.909 90.513 32.7336 90.3324 32.6017 90.1031C32.4713 89.8722 32.4061 89.6085 32.4061 89.3117C32.4061 89.0299 32.4691 88.7721 32.595 88.5383C32.7224 88.303 32.9007 88.1157 33.1301 87.9763C33.3609 87.8369 33.6321 87.7694 33.9439 87.7739ZM33.9439 88.2685C33.755 88.2685 33.5849 88.3157 33.4336 88.4102C33.2837 88.5031 33.1645 88.629 33.0761 88.7879C32.9892 88.9452 32.9457 89.1198 32.9457 89.3117C32.9457 89.5035 32.9877 89.6781 33.0716 89.8355C33.157 89.9914 33.2732 90.1158 33.4201 90.2087C33.5684 90.3001 33.7371 90.3459 33.9259 90.3459C34.0683 90.3459 34.2009 90.3181 34.3238 90.2627C34.4467 90.2057 34.5539 90.1285 34.6453 90.0311C34.7383 89.9322 34.8109 89.8205 34.8634 89.6961C34.9159 89.5702 34.9421 89.4391 34.9421 89.3027C34.9421 89.1228 34.8986 88.9542 34.8117 88.7969C34.7263 88.6395 34.6079 88.5121 34.4565 88.4147C34.3066 88.3172 34.1357 88.2685 33.9439 88.2685Z" fill="#163A53"/>
<path d="M50.7413 92.4412V92.0365L52.261 90.3728C52.4394 90.178 52.5863 90.0086 52.7017 89.8647C52.8171 89.7194 52.9025 89.583 52.958 89.4556C53.0149 89.3267 53.0434 89.1918 53.0434 89.0509C53.0434 88.889 53.0044 88.7489 52.9265 88.6305C52.8501 88.5121 52.7451 88.4207 52.6118 88.3562C52.4784 88.2918 52.3285 88.2595 52.1621 88.2595C51.9853 88.2595 51.8309 88.2963 51.699 88.3697C51.5686 88.4416 51.4674 88.5428 51.3955 88.6732C51.325 88.8036 51.2898 88.9565 51.2898 89.1318H50.7592C50.7592 88.8621 50.8214 88.6252 50.9458 88.4214C51.0702 88.2176 51.2396 88.0587 51.4539 87.9448C51.6698 87.8309 51.9118 87.7739 52.1801 87.7739C52.4499 87.7739 52.6889 87.8309 52.8973 87.9448C53.1056 88.0587 53.269 88.2123 53.3874 88.4057C53.5058 88.599 53.565 88.8141 53.565 89.0509C53.565 89.2203 53.5343 89.3859 53.4728 89.5478C53.4129 89.7081 53.3079 89.8872 53.1581 90.0851C53.0097 90.2814 52.8036 90.5212 52.5398 90.8045L51.5056 91.9106V91.9466H53.6459V92.4412H50.7413ZM56.0762 92.5041C55.7375 92.5041 55.449 92.4119 55.2107 92.2276C54.9723 92.0417 54.7902 91.7727 54.6643 91.4205C54.5384 91.0668 54.4755 90.6396 54.4755 90.139C54.4755 89.6414 54.5384 89.2165 54.6643 88.8643C54.7917 88.5106 54.9746 88.2408 55.2129 88.055C55.4527 87.8676 55.7405 87.7739 56.0762 87.7739C56.4119 87.7739 56.6989 87.8676 56.9373 88.055C57.1771 88.2408 57.3599 88.5106 57.4858 88.8643C57.6132 89.2165 57.6769 89.6414 57.6769 90.139C57.6769 90.6396 57.614 91.0668 57.4881 91.4205C57.3622 91.7727 57.1801 92.0417 56.9418 92.2276C56.7034 92.4119 56.4149 92.5041 56.0762 92.5041ZM56.0762 92.0095C56.4119 92.0095 56.6727 91.8476 56.8586 91.5239C57.0444 91.2002 57.1373 90.7385 57.1373 90.139C57.1373 89.7403 57.0946 89.4009 57.0092 89.1206C56.9253 88.8403 56.8039 88.6267 56.645 88.4799C56.4876 88.333 56.298 88.2595 56.0762 88.2595C55.7435 88.2595 55.4834 88.4237 55.2961 88.7519C55.1087 89.0786 55.0151 89.541 55.0151 90.139C55.0151 90.5377 55.057 90.8764 55.141 91.1552C55.2249 91.434 55.3455 91.6461 55.5029 91.7914C55.6618 91.9368 55.8529 92.0095 56.0762 92.0095Z" fill="#163A53"/>
<path d="M72.9463 92.4412V92.0365L74.4661 90.3728C74.6445 90.178 74.7913 90.0086 74.9068 89.8647C75.0222 89.7194 75.1076 89.583 75.163 89.4556C75.22 89.3267 75.2485 89.1918 75.2485 89.0509C75.2485 88.889 75.2095 88.7489 75.1316 88.6305C75.0551 88.5121 74.9502 88.4207 74.8168 88.3562C74.6834 88.2918 74.5336 88.2595 74.3672 88.2595C74.1903 88.2595 74.036 88.2963 73.9041 88.3697C73.7737 88.4416 73.6725 88.5428 73.6006 88.6732C73.5301 88.8036 73.4949 88.9565 73.4949 89.1318H72.9643C72.9643 88.8621 73.0265 88.6252 73.1509 88.4214C73.2753 88.2176 73.4447 88.0587 73.659 87.9448C73.8748 87.8309 74.1169 87.7739 74.3852 87.7739C74.655 87.7739 74.894 87.8309 75.1023 87.9448C75.3107 88.0587 75.474 88.2123 75.5925 88.4057C75.7109 88.599 75.7701 88.8141 75.7701 89.0509C75.7701 89.2203 75.7393 89.3859 75.6779 89.5478C75.6179 89.7081 75.513 89.8872 75.3631 90.0851C75.2148 90.2814 75.0087 90.5212 74.7449 90.8045L73.7107 91.9106V91.9466H75.851V92.4412H72.9463ZM78.3982 87.8369V92.4412H77.8406V88.4214H77.8137L76.6896 89.1678V88.6013L77.8406 87.8369H78.3982Z" fill="#163A53"/>
<path d="M94.1524 92.4412V92.0365L95.6722 90.3728C95.8505 90.178 95.9974 90.0086 96.1128 89.8647C96.2282 89.7194 96.3136 89.583 96.3691 89.4556C96.4261 89.3267 96.4545 89.1918 96.4545 89.0509C96.4545 88.889 96.4156 88.7489 96.3376 88.6305C96.2612 88.5121 96.1563 88.4207 96.0229 88.3562C95.8895 88.2918 95.7396 88.2595 95.5732 88.2595C95.3964 88.2595 95.242 88.2963 95.1101 88.3697C94.9797 88.4416 94.8786 88.5428 94.8066 88.6732C94.7362 88.8036 94.701 88.9565 94.701 89.1318H94.1704C94.1704 88.8621 94.2326 88.6252 94.357 88.4214C94.4814 88.2176 94.6507 88.0587 94.8651 87.9448C95.0809 87.8309 95.3229 87.7739 95.5912 87.7739C95.861 87.7739 96.1001 87.8309 96.3084 87.9448C96.5167 88.0587 96.6801 88.2123 96.7985 88.4057C96.9169 88.599 96.9761 88.8141 96.9761 89.0509C96.9761 89.2203 96.9454 89.3859 96.8839 89.5478C96.824 89.7081 96.7191 89.8872 96.5692 90.0851C96.4208 90.2814 96.2147 90.5212 95.9509 90.8045L94.9168 91.9106V91.9466H97.057V92.4412H94.1524ZM97.9855 92.4412V92.0365L99.5053 90.3728C99.6837 90.178 99.8306 90.0086 99.946 89.8647C100.061 89.7194 100.147 89.583 100.202 89.4556C100.259 89.3267 100.288 89.1918 100.288 89.0509C100.288 88.889 100.249 88.7489 100.171 88.6305C100.094 88.5121 99.9894 88.4207 99.856 88.3562C99.7226 88.2918 99.5728 88.2595 99.4064 88.2595C99.2295 88.2595 99.0752 88.2963 98.9433 88.3697C98.8129 88.4416 98.7117 88.5428 98.6398 88.6732C98.5693 88.8036 98.5341 88.9565 98.5341 89.1318H98.0035C98.0035 88.8621 98.0657 88.6252 98.1901 88.4214C98.3145 88.2176 98.4839 88.0587 98.6982 87.9448C98.914 87.8309 99.1561 87.7739 99.4244 87.7739C99.6942 87.7739 99.9332 87.8309 100.142 87.9448C100.35 88.0587 100.513 88.2123 100.632 88.4057C100.75 88.599 100.809 88.8141 100.809 89.0509C100.809 89.2203 100.779 89.3859 100.717 89.5478C100.657 89.7081 100.552 89.8872 100.402 90.0851C100.254 90.2814 100.048 90.5212 99.7841 90.8045L98.7499 91.9106V91.9466H100.89V92.4412H97.9855Z" fill="#163A53"/>
<path d="M115.858 92.4412V92.0365L117.378 90.3728C117.557 90.178 117.703 90.0086 117.819 89.8647C117.934 89.7194 118.02 89.583 118.075 89.4556C118.132 89.3267 118.161 89.1918 118.161 89.0509C118.161 88.889 118.122 88.7489 118.044 88.6305C117.967 88.5121 117.862 88.4207 117.729 88.3562C117.596 88.2918 117.446 88.2595 117.279 88.2595C117.102 88.2595 116.948 88.2963 116.816 88.3697C116.686 88.4416 116.585 88.5428 116.513 88.6732C116.442 88.8036 116.407 88.9565 116.407 89.1318H115.876C115.876 88.8621 115.939 88.6252 116.063 88.4214C116.187 88.2176 116.357 88.0587 116.571 87.9448C116.787 87.8309 117.029 87.7739 117.297 87.7739C117.567 87.7739 117.806 87.8309 118.014 87.9448C118.223 88.0587 118.386 88.2123 118.505 88.4057C118.623 88.599 118.682 88.8141 118.682 89.0509C118.682 89.2203 118.651 89.3859 118.59 89.5478C118.53 89.7081 118.425 89.8872 118.275 90.0851C118.127 90.2814 117.921 90.5212 117.657 90.8045L116.623 91.9106V91.9466H118.763V92.4412H115.858ZM121.247 92.5041C120.951 92.5041 120.686 92.4532 120.454 92.3512C120.223 92.2493 120.039 92.1077 119.903 91.9263C119.768 91.7435 119.695 91.5314 119.683 91.2901H120.249C120.261 91.4385 120.312 91.5666 120.402 91.6745C120.492 91.7809 120.61 91.8634 120.755 91.9218C120.9 91.9803 121.061 92.0095 121.238 92.0095C121.436 92.0095 121.612 91.975 121.764 91.9061C121.917 91.8372 122.037 91.7412 122.124 91.6183C122.211 91.4954 122.255 91.353 122.255 91.1912C122.255 91.0218 122.213 90.8727 122.129 90.7438C122.045 90.6134 121.922 90.5115 121.76 90.438C121.598 90.3646 121.4 90.3279 121.166 90.3279H120.798V89.8333H121.166C121.349 89.8333 121.51 89.8003 121.648 89.7343C121.787 89.6684 121.896 89.5755 121.974 89.4556C122.053 89.3357 122.093 89.1948 122.093 89.0329C122.093 88.877 122.058 88.7414 121.989 88.626C121.92 88.5106 121.823 88.4207 121.697 88.3562C121.573 88.2918 121.426 88.2595 121.256 88.2595C121.097 88.2595 120.948 88.2888 120.807 88.3472C120.667 88.4042 120.553 88.4874 120.465 88.5968C120.377 88.7047 120.329 88.8351 120.321 88.988H119.782C119.791 88.7466 119.863 88.5353 120 88.354C120.136 88.1711 120.314 88.0287 120.535 87.9268C120.756 87.8249 121 87.7739 121.265 87.7739C121.55 87.7739 121.794 87.8316 121.998 87.947C122.202 88.061 122.359 88.2116 122.468 88.3989C122.578 88.5863 122.632 88.7886 122.632 89.0059C122.632 89.2652 122.564 89.4863 122.428 89.6692C122.293 89.852 122.109 89.9787 121.877 90.0491V90.0851C122.168 90.133 122.395 90.2567 122.558 90.456C122.721 90.6539 122.803 90.8989 122.803 91.1912C122.803 91.4415 122.735 91.6663 122.599 91.8656C122.464 92.0635 122.279 92.2193 122.045 92.3332C121.812 92.4472 121.546 92.5041 121.247 92.5041Z" fill="#163A53"/>
<path d="M137.565 92.4412V92.0365L139.084 90.3728C139.263 90.178 139.41 90.0086 139.525 89.8647C139.64 89.7194 139.726 89.583 139.781 89.4556C139.838 89.3267 139.867 89.1918 139.867 89.0509C139.867 88.889 139.828 88.7489 139.75 88.6305C139.673 88.5121 139.568 88.4207 139.435 88.3562C139.302 88.2918 139.152 88.2595 138.985 88.2595C138.808 88.2595 138.654 88.2963 138.522 88.3697C138.392 88.4416 138.291 88.5428 138.219 88.6732C138.148 88.8036 138.113 88.9565 138.113 89.1318H137.582C137.582 88.8621 137.645 88.6252 137.769 88.4214C137.893 88.2176 138.063 88.0587 138.277 87.9448C138.493 87.8309 138.735 87.7739 139.003 87.7739C139.273 87.7739 139.512 87.8309 139.721 87.9448C139.929 88.0587 140.092 88.2123 140.211 88.4057C140.329 88.599 140.388 88.8141 140.388 89.0509C140.388 89.2203 140.357 89.3859 140.296 89.5478C140.236 89.7081 140.131 89.8872 139.981 90.0851C139.833 90.2814 139.627 90.5212 139.363 90.8045L138.329 91.9106V91.9466H140.469V92.4412H137.565ZM141.191 91.4969V91.0383L143.214 87.8369H143.547V88.5473H143.322L141.793 90.9664V91.0023H144.518V91.4969H141.191ZM143.358 92.4412V91.3575V91.144V87.8369H143.889V92.4412H143.358Z" fill="#163A53"/>
</g>
<g clip-path="url(#clip6_561_922)">
<rect width="151.941" height="21.7059" transform="translate(0 101.294)" fill="white"/>
<path d="M7.32915 114.147V113.742L8.84893 112.079C9.02728 111.884 9.17416 111.715 9.28957 111.571C9.40498 111.425 9.49041 111.289 9.54586 111.162C9.60282 111.033 9.63129 110.898 9.63129 110.757C9.63129 110.595 9.59232 110.455 9.51439 110.336C9.43795 110.218 9.33303 110.127 9.19964 110.062C9.06625 109.998 8.91637 109.965 8.75001 109.965C8.57315 109.965 8.41877 110.002 8.28688 110.076C8.15649 110.148 8.05532 110.249 7.98338 110.379C7.91293 110.51 7.87771 110.662 7.87771 110.838H7.34714C7.34714 110.568 7.40934 110.331 7.53374 110.127C7.65814 109.924 7.8275 109.765 8.04183 109.651C8.25765 109.537 8.49971 109.48 8.76799 109.48C9.03777 109.48 9.27683 109.537 9.48516 109.651C9.69349 109.765 9.85686 109.918 9.97526 110.112C10.0937 110.305 10.1529 110.52 10.1529 110.757C10.1529 110.926 10.1221 111.092 10.0607 111.254C10.0007 111.414 9.89583 111.593 9.74595 111.791C9.59757 111.987 9.39149 112.227 9.1277 112.51L8.09354 113.617V113.652H10.2338V114.147H7.32915ZM12.6011 114.21C12.3374 114.21 12.0998 114.158 11.8885 114.053C11.6771 113.948 11.5078 113.804 11.3804 113.621C11.253 113.438 11.1833 113.23 11.1713 112.996H11.7109C11.7318 113.204 11.8263 113.377 11.9941 113.513C12.1635 113.648 12.3658 113.715 12.6011 113.715C12.79 113.715 12.9579 113.671 13.1047 113.583C13.2531 113.494 13.3693 113.373 13.4532 113.219C13.5386 113.063 13.5814 112.887 13.5814 112.69C13.5814 112.489 13.5371 112.31 13.4487 112.153C13.3618 111.994 13.2419 111.869 13.089 111.778C12.9361 111.686 12.7615 111.64 12.5652 111.638C12.4243 111.637 12.2797 111.658 12.1313 111.703C11.9829 111.747 11.8607 111.803 11.7648 111.872L11.2432 111.809L11.522 109.543H13.9141V110.037H11.9896L11.8278 111.395H11.8547C11.9492 111.32 12.0676 111.258 12.21 111.209C12.3523 111.159 12.5007 111.135 12.6551 111.135C12.9369 111.135 13.1879 111.202 13.4082 111.337C13.6301 111.47 13.8039 111.653 13.9298 111.885C14.0572 112.118 14.1209 112.383 14.1209 112.681C14.1209 112.975 14.055 113.237 13.9231 113.468C13.7927 113.697 13.6128 113.879 13.3835 114.012C13.1542 114.144 12.8934 114.21 12.6011 114.21Z" fill="#163A53"/>
<path d="M29.0352 114.147V113.742L30.555 112.079C30.7333 111.884 30.8802 111.715 30.9956 111.571C31.111 111.425 31.1965 111.289 31.2519 111.162C31.3089 111.033 31.3373 110.898 31.3373 110.757C31.3373 110.595 31.2984 110.455 31.2204 110.336C31.144 110.218 31.0391 110.127 30.9057 110.062C30.7723 109.998 30.6224 109.965 30.4561 109.965C30.2792 109.965 30.1248 110.002 29.9929 110.076C29.8625 110.148 29.7614 110.249 29.6894 110.379C29.619 110.51 29.5838 110.662 29.5838 110.838H29.0532C29.0532 110.568 29.1154 110.331 29.2398 110.127C29.3642 109.924 29.5336 109.765 29.7479 109.651C29.9637 109.537 30.2058 109.48 30.474 109.48C30.7438 109.48 30.9829 109.537 31.1912 109.651C31.3995 109.765 31.5629 109.918 31.6813 110.112C31.7997 110.305 31.8589 110.52 31.8589 110.757C31.8589 110.926 31.8282 111.092 31.7668 111.254C31.7068 111.414 31.6019 111.593 31.452 111.791C31.3036 111.987 31.0975 112.227 30.8338 112.51L29.7996 113.617V113.652H31.9399V114.147H29.0352ZM34.3971 114.21C34.2083 114.207 34.0194 114.171 33.8306 114.102C33.6417 114.033 33.4694 113.917 33.3135 113.754C33.1576 113.589 33.0325 113.366 32.9381 113.086C32.8436 112.804 32.7964 112.45 32.7964 112.025C32.7964 111.617 32.8346 111.256 32.9111 110.941C32.9875 110.625 33.0984 110.359 33.2438 110.143C33.3892 109.926 33.5645 109.761 33.7699 109.648C33.9767 109.536 34.2098 109.48 34.4691 109.48C34.7269 109.48 34.9562 109.532 35.157 109.635C35.3593 109.737 35.5242 109.879 35.6516 110.062C35.779 110.245 35.8614 110.456 35.8989 110.694H35.3504C35.2994 110.487 35.2005 110.315 35.0536 110.179C34.9067 110.043 34.7119 109.974 34.4691 109.974C34.1124 109.974 33.8313 110.13 33.626 110.44C33.4222 110.75 33.3195 111.185 33.318 111.746H33.354C33.4379 111.619 33.5376 111.51 33.653 111.42C33.7699 111.329 33.8988 111.258 34.0397 111.209C34.1805 111.159 34.3297 111.135 34.4871 111.135C34.7508 111.135 34.9921 111.2 35.211 111.332C35.4298 111.463 35.6051 111.643 35.737 111.874C35.8689 112.103 35.9349 112.367 35.9349 112.663C35.9349 112.948 35.8712 113.209 35.7438 113.446C35.6164 113.681 35.4373 113.868 35.2065 114.008C34.9772 114.146 34.7074 114.213 34.3971 114.21ZM34.3971 113.715C34.586 113.715 34.7553 113.668 34.9052 113.574C35.0566 113.479 35.1757 113.353 35.2627 113.194C35.3511 113.035 35.3953 112.858 35.3953 112.663C35.3953 112.473 35.3526 112.3 35.2672 112.144C35.1832 111.987 35.0671 111.861 34.9187 111.769C34.7718 111.676 34.604 111.629 34.4151 111.629C34.2727 111.629 34.1401 111.658 34.0172 111.715C33.8943 111.77 33.7864 111.846 33.6934 111.944C33.602 112.041 33.5301 112.153 33.4776 112.279C33.4252 112.403 33.3989 112.534 33.3989 112.672C33.3989 112.855 33.4416 113.026 33.5271 113.185C33.614 113.344 33.7324 113.472 33.8823 113.569C34.0337 113.667 34.2053 113.715 34.3971 113.715Z" fill="#163A53"/>
<path d="M50.7413 114.147V113.742L52.261 112.079C52.4394 111.884 52.5863 111.715 52.7017 111.571C52.8171 111.425 52.9025 111.289 52.958 111.162C53.0149 111.033 53.0434 110.898 53.0434 110.757C53.0434 110.595 53.0044 110.455 52.9265 110.336C52.8501 110.218 52.7451 110.127 52.6118 110.062C52.4784 109.998 52.3285 109.965 52.1621 109.965C51.9853 109.965 51.8309 110.002 51.699 110.076C51.5686 110.148 51.4674 110.249 51.3955 110.379C51.325 110.51 51.2898 110.662 51.2898 110.838H50.7592C50.7592 110.568 50.8214 110.331 50.9458 110.127C51.0702 109.924 51.2396 109.765 51.4539 109.651C51.6698 109.537 51.9118 109.48 52.1801 109.48C52.4499 109.48 52.6889 109.537 52.8973 109.651C53.1056 109.765 53.269 109.918 53.3874 110.112C53.5058 110.305 53.565 110.52 53.565 110.757C53.565 110.926 53.5343 111.092 53.4728 111.254C53.4129 111.414 53.3079 111.593 53.1581 111.791C53.0097 111.987 52.8036 112.227 52.5398 112.51L51.5056 113.617V113.652H53.6459V114.147H50.7413ZM54.7183 114.147L56.7776 110.073V110.037H54.4036V109.543H57.3532V110.064L55.3028 114.147H54.7183Z" fill="#163A53"/>
<path d="M72.4463 114.147V113.742L73.9661 112.079C74.1445 111.884 74.2913 111.715 74.4068 111.571C74.5222 111.425 74.6076 111.289 74.663 111.162C74.72 111.033 74.7485 110.898 74.7485 110.757C74.7485 110.595 74.7095 110.455 74.6316 110.336C74.5551 110.218 74.4502 110.127 74.3168 110.062C74.1834 109.998 74.0336 109.965 73.8672 109.965C73.6903 109.965 73.536 110.002 73.4041 110.076C73.2737 110.148 73.1725 110.249 73.1006 110.379C73.0301 110.51 72.9949 110.662 72.9949 110.838H72.4643C72.4643 110.568 72.5265 110.331 72.6509 110.127C72.7753 109.924 72.9447 109.765 73.159 109.651C73.3748 109.537 73.6169 109.48 73.8852 109.48C74.155 109.48 74.394 109.537 74.6023 109.651C74.8107 109.765 74.974 109.918 75.0925 110.112C75.2109 110.305 75.2701 110.52 75.2701 110.757C75.2701 110.926 75.2393 111.092 75.1779 111.254C75.1179 111.414 75.013 111.593 74.8631 111.791C74.7148 111.987 74.5087 112.227 74.2449 112.51L73.2107 113.617V113.652H75.351V114.147H72.4463ZM77.7543 114.21C77.4456 114.21 77.1728 114.155 76.936 114.046C76.7007 113.935 76.5171 113.783 76.3852 113.59C76.2533 113.395 76.1881 113.173 76.1896 112.924C76.1881 112.729 76.2263 112.549 76.3042 112.385C76.3822 112.218 76.4886 112.08 76.6235 111.969C76.7599 111.856 76.912 111.785 77.0798 111.755V111.728C76.8595 111.671 76.6842 111.547 76.5538 111.357C76.4234 111.165 76.3589 110.947 76.3604 110.703C76.3589 110.469 76.4181 110.26 76.538 110.076C76.6579 109.891 76.8228 109.746 77.0326 109.639C77.244 109.533 77.4845 109.48 77.7543 109.48C78.0211 109.48 78.2594 109.533 78.4692 109.639C78.6791 109.746 78.8439 109.891 78.9638 110.076C79.0852 110.26 79.1467 110.469 79.1482 110.703C79.1467 110.947 79.08 111.165 78.9481 111.357C78.8177 111.547 78.6446 111.671 78.4288 111.728V111.755C78.5951 111.785 78.745 111.856 78.8784 111.969C79.0118 112.08 79.1182 112.218 79.1976 112.385C79.2771 112.549 79.3175 112.729 79.319 112.924C79.3175 113.173 79.2501 113.395 79.1167 113.59C78.9848 113.783 78.8012 113.935 78.5659 114.046C78.3321 114.155 78.0616 114.21 77.7543 114.21ZM77.7543 113.715C77.9626 113.715 78.1425 113.682 78.2939 113.614C78.4452 113.547 78.5621 113.452 78.6446 113.329C78.727 113.206 78.769 113.062 78.7705 112.897C78.769 112.723 78.724 112.57 78.6356 112.436C78.5472 112.303 78.4265 112.198 78.2736 112.121C78.1223 112.045 77.9491 112.007 77.7543 112.007C77.558 112.007 77.3826 112.045 77.2282 112.121C77.0753 112.198 76.9547 112.303 76.8663 112.436C76.7793 112.57 76.7366 112.723 76.7381 112.897C76.7366 113.062 76.7763 113.206 76.8573 113.329C76.9397 113.452 77.0574 113.547 77.2102 113.614C77.3631 113.682 77.5445 113.715 77.7543 113.715ZM77.7543 111.53C77.9192 111.53 78.0653 111.497 78.1927 111.431C78.3216 111.365 78.4228 111.273 78.4962 111.155C78.5696 111.036 78.6071 110.898 78.6086 110.739C78.6071 110.583 78.5704 110.447 78.4984 110.332C78.4265 110.215 78.3268 110.125 78.1994 110.062C78.072 109.998 77.9237 109.965 77.7543 109.965C77.5819 109.965 77.4313 109.998 77.3024 110.062C77.1735 110.125 77.0739 110.215 77.0034 110.332C76.933 110.447 76.8985 110.583 76.9 110.739C76.8985 110.898 76.9337 111.036 77.0057 111.155C77.0791 111.273 77.1803 111.365 77.3092 111.431C77.4381 111.497 77.5864 111.53 77.7543 111.53Z" fill="#163A53"/>
<path d="M94.1524 114.147V113.742L95.6722 112.079C95.8505 111.884 95.9974 111.715 96.1128 111.571C96.2282 111.425 96.3136 111.289 96.3691 111.162C96.4261 111.033 96.4545 110.898 96.4545 110.757C96.4545 110.595 96.4156 110.455 96.3376 110.336C96.2612 110.218 96.1563 110.127 96.0229 110.062C95.8895 109.998 95.7396 109.965 95.5732 109.965C95.3964 109.965 95.242 110.002 95.1101 110.076C94.9797 110.148 94.8786 110.249 94.8066 110.379C94.7362 110.51 94.701 110.662 94.701 110.838H94.1704C94.1704 110.568 94.2326 110.331 94.357 110.127C94.4814 109.924 94.6507 109.765 94.8651 109.651C95.0809 109.537 95.3229 109.48 95.5912 109.48C95.861 109.48 96.1001 109.537 96.3084 109.651C96.5167 109.765 96.6801 109.918 96.7985 110.112C96.9169 110.305 96.9761 110.52 96.9761 110.757C96.9761 110.926 96.9454 111.092 96.8839 111.254C96.824 111.414 96.7191 111.593 96.5692 111.791C96.4208 111.987 96.2147 112.227 95.9509 112.51L94.9168 113.617V113.652H97.057V114.147H94.1524ZM99.4514 109.48C99.6402 109.481 99.8291 109.517 100.018 109.588C100.207 109.658 100.379 109.775 100.535 109.938C100.691 110.1 100.816 110.321 100.91 110.602C101.005 110.882 101.052 111.233 101.052 111.656C101.052 112.065 101.013 112.429 100.935 112.746C100.859 113.063 100.748 113.33 100.602 113.547C100.459 113.764 100.283 113.929 100.076 114.041C99.871 114.154 99.6387 114.21 99.3794 114.21C99.1216 114.21 98.8916 114.159 98.6892 114.057C98.4884 113.954 98.3235 113.811 98.1946 113.628C98.0672 113.443 97.9855 113.23 97.9496 112.987H98.4981C98.5476 113.198 98.6458 113.373 98.7926 113.511C98.941 113.647 99.1366 113.715 99.3794 113.715C99.7346 113.715 100.015 113.56 100.22 113.25C100.427 112.94 100.53 112.501 100.53 111.935H100.495C100.411 112.061 100.311 112.169 100.196 112.261C100.08 112.352 99.952 112.423 99.8111 112.472C99.6702 112.522 99.5203 112.546 99.3614 112.546C99.0976 112.546 98.8556 112.481 98.6353 112.351C98.4164 112.219 98.2411 112.038 98.1092 111.809C97.9788 111.578 97.9136 111.314 97.9136 111.018C97.9136 110.736 97.9766 110.478 98.1025 110.244C98.2299 110.009 98.4082 109.822 98.6375 109.682C98.8683 109.543 99.1396 109.475 99.4514 109.48ZM99.4514 109.974C99.2625 109.974 99.0924 110.022 98.941 110.116C98.7911 110.209 98.672 110.335 98.5836 110.494C98.4966 110.651 98.4532 110.826 98.4532 111.018C98.4532 111.209 98.4951 111.384 98.5791 111.541C98.6645 111.697 98.7807 111.822 98.9275 111.915C99.0759 112.006 99.2445 112.052 99.4334 112.052C99.5758 112.052 99.7084 112.024 99.8313 111.969C99.9542 111.912 100.061 111.834 100.153 111.737C100.246 111.638 100.318 111.526 100.371 111.402C100.423 111.276 100.45 111.145 100.45 111.009C100.45 110.829 100.406 110.66 100.319 110.503C100.234 110.345 100.115 110.218 99.9639 110.121C99.8141 110.023 99.6432 109.974 99.4514 109.974Z" fill="#163A53"/>
<path d="M117.414 114.21C117.117 114.21 116.853 114.159 116.621 114.057C116.39 113.955 116.206 113.814 116.07 113.632C115.935 113.449 115.861 113.237 115.849 112.996H116.416C116.428 113.144 116.479 113.273 116.569 113.38C116.659 113.487 116.776 113.569 116.922 113.628C117.067 113.686 117.228 113.715 117.405 113.715C117.603 113.715 117.778 113.681 117.931 113.612C118.084 113.543 118.204 113.447 118.291 113.324C118.378 113.201 118.421 113.059 118.421 112.897C118.421 112.728 118.379 112.579 118.295 112.45C118.212 112.319 118.089 112.217 117.927 112.144C117.765 112.071 117.567 112.034 117.333 112.034H116.965V111.539H117.333C117.516 111.539 117.676 111.506 117.814 111.44C117.954 111.374 118.062 111.281 118.14 111.162C118.22 111.042 118.26 110.901 118.26 110.739C118.26 110.583 118.225 110.447 118.156 110.332C118.087 110.217 117.99 110.127 117.864 110.062C117.739 109.998 117.593 109.965 117.423 109.965C117.264 109.965 117.114 109.995 116.974 110.053C116.834 110.11 116.72 110.193 116.632 110.303C116.543 110.411 116.495 110.541 116.488 110.694H115.948C115.957 110.453 116.03 110.241 116.166 110.06C116.303 109.877 116.481 109.735 116.702 109.633C116.923 109.531 117.167 109.48 117.432 109.48C117.717 109.48 117.961 109.538 118.165 109.653C118.369 109.767 118.526 109.918 118.635 110.105C118.744 110.292 118.799 110.495 118.799 110.712C118.799 110.971 118.731 111.192 118.594 111.375C118.46 111.558 118.276 111.685 118.044 111.755V111.791C118.334 111.839 118.562 111.963 118.725 112.162C118.888 112.36 118.97 112.605 118.97 112.897C118.97 113.147 118.902 113.372 118.765 113.572C118.63 113.769 118.446 113.925 118.212 114.039C117.978 114.153 117.712 114.21 117.414 114.21ZM121.391 114.21C121.053 114.21 120.764 114.118 120.526 113.934C120.287 113.748 120.105 113.479 119.979 113.126C119.853 112.773 119.791 112.346 119.791 111.845C119.791 111.347 119.853 110.922 119.979 110.57C120.107 110.217 120.29 109.947 120.528 109.761C120.768 109.574 121.055 109.48 121.391 109.48C121.727 109.48 122.014 109.574 122.252 109.761C122.492 109.947 122.675 110.217 122.801 110.57C122.928 110.922 122.992 111.347 122.992 111.845C122.992 112.346 122.929 112.773 122.803 113.126C122.677 113.479 122.495 113.748 122.257 113.934C122.018 114.118 121.73 114.21 121.391 114.21ZM121.391 113.715C121.727 113.715 121.988 113.554 122.174 113.23C122.359 112.906 122.452 112.444 122.452 111.845C122.452 111.446 122.41 111.107 122.324 110.827C122.24 110.546 122.119 110.333 121.96 110.186C121.803 110.039 121.613 109.965 121.391 109.965C121.058 109.965 120.798 110.13 120.611 110.458C120.424 110.785 120.33 111.247 120.33 111.845C120.33 112.244 120.372 112.582 120.456 112.861C120.54 113.14 120.661 113.352 120.818 113.497C120.977 113.643 121.168 113.715 121.391 113.715Z" fill="#163A53"/>
<path d="M139.62 114.21C139.323 114.21 139.059 114.159 138.827 114.057C138.596 113.955 138.412 113.814 138.276 113.632C138.141 113.449 138.068 113.237 138.056 112.996H138.622C138.634 113.144 138.685 113.273 138.775 113.38C138.865 113.487 138.983 113.569 139.128 113.628C139.273 113.686 139.434 113.715 139.611 113.715C139.809 113.715 139.984 113.681 140.137 113.612C140.29 113.543 140.41 113.447 140.497 113.324C140.584 113.201 140.627 113.059 140.627 112.897C140.627 112.728 140.585 112.579 140.502 112.45C140.418 112.319 140.295 112.217 140.133 112.144C139.971 112.071 139.773 112.034 139.539 112.034H139.171V111.539H139.539C139.722 111.539 139.883 111.506 140.02 111.44C140.16 111.374 140.268 111.281 140.346 111.162C140.426 111.042 140.466 110.901 140.466 110.739C140.466 110.583 140.431 110.447 140.362 110.332C140.293 110.217 140.196 110.127 140.07 110.062C139.945 109.998 139.799 109.965 139.629 109.965C139.47 109.965 139.32 109.995 139.18 110.053C139.04 110.11 138.926 110.193 138.838 110.303C138.749 110.411 138.701 110.541 138.694 110.694H138.154C138.163 110.453 138.236 110.241 138.373 110.06C138.509 109.877 138.687 109.735 138.908 109.633C139.129 109.531 139.373 109.48 139.638 109.48C139.923 109.48 140.167 109.538 140.371 109.653C140.575 109.767 140.732 109.918 140.841 110.105C140.95 110.292 141.005 110.495 141.005 110.712C141.005 110.971 140.937 111.192 140.801 111.375C140.666 111.558 140.482 111.685 140.25 111.755V111.791C140.541 111.839 140.768 111.963 140.931 112.162C141.094 112.36 141.176 112.605 141.176 112.897C141.176 113.147 141.108 113.372 140.971 113.572C140.837 113.769 140.652 113.925 140.418 114.039C140.185 114.153 139.919 114.21 139.62 114.21ZM143.714 109.543V114.147H143.157V110.127H143.13L142.006 110.874V110.307L143.157 109.543H143.714Z" fill="#163A53"/>
</g>
</g>
<defs>
<clipPath id="clip0_561_922">
<path d="M0 0H151.941V123H0V0Z" fill="white"/>
</clipPath>
<clipPath id="clip1_561_922">
<rect width="151.941" height="14.4706" fill="white"/>
</clipPath>
<clipPath id="clip2_561_922">
<rect width="151.941" height="21.7059" fill="white" transform="translate(0 14.4706)"/>
</clipPath>
<clipPath id="clip3_561_922">
<rect width="151.941" height="21.7059" fill="white" transform="translate(0 36.1765)"/>
</clipPath>
<clipPath id="clip4_561_922">
<rect width="151.941" height="21.7059" fill="white" transform="translate(0 57.8823)"/>
</clipPath>
<clipPath id="clip5_561_922">
<rect width="151.941" height="21.7059" fill="white" transform="translate(0 79.5883)"/>
</clipPath>
<clipPath id="clip6_561_922">
<rect width="151.941" height="21.7059" fill="white" transform="translate(0 101.294)"/>
</clipPath>
</defs>
</svg>
