<svg width="71" height="71" viewBox="0 0 71 71" fill="none" xmlns="http://www.w3.org/2000/svg">
<circle cx="35.5" cy="35.5" r="35.5" fill="#256864"/>
<path d="M17.3712 44.2393L16.1879 47.3633H15.7571L14.5691 44.2393H14.9761L15.7713 46.3977L15.9701 47.0177L16.1689 46.4024L16.9641 44.2393H17.3712ZM18.7085 44.9493C18.9326 44.9493 19.1298 44.9982 19.3002 45.096C19.4738 45.1938 19.6095 45.3358 19.7073 45.522C19.8051 45.705 19.854 45.9243 19.854 46.1799C19.854 46.4355 19.8051 46.6564 19.7073 46.8426C19.6095 47.0256 19.4738 47.1661 19.3002 47.2639C19.1298 47.3617 18.9326 47.4106 18.7085 47.4106C18.4877 47.4106 18.2904 47.3617 18.1169 47.2639C17.9433 47.1661 17.8076 47.0256 17.7098 46.8426C17.612 46.6564 17.5631 46.4355 17.5631 46.1799C17.5631 45.9243 17.612 45.705 17.7098 45.522C17.8076 45.3358 17.9433 45.1938 18.1169 45.096C18.2904 44.9982 18.4877 44.9493 18.7085 44.9493ZM18.7085 45.2759C18.5476 45.2759 18.4103 45.3122 18.2967 45.3847C18.1831 45.4573 18.0948 45.5615 18.0317 45.6971C17.9717 45.8297 17.9417 45.9906 17.9417 46.1799C17.9417 46.3661 17.9717 46.5271 18.0317 46.6627C18.0948 46.7984 18.1831 46.9026 18.2967 46.9751C18.4103 47.0477 18.5476 47.084 18.7085 47.084C18.8695 47.084 19.0067 47.0477 19.1203 46.9751C19.2339 46.9026 19.3207 46.7984 19.3807 46.6627C19.4438 46.5271 19.4753 46.3661 19.4753 46.1799C19.4753 45.9906 19.4438 45.8297 19.3807 45.6971C19.3207 45.5615 19.2339 45.4573 19.1203 45.3847C19.0067 45.3122 18.8695 45.2759 18.7085 45.2759ZM20.7562 44.5422C20.671 44.5422 20.6016 44.517 20.548 44.4665C20.4975 44.4128 20.4722 44.3434 20.4722 44.2582C20.4722 44.173 20.4975 44.1052 20.548 44.0547C20.6016 44.001 20.671 43.9742 20.7562 43.9742C20.8414 43.9742 20.9093 44.001 20.9598 44.0547C21.0134 44.1052 21.0402 44.173 21.0402 44.2582C21.0402 44.3434 21.0134 44.4128 20.9598 44.4665C20.9093 44.517 20.8414 44.5422 20.7562 44.5422ZM20.9456 44.9966V47.3633H20.5669V44.9966H20.9456ZM22.6762 47.4106C22.4458 47.4106 22.2328 47.3617 22.0372 47.2639C21.8447 47.1661 21.6964 47.0272 21.5923 46.8473L21.9141 46.6154C21.9835 46.7606 22.0845 46.8742 22.2171 46.9562C22.3527 47.0383 22.5153 47.0793 22.7046 47.0793C22.8718 47.0793 23.0028 47.0477 23.0975 46.9846C23.1921 46.9183 23.2395 46.8331 23.2395 46.729C23.2395 46.6627 23.2174 46.6028 23.1732 46.5491C23.1322 46.4923 23.0517 46.4513 22.9318 46.4261L22.3638 46.3077C22.1334 46.2604 21.9678 46.1815 21.8668 46.0711C21.769 45.9606 21.7201 45.8234 21.7201 45.6593C21.7201 45.5299 21.7563 45.4116 21.8289 45.3043C21.9047 45.197 22.0104 45.1118 22.1461 45.0487C22.2849 44.9824 22.4474 44.9493 22.6336 44.9493C22.8671 44.9493 23.0643 44.995 23.2253 45.0865C23.3862 45.1781 23.5061 45.3074 23.585 45.4747L23.2679 45.6829C23.2142 45.5441 23.1274 45.4431 23.0075 45.38C22.8876 45.3137 22.763 45.2806 22.6336 45.2806C22.52 45.2806 22.4222 45.2964 22.3401 45.3279C22.2612 45.3595 22.1997 45.4037 22.1555 45.4605C22.1145 45.5141 22.094 45.5757 22.094 45.6451C22.094 45.7145 22.1177 45.7792 22.165 45.8391C22.2123 45.8959 22.3007 45.937 22.4301 45.9622L23.0217 46.0853C23.2426 46.1295 23.3972 46.202 23.4856 46.303C23.5739 46.404 23.6181 46.5271 23.6181 46.6722C23.6181 46.8205 23.5787 46.9515 23.4998 47.0651C23.4209 47.1755 23.3105 47.2607 23.1685 47.3207C23.0265 47.3806 22.8624 47.4106 22.6762 47.4106ZM24.5096 44.5422C24.4244 44.5422 24.355 44.517 24.3013 44.4665C24.2509 44.4128 24.2256 44.3434 24.2256 44.2582C24.2256 44.173 24.2509 44.1052 24.3013 44.0547C24.355 44.001 24.4244 43.9742 24.5096 43.9742C24.5948 43.9742 24.6627 44.001 24.7131 44.0547C24.7668 44.1052 24.7936 44.173 24.7936 44.2582C24.7936 44.3434 24.7668 44.4128 24.7131 44.4665C24.6627 44.517 24.5948 44.5422 24.5096 44.5422ZM24.6989 44.9966V47.3633H24.3203V44.9966H24.6989ZM25.5776 47.3633V44.9966H25.9089L25.942 45.5267L25.8805 45.4747C25.931 45.3485 25.9988 45.2475 26.084 45.1717C26.1692 45.0929 26.2671 45.0361 26.3775 45.0013C26.4911 44.9666 26.6079 44.9493 26.7278 44.9493C26.8982 44.9493 27.0528 44.9824 27.1916 45.0487C27.3305 45.1118 27.4409 45.2096 27.523 45.3421C27.6082 45.4747 27.6508 45.6435 27.6508 45.8486V47.3633H27.2721V45.9811C27.2721 45.7192 27.2153 45.5378 27.1017 45.4368C26.9913 45.3327 26.854 45.2806 26.6899 45.2806C26.5763 45.2806 26.4627 45.3074 26.3491 45.3611C26.2355 45.4147 26.1408 45.5015 26.0651 45.6214C25.9925 45.7413 25.9562 45.9023 25.9562 46.1042V47.3633H25.5776ZM29.3602 47.4106C29.1298 47.4106 28.9168 47.3617 28.7212 47.2639C28.5287 47.1661 28.3804 47.0272 28.2762 46.8473L28.5981 46.6154C28.6675 46.7606 28.7685 46.8742 28.901 46.9562C29.0367 47.0383 29.1992 47.0793 29.3886 47.0793C29.5558 47.0793 29.6868 47.0477 29.7814 46.9846C29.8761 46.9183 29.9234 46.8331 29.9234 46.729C29.9234 46.6627 29.9013 46.6028 29.8572 46.5491C29.8161 46.4923 29.7357 46.4513 29.6158 46.4261L29.0478 46.3077C28.8174 46.2604 28.6517 46.1815 28.5508 46.0711C28.4529 45.9606 28.404 45.8234 28.404 45.6593C28.404 45.5299 28.4403 45.4116 28.5129 45.3043C28.5886 45.197 28.6943 45.1118 28.83 45.0487C28.9689 44.9824 29.1314 44.9493 29.3176 44.9493C29.5511 44.9493 29.7483 44.995 29.9092 45.0865C30.0702 45.1781 30.1901 45.3074 30.269 45.4747L29.9518 45.6829C29.8982 45.5441 29.8114 45.4431 29.6915 45.38C29.5716 45.3137 29.4469 45.2806 29.3176 45.2806C29.204 45.2806 29.1061 45.2964 29.0241 45.3279C28.9452 45.3595 28.8837 45.4037 28.8395 45.4605C28.7985 45.5141 28.778 45.5757 28.778 45.6451C28.778 45.7145 28.8016 45.7792 28.849 45.8391C28.8963 45.8959 28.9847 45.937 29.114 45.9622L29.7057 46.0853C29.9266 46.1295 30.0812 46.202 30.1696 46.303C30.2579 46.404 30.3021 46.5271 30.3021 46.6722C30.3021 46.8205 30.2627 46.9515 30.1838 47.0651C30.1049 47.1755 29.9944 47.2607 29.8524 47.3207C29.7104 47.3806 29.5463 47.4106 29.3602 47.4106ZM34.9887 47.3633H34.5864L34.255 46.4971H32.8398L32.5084 47.3633H32.1108L33.3273 44.2393H33.777L34.9887 47.3633ZM32.977 46.1421H34.1178L33.545 44.6037L32.977 46.1421ZM35.5527 47.3633V44.9966H35.884L35.9172 45.5267L35.8556 45.4747C35.9061 45.3485 35.974 45.2475 36.0592 45.1717C36.1444 45.0929 36.2422 45.0361 36.3526 45.0013C36.4662 44.9666 36.583 44.9493 36.7029 44.9493C36.8733 44.9493 37.0279 44.9824 37.1668 45.0487C37.3056 45.1118 37.4161 45.2096 37.4981 45.3421C37.5833 45.4747 37.6259 45.6435 37.6259 45.8486V47.3633H37.2472V45.9811C37.2472 45.7192 37.1904 45.5378 37.0768 45.4368C36.9664 45.3327 36.8291 45.2806 36.665 45.2806C36.5514 45.2806 36.4378 45.3074 36.3242 45.3611C36.2106 45.4147 36.116 45.5015 36.0402 45.6214C35.9677 45.7413 35.9314 45.9023 35.9314 46.1042V47.3633H35.5527ZM39.0095 44.3245V46.7101C39.0095 46.8268 39.0426 46.9136 39.1089 46.9704C39.1751 47.0272 39.2603 47.0556 39.3645 47.0556C39.456 47.0556 39.5349 47.0398 39.6011 47.0083C39.6674 46.9767 39.7274 46.9341 39.781 46.8805L39.9135 47.1976C39.841 47.2639 39.7542 47.3159 39.6532 47.3538C39.5554 47.3917 39.4418 47.4106 39.3124 47.4106C39.1925 47.4106 39.0805 47.3901 38.9763 47.3491C38.8722 47.3049 38.7886 47.2371 38.7255 47.1455C38.6655 47.0509 38.634 46.9278 38.6308 46.7763V44.4286L39.0095 44.3245ZM39.8709 44.9966V45.3232H38.1575V44.9966H39.8709ZM40.6233 44.5422C40.5381 44.5422 40.4687 44.517 40.415 44.4665C40.3645 44.4128 40.3393 44.3434 40.3393 44.2582C40.3393 44.173 40.3645 44.1052 40.415 44.0547C40.4687 44.001 40.5381 43.9742 40.6233 43.9742C40.7085 43.9742 40.7763 44.001 40.8268 44.0547C40.8805 44.1052 40.9073 44.173 40.9073 44.2582C40.9073 44.3434 40.8805 44.4128 40.8268 44.4665C40.7763 44.517 40.7085 44.5422 40.6233 44.5422ZM40.8126 44.9966V47.3633H40.434V44.9966H40.8126ZM43.239 45.9291V46.3219H41.677V45.9291H43.239ZM45.4342 47.4106C45.1376 47.4106 44.8804 47.3459 44.6627 47.2165C44.4481 47.084 44.2808 46.8978 44.1609 46.658C44.0442 46.4182 43.9858 46.1326 43.9858 45.8013C43.9858 45.4699 44.0473 45.1844 44.1704 44.9445C44.2966 44.7047 44.4718 44.5201 44.6958 44.3907C44.9198 44.2582 45.177 44.1919 45.4673 44.1919C45.7766 44.1919 46.0274 44.2503 46.2199 44.3671C46.4156 44.4838 46.5734 44.6637 46.6933 44.9067L46.3477 45.096C46.2783 44.9161 46.1679 44.7805 46.0164 44.6889C45.8681 44.5943 45.6851 44.5469 45.4673 44.5469C45.2559 44.5469 45.0682 44.5974 44.9041 44.6984C44.7431 44.7962 44.6153 44.9398 44.5207 45.1291C44.4292 45.3153 44.3834 45.5394 44.3834 45.8013C44.3834 46.0632 44.4228 46.2888 44.5017 46.4781C44.5838 46.6643 44.7037 46.8079 44.8615 46.9089C45.0224 47.0067 45.218 47.0556 45.4484 47.0556C45.5778 47.0556 45.6977 47.0398 45.8081 47.0083C45.9217 46.9736 46.0196 46.9231 46.1016 46.8568C46.1868 46.7905 46.2531 46.7069 46.3004 46.6059C46.3477 46.505 46.3714 46.3866 46.3714 46.2509V46.1421H45.3774V45.7871H46.7169V47.3633H46.4187L46.3998 46.7811L46.4803 46.7953C46.3982 46.9909 46.2688 47.1424 46.0921 47.2497C45.9154 47.357 45.6961 47.4106 45.4342 47.4106ZM48.9115 45.8344C48.9115 45.6577 48.8641 45.522 48.7695 45.4273C48.6748 45.3295 48.5407 45.2806 48.3671 45.2806C48.203 45.2806 48.0642 45.3169 47.9506 45.3895C47.837 45.4589 47.7534 45.5725 47.6997 45.7303L47.3921 45.5409C47.4552 45.3642 47.5719 45.2222 47.7423 45.1149C47.9127 45.0045 48.1242 44.9493 48.3766 44.9493C48.547 44.9493 48.7016 44.9793 48.8405 45.0392C48.9793 45.096 49.0882 45.1844 49.1671 45.3043C49.2491 45.421 49.2901 45.5725 49.2901 45.7587V46.9041C49.2901 47.0177 49.3501 47.0745 49.47 47.0745C49.53 47.0745 49.5883 47.0667 49.6451 47.0509L49.6262 47.3491C49.5631 47.3806 49.481 47.3964 49.3801 47.3964C49.2886 47.3964 49.2065 47.3791 49.1339 47.3443C49.0614 47.3096 49.0046 47.2576 48.9635 47.1881C48.9225 47.1156 48.902 47.0256 48.902 46.9183V46.871L48.9967 46.8852C48.9588 47.0083 48.8941 47.1093 48.8026 47.1881C48.7111 47.2639 48.6085 47.3207 48.4949 47.3585C48.3813 47.3933 48.2693 47.4106 48.1589 47.4106C48.02 47.4106 47.8906 47.3869 47.7707 47.3396C47.6508 47.2923 47.5546 47.2213 47.482 47.1266C47.4126 47.0288 47.3779 46.9089 47.3779 46.7669C47.3779 46.5902 47.4362 46.445 47.553 46.3314C47.6729 46.2147 47.8386 46.1358 48.05 46.0947L48.9872 45.9101V46.2225L48.2251 46.3787C48.0705 46.4103 47.9553 46.4545 47.8796 46.5113C47.8039 46.5681 47.766 46.647 47.766 46.7479C47.766 46.8458 47.8039 46.9262 47.8796 46.9893C47.9585 47.0493 48.0689 47.0793 48.2109 47.0793C48.3024 47.0793 48.3892 47.0682 48.4713 47.0461C48.5565 47.0209 48.6322 46.9846 48.6985 46.9373C48.7647 46.8868 48.8168 46.8253 48.8547 46.7527C48.8925 46.6769 48.9115 46.5886 48.9115 46.4876V45.8344ZM51.0623 47.4106C50.832 47.4106 50.619 47.3617 50.4233 47.2639C50.2308 47.1661 50.0825 47.0272 49.9784 46.8473L50.3003 46.6154C50.3697 46.7606 50.4707 46.8742 50.6032 46.9562C50.7389 47.0383 50.9014 47.0793 51.0907 47.0793C51.258 47.0793 51.3889 47.0477 51.4836 46.9846C51.5783 46.9183 51.6256 46.8331 51.6256 46.729C51.6256 46.6627 51.6035 46.6028 51.5593 46.5491C51.5183 46.4923 51.4378 46.4513 51.3179 46.4261L50.7499 46.3077C50.5196 46.2604 50.3539 46.1815 50.2529 46.0711C50.1551 45.9606 50.1062 45.8234 50.1062 45.6593C50.1062 45.5299 50.1425 45.4116 50.2151 45.3043C50.2908 45.197 50.3965 45.1118 50.5322 45.0487C50.671 44.9824 50.8335 44.9493 51.0197 44.9493C51.2532 44.9493 51.4505 44.995 51.6114 45.0865C51.7723 45.1781 51.8922 45.3074 51.9711 45.4747L51.654 45.6829C51.6003 45.5441 51.5136 45.4431 51.3937 45.38C51.2737 45.3137 51.1491 45.2806 51.0197 45.2806C50.9061 45.2806 50.8083 45.2964 50.7263 45.3279C50.6474 45.3595 50.5858 45.4037 50.5417 45.4605C50.5006 45.5141 50.4801 45.5757 50.4801 45.6451C50.4801 45.7145 50.5038 45.7792 50.5511 45.8391C50.5985 45.8959 50.6868 45.937 50.8162 45.9622L51.4079 46.0853C51.6287 46.1295 51.7834 46.202 51.8717 46.303C51.9601 46.404 52.0043 46.5271 52.0043 46.6722C52.0043 46.8205 51.9648 46.9515 51.8859 47.0651C51.807 47.1755 51.6966 47.2607 51.5546 47.3207C51.4126 47.3806 51.2485 47.4106 51.0623 47.4106ZM52.7064 48.3573V44.9966H53.0377L53.0709 45.5741L53.0188 45.5078C53.0598 45.3974 53.1214 45.3011 53.2034 45.2191C53.2855 45.1339 53.3849 45.0676 53.5016 45.0203C53.6184 44.9729 53.7446 44.9493 53.8803 44.9493C54.0728 44.9493 54.2495 44.9982 54.4104 45.096C54.5745 45.1938 54.7055 45.3343 54.8033 45.5173C54.9011 45.7003 54.95 45.9212 54.95 46.1799C54.95 46.4355 54.8995 46.6564 54.7985 46.8426C54.7007 47.0256 54.5698 47.1661 54.4057 47.2639C54.2416 47.3617 54.0617 47.4106 53.8661 47.4106C53.6704 47.4106 53.4985 47.3633 53.3501 47.2686C53.205 47.1708 53.1009 47.0477 53.0377 46.8994L53.0851 46.8284V48.3573H52.7064ZM53.8282 47.0793C54.0617 47.0793 54.2432 46.9972 54.3725 46.8331C54.5051 46.6691 54.5713 46.4513 54.5713 46.1799C54.5713 45.9086 54.5067 45.6908 54.3773 45.5267C54.2511 45.3627 54.0728 45.2806 53.8424 45.2806C53.6909 45.2806 53.5584 45.3185 53.4448 45.3942C53.3312 45.4668 53.2429 45.5709 53.1797 45.7066C53.1166 45.8391 53.0851 45.9969 53.0851 46.1799C53.0851 46.3598 53.1151 46.5176 53.175 46.6533C53.2381 46.789 53.3249 46.8947 53.4353 46.9704C53.5489 47.043 53.6799 47.0793 53.8282 47.0793ZM55.8633 44.5422C55.7781 44.5422 55.7087 44.517 55.6551 44.4665C55.6046 44.4128 55.5793 44.3434 55.5793 44.2582C55.5793 44.173 55.6046 44.1052 55.6551 44.0547C55.7087 44.001 55.7781 43.9742 55.8633 43.9742C55.9485 43.9742 56.0164 44.001 56.0669 44.0547C56.1205 44.1052 56.1473 44.173 56.1473 44.2582C56.1473 44.3434 56.1205 44.4128 56.0669 44.4665C56.0164 44.517 55.9485 44.5422 55.8633 44.5422ZM56.0527 44.9966V47.3633H55.674V44.9966H56.0527Z" fill="#F6ECDE"/>
<mask id="mask0_280_332" style="mask-type:alpha" maskUnits="userSpaceOnUse" x="13" y="22" width="16" height="20">
<rect x="13.4902" y="22.9567" width="15.1467" height="18.46" fill="#DE6A38"/>
</mask>
<g mask="url(#mask0_280_332)">
<path d="M24.0092 27.2886L20.6012 38.1033H17.8142L14.4365 27.2886H17.0569L18.723 33.7259C18.7533 33.837 18.8038 34.044 18.8745 34.3469C18.9452 34.6398 19.0159 34.9528 19.0866 35.286C19.1572 35.6091 19.2027 35.8818 19.2229 36.1039C19.2532 35.8818 19.2986 35.6091 19.3592 35.286C19.4299 34.9629 19.4955 34.6549 19.5561 34.3621C19.6268 34.0591 19.6773 33.8471 19.7076 33.7259L21.3737 27.2886H24.0092Z" fill="#DE6A38"/>
</g>
<mask id="mask1_280_332" style="mask-type:alpha" maskUnits="userSpaceOnUse" x="27" y="22" width="16" height="20">
<rect x="27.4531" y="22.9567" width="15.1467" height="18.46" fill="#DE6A38"/>
</mask>
<g mask="url(#mask1_280_332)">
<path d="M37.0049 38.1033L36.3839 35.5284H32.885L32.2488 38.1033H29.583L33.0364 27.2432H36.187L39.6555 38.1033H37.0049ZM35.1418 31.0904C35.0812 30.8784 35.0207 30.6562 34.9601 30.424C34.8995 30.1917 34.8389 29.9494 34.7783 29.6969C34.7278 29.4445 34.6773 29.187 34.6268 28.9244C34.5865 29.187 34.536 29.4495 34.4754 29.7121C34.4148 29.9645 34.3542 30.2069 34.2936 30.4391C34.2431 30.6714 34.1876 30.8885 34.127 31.0904L33.4303 33.6048H35.8537L35.1418 31.0904Z" fill="#DE6A38"/>
</g>
<mask id="mask2_280_332" style="mask-type:alpha" maskUnits="userSpaceOnUse" x="42" y="22" width="16" height="20">
<rect x="42.8359" y="22.9567" width="15.1467" height="18.46" fill="#DE6A38"/>
</mask>
<g mask="url(#mask2_280_332)">
<path d="M49.8945 32.0296H54.0901V37.6338C53.565 37.8257 52.9895 37.9772 52.3634 38.0882C51.7373 38.1993 51.0557 38.2549 50.3186 38.2549C49.329 38.2549 48.4707 38.0428 47.7437 37.6187C47.0267 37.1946 46.4713 36.5685 46.0775 35.7405C45.6938 34.9125 45.502 33.8926 45.502 32.6809C45.502 31.5499 45.7039 30.5705 46.1078 29.7424C46.5218 28.9144 47.1226 28.2732 47.9103 27.8188C48.708 27.3644 49.6824 27.1372 50.8336 27.1372C51.4193 27.1372 51.9847 27.1978 52.53 27.319C53.0753 27.4401 53.56 27.6017 53.9841 27.8037L53.1965 29.6364C52.8531 29.4647 52.4846 29.3234 52.0908 29.2123C51.6969 29.1012 51.2779 29.0457 50.8336 29.0457C50.2176 29.0457 49.6976 29.1972 49.2735 29.5001C48.8595 29.803 48.5464 30.2322 48.3344 30.7876C48.1324 31.3328 48.0314 31.9791 48.0314 32.7263C48.0314 33.4332 48.1223 34.0592 48.3041 34.6045C48.4858 35.1498 48.7585 35.579 49.122 35.892C49.4855 36.1949 49.945 36.3464 50.5004 36.3464C50.6619 36.3464 50.8184 36.3413 50.9699 36.3312C51.1214 36.311 51.2627 36.2908 51.394 36.2706C51.5354 36.2404 51.6565 36.2151 51.7575 36.1949V33.9381H49.8945V32.0296Z" fill="#DE6A38"/>
</g>
</svg>
